<svg width="1015" height="274" viewBox="0 0 1015 274" fill="none" xmlns="http://www.w3.org/2000/svg">
<path d="M351.28 119L392.496 27.48H424.112L465.328 119H443.056L434.352 99.672H382.256L373.552 119H351.28ZM389.68 83.032H426.928L409.136 43.48H407.472L389.68 83.032ZM485.406 147.8V133.08H524.062C529.182 133.08 531.742 130.477 531.742 125.272V119H503.582C492.147 119 483.23 116.184 476.83 110.552C470.43 104.92 467.23 96.7707 467.23 86.104C467.23 75.352 470.43 67.16 476.83 61.528C483.23 55.896 492.147 53.08 503.582 53.08H550.302V127.576C550.302 133.635 548.553 138.499 545.054 142.168C541.555 145.923 536.094 147.8 528.67 147.8H485.406ZM503.582 104.28H531.742V67.8H503.582C498.035 67.8 493.769 69.336 490.782 72.408C487.881 75.3947 486.43 79.96 486.43 86.104C486.43 92.1627 487.881 96.728 490.782 99.8C493.769 102.787 498.035 104.28 503.582 104.28ZM564.415 119V53.08H614.847C622.271 53.08 627.732 54.9573 631.231 58.712C634.73 62.3813 636.479 67.2453 636.479 73.304V87H617.663V75.608C617.663 70.488 615.103 67.928 609.983 67.928H583.231V119H564.415ZM646.665 119V53.08H665.225V119H646.665ZM646.537 42.2V27.736H665.353V42.2H646.537ZM681.21 119V27.48H701.69V64.984H766.202V27.48H786.682V119H766.202V81.624H701.69V119H681.21ZM802.665 119V53.08H821.225V119H802.665ZM802.537 42.2V27.736H821.353V42.2H802.537ZM835.29 119V53.08H885.722C893.146 53.08 898.607 54.9573 902.106 58.712C905.605 62.3813 907.354 67.2453 907.354 73.304V87H888.538V75.608C888.538 70.488 885.978 67.928 880.858 67.928H854.106V119H835.29ZM953.832 119.64C942.397 119.64 933.48 116.824 927.08 111.192C920.68 105.475 917.48 97.112 917.48 86.104C917.48 75.0107 920.68 66.648 927.08 61.016C933.48 55.2987 942.397 52.44 953.832 52.44H985.832C993.341 52.44 999.059 54.232 1002.98 57.816C1006.99 61.3147 1009 66.3493 1009 72.92C1009 86.3173 1001.28 93.016 985.832 93.016H937.448C939.24 100.952 944.701 104.92 953.832 104.92H1005.67V119.64H953.832ZM953.832 67.16C945.043 67.16 939.624 70.872 937.576 78.296H984.936C986.643 78.296 987.965 77.784 988.904 76.76C989.928 75.736 990.44 74.328 990.44 72.536C990.44 68.952 988.605 67.16 984.936 67.16H953.832ZM356.016 273.64V257L429.616 257.128C433.371 257.128 436.229 256.275 438.192 254.568C440.24 252.776 441.264 249.917 441.264 245.992C441.264 242.067 440.24 239.251 438.192 237.544C436.229 235.752 433.371 234.856 429.616 234.856H383.792C374.32 234.856 366.939 232.595 361.648 228.072C356.443 223.464 353.84 216.723 353.84 207.848C353.84 198.973 356.443 192.275 361.648 187.752C366.939 183.144 374.32 180.84 383.792 180.84H455.728V197.48L385.968 197.352C382.299 197.352 379.44 198.205 377.392 199.912C375.344 201.533 374.32 204.179 374.32 207.848C374.32 211.517 375.344 214.205 377.392 215.912C379.44 217.533 382.299 218.344 385.968 218.344H431.792C441.264 218.344 448.603 220.691 453.808 225.384C459.099 229.992 461.744 236.861 461.744 245.992C461.744 255.037 459.099 261.907 453.808 266.6C448.603 271.293 441.264 273.64 431.792 273.64H356.016ZM506.457 273.64C495.022 273.64 486.105 270.824 479.705 265.192C473.305 259.475 470.105 251.112 470.105 240.104C470.105 229.011 473.305 220.648 479.705 215.016C486.105 209.299 495.022 206.44 506.457 206.44H530.137C541.572 206.44 550.489 209.299 556.889 215.016C563.289 220.648 566.489 229.011 566.489 240.104C566.489 251.112 563.289 259.475 556.889 265.192C550.489 270.824 541.572 273.64 530.137 273.64H506.457ZM506.457 258.92H530.137C535.684 258.92 539.908 257.384 542.809 254.312C545.796 251.24 547.289 246.504 547.289 240.104C547.289 233.619 545.796 228.84 542.809 225.768C539.908 222.696 535.684 221.16 530.137 221.16H506.457C500.91 221.16 496.644 222.696 493.657 225.768C490.756 228.84 489.305 233.619 489.305 240.104C489.305 246.504 490.756 251.24 493.657 254.312C496.644 257.384 500.91 258.92 506.457 258.92ZM578.04 273V181.48H596.6V273H578.04ZM631.657 273C624.148 273 618.644 271.123 615.145 267.368C611.732 263.613 610.025 258.749 610.025 252.776V207.08H628.585V250.6C628.585 255.72 631.145 258.28 636.265 258.28H662.889C668.009 258.28 670.569 255.72 670.569 250.6V207.08H689.129V252.776C689.129 258.749 687.38 263.613 683.881 267.368C680.468 271.123 675.006 273 667.497 273H631.657ZM736.844 273C729.42 273 723.959 271.165 720.46 267.496C716.961 263.741 715.212 258.835 715.212 252.776V221.8H696.14V207.08H715.212V186.856H733.772V207.08H761.164V221.8H733.772V250.472C733.772 255.677 736.332 258.28 741.452 258.28H764.748V273H736.844ZM774.29 273V207.08H792.85V273H774.29ZM774.162 196.2V181.736H792.978V196.2H774.162ZM840.707 273.64C829.272 273.64 820.355 270.824 813.955 265.192C807.555 259.475 804.355 251.112 804.355 240.104C804.355 229.011 807.555 220.648 813.955 215.016C820.355 209.299 829.272 206.44 840.707 206.44H864.387C875.822 206.44 884.739 209.299 891.139 215.016C897.539 220.648 900.739 229.011 900.739 240.104C900.739 251.112 897.539 259.475 891.139 265.192C884.739 270.824 875.822 273.64 864.387 273.64H840.707ZM840.707 258.92H864.387C869.934 258.92 874.158 257.384 877.059 254.312C880.046 251.24 881.539 246.504 881.539 240.104C881.539 233.619 880.046 228.84 877.059 225.768C874.158 222.696 869.934 221.16 864.387 221.16H840.707C835.16 221.16 830.894 222.696 827.907 225.768C825.006 228.84 823.555 233.619 823.555 240.104C823.555 246.504 825.006 251.24 827.907 254.312C830.894 257.384 835.16 258.92 840.707 258.92ZM912.29 273V207.08H969.762C977.271 207.08 982.733 208.957 986.146 212.712C989.645 216.381 991.394 221.245 991.394 227.304V273H972.834V229.48C972.834 224.36 970.274 221.8 965.154 221.8H930.85V273H912.29Z" fill="black"/>
<mask id="mask0_95_260" style="mask-type:luminance" maskUnits="userSpaceOnUse" x="0" y="23" width="300" height="250">
<path d="M300 23H0V273H300V23Z" fill="white"/>
</mask>
<g mask="url(#mask0_95_260)">
<path d="M144.193 23L72.6757 273H0L36.6103 145.022L71.5178 23H144.193Z" fill="url(#paint0_linear_95_260)"/>
<path d="M227.631 23L156.113 273H83.4375L120.048 145.022L154.955 23H227.631Z" fill="url(#paint1_linear_95_260)"/>
<path d="M299.999 273H227.358L214.45 227.926V227.89L196.844 166.346L233.181 39.3601L299.999 273Z" fill="url(#paint2_linear_95_260)"/>
<g style="mix-blend-mode:screen" opacity="0.4">
<path d="M134.964 30.3529L9.229 265.647L76.558 30.3529H134.964Z" fill="white"/>
</g>
<g style="mix-blend-mode:screen" opacity="0.4">
<path d="M218.402 30.3529L92.6665 265.647L159.995 30.3529H218.402Z" fill="white"/>
</g>
<g style="mix-blend-mode:multiply" opacity="0.3">
<path d="M233.182 39.3601L214.451 227.908L196.837 166.346L233.182 39.3601Z" fill="black"/>
</g>
<g style="mix-blend-mode:multiply" opacity="0.3">
<path d="M227.631 23L156.113 273H83.4374C95.5613 272.228 107.651 271.897 119.775 271.309L137.927 270.721L154.172 270.312C159.553 249.982 165.104 229.689 170.825 209.434L179.68 178.184L188.739 146.971C194.903 126.199 201.135 105.463 207.572 84.7647C210.841 74.4706 214.042 64.1029 217.414 53.8456C220.786 43.5882 224.089 33.2169 227.631 23Z" fill="black"/>
</g>
<g style="mix-blend-mode:multiply" opacity="0.3">
<path d="M144.193 23L72.6757 273H0C12.124 272.228 24.2139 271.897 36.3378 271.309L54.4897 270.721L70.7345 270.312C76.1153 249.982 81.6665 229.689 87.3879 209.434L96.2425 178.184L105.301 146.971C111.466 126.199 117.698 105.463 124.134 84.7647C127.404 74.4706 130.605 64.1029 133.977 53.8456C137.348 43.5882 140.652 33.2169 144.193 23Z" fill="black"/>
</g>
<g style="mix-blend-mode:multiply" opacity="0.3">
<path d="M124.306 23C115.52 23.989 106.733 24.6176 97.9129 25.0956C93.5197 25.3529 89.1264 25.6103 84.7332 25.7574C81.0892 25.9044 77.4452 26.0515 73.8012 26.125C72.6774 30.4265 71.5535 34.6949 70.3956 38.9926L66.2067 53.9596C64.8445 58.9191 63.3119 63.886 61.8816 68.8493C60.4512 73.8125 58.9528 78.7757 57.4202 83.7022C55.8877 88.6287 54.3892 93.6287 52.7546 98.5184C51.1199 103.408 49.5873 108.371 47.9186 113.261C44.6152 123.04 41.1755 132.71 37.3953 142.305L71.5195 23.0037L124.306 23Z" fill="black"/>
</g>
<g style="mix-blend-mode:multiply" opacity="0.3">
<path d="M208.9 23C199.909 23.989 190.918 24.6176 181.928 25.0956C177.432 25.3848 172.937 25.6054 168.441 25.7574C164.695 25.9044 160.983 26.0515 157.237 26.1581L153.729 39.2868L149.472 54.5809L145.045 69.7978C143.58 74.9118 142.048 79.9449 140.481 84.9816C138.915 90.0184 137.382 95.0919 135.713 100.129C134.045 105.165 132.512 110.206 130.775 115.169C127.438 125.206 123.896 135.169 120.048 145.022L154.955 23H208.9Z" fill="black"/>
</g>
<g style="mix-blend-mode:multiply" opacity="0.3">
<path d="M263.661 271.268C274.593 270.867 285.491 270.533 296.423 270.279C293.801 261.787 291.247 253.294 288.693 244.765C285.764 235.095 282.903 225.388 280.111 215.643C274.423 196.235 268.94 176.713 263.491 157.228L255.488 127.886L247.723 98.4739C245.203 88.6577 242.649 78.8456 240.299 68.9926C237.881 59.1028 235.395 49.2829 233.181 39.3601L299.999 273H227.358C239.448 272.169 251.572 271.824 263.661 271.268Z" fill="black"/>
</g>
</g>
<defs>
<linearGradient id="paint0_linear_95_260" x1="72.0967" y1="25.75" x2="72.0967" y2="276.25" gradientUnits="userSpaceOnUse">
<stop stop-color="#C51616"/>
<stop offset="0.238" stop-color="#CE3312"/>
<stop offset="0.44" stop-color="#D7500F"/>
<stop offset="0.629" stop-color="#E16D0B"/>
<stop offset="0.81" stop-color="#EA8A07"/>
<stop offset="0.983" stop-color="#F3A704"/>
<stop offset="1" stop-color="#FCC400"/>
</linearGradient>
<linearGradient id="paint1_linear_95_260" x1="155.534" y1="25.75" x2="155.534" y2="276.25" gradientUnits="userSpaceOnUse">
<stop stop-color="#C51616"/>
<stop offset="0.238" stop-color="#CE3312"/>
<stop offset="0.44" stop-color="#D7500F"/>
<stop offset="0.629" stop-color="#E16D0B"/>
<stop offset="0.81" stop-color="#EA8A07"/>
<stop offset="0.983" stop-color="#F3A704"/>
<stop offset="1" stop-color="#FCC400"/>
</linearGradient>
<linearGradient id="paint2_linear_95_260" x1="272.869" y1="276.037" x2="159.717" y2="213.968" gradientUnits="userSpaceOnUse">
<stop stop-color="#3E6896"/>
<stop offset="0.247" stop-color="#355881"/>
<stop offset="0.75" stop-color="#1F324E"/>
<stop offset="1" stop-color="#131D32"/>
</linearGradient>
</defs>
</svg>
