<svg xmlns="http://www.w3.org/2000/svg" width="276" height="356" fill="none" viewBox="0 0 276 356">
  <path fill="#000" d="M58.98 196.28h-.15l-.11-.1-1.48-2.72-1.47-2.29-1.45-1.84-1.43-1.41-1.17-.63-1.6-.26-1.93.12-2.63.48-1.07.22-1.87.08-2.76-.3-5.17-.8-5.44-1.23-5.12-1.93-4.57-2.48-4.29-3.1-3.78-3.47-3.25-3.7-2.7-3.94-2.17-4.18-1.49-3.93-1.05-4.12-.63-4.31-.2-4.5.31-4.8.92-4.63 1.45-4.28 2.01-4.13 2.56-3.98 3.11-3.83 2.35-2.42 2.49-2.2 2.61-1.98 2.75-1.75 3.6-1.87 3.8-1.52 4-1.18 4.2-.83 2.91-.33 3.25-.14 7.53.27 1.01.26.41.03.28-.28 2.53-4.52 2.69-4.31 2.86-4.11 3.01-3.91 3.18-3.7 3.34-3.5 3.51-3.3 3.66-3.09 4.09-3.08 4.28-2.85 4.47-2.62 4.65-2.38 4.83-2.15 5.02-1.92 5.2-1.69 5.39-1.46.95-.61.36-1.08.07-5.05.36-4.98.63-4.91.92-4.84 1.74-6.34 2.3-5.86 2.86-5.37 3.43-4.89 3.49-3.83 3.91-3.25 2.95-1.92 3.15-1.64 3.35-1.36 3.55-1.09 3.33-.65 2.97-.09 2.56.47 2.16.99 1.25.96 1.13 1.23 1.36 2.31.37 1.17.17 1.18-.09 1.56-.73 3.48-.89 2.5-.06.11-.98 1.5-1.41 1.38-1.9 1.29-2.78 1.49-2.9 1.55-1.94 1.37-2.34 2.17-2.08 2.31-1.83 2.45-1.56 2.59-1.94 4.35-1.3 4.7-.01.94.66-.67 1.94-2.63 2.18-2.54 2.4-2.46 2.63-2.38 3.15-2.42 3.26-1.99 3.37-1.56 3.49-1.14 2.29-.51 2.29-.32 2.17-.1 2.05.11 1.92.32 2.26.63 2.05.82 1.85 1 1.63 1.18 1.27 1.3.9 1.47.62 2.09.03 2.35-.65 2.82-.57 1.2-.74 1.06-.88.91-1.04.78-2.56 1.16-3.99 1.34-3.1 1.32-2.57 1.47-2.17 1.69-5.9 5.95-.06.09-.01.39.3.25 8.85 2.36 8.41 3.05 4.03 1.78 3.93 1.95 3.81 2.12 3.7 2.3 3.79 2.61 3.67 2.8 3.54 2.99 3.41 3.19 3.3 3.38 3.16 3.57 3.04 3.76 2.92 3.95 2.79 4.35 2.05 4.11.26.36.43.18 2.78.38 6.61-.22 6.26.55 3 .56 2.91.75 2.82.95 2.73 1.13 4.93 2.68 4.61 3.36 4.3 4.04 3.98 4.73 1.87 2.96 1.91 3.98 1.42 3.86.84 3.64.57 5.58-.07 5.35-.72 5.12-1.36 4.9-1.59 3.83-2.02 3.68-2.46 3.52-2.88 3.38-2.76 2.62-3.2 2.45-3.63 2.27-4.08 2.1-2.75 1.13-2.84.88-3.01.65-3.28.45-3.4.23-3.63.01-7.98-.62-.63.08-.52.38-5.06 6.78-.83 1.55-.39 1.6-.03.88-.04 3.62-.35 5.79-.4 3.17-.74 3.28-1.07 3.41-1.42 3.52-1.24 2.47-1.67 2.77-4.62 6.46-4.38 5.04-2.57 2.48-2.74 2.34-3.99 3.06-4.06 2.8-4.13 2.56-4.19 2.31-4.25 2.05-4.33 1.81-4.38 1.56-4.46 1.3-6.94 1.52-5.34.8-5.27.51-5.19.24-5.12-.04-5.04-.32-4.97-.6-4.89-.87-4.81-1.16-4.13-1.23-4.08-1.44-4.02-1.66-3.96-1.87-3.91-2.08-3.85-2.29-3.79-2.51-3.73-2.71-4.61-3.83-3.72-3.62-3.47-3.9-3.21-4.19-2.96-4.47-1.53-2.71-1.3-2.81-1.72-4.96-1.09-5.22-.46-5.48.16-5.75.11-.28.16-.23.06-.22-.19-.13Zm78.45-57.15-2.24-3.27-3.46-4.29-3.75-3.57-4.03-2.85-4.32-2.13-3.56-1.17-3.74-.73-3.91-.29-4.08.14-3.22.4-3.01.62-2.79.85-2.59 1.06-2.53 1.35-2.48 1.66-2.44 1.95-2.39 2.25-2.36 2.64-2.02 2.77-1.67 2.89-1.32 3.03-1.31 4.63-.41 2.81-.12 2.81.33 3.98.9 3.97 1.22 3.42 1.55 3.26 1.76 2.93 2.06 2.77 1.91 2.03 2.42 2.08 3.05 2.23 4.1 2.71.45.29.08.05.33.65-.25.68-2.35 2.25-3.67 3.64-1.93 2.59-1.34 2.75-.94 2.73-.55 2.73-.15 2.73.04.85.34 2.83.63 2.73 1.22 3.32 1.7 3.18 2.17 3.04 2.65 2.9 4.88 4.29 5.28 3.64 5.78 3.04 6.18 2.37 4.58 1.32 4.61 1.04 4.62.77 4.65.48 6.42.23 6.46-.31 6.5-.82 6.54-1.35 4.54-1.28 4.25-1.55 3.94-1.8 3.65-2.07 3.86-2.63 3.56-2.84 3.25-3.07 2.95-3.29 2.27-3.24 1.53-3.33.64-2.23.37-2.32.14-2.52-.11-2.65-.33-2.49-.57-2.35-.81-2.21-1.04-2.07-.39-.63-2-2.57-3.3-3.36-2.53-2.53-.05-.06-.12-.53.32-.44 4.29-2.72 3.66-2.79 2.95-2.75 2.54-2.94 2.12-3.12 1.71-3.3 1.54-4.32.91-4.6.23-3.3-.13-3.26-.5-3.2-.85-3.16-1.22-3.13-1.58-3.09-2-3.08-2.31-2.78-2.47-2.36-2.75-2.09-3.03-1.84-3.31-1.57-3.45-1.19-3.68-.81-3.84-.4-3.91-.01-3.83.41-3.73.81-3.44 1.18-3.21 1.57-4.27 2.84-3.8 3.33-3.32 3.81-2.84 4.3-.41.28-.49-.14-.08-.1Zm100.12-10.43-2.77-.42-2.12-.07-.1.01-.68.44-.14.8.82 3.73.6 3.81.35 3.91.13 4-.11 5-.36 4.77-.63 4.53-.88 4.3.15.93.76.53.05.01 2.2.26 2.13.02 2.07-.21 1.99-.45 2.46-.93 2.35-1.33 1.83-1.43 1.79-1.84 1.61-2.07 1.4-2.28 1.06-2.3.69-2.16.35-2.11-.01-2.07-.42-2.6-.7-2.42-1.02-2.31-1.31-2.1-1.19-1.48-1.35-1.35-3.15-2.27-3.68-1.72-4.17-1.13Zm-194.38 2.23.24-.99-.36-.84-.83-.39-2.67-.05-2.53.24-2.4.55-2.27.84-2.56 1.41-2.12 1.59-1.82 1.73-1.5 1.89-1.2 2.04-.81 1.98-.72 2.83-.23 2.83.11 1.93.34 1.93.56 1.92.79 1.93 1.46 2.6 1.8 2.29 1.47 1.42 1.65 1.26 1.82 1.1 1.99.95 4.6 1.55 4.36.72h.12l.52-.12.43-.31.26-.47.05-.53-.92-5.39-.79-5.4-.29-5.37.06-5.44.4-5.52.75-5.58.24-1.13Z"/>
  <path fill="#000" d="M104.6 169.14c9.14 0 16.55-7.41 16.55-16.55s-7.41-16.55-16.55-16.55-16.55 7.41-16.55 16.55 7.41 16.55 16.55 16.55Zm66.16-.02c9.146 0 16.56-7.414 16.56-16.56 0-9.146-7.414-16.56-16.56-16.56-9.146 0-16.56 7.414-16.56 16.56 0 9.146 7.414 16.56 16.56 16.56Zm-46.228 21.085c5.084-.178 9.078-3.946 8.922-8.417-.156-4.471-4.403-7.951-9.487-7.773-5.083.177-9.078 3.945-8.922 8.416.157 4.471 4.404 7.951 9.487 7.774Zm27.412-.123c4.899-.802 8.279-5.071 7.548-9.535-.731-4.464-5.296-7.432-10.195-6.63-4.9.803-8.28 5.072-7.549 9.535.731 4.464 5.296 7.432 10.196 6.63Zm-45.194 17.607.65-1.96.49-.67.6-.46.67-.23.78-.05 1.85.46 4.79 1.83 4.5 1.41 4.23 1.01 3.95.6 7.48.42 7.41-.31 4.55-.56 4.51-.83 4.49-1.12 4.47-1.39 1.9-.53 1.62-.19 1.32.19.89.55.48.7.36 1.25-.1 1.83-.81 1.94-1.57 1.99-2.13 1.82-4.28 2.73-4.38 2.16-4.46 1.58-4.55 1.01-5.01.44-6.19-.08-5.57-.55-5.08-1.04-4.76-1.55-3.24-1.43-3.23-1.76-2.8-2.15-2.37-2.64-1.25-2.34-.24-1.06.03-1.02ZM57 332.259l.23.07.94.68.73 1.31.48 1.82.28 2.44.01.13.17 3.87-.17 3.01-.54 2.43-.93 1.97-.25.33-.44.35-3.14 1.69-2.71 1.01-3.68.84-3.85.6-4.01.34-4.18.1-3.15-.15-3.18-.43-3.23-.71-3.27-.98-3.89-1.64-3.06-1.8-2.81-2.13-2.59-2.5-2.29-2.78-1.99-3.05-1.65-3.28-1.3-3.46-.93-3.62-.63-4.48-.06-4.44.61-5.02 1.33-4.99 1.17-2.94 1.44-2.79 1.84-2.8 2.16-2.63 2.46-2.45 2.77-2.26 2.86-1.88 2.89-1.47 3.78-1.33 4.13-.85 4.68-.4 5.5.02 3.07.21 2.94.41 2.82.6 2.7.8 2.29.91 1.77 1.04 1.3 1.2.83 1.32.45 1.69.23 3.76-.15 4-.38 2.27-.71 1.93-1.04 1.46-1.26.85-.84.24-.95.04-2.01-.47-2.67-.85-3.13-.65-3.58-.43-4.03-.22-2.37.05-2.27.29-2.17.52-2.07.76-2.04 1.03-1.93 1.29-.97.97-.93 1.43-.77 1.72-.56 1.87-.43 2.6-.06 2.43.33 2.26.7 2.09 1.4 2.37 1.99 2.11.88.71 2.52 1.56 2.92 1.16 3.1.67 3.42.22 3.63-.24 3.83-.71 3.79-1.14 3.76-1.55.92-.35 1.54-.2 1.66.22Zm33.45-1.13-.57.23-.23.57.03 16.7-.25 1.9-.76 1.49-.8.79-1.01.6-1.25.43-1.47.25-4.29.21-4.69-.23-1.97-.47-1.38-.98-.75-1.33-.26-1.76-.24-31.2.15-24.23.3-1.92.83-1.45 1-.8 1.32-.51 2.92-.38 4.28-.03 5.15.18 1.33.6.71.74.53.99.33 1.25.14 1.51.1 15.58.36.89.88.38h18.94l.59-.24.25-.59.07-17.3.25-1.58.69-1.14.93-.64 1.25-.32 3.76-.24 6.09-.09 2.27.32.89.4.72.57.57.73.4.89.31 2.27-.21 55.42-.23 1.92-.79 1.41-1.31.87-1.83.37-5.17.11-5.42-.3-1.26-.29-.94-.61-.7-1.14-.26-1.58-.08-18.21-.3-.71-.71-.3H90.45Zm91.95 14.48-.28-.6-.45-.49-.59-.31-.66-.11h-19.69l-.72.26-.38.66-.87 3.44-.87 2.19-1.1 2.11-.06.1-.99.8-1.61.38-6.03.26-5.29-.2-2-.41-.72-.38-.53-.49-.81-1.23-.39-1.12-.06-1.15.26-1.32 3.68-10.06 1.98-5.19 8.3-22.4 7.3-18.51.51-.87.63-.62.81-.47 2.14-.54 4.96-.34 5.29-.02.97.02 3.5.27 1.25.42.94.59.62.62 1.27 1.73.77 1.47 15.72 40.79 2.75 7.62 1.43 4.9.24 1.97-.14 1.83-.51 1.42-.84.86-.98.34-6.6.46-6.96-.32-1.1-.36-.84-.79-1.89-3.36-1.36-3.85Zm-11.67-31.23-4 12.1-.08.55.11.47.05.1.43.35.75.15 6.98-.01.48-.24.12-.52-.02-.09-4.37-12.86-.17-.16-.22.07-.06.09Zm63.26 9.181-.55-.22-.42.04-.34.49-.09.97.18 13.59-.28 12.31-.26 1.32-.61.87-.68.35-2.74.63-2.89.36-3.05.07-3.2-.2-2.42-.61-.94-.53-.76-.701-.13-.159-.51-.87-.36-1.12-.3-3.01v-50.5l.23-3.24.28-1.14.38-.8.54-.65.92-.75 1.12-.54 1.33-.35 1.53-.15 8.18.01 1.85.4 1.16.69 1.02 1.02 10.13 12.9 11.48 15.04.07.07.27.03.18-.2.31-2.33.02-19.26.06-2.44.22-1.87.42-1.52.61-1.1.82-.61 1.28-.34 5.84-.48 5.48.23 1.06.25.84.47.82.93.53 1.27.75 3.49.38 4.97v41l-.05 4.5-.53 3.78-.67 1.82-1.08 1.34-1.63.89-2.12.32h-4.83l-3.03-.17-1.62-.4-1.32-.76-.16-.14-2.56-2.65-9.3-12.21-9.86-12.37-.5-.981-.5-1.049Z"/>
</svg>
