<svg width="332" height="572" viewBox="0 0 332 572" fill="none" xmlns="http://www.w3.org/2000/svg">
<path d="M211.79 0.269531L113.55 55.1795L116.37 53.2395L120.2 51.0695L207.54 1.93953L209.86 0.819534L211.79 0.269531Z" fill="#228676"/>
<path d="M213.58 0.25L217.28 3.23001L220.92 6.27L223.72 9.59001L225.97 13.2L227.19 15.85L228.16 18.63L228.87 21.55L229.32 24.6L229.33 27.45L229.02 32.66L229.07 33.17L229.25 33.58L230.17 34.6L231.05 35.13L232.08 35.45L232.72 35.82L233.72 36.92L260.14 55.63L260.77 55.95L261.46 56.08L262.16 56.01L262.82 55.74L266.36 53.79L269.75 52.21L272.92 51.05L275.96 50.26L278.84 49.85L281.52 49.82L284.16 50.18L286.57 50.9L288.75 51.94L294.41 55.39L315.05 69.49L315.71 70.07L316.11 70.86L316.24 71.85L316.22 316.89L316.01 318.49L315.34 319.65L314.75 320.11L300.32 328.36L278.29 341.07L274.63 343.27L261.64 350.77L250.1 357.33L239.67 363.55L216.07 377.08L214.09 378.38L212.06 379.6L208.89 381.22L192.81 390.41L188.17 392.85L183.59 394.96L179.07 396.72L174.6 398.14L167.98 400.01L164.55 400.9L161.23 401.51L155.57 402.47L149.87 403.08L147.53 403.27L141.92 404.2L138.67 404.28L130.19 404.37L128.04 404.44L125.93 404.26L124.45 403.97L115.51 403.2L106.67 402.02L97.9402 400.43L89.3202 398.43L81.4202 396.21L73.6102 393.64L65.8902 390.72L58.2602 387.44L58.0002 387.61L31.2102 372.61L30.8502 372.48L30.5102 372.14L30.2902 371.7L29.7902 371.62L29.1202 370.9L28.3401 370.4L27.4402 370.12L27.2702 369.97L20.7102 365.38L15.3401 361.38L15.2402 360.91L14.5702 360.81L13.7602 351.84L13.7402 344.29L14.2202 328.81L14.0901 313.35L13.7002 303.87L13.7602 288.02L13.6602 265.08L14.0502 251.88L14.0901 238.69L13.6602 223L14.1802 214.85L14.1902 177.6L13.8302 168.82L13.7802 167.29L13.9802 166.6L14.2402 145.23L13.7802 123.93L14.1802 111.58L14.9002 110.84L15.3002 110.74L18.1602 109.47L105.97 59.91L109.81 57.64L113.55 55.18L211.79 0.270004L212.09 0.0800018L212.76 0L213.58 0.25ZM114.5 74.09L113.78 74.48L80.5202 93.22L79.5901 93.58L79.2302 94.02V94.12L78.8002 94.36L61.2502 103.67L51.2202 109.34L35.0102 118.88L35.0002 118.89L34.7002 119.28L34.7802 119.77L34.9602 119.96L35.5302 120.06L38.4402 122.34L42.5702 125.63L46.9102 128.59L51.7102 131.35L56.7402 133.74L69.6602 140.22L78.6802 143.96L88.1502 147.08L98.0802 149.55L108.46 151.4L115.2 152.24L121.89 152.78L128.51 153.05L135.08 153.03L141.59 152.72L148.03 152.13L154.42 151.25L160.75 150.08L165.6 148.99L172.3 147.08L174.89 146.1L176.98 145.1L211.47 125.79L295.87 78.19L296.31 77.56L296.09 76.82L295.94 76.69L281.55 66.86L280.75 66.44L279.95 66.28L279.11 66.38L278.26 66.74L267.44 72.99L266.81 73.35L266.69 73.33L242.24 86.94L242.2 87.12L241.81 87.34L239.93 88.04L238.16 88.94L236.52 90.02L235 91.3L234.74 91.39L221.2 99.06L220.83 99.43L220.23 99.36L219.74 99.49L219.68 99.52L206.65 107.02L194.15 113.9L193.19 114.27L192.18 114.4H161.29L160.88 114.1L160.7 113.53L167.03 110.02L168.86 109.35L170.65 108.4L172.33 107.17L172.48 106.91L172.75 106.93L175.43 105.76L240.55 69.15L241.99 68.17L242.78 67.2L244.69 66.33L245.07 65.84L245.06 65.75L244.55 65.08L232.25 56.41L232.17 56.38L232.07 56.43L231.99 56.51L231.49 56.24L231.57 56.11L230.71 55.25L229.75 54.58L228.51 54.06L227.65 53.11L226.73 52.7L226.44 52.69L226.16 52.65L225.52 52.19L224.76 51.22L223.92 50.8L222.97 50.93L217.92 53.46L212.27 57.02L212.01 57.29L211.69 57.31L187.45 70.98L187.21 71.28L186.71 71.36L175.19 78.05L161.19 86.05L161.09 86.22L160.8 86.28L153.78 90.36L138.71 98.84L138.2 99.31L137.72 99.36L130.74 103.25L122.62 107.63L114.58 112.19L112.8 113.09L110.96 113.77L109.17 114.18L107.55 114.29L92.9802 114.23L89.5502 114.33L83.8502 114.48L79.9702 114.34L79.4402 114.11L79.2902 113.63L79.6402 113.48L79.6902 113.51L81.0802 112.92L82.3002 112.12L83.3302 111.14L83.8302 110.64L84.2002 110.66L88.6102 108.46L109.43 96.65L124.52 87.87L166.86 63.84L184.26 53.95L200.15 44.84L210.14 39.33L210.96 38.8L211.49 38.2L211.85 37.37L212.03 36.1L212.19 32.19L212.13 28.47L211.86 24.92L211.37 21.55L210.28 20.59L209.6 20.43L209.52 20.49L208.77 20.47L208.64 20.53L152.55 52.24L117.04 72.15L115.62 73.09L114.5 74.09ZM187.53 158.15L187.36 158.45V374.37L187.46 374.61L187.87 374.67L299.83 310.03L300 309.73V94.65L299.91 94.41L299.49 94.35L187.53 158.15ZM30.6502 138.33L30.8102 140.84L30.7602 144.3L30.7102 146.67L31.0202 148.48L31.7402 149.63L33.0502 150.86L40.1702 156.4L47.7802 161.57L55.6902 166.25L64.0502 170.53L72.7002 174.32L81.7402 177.67L91.0002 180.51L100.39 182.81L100.77 182.76L100.9 182.4V168.13L100.78 167.73L100.41 167.53L92.3401 165.72L84.5602 163.64L76.9402 161.27L69.6302 158.64L62.5502 155.73L55.7902 152.58L49.1802 149.11L42.9202 145.41L31.1702 137.3L30.8401 137.2L30.6702 137.51L30.6502 138.33ZM116.75 184.97L116.9 185.37L117.27 185.56L122.96 186.04L128.59 186.29L134.17 186.32L139.7 186.13L145.17 185.72L150.59 185.08L155.96 184.22L161.27 183.13L166.16 181.85L170.87 180.25L171.23 179.98L171.36 179.53V164.38L171.04 164.1L171 164.11L166.13 165.51L161.22 166.71L155.56 167.83L149.84 168.7L144.06 169.32L138.23 169.67L126.96 169.83L117.27 169.38H117.25L116.9 169.52L116.75 169.87V184.97ZM30.7002 187.14L30.7502 187.63L31.1102 188.43L31.8202 189.14L37.9202 193.57L44.1702 197.7L50.5802 201.52L57.1502 205.02L67.4002 209.75L78.0102 213.78L88.9802 217.09L100.31 219.69L100.37 219.7L100.8 219.56L100.98 219.14V200.12L100.87 199.76L100.54 199.58L89.0002 196.97L77.6902 193.63L66.7402 189.59L56.0202 184.82L50.7502 182.1L45.0802 178.85L38.7602 174.92L31.1802 169.94L30.7302 169.82L30.6002 170.26L30.7002 187.14ZM171.28 197.82L161.88 199.95L152.41 201.48L143.71 202.34L134.95 202.7L126.13 202.56L117.24 201.92L116.83 202.01L116.69 202.41V221.31L116.85 221.82L117.33 222.03L127.69 222.78L137.93 222.83L148.05 222.18L158.05 220.82L164.53 219.56L170.95 217.99L171.27 217.78L171.4 217.41V197.91V197.9L171.28 197.82ZM75.8502 310.38L75.6802 310.75L75.2802 310.84L75.1902 310.81L66.4202 306.5L57.9802 301.64L52.9902 298.41L52.6702 298.06L52.5602 297.61V221.77L52.3602 221.04L51.8102 220.53L41.2802 214.63L31.0102 208L30.9502 207.97L30.6502 208.19V307.36L30.8602 308.34L31.4502 309.15L36.5502 313.42L41.9502 317.43L47.1802 320.93L52.5502 324.22L58.0702 327.31L63.7402 330.2L69.5602 332.88L75.5302 335.36L81.6402 337.64L87.9002 339.71L94.8902 341.73L100.42 342.96L100.78 342.9L100.9 342.55V237.16L100.78 236.77L100.44 236.59L88.2102 233.83L82.2502 232.17L76.3902 230.34L76.0502 230.38L75.8602 230.66L75.8502 230.72V310.38ZM117.17 238.54L116.9 238.63L116.77 238.88V238.9V345.52L116.92 345.92L117.31 346.11L126.28 346.77L135.15 346.86L143.94 346.38L152.64 345.32L161.65 343.6L170.57 341.24L171.16 340.82L171.39 340.14V235.28L171.23 234.92L170.86 234.81L170.8 234.82L162.68 236.66L154.49 238.04L145.28 239.03L135.99 239.44L126.62 239.28L117.17 238.54ZM31.0402 329.35L30.7402 329.25L30.6402 329.57L30.6302 347.68L30.5202 349.09L30.6002 350.32L31.0502 351.18L31.1002 351.23L34.9102 354.43L40.8002 358.56L49.2602 363.83L57.9102 368.59L66.7602 372.83L75.8102 376.54L81.7502 378.67L87.7802 380.57L93.8802 382.27L100.07 383.74L100.58 383.64L100.85 383.19V383.12V360.55L100.73 360.18L100.39 360L91.3202 358L81.5102 355.09L72.9302 352.03L64.5702 348.59L56.4302 344.76L48.5002 340.55L39.6302 335.21L31.0402 329.35ZM171.09 358.03L165.51 359.54L159.91 360.81L154.27 361.82L148.61 362.59L141.57 363.2L134.48 363.42L126.99 363.24L117.38 362.65L116.97 362.76L116.83 363.17V386.31L116.97 386.69L117.33 386.87L127.92 387.53L138.04 387.57L146.11 387.08L154.22 386.03L162.35 384.43L170.51 382.28L171.07 381.89L171.29 381.23V358.18L171.11 358.02L171.09 358.03Z" fill="black"/>
<path d="M232.08 35.45L231.05 35.13L230.17 34.6L229.25 33.58L229.07 33.17L229.02 32.66L229.33 27.45L229.32 24.6L228.87 21.55L228.16 18.63L227.19 15.85L225.97 13.2L223.72 9.59001L220.92 6.27L217.28 3.23001L213.58 0.25L216.04 1.67001L218.31 3.25L220.4 5L222.31 6.92001L223.96 8.90001L225.45 11.03L226.77 13.32L227.93 15.76L228.68 17.92L229.24 20.48L229.45 21.7L229.99 25.08L230.19 27.64L230.08 29.9L229.65 31.98L229.63 32.44L229.85 32.88L232.08 35.45Z" fill="#228676"/>
<path d="M209.52 20.4897L114.5 74.0897L115.62 73.0897L117.04 72.1497L152.55 52.2397L208.64 20.5297L208.77 20.4697L209.52 20.4897Z" fill="#228676"/>
<path d="M84.2002 110.66L209.91 38.6398L210.84 37.7598L211.15 36.5398L211.37 21.5498L211.86 24.9198L212.13 28.4698L212.19 32.1898L212.03 36.0998L211.85 37.3698L211.49 38.1998L210.96 38.7998L210.14 39.3298L200.15 44.8398L184.26 53.9498L166.86 63.8398L124.52 87.8698L109.43 96.6498L88.6102 108.46L84.2002 110.66Z" fill="#228676"/>
<path d="M315.051 69.4899L294.411 55.3899L288.751 51.9399L286.571 50.8999L284.161 50.1799L281.521 49.8199L278.841 49.8499L275.961 50.2599L272.921 51.0499L269.751 52.2099L266.361 53.7899L262.821 55.7399L262.161 56.0099L261.461 56.0799L260.771 55.9499L260.141 55.6299L233.721 36.9199L241.181 41.7399L250.261 47.8499L259.201 54.1699L260.341 54.7899L261.491 55.0199L262.531 54.8799L263.591 54.4199L268.151 52.0499L272.581 50.3699L276.881 49.3699L281.061 49.0599L283.431 49.2999L285.911 49.9699L288.501 51.0799L291.201 52.6199L303.301 60.7399L315.051 69.4899Z" fill="#228676"/>
<path d="M225.52 52.1898L223.56 51.4298L223.13 51.4198L222.64 51.5698L212.27 57.0198L217.92 53.4598L222.97 50.9298L223.92 50.7998L224.76 51.2198L225.52 52.1898Z" fill="#228676"/>
<path d="M228.509 54.0594L227.459 53.5795L226.439 52.6895L226.729 52.6995L227.649 53.1095L228.509 54.0594Z" fill="#228676"/>
<path d="M231.57 56.1096L230.23 55.4696L229.08 54.6296L228.51 54.0596L229.75 54.5796L230.71 55.2496L231.57 56.1096Z" fill="#228676"/>
<path d="M113.55 55.1797L109.81 57.6397L105.97 59.9097L18.1598 109.47L15.2998 110.74L18.9598 108.27L107.74 58.0997L111.16 56.2597L113.55 55.1797Z" fill="#228676"/>
<path d="M244.55 65.0799L231.99 56.5099L232.07 56.4299L232.17 56.3799L232.25 56.4099L244.55 65.0799Z" fill="#228676"/>
<path d="M69.6602 140.219L79.3202 143.699L88.8502 146.619L98.2302 148.969L107.48 150.759L113.53 151.499L120.65 151.919L133.84 152.159L139.62 152.049L145.7 151.619L152.07 150.869L158.74 149.799L162.66 148.999L166.5 147.999L170.26 146.819L173.95 145.449L176.63 144.319L181.93 141.559L192.96 135.439L251.07 102.719L261.98 96.5493L294.52 78.3793L295.17 77.9093L295.4 77.4193L295.21 76.9093L294.6 76.3893L283.03 68.6393L281.41 67.7293L279.87 67.2393L278.47 67.3393L276.81 68.0793L273.67 69.8793L267.44 72.9893L278.26 66.7393L279.11 66.3793L279.95 66.2793L280.75 66.4393L281.55 66.8593L295.94 76.6893L296.09 76.8193L296.31 77.5593L295.87 78.1893L211.47 125.789L176.98 145.099L174.89 146.099L172.3 147.079L165.6 148.989L160.75 150.079L154.42 151.249L148.03 152.129L141.59 152.719L135.08 153.029L128.51 153.049L121.89 152.779L115.2 152.239L108.46 151.399L98.0802 149.549L88.1502 147.079L78.6802 143.959L69.6602 140.219Z" fill="#228676"/>
<path d="M242.78 67.1992L241.99 68.1692L240.55 69.1492L175.43 105.759L172.75 106.929L242.78 67.1992Z" fill="#228676"/>
<path d="M241.81 87.3398L235 91.2999L236.52 90.0199L238.16 88.9398L239.93 88.0399L241.81 87.3398Z" fill="#228676"/>
<path d="M80.5205 93.2197L80.2405 93.5997L79.2305 94.1197V94.0197L79.5905 93.5797L80.5205 93.2197Z" fill="#228676"/>
<path d="M187.529 158.15L299.489 94.3496H299.829L299.999 94.6496V309.73L299.829 310.03L187.869 374.67H187.529L187.359 374.37V158.45V158.4L187.529 158.15ZM288.259 241.01L288.179 240.74L287.869 240.51L287.479 240.56L254.779 259.2L254.259 259.19L253.999 258.75V226.39L254.039 226.19L254.259 225.94L288.139 206.64L288.399 206.19V120.01L288.359 119.81L288.039 119.52L287.619 119.56L200.549 169.18L200.449 169.25L200.289 169.63V255.38L200.549 255.82L201.069 255.83L216.079 247.27L216.459 247.22L216.749 247.4L216.859 247.72V275.74L217.109 276.18L217.619 276.2L217.639 276.19L232.309 267.83L232.569 267.38V238.46L232.829 238.01L238.329 234.83H238.849L239.109 235.28V266.92L239.029 267.19L238.849 267.37L200.789 289.34L200.529 289.79V346.95L200.559 347.12L200.869 347.44L201.309 347.4L215.489 339.22L215.749 338.77V298.59L215.789 298.39L216.009 298.14L272.489 265.94L273.009 265.95L273.269 266.39V304.36L273.339 304.63L273.659 304.86L274.049 304.81L287.999 296.76L288.259 296.31V241.01Z" fill="#228676"/>
<path d="M78.8002 94.3594L57.4902 106.649L36.0902 118.689L35.4802 119.339L35.5302 120.059L34.9602 119.959L34.7802 119.769L34.7002 119.279L35.0002 118.889L35.0102 118.879L51.2202 109.339L61.2502 103.669L78.8002 94.3594Z" fill="#228676"/>
<path d="M220.83 99.4294L199.11 112.239L196.88 113.449L194.85 114.309L192.94 114.839L191.11 115.069L190.54 115.089L160.02 115.119L159.47 115.049L159.2 114.849L159.22 114.519L159.51 114.059L160.7 113.529L160.88 114.099L161.29 114.399H192.18L193.19 114.269L194.15 113.899L206.65 107.019L219.68 99.5194L219.74 99.4894L220.23 99.3594L220.83 99.4294Z" fill="#228676"/>
<path d="M130.74 103.25L110.9 114.75L110.19 115.05L109.43 115.15H78.5204L78.1504 115.02L78.1804 114.63L78.2004 114.6L78.6104 114.05L79.2904 113.63L79.4404 114.11L79.9704 114.34L83.8504 114.48L89.5504 114.33L92.9804 114.23L107.55 114.29L109.17 114.18L110.96 113.77L112.8 113.09L114.58 112.19L122.62 107.63L130.74 103.25Z" fill="#228676"/>
<path d="M172.329 107.17L170.649 108.4L168.859 109.35L167.029 110.02L172.329 107.17Z" fill="#228676"/>
<path d="M83.3295 111.14L82.2995 112.12L81.0795 112.92L79.6895 113.51L81.1795 112.19L83.3295 111.14Z" fill="#228676"/>
<path d="M14.18 111.58L13.7799 123.93L13.33 119.68L13.21 114.35L13.46 112.68L14.18 111.58Z" fill="#228676"/>
<path d="M288.26 241.01V296.31L288.23 296.49L288 296.76L274.05 304.81H273.53L273.27 304.36V266.39L273.25 266.26L272.95 265.91L272.49 265.94L216.01 298.14L215.75 298.59V338.77L215.71 338.96L215.49 339.22L201.31 347.4H200.79L200.53 346.95V289.79L200.79 289.34L238.85 267.37L239.11 266.92V235.28L239.07 235.07L238.75 234.79L238.33 234.83L232.83 238.01L232.57 238.46V267.38L232.53 267.59L232.31 267.83L217.64 276.19L217.22 276.23L216.96 276.04L216.86 275.74V247.72L216.66 247.31L216.2 247.22L216.08 247.27L201.07 255.83L200.55 255.82L200.29 255.38V169.63L200.43 169.28L200.55 169.18L287.62 119.56L288.14 119.57L288.4 120.01V206.19L288.14 206.64L254.26 225.94L254 226.39V258.75L254.26 259.19L254.78 259.2L287.48 240.56L288 240.57L288.26 241.01ZM215.55 196.35L215.85 196.87H216.45L272.94 164.68L273.24 164.16V146.34L273.17 146.07L272.81 145.77L272.34 145.82L215.85 178.01L215.55 178.53V196.35ZM273.25 183.56L273.05 183.09L272.67 182.9L272.25 182.98L254.29 193.22L253.95 193.77V193.8V207.18L254.04 207.52L254.45 207.82L254.95 207.76L272.91 197.53L273.25 196.95V183.56ZM238.98 202.57L238.69 202.04L238.02 202.02L215.85 214.65L215.79 214.69L215.53 215.2V229.83L215.85 230.38H216.49L238.66 217.75L238.98 217.24V217.2V202.57Z" fill="black"/>
<path d="M56.7395 133.74L51.7095 131.35L46.9095 128.59L42.5695 125.63L38.4395 122.34L56.7395 133.74Z" fill="#228676"/>
<path d="M30.6504 138.329L30.6704 137.509L30.8404 137.199L31.1704 137.299L42.9204 145.409L49.1804 149.109L55.7904 152.579L62.5504 155.729L69.6304 158.639L76.9404 161.269L84.5604 163.639L92.3404 165.719L100.41 167.529L100.78 167.729L100.9 168.129V182.399L100.77 182.759L100.39 182.809L91.0004 180.509L81.7404 177.669L72.7004 174.319L64.0504 170.529L55.6904 166.249L47.7804 161.569L40.1704 156.399L33.0504 150.859L31.7404 149.629L31.0204 148.479L30.7104 146.669L30.7604 144.299L30.8104 140.839L30.6504 138.329Z" fill="#FDB707"/>
<path d="M215.55 196.349V178.529L215.85 178.009L272.34 145.819H272.94L273.24 146.339V164.159L273.2 164.379L272.94 164.679L216.45 196.869L216.05 196.939L215.7 196.739L215.55 196.349Z" fill="#228676"/>
<path d="M116.75 184.97V169.87L116.9 169.52L117.25 169.38H117.27L126.96 169.83L138.23 169.67L144.06 169.32L149.84 168.7L155.56 167.83L161.22 166.71L166.13 165.51L171 164.11L171.04 164.1L171.36 164.38V179.53L171.23 179.98L170.87 180.25L166.16 181.85L161.27 183.13L155.96 184.22L150.59 185.08L145.17 185.72L139.7 186.13L134.17 186.32L128.59 186.29L122.96 186.04L117.27 185.56L116.9 185.37L116.75 184.97Z" fill="#228676"/>
<path d="M13.7799 167.29L13.83 168.82L13.46 168.23L13.5099 167.78L13.7799 167.29Z" fill="#228676"/>
<path d="M30.6996 187.139L30.5996 170.259L30.7296 169.819L31.1796 169.939L38.7596 174.919L45.0796 178.849L50.7496 182.099L56.0196 184.819L66.7396 189.589L77.6896 193.629L88.9996 196.969L100.54 199.579L100.87 199.759L100.98 200.119V219.139L100.8 219.559L100.37 219.699L100.31 219.689L88.9796 217.089L78.0096 213.779L67.3996 209.749L57.1496 205.019L50.5796 201.519L44.1696 197.699L37.9196 193.569L31.8196 189.139L31.1096 188.429L30.7496 187.629L30.6996 187.139Z" fill="#F46641"/>
<path d="M273.249 183.559V196.949L273.209 197.189L272.909 197.529L254.949 207.759H254.279L253.949 207.179V193.799L253.989 193.579L254.289 193.219L272.249 182.979H272.919L273.249 183.559Z" fill="#228676"/>
<path d="M171.279 197.819L171.399 197.899V197.909V217.409L171.269 217.779L170.949 217.989L164.529 219.559L158.049 220.819L148.049 222.179L137.929 222.829L127.689 222.779L117.329 222.029L116.849 221.819L116.689 221.309V202.409L116.829 202.009L117.239 201.919L126.129 202.559L134.949 202.699L143.709 202.339L152.409 201.479L161.879 199.949L171.279 197.819Z" fill="#F46641"/>
<path d="M238.979 202.57V217.2L238.939 217.43L238.659 217.75L216.489 230.38H215.849L215.529 229.83V215.2L215.849 214.65L238.019 202.02H238.659L238.979 202.57Z" fill="#228676"/>
<path d="M75.8504 310.38V230.72L75.8604 230.66L76.0504 230.38L76.3904 230.34L82.2504 232.17L88.2104 233.83L100.44 236.59L100.78 236.77L100.9 237.16V342.55L100.78 342.9L100.42 342.96L94.8904 341.73L87.9004 339.71L81.6404 337.64L75.5304 335.36L69.5604 332.88L63.7404 330.2L58.0704 327.31L52.5504 324.22L47.1804 320.93L41.9504 317.43L36.5504 313.42L31.4504 309.15L30.8604 308.34L30.6504 307.36V208.19L30.9504 207.97L31.0104 208L41.2804 214.63L51.8104 220.53L52.3604 221.04L52.5604 221.77V297.61L52.6704 298.06L52.9904 298.41L57.9804 301.64L66.4204 306.5L75.1904 310.81L75.2804 310.84L75.6804 310.75L75.8504 310.38Z" fill="#FDB707"/>
<path d="M13.6599 265.08L13.2299 252.43L13.1699 239.78L13.6599 223L14.0899 238.69L14.0499 251.88L13.6599 265.08Z" fill="#F46641"/>
<path d="M117.17 238.54L126.62 239.28L135.99 239.44L145.28 239.03L154.49 238.04L162.68 236.66L170.8 234.82L170.86 234.81L171.23 234.92L171.389 235.28V340.14L171.16 340.82L170.57 341.24L161.65 343.6L152.64 345.32L143.94 346.38L135.15 346.86L126.28 346.77L117.31 346.11L116.92 345.92L116.77 345.52V238.9V238.88L116.9 238.63L117.17 238.54Z" fill="#228676"/>
<path d="M13.7 303.87L13.36 299.449L13.29 295.04L13.76 288.02L13.7 303.87Z" fill="#F46641"/>
<path d="M316.22 316.89V318.16L315.99 319.29L315.87 319.6L315.33 320.35L314.49 320.95L308.64 324.21L302.72 327.75L290.96 334.6L264.86 349.54L235.8 366.47L218.45 376.42L200.06 387.01L190.59 392.3L184.01 395.51L180.07 397.07L175.85 398.5L166.61 400.97L160.19 402.28L153.93 403.25L147.84 403.89L141.92 404.2L147.53 403.27L149.87 403.08L155.57 402.47L161.23 401.51L164.55 400.9L167.98 400.01L174.6 398.14L179.07 396.72L183.59 394.96L188.17 392.85L192.81 390.41L208.89 381.22L212.06 379.6L214.09 378.38L216.07 377.08L239.67 363.55L250.1 357.33L261.64 350.77L274.63 343.27L278.29 341.07L300.32 328.36L314.75 320.11L315.34 319.65L316.01 318.49L316.22 316.89Z" fill="#228676"/>
<path d="M31.0395 329.35L39.6295 335.21L48.4995 340.55L56.4295 344.76L64.5695 348.59L72.9295 352.03L81.5095 355.09L91.3195 358L100.39 360L100.73 360.18L100.85 360.55V383.12V383.19L100.58 383.64L100.07 383.74L93.8795 382.27L87.7795 380.57L81.7495 378.67L75.8095 376.54L66.7595 372.83L57.9095 368.59L49.2595 363.83L40.7995 358.56L34.9095 354.43L31.0995 351.23L31.0495 351.18L30.5995 350.32L30.5195 349.09L30.6295 347.68L30.6395 329.57L30.7395 329.25L31.0395 329.35Z" fill="#FDB707"/>
<path d="M13.76 351.84L13.29 348.44L13.3701 346.37L13.7401 344.29L13.76 351.84Z" fill="#F46641"/>
<path d="M171.09 358.03L171.11 358.02L171.29 358.18V381.23L171.07 381.89L170.51 382.28L162.35 384.43L154.22 386.03L146.11 387.08L138.04 387.57L127.92 387.53L117.33 386.87L116.97 386.69L116.83 386.31V363.17L116.97 362.76L117.38 362.65L126.99 363.24L134.48 363.42L141.57 363.2L148.61 362.59L154.27 361.82L159.91 360.81L165.51 359.54L171.09 358.03Z" fill="#228676"/>
<path d="M15.3403 361.38L15.1503 361.53L14.7803 360.9L14.5703 360.81L15.2403 360.91L15.3403 361.38Z" fill="#228676"/>
<path d="M15.3404 361.38L20.7104 365.38L15.1504 361.53L15.3404 361.38Z" fill="#F46641"/>
<path d="M29.7895 371.619L28.5594 371.069L27.4395 370.119L28.3394 370.399L29.1195 370.899L29.7895 371.619Z" fill="#228676"/>
<path d="M30.51 372.139L29.9001 371.799L29.79 371.619L30.29 371.699L30.51 372.139Z" fill="#228676"/>
<path d="M57.9999 387.609L50.61 384.189L43.4399 380.379L37.24 376.649L31.21 372.609L57.9999 387.609Z" fill="#F46641"/>
<path d="M124.45 403.969L121.61 404.109L116.98 403.909L110.04 403.079L103.16 401.989L96.3398 400.649L89.5898 399.069L83.1198 397.289L76.7098 395.279L70.3498 393.039L64.0598 390.559L61.6598 389.449L59.3698 388.159L58.2598 387.439L65.8898 390.719L73.6098 393.639L81.4198 396.209L89.3198 398.429L97.9398 400.429L106.67 402.019L115.51 403.199L124.45 403.969Z" fill="#228676"/>
<path d="M138.669 404.279L136.639 404.669L134.599 404.829L132.399 404.739L130.189 404.369L138.669 404.279Z" fill="#228676"/>
<path d="M47.39 467.039L47.33 462.769L46.7 458.929L45.5 455.509L43.72 452.529L42.43 450.999L40.96 449.609L39.29 448.369L37.43 447.269L36.28 446.709L34.28 445.909L32.19 445.309L30.01 444.889L27.75 444.669L22.53 444.759L17.55 445.579L15.4 446.229L13.37 447.059L11.61 448.009L10.03 449.149L9.09 449.979L6.78 452.489L4.78 455.439L3.21002 458.679L2 462.309L1.17001 466.259L0.730011 470.519L0.680023 475.099L1.03 479.849L1.48001 483.009L2.11002 485.979L2.91 488.759L3.89001 491.349L2.56 488.609L1.52002 485.849L0.77002 483.049L0.309998 480.219L0.300018 480.089L0 473.799L0.390015 467.159L0.820007 464.349L1.51001 461.569L2.44 458.809L3.63 456.079L4.73001 454.069L5.98001 452.249L7.38 450.619L8.95001 449.179L11.04 447.689L14.81 445.789L18.1 444.739L21.68 444.109L25.41 443.939L29.45 444.209L33.14 444.909L36.34 446.089L38.74 447.409L40.88 448.929L42.73 450.649L44.32 452.559L46.03 455.449L47.24 458.699L47.96 462.299L48.18 466.259L48.08 466.699L48.01 466.809L47.57 467.119L47.39 467.039Z" fill="#228676"/>
<path d="M283.13 457.71L282.53 455.62L281.72 453.7L280.71 451.98L279.5 450.43L277.74 448.79L275.68 447.43L273.32 446.34L270.65 445.52L266.97 444.82L263.37 444.5L259.83 444.55L256.36 444.98L253.89 445.53L251.58 446.28L249.51 447.27L247.68 448.48L246.08 449.91L244.76 451.53L243.67 453.36L242.8 455.41L242.16 457.67L241.99 460.54L241.94 462.56L241.87 463.45L241.37 461.79L241.33 459.91L241.91 456.81L242.96 453.49L244.31 450.85L246.14 448.76L246.75 448.27L249.98 446.16L252.69 445.02L257.24 444.28L263.74 443.96L266.26 444.02L268.63 444.28L270.85 444.75L272.92 445.41L275.37 446.52L277.5 447.86L279.29 449.43L280.75 451.22L281.61 452.66L282.29 454.23L283.13 457.71Z" fill="#228676"/>
<path d="M47.3897 467.04L40.4997 466.99L38.6397 466.92L37.1197 466.61L35.9297 466.05L35.0797 465.24L34.7297 464.37L34.6797 464.38L34.8897 464.17L35.1197 463.51L34.9997 462.6L34.3297 460.65L33.4597 459L32.3997 457.65L31.1397 456.6L29.1497 455.66L26.8097 455.24L23.7597 455.21L22.5197 455.08L21.3297 455.21L19.5697 455.95L17.9597 457.34L16.8997 458.67L16.0297 460.1L15.2097 461.95L14.6697 463.95L13.9197 468.94L13.6597 473.93L13.7697 477.42L14.1097 480.9L14.9997 484.88L15.6597 486.5L16.4597 487.89L17.8597 489.54L19.4897 490.79L21.1997 491.58L23.0997 492.05L28.0397 491.82L29.6897 491.42L31.1297 490.7L32.2397 489.77L33.1797 488.59L33.9397 487.14L34.5297 485.44L35.2897 481.93L35.7797 481.06L36.7097 480.71H46.5797H46.5897L47.3497 481.04L47.6497 481.81L47.2497 486.25L46.1797 490.46L45.2697 492.78L43.4397 495.26L41.4297 497.36L39.2497 499.07L36.8897 500.4L35.2097 501.07L26.5197 503.25L24.8297 503.41L23.5197 503.09L19.9497 502.64L16.6597 501.81L13.6497 500.57L10.9097 498.95L9.08966 497.51L7.40967 495.86L5.86969 494.01L4.48969 491.94L4.44968 491.91L4.38968 491.92L4.17969 492.07L3.88968 491.35L2.90967 488.76L2.10968 485.98L1.47968 483.01L1.02966 479.85L0.679688 475.1L0.729675 470.52L1.16968 466.26L1.99966 462.31L3.20969 458.68L4.77966 455.44L6.77966 452.49L9.08966 449.98L10.0297 449.15L11.6097 448.01L13.3697 447.06L15.3997 446.23L17.5497 445.58L22.5297 444.76L27.7497 444.67L30.0097 444.89L32.1897 445.31L34.2797 445.91L36.2797 446.71L37.4297 447.27L39.2897 448.37L40.9597 449.61L42.4297 451L43.7197 452.53L45.4997 455.51L46.6997 458.93L47.3297 462.77L47.3897 467.04Z" fill="black"/>
<path d="M283.13 457.71L283.47 462.53L272.12 462.15L271.65 462.02L271.33 461.65L270.47 459.36L269.94 458.06L269.21 456.97L268.28 456.07L267.21 455.37L265.92 454.84L264.55 454.52L263.03 454.41L261.5 454.52L260 454.83L258.59 455.33L255.68 457.1L254.59 459L254.28 460.86L254.53 462.11L255.14 463.35L256.38 464.74L258.21 466.02L260.22 467.01L262.04 467.55L267.64 468.9L273.03 470.78L276.4 472.27L279.67 473.99L282.9 477.39L283.67 479.74L284.19 482.11L284.47 484.55L284.51 487.06L284.31 489.63L283.93 491.12L283.15 492.84L282.3 494.63L281.79 496.07L280.82 497.24L279.76 498.14L276.4 500L272.9 501.42L269.75 502.32L266.49 502.89L259.58 502.96L255.94 502.47L252.64 501.56L249.66 500.23L247.02 498.48L244.37 495.95L242.17 492.85L241.88 492.38L241.9 492.34L241.7 490.16L241.26 488.98L241.09 488.51L241.05 488.05L241.1 484.75L245.35 484.11L249.55 484.14L253.04 484.69L253.15 486.4L253.49 487.9L254.05 489.19L254.84 490.27L256.55 491.56L258.99 492.55L261.47 493.01L263.18 493.02L264.92 492.79L266.68 492.31L268.46 491.58L269.68 490.89L270.66 490.12L271.37 489.26L271.84 488.31L272.06 487.24L272 486.07L271.68 484.81L271.08 483.46L268.82 481.52L266 479.91L259.37 477.74L252.47 476.26L248.18 474.06L244.46 469.86L243.36 467.83L242.26 464.2L242.19 464.1H242.09L242.01 464.15L241.94 464.31L241.81 463.95L241.87 463.45L241.94 462.56L241.99 460.54L242.16 457.67L242.8 455.41L243.67 453.36L244.76 451.53L246.08 449.91L247.68 448.48L249.51 447.27L251.58 446.28L253.89 445.53L256.36 444.98L259.83 444.55L263.37 444.5L266.97 444.82L270.65 445.52L273.32 446.34L275.68 447.43L277.74 448.79L279.5 450.43L280.71 451.98L281.72 453.7L282.53 455.62L283.13 457.71Z" fill="black"/>
<path d="M70.3099 465.4L70.3399 447.18L70.2199 446.57L69.87 446.05L69.3499 445.7L68.74 445.58H59.9099L58.9799 445.71L58.33 446.11L57.96 446.78L57.87 447.72L57.95 451.87L57.7899 468.63L57.9999 484.87L58.3099 499.78L58.45 500.84L58.8099 501.97L57.9399 501.5L57.4799 501.01L57.21 499.89L57.3099 447.19L57.4699 446.42L57.9099 445.77L58.5599 445.33L59.33 445.18H68.5699L69.7299 445.35L70.55 445.84L71.05 446.67L71.21 447.82V464.44L71.0699 464.93L70.71 465.22L70.3099 465.4Z" fill="#228676"/>
<path d="M101.73 501.96L102.35 499.89L102.54 498.38L102.32 473.12L102.39 447.45L102.25 446.72L101.84 446.09L101.22 445.68L100.48 445.53H91.9104L91.1904 445.67L90.5704 446.08L90.1604 446.7L90.0104 447.43V466.79L89.8204 467.43L89.4004 467.8L88.8604 467.94H71.6804L71.1104 467.83L70.6704 467.51L70.2204 466.88L70.1504 466.35L70.4404 465.95L71.3404 466.82L72.2004 467.16H88.9904L89.3004 466.86V447.37L89.4704 446.53L89.9404 445.81L90.6504 445.34L91.4904 445.17H100.62L101.74 445.33L102.53 445.81L103.02 446.6L103.18 447.72L103.21 498.79L102.84 499.98L101.73 501.96Z" fill="#F46641"/>
<path d="M128.22 445.769L115.98 445.939L116.82 445.389L118.23 445.129L123.69 445.109L126.07 445.349L128.22 445.769Z" fill="#228676"/>
<path d="M172.259 477.43L168.979 472.85L166.099 468.12L162.929 462.44L157.989 454.05L155.969 450.27L154.989 448.59L153.219 446.13L152.819 445.82L152.329 445.71H142.619L141.959 445.84L141.399 446.22L141.019 446.78L140.889 447.44L141.029 501.65L140.499 500.78L140.189 499.35L140.029 490.1L140.359 468.16L140.479 446.34L140.709 445.75L141.269 445.46L145.639 445.12L150.299 445.01L152.349 445.3L153.899 446.16L154.769 447.22L165.889 466.71L169.229 471.79L171.459 475.68L172.259 477.43Z" fill="#228676"/>
<path d="M184.491 445.42L185.351 446.73L185.561 447.19L185.621 447.65L185.411 470.5L185.561 498.87L185.331 500.56L184.611 501.69L183.901 502.1L182.991 502.29L176.961 502.45L175.651 502.43L174.521 502.14L173.271 500.73L172.071 499.09L171.041 497.33L167.801 491.48L164.261 485.77L163.961 484.58L162.981 483.35L162.971 482.72L162.771 482.4L162.451 482.37L162.041 481.64L154.361 468.05L154.191 467.62L153.761 467.15L153.401 466.25L152.911 465.82L152.501 465.83L152.361 466.22L152.381 501.72L149.591 502.06L146.841 502.17L144.131 502.06L141.461 501.73L141.031 501.65L140.891 447.44L141.021 446.78L141.401 446.22L141.961 445.84L142.621 445.71H152.331L152.821 445.82L153.221 446.13L154.991 448.59L155.971 450.27L157.991 454.05L162.931 462.44L166.101 468.12L168.981 472.85L172.261 477.43L172.511 478.05L172.751 478.25L173.151 477.64L173.531 475.83L173.921 447.26L174.031 446.74L174.281 446.37L175.831 445.31L184.491 445.42Z" fill="black"/>
<path d="M210.18 467.07L210.11 467.56L210.6 467.93L211.72 468.07L219.57 468.03L229.32 467.73L230.37 467.84L231.13 468.26L231.62 468.99L231.81 470.04L232.02 474.52L231.94 475.66L231.54 476.55L230.81 477.36L229.89 478.03L210.71 478.07L210.35 478.19L210.22 478.57V490.54L210.35 490.92L210.71 491.04L235.67 491.37L235.32 500.49L235.18 501.22L234.85 501.74L234.32 502.05L233.6 502.15L199.66 502.27L198.62 502.35L198.01 501.82L197.59 500.78L197.31 496.35L197.25 447.33L197.42 446.49L197.9 445.77L198.61 445.3L199.46 445.13H234.13L234.9 445.45L235.22 446.22V454.92L234.88 455.75L234.05 456.09H210.77L210.41 456.21L210.28 456.57L210.18 467.07Z" fill="black"/>
<path d="M331.169 453.899L330.519 455.029L329.389 456.069L306.149 456.329L305.409 466.459L305.689 467.289L306.479 467.659H306.519H325.409L326.269 467.779L326.869 468.149L327.209 468.769L327.299 469.629L326.969 478.009L306.519 477.999L306.329 477.739L305.819 477.879L305.569 478.359L305.679 490.349L305.739 490.569L306.179 490.809L330.449 491.139L330.709 491.639L331.129 491.889L330.959 501.389L324.719 502.309L317.679 502.439L308.649 502.419L294.759 502.009L293.289 499.549L293.199 447.449L293.379 446.559L293.879 445.799L294.639 445.299L295.529 445.119H329.039L329.949 445.249L330.599 445.639L330.989 446.279L331.129 447.189L331.169 453.899Z" fill="black"/>
<path d="M175.83 445.31L174.28 446.37L174.03 446.74L173.92 447.26L173.53 475.83L173.3 449.85L173.41 447.19L173.61 446.3L174.05 445.74L174.08 445.72L174.86 445.38L175.83 445.31Z" fill="#228676"/>
<path d="M183.65 502.48L182.99 502.29L183.9 502.1L184.61 501.69L185.33 500.56L185.56 498.87L185.41 470.5L185.62 447.65L185.56 447.19L185.35 446.73L184.49 445.42L185.36 445.48L185.87 445.8L186.04 446.34L186.23 467.71L186.19 498.35L185.86 500.64L185.45 501.45L184.88 502.03L183.65 502.48Z" fill="#228676"/>
<path d="M70.31 465.399L70.44 465.949L70.1501 466.349L70.22 466.879L70.67 467.509L71.11 467.829L71.6801 467.939H88.86L89.67 467.599L90.01 466.789V447.429L90.1501 446.699L90.57 446.089L91.1801 445.669L91.91 445.529H100.48L101.22 445.679L101.84 446.089L102.25 446.719L102.39 447.449L102.32 473.119L102.54 498.379L102.35 499.889L101.73 501.959L90.6201 501.969L90.26 500.869L90.11 500.669L89.88 500.279L89.82 499.889V479.139L89.55 478.469L88.88 478.189L76.86 478.159L76.9001 478.259L76.31 478.149L75.53 478.119L74.5201 478.249L74.22 478.209L73.75 478.239L73.03 478.089L71.35 478.299L71.2101 478.019L70.72 478.179L70.33 478.659L70.19 479.259L70.38 496.139V496.149L70.39 496.509L70.7 497.019L70.54 497.089L70.38 497.599L70.57 498.119L70.67 498.139L70.28 499.259L70.1801 500.669V500.689L69.72 501.379L68.44 502.019L58.81 501.969L58.45 500.839L58.31 499.779L58 484.869L57.79 468.629L57.95 451.869L57.8701 447.719L57.9601 446.779L58.33 446.109L58.98 445.709L59.91 445.579H68.7401L69.35 445.699L69.8701 446.049L70.22 446.569L70.34 447.179L70.31 465.399Z" fill="black"/>
<path d="M128.219 445.77L128.589 492.37L128.579 492.45L128.259 495.99L128.549 499.65L128.329 500.38L127.949 500.98L126.849 501.72L125.219 502L119.739 502.06L115.779 501.89L115.399 501.73L115.279 501.35L115.289 457.27L115.459 449.07L115.349 447.99L115.449 446.86L115.529 446.81L115.819 446.48L115.979 445.94L128.219 445.77Z" fill="black"/>
<path d="M115.98 445.939L115.82 446.479L115.53 446.809L115.45 446.859L115.98 445.939Z" fill="#228676"/>
<path d="M331.171 453.899L331.121 455.429L330.961 455.879L330.511 456.029L329.391 456.069L330.521 455.029L331.171 453.899Z" fill="#F46641"/>
<path d="M283.47 462.529L280.43 463.019L277.38 463.229L274.63 463.189L271.88 462.929L270.98 462.499L270.49 461.639L269.44 458.579L268.79 457.459L267.97 456.559L266.56 455.669L264.82 455.159L262.29 454.939L260.44 455.029L258.59 455.329L260 454.829L261.5 454.519L263.03 454.409L264.55 454.519L265.92 454.839L267.21 455.369L268.28 456.069L269.21 456.969L269.94 458.059L270.47 459.359L271.33 461.649L271.65 462.019L272.12 462.149L283.47 462.529Z" fill="#228676"/>
<path d="M23.7602 455.21L20.1202 456.79L18.6602 457.8L17.5702 459.04L17.3202 459.44L16.1202 461.88L15.4002 463.88L14.8702 465.96L14.2302 470.21L14.0602 474.46L14.5002 479.58L15.6302 484.68L16.5502 486.95L17.8802 488.86L18.9402 489.88L20.1602 490.75L21.5502 491.47L23.1002 492.05L21.2002 491.58L19.4902 490.79L17.8602 489.54L16.4602 487.89L15.6602 486.5L15.0002 484.88L14.1102 480.9L13.7702 477.42L13.6602 473.93L13.9202 468.94L14.6702 463.95L15.2102 461.95L16.0302 460.1L16.9002 458.67L17.9602 457.34L19.5702 455.95L21.3302 455.21L22.5202 455.08L23.7602 455.21Z" fill="#228676"/>
<path d="M34.6806 464.379L34.2406 462.559L33.6106 460.919L32.7805 459.459L31.7606 458.189L29.5706 456.449L26.8105 455.239L29.1506 455.659L31.1406 456.599L32.4006 457.649L33.4606 458.999L34.3306 460.649L35.0005 462.599L35.1206 463.509L34.8906 464.169L34.6806 464.379Z" fill="#228676"/>
<path d="M306.15 456.33L306.19 466.6L306.35 466.97L306.72 467.12H326.73L327.16 467.26L327.42 467.62L328.03 470.03L328.3 472.46L328.26 474.64L327.93 476.84L327.64 477.37L326.97 478.01L327.3 469.63L327.21 468.77L326.87 468.15L326.27 467.78L325.41 467.66H306.52H306.48L305.69 467.29L305.41 466.46L306.15 456.33Z" fill="#228676"/>
<path d="M255.679 457.1L255.209 459.17L255.199 461.19L255.739 463.44L255.989 463.86L256.329 464.17L260.539 466.46L262.509 467.22L264.409 467.71L268.799 468.78L272.809 470.19L276.429 471.92L279.669 473.99L276.399 472.27L273.029 470.78L267.639 468.9L262.039 467.55L260.219 467.01L258.209 466.02L256.379 464.74L255.139 463.35L254.529 462.11L254.279 460.86L254.589 459L255.679 457.1Z" fill="#228676"/>
<path d="M248.179 474.06L246.069 472.38L244.369 470.4L242.839 467.58L241.939 464.31L242.009 464.15L242.089 464.1H242.189L242.259 464.2L243.359 467.83L244.459 469.86L248.179 474.06Z" fill="#228676"/>
<path d="M40.5001 466.989L35.9601 466.919L35.5101 466.799L35.2201 466.429L35.1701 466.289L35.0801 465.239L35.9301 466.049L37.1201 466.609L38.6401 466.919L40.5001 466.989Z" fill="#228676"/>
<path d="M153.759 467.149L153.479 467.329L153.309 467.849L153.239 500.099L153.019 500.899L152.379 501.719L152.359 466.219L152.499 465.829L152.909 465.819L153.399 466.249L153.759 467.149Z" fill="#228676"/>
<path d="M210.179 467.069L229.999 467.149L230.749 467.289L231.409 467.699L231.869 468.309L232.079 469.049L232.249 472.209L232.209 475.839L232.039 476.769L231.619 477.449L230.899 477.879L229.889 478.029L230.809 477.359L231.539 476.549L231.939 475.659L232.019 474.519L231.809 470.039L231.619 468.989L231.129 468.259L230.369 467.839L229.319 467.729L219.569 468.029L211.719 468.069L210.599 467.929L210.109 467.559L210.179 467.069Z" fill="#228676"/>
<path d="M266.001 479.91L252.471 476.26L259.371 477.74L266.001 479.91Z" fill="#228676"/>
<path d="M281.79 496.07L282.3 494.63L283.15 492.84L283.93 491.12L284.31 489.63L284.51 487.06L284.47 484.55L284.19 482.11L283.67 479.74L282.9 477.39L283.95 479.47L284.69 481.64L285.1 483.67L285.24 485.76L285.14 487.92L284.78 490.15L284.06 492.49L282.95 494.58L281.79 496.07Z" fill="#228676"/>
<path d="M306.52 477.999L306.18 490.809L305.74 490.569L305.68 490.349L305.57 478.359L305.82 477.879L306.33 477.739L306.52 477.999Z" fill="#228676"/>
<path d="M71.3495 478.3L71.2195 482.8L71.2794 493.85L70.9995 495.65L70.6595 496.36L70.5495 496.46L70.4395 496.38L70.3695 496.24L70.3795 496.14L70.1895 479.26L70.3295 478.66L70.7195 478.18L71.2095 478.02L71.3495 478.3Z" fill="#F46641"/>
<path d="M74.52 478.25L73.96 478.41L73.9 478.33L73.75 478.24L74.22 478.21L74.52 478.25Z" fill="#228676"/>
<path d="M76.3099 478.149L76.0299 478.749L75.64 479.059L74.9099 479.019L73.96 478.409L74.52 478.249L75.5299 478.119L76.3099 478.149Z" fill="#F46641"/>
<path d="M90.6194 501.969L89.5894 500.829L89.2794 500.019V479.659L89.1594 479.299L88.8094 479.169L77.7794 479.099L77.5594 479.069L77.1594 478.769L76.8594 478.159L88.8794 478.189L89.5494 478.469L89.8194 479.139V499.889L89.8794 500.279L90.1094 500.669L90.2594 500.869L90.6194 501.969Z" fill="#F46641"/>
<path d="M45.2701 492.779L46.1801 490.459L47.25 486.249L47.6501 481.809L47.35 481.039L46.59 480.709H46.58H36.7101L35.78 481.059L35.29 481.929L34.53 485.439L33.94 487.139L33.1801 488.589L32.2401 489.769L31.13 490.699L29.69 491.419L28.04 491.819L29.7401 490.849L31.17 489.729L32.34 488.479L33.2401 487.079L34.1 484.689L34.34 481.959L34.4601 481.279L34.83 480.699L35.39 480.309L36.07 480.159H36.09H47.75L48.05 480.279L48.2 480.569L48.31 482.679L48.2 484.709L47.88 486.679L47.36 488.569L46.4601 490.729L45.2701 492.779Z" fill="#228676"/>
<path d="M162.98 483.349L162.84 483.229L162.45 482.369L162.77 482.399L162.97 482.719L162.98 483.349Z" fill="#228676"/>
<path d="M164.26 485.77L164.07 485.58L163.39 484.59L162.98 483.35L163.96 484.58L164.26 485.77Z" fill="#228676"/>
<path d="M253.04 484.69L253.55 486.48L254.25 488.02L255.14 489.32L256.23 490.38L257.5 491.19L258.98 491.75L260.64 492.07L262.5 492.14L266.06 491.75L268.92 490.78L269.81 490.21L270.5 489.5L271.13 488.36L271.43 486.97L271.41 485.34L271.08 483.46L271.68 484.81L272 486.07L272.06 487.24L271.84 488.31L271.37 489.26L270.66 490.12L269.68 490.89L268.46 491.58L266.68 492.31L264.92 492.79L263.18 493.02L261.47 493.01L258.99 492.55L256.55 491.56L254.84 490.27L254.05 489.19L253.49 487.9L253.15 486.4L253.04 484.69Z" fill="#228676"/>
<path d="M241.1 484.75L241.05 488.05L241.09 488.51L241.26 488.98L241.7 490.16L241.9 492.34L240.96 489.91L240.66 487.48L240.78 486.12L241.1 484.75Z" fill="#228676"/>
<path d="M174.52 502.14L173.69 501.9L173.1 501.45L173 501.33L170.7 497.84L168.48 494.08L164.26 485.77L167.8 491.48L171.04 497.33L172.07 499.09L173.27 500.73L174.52 502.14Z" fill="#F46641"/>
<path d="M331.129 491.89L330.709 491.64L330.449 491.14L330.709 491.19L330.889 491.27L331.019 491.42L331.129 491.89Z" fill="#228676"/>
<path d="M23.5197 503.089L20.2297 502.889L17.0497 502.269L13.0597 500.779L9.27966 498.549L8.54968 497.989L7.23969 496.779L6.06967 495.389L5.04968 493.819L4.17969 492.069L4.38968 491.919L4.44968 491.909L4.48969 491.939L5.86969 494.009L7.40967 495.859L9.08966 497.509L10.9097 498.949L13.6497 500.569L16.6597 501.809L19.9497 502.639L23.5197 503.089Z" fill="#228676"/>
<path d="M235.67 491.369L236.22 495.279L236.14 499.369L235.76 500.999L234.94 502.139L233.87 502.739L232.47 502.949L203.24 503.059L200.9 502.729L199.66 502.269L233.6 502.149L234.32 502.049L234.85 501.739L235.18 501.219L235.32 500.489L235.67 491.369Z" fill="#228676"/>
<path d="M128.59 492.369L129.04 494.629L129.08 496.869L128.55 499.649L128.26 495.989L128.58 492.449L128.59 492.369Z" fill="#228676"/>
<path d="M45.2695 492.779L43.5695 495.779L42.5495 497.009L41.4295 498.049L38.0895 500.339L34.5195 501.969L30.6395 502.949L26.5195 503.249L35.2095 501.069L36.8895 500.399L39.2495 499.069L41.4295 497.359L43.4395 495.259L45.2695 492.779Z" fill="#228676"/>
<path d="M259.58 502.96L257.33 502.92L255.16 502.68L253.07 502.24L251.06 501.58L249.61 500.96L247.24 499.57L245.24 497.82L243.49 495.54L242.17 492.85L244.37 495.95L247.02 498.48L249.66 500.23L252.64 501.56L255.94 502.47L259.58 502.96Z" fill="#228676"/>
<path d="M70.6999 497.02L71.0199 497.54L70.6699 498.14L70.5699 498.12L70.3799 497.6L70.5399 497.09L70.6999 497.02Z" fill="#228676"/>
<path d="M279.76 498.14L276.93 500.27L273.86 501.77L270.31 502.69L266.49 502.89L269.75 502.32L272.9 501.42L276.4 500L279.76 498.14Z" fill="#228676"/>
<path d="M294.759 502.01L293.739 501.19L293.279 500.27L293.289 499.55L294.759 502.01Z" fill="#228676"/>
<path d="M70.1795 500.67L70.1495 501.39L69.9995 501.82L69.5695 502.04L68.4395 502.02L69.7195 501.38L70.1795 500.69V500.67Z" fill="#F46641"/>
<path d="M330.961 501.39L330.681 502.36L330.021 502.88L328.981 503.13H327.511L326.111 502.87L324.721 502.31L330.961 501.39Z" fill="#228676"/>
<path d="M317.68 502.44L315.32 502.87L312.96 502.99L310.8 502.84L308.65 502.42L317.68 502.44Z" fill="#228676"/>
<path d="M182.99 502.29L183.65 502.48L181.28 503.07L179 503.04L176.96 502.45L182.99 502.29Z" fill="#F46641"/>
<path d="M40.6893 529.62L39.7493 527.3L38.5893 525.26L37.2093 523.5L35.6193 522L33.8393 520.8L31.8493 519.86L29.6493 519.19L27.2393 518.78L18.5293 518.43L3.2793 518.59L11.8793 518.09L20.3393 518.04L27.1293 518.22L30.3693 518.98L33.6893 520.41L35.3493 521.41L36.7993 522.54L38.0293 523.8L39.0393 525.2L40.0593 527.29L40.6893 529.62Z" fill="#228676"/>
<path d="M83.86 518.66L51.04 518.86L51.06 518.84L51.78 518.37L52.8 518.19L63.56 518.01L73.7101 518.17L83.86 518.66Z" fill="#228676"/>
<path d="M120.27 519.34L110.23 518.51L106.49 518.36L102.29 518.45L92.5195 519.34L92.5895 518.94L93.1295 518.47L94.1795 518.23L100.53 517.88L107 517.94L113.58 518.43L120.27 519.34Z" fill="#228676"/>
<path d="M174.98 519.31L144.08 519.03L142.8 519.2L141.89 519.74L141.33 520.64L141.12 521.9L140.84 535.98L140.41 531.96L140.2 528.14V524.5L140.42 521.05L140.69 519.92L141.24 519.08L142.25 518.47L143.64 518.25L158.69 518.08L174.28 518.16L174.8 518.28L175.18 518.63L175.21 518.67L174.98 519.31Z" fill="#228676"/>
<path d="M216.689 518.56L200.059 518.88L187.479 518.72L185.399 518.93L183.859 519.76L183.409 520.24L183.199 520.62L183.089 521.13L182.849 527.42L182.369 525.3L182.189 523.34L182.329 521.54L182.769 519.91L183.069 519.38L184.069 518.65L185.629 518.36L201.079 518.08L216.689 518.56Z" fill="#F46641"/>
<path d="M232.73 519.14L231.01 518.84L229.15 518.76L227.15 518.89L225.01 519.24L224.2 519.74L223.88 520.64L224.11 566.25L224.01 567.94L224.1 569.1L224.54 569.94L225.51 570.53L226.96 570.69L230.66 570.58L231.67 570.21L233.14 569.12L232.56 570.39L231.79 570.98L231.49 571.03L225.3 571.01L224.54 570.83L223.89 570.37L223.47 569.71L223.32 568.94V519.8L223.44 519.21L223.78 518.7L224.28 518.37L224.88 518.25H231.77L232.19 518.34L232.53 518.62L232.65 518.83L232.73 519.14Z" fill="#228676"/>
<path d="M253.7 518.92L244.82 518.75L248.03 518.01L249.58 517.96L251.09 518.11L253.7 518.92Z" fill="#228676"/>
<path d="M285.02 518.909L276.9 518.849L279.14 518.279L281.36 518.149L283.2 518.379L285.02 518.909Z" fill="#228676"/>
<path d="M305.15 527.559V526.979L305.46 526.629L306.02 526.399L307.96 526.259L316.89 526.409L327.45 526.349L328.35 526.199L329 525.799L329.38 525.149L329.51 524.249V520.909L329.38 520.009L329 519.369L328.36 518.989L327.46 518.859H299.13L297.67 519.069L296.63 519.689L296 520.739L295.8 522.199L296 569.669L295.48 568.069L295.27 566.449L295.26 566.099L295.42 521.739L295.66 520.159L296.34 519.019L297.48 518.349L299.06 518.119H327.9L328.92 518.269L329.66 518.709L330.09 519.439L330.24 520.459V524.609L330.09 525.669L329.63 526.439L328.87 526.899L327.81 527.059L306.3 527.099L305.68 527.219L305.15 527.559Z" fill="#228676"/>
<path d="M40.69 529.62L41.08 531.63L41.06 534.14L40.79 536.56L40.24 538.9L39.3 541.4L38.01 543.79L37.5 544.49L36.61 545.37L35.54 546.09L34.77 546.29L34.23 546.68L33.99 547.06L33.41 547.34L33.08 547.37L32.74 548.11L32.88 548.95L33.31 549.45L34.04 549.81L36.35 554.38L40.77 566.72L41.16 568.74L41.05 569.57L40.75 570.28L40.67 570.4L35.44 571.01L34.36 571.07L33.24 570.91L32.38 569.6L31.64 568.01L30.55 564.04L29.92 561.53L28.97 558.91L27.68 556.18L26.06 553.35L24.76 551.54L24.03 551L23.25 550.71L23.1 550.68L21.04 550.4L17.26 550.16L13.44 550.26L12.67 550.62L12.35 551.41L12.41 568.13L12.28 569.25L11.82 570.05L10.87 570.59L9.47 570.71L4.12003 570.55L3.36002 569.3L3.25 568.54L3.28 518.59L18.53 518.43L27.24 518.78L29.65 519.19L31.85 519.86L33.84 520.8L35.62 522L37.21 523.5L38.59 525.26L39.75 527.3L40.69 529.62ZM12.57 526.92L12.31 542.06L12.53 542.38L13.28 542.9L14.36 543.13L15.79 543.06L17.56 542.7L20.24 542.94L23.17 542.72L24.53 542.79L25.8 542.57L26.89 542.12L27.91 541.43L30.42 539.23L31.3 537.46L31.83 535.76L32.01 534.14L31.85 532.6L30.96 530.46L29.31 528.48L27.48 527.26L25.95 526.65L23.24 526.18L20.43 525.96L17.53 526L14.53 526.28L13.65 525.84L13.02 525.87L12.71 526.24L12.57 526.92Z" fill="black"/>
<path d="M120.269 519.339L124.379 521.879L127.399 524.529L128.599 527.479L129.879 530.669L130.549 533.059L131.309 537.929L131.669 542.749L131.629 547.509L131.189 552.219L130.329 556.999L129.239 560.339L127.559 563.249L126.139 564.919L124.479 566.399L122.569 567.709L120.409 568.829L118.329 569.519L115.619 569.999L112.269 570.259L108.289 570.309L95.0294 570.549L94.2395 570.439L93.5395 570.069L92.9095 569.309L92.6595 568.359L92.4395 563.129L92.5195 519.339L102.289 518.449L106.489 518.359L110.229 518.509L120.269 519.339ZM102.299 526.159L101.969 526.219L101.659 526.439L101.539 526.839V562.559L101.619 562.809L101.869 562.899L102.219 562.799L102.779 562.999L102.759 563.049H109.529L110.629 563.019L114.069 562.809L116.299 562.129L117.999 560.889L119.809 558.759L121.099 556.409L121.639 554.839L121.989 553.189L122.129 551.449L122.079 549.629L121.899 539.709L122.079 537.709L122.009 535.819L121.679 534.049L121.089 532.399L120.009 530.529L118.539 528.839L117.929 528.589L117.569 528.059L116.379 527.159L115.109 526.709L114.239 526.659L109.539 526.069L104.849 525.989L102.299 526.159Z" fill="black"/>
<path d="M216.69 518.56L217.17 526.65L205.66 526.27L194.23 526.18L192.98 526.32L192.43 526.72L192.41 526.95V527.86L192.33 527.85L192.36 539.54L192.37 540.19L192.31 540.57L192.49 540.85L193.05 541.02L210.71 540.95L211.65 541.08L212.32 541.48L212.73 542.15L212.86 543.09V546.09L212.73 547.02L212.33 547.69L211.66 548.1L210.73 548.24L192.99 548.36L192.59 548.5L192.33 548.86L192.45 549.19L192.48 549.94L192.25 551.2L192.43 552.29L192.48 552.41L192.27 570.42L185.41 570.69L184.53 570.55L183.77 570.07L183.25 569.35L183.06 568.47V568.43L182.98 535.11L182.85 527.42L183.09 521.13L183.2 520.62L183.41 520.24L183.86 519.76L185.4 518.93L187.48 518.72L200.06 518.88L216.69 518.56Z" fill="black"/>
<path d="M232.73 519.14L233.01 520.07L233.31 544.61L233.14 569.12L231.67 570.21L230.66 570.58L226.96 570.69L225.51 570.53L224.54 569.94L224.1 569.1L224.01 567.94L224.11 566.25L223.88 520.64L224.2 519.74L225.01 519.24L227.15 518.89L229.15 518.76L231.01 518.84L232.73 519.14Z" fill="black"/>
<path d="M244.819 518.75L253.699 518.92L254.769 519.97L255.519 521.13L265.689 538.28L266.859 540.02L267.239 540.88L268.309 543.12L269.709 545.08L269.739 545.11L275.569 555.11L275.839 555.35L276.139 555.12L276.199 554.61L275.909 553.83L276.029 553.36L276.099 518.9L276.899 518.85L285.019 518.91L285.349 542.21L285.279 565.6L284.849 570.09L278.749 570.65L276.549 570.42L275.669 570.06L274.949 569.54L274.159 568.46L273.139 566.48L271.739 564.08L254.339 535.79L253.639 535.3L253.539 535.25L253.219 535.31L253.069 535.61L253.219 569.94L249.459 571.01L249.249 571.06L248.129 571.17L246.949 571.02L245.529 570.41L244.029 569.3L244.259 545.03L244.289 520.67L244.819 518.75Z" fill="black"/>
<path d="M305.15 527.559L305.25 539.419L305.21 539.709L305.46 540.319L305.83 540.609L306.29 540.689L316.36 540.539L326.23 541.169L326.3 544.709L325.91 547.299L325.04 548.259L323.57 548.499L322.17 548.159L320.83 548.179L319.76 548.479L306.2 548.159L305.47 548.439L305.16 549.159V549.169L305.24 561.379L305.04 562.159L305.4 562.779L305.98 562.999H327.94L328.95 563.349L329.53 564.249L329.8 565.869V567.319L329.54 568.589L329.01 569.679L327.67 571.019L300.24 570.959L297.26 570.639L296.42 570.269L296.02 569.769L296 569.669L295.8 522.199L296 520.739L296.63 519.689L297.67 519.069L299.13 518.859H327.46L328.36 518.989L329 519.369L329.38 520.009L329.51 520.909V524.249L329.38 525.149L329 525.799L328.35 526.199L327.45 526.349L316.89 526.409L307.96 526.259L306.02 526.399L305.46 526.629L305.15 526.979V527.559Z" fill="black"/>
<path d="M51.04 518.859L83.86 518.659L83.93 525.619L81.71 526.269L60.48 526.239L59.36 526.369L58.89 526.709L59.2 527.419L59.33 540.089L59.26 540.149L59.27 540.389L59.63 540.839L60.18 541.009L79.16 540.899L79.63 541.069L80.18 541.579L80.15 547.519L79.98 547.929L79.56 548.099L60.51 548.149L59.71 548.079L59.42 548.289L59.13 549.039L59.33 549.319L59.37 561.229V561.259L59.53 561.969L59.95 562.569L60.58 562.959L61.3 563.079L68.86 562.789L81.54 562.689L83.26 562.829L83.67 562.989L83.82 563.399L84.13 569.149L82.63 570.059L82.35 570.199L80.97 570.459L65.97 570.439L50.92 570.669L50.2 569.559L49.8 568.379L49.75 568.089L50.14 551.579V535.069L49.77 518.949L51.04 518.859Z" fill="black"/>
<path d="M174.98 519.309L175.17 525.969L150.9 525.999L150.52 526.099L150.25 526.389L150.15 527.039L150.25 527.159L150.5 536.519L150.17 538.389L150.25 540.199L150.28 540.399L150.57 540.879L151.09 541.069L169.23 540.719L170.12 540.939L171.18 541.649L171.2 546.579L170.04 547.529L169.67 548.089L151.53 548.199L151.11 547.849L150.74 547.959L150.38 548.399L150.51 549.299L150.57 549.369L150.64 549.429L150.2 555.879L150.33 562.049L150.48 562.699L150.9 563.199L151.08 563.079L174.32 563.149L174.75 563.329L174.94 563.749L175.13 569.009L174.4 569.919L173.73 570.409L172.99 570.639L172.06 570.679L166.49 570.479L161.38 570.539L156.65 570.609L150.44 570.439L143.85 570.249L142.9 569.999L141.27 569.259L140.84 535.979L141.12 521.899L141.33 520.639L141.89 519.739L142.8 519.199L144.08 519.029L174.98 519.309Z" fill="black"/>
<path d="M276.101 518.899L276.031 553.359L275.551 553.149L275.241 552.679L275.141 551.959L275.211 520.189L275.311 519.439L275.621 519.009L276.101 518.899Z" fill="#228676"/>
<path d="M49.7704 518.949L50.1404 535.069V551.579L49.7504 568.089L49.1804 552.429L49.1504 536.769L49.7704 518.949Z" fill="#228676"/>
<path d="M127.399 524.529L128.509 525.979L129.449 527.609L130.229 529.439L130.829 531.449L131.889 536.599L132.259 540.599L132.269 541.849L132.229 548.109L131.909 552.659L131.229 556.519L130.169 559.749L129.029 562.029L127.689 564.059L126.159 565.839L124.429 567.359L122.279 568.759L119.889 569.839L117.519 570.499L114.579 570.949L111.089 571.179L107.029 571.199L93.9795 570.989L93.4495 570.879L92.9895 570.569L92.6895 570.119L92.5695 569.589L92.4395 563.129L92.6595 568.359L92.8695 569.229L93.3895 569.949L94.1495 570.409L95.0294 570.549L108.289 570.309L112.269 570.259L115.619 569.999L118.329 569.519L120.409 568.829L122.569 567.709L124.479 566.399L126.139 564.919L127.559 563.249L129.239 560.339L130.329 556.999L131.189 552.219L131.629 547.509L131.669 542.749L131.309 537.929L130.549 533.059L129.879 530.669L128.599 527.479L127.399 524.529Z" fill="#228676"/>
<path d="M175.17 525.97L175.14 526.63L174.81 526.87L174.23 526.96L150.25 527.16L150.15 527.04L150.25 526.39L150.52 526.1L150.9 526L175.17 525.97Z" fill="#228676"/>
<path d="M83.9306 525.619L83.5806 526.279L83.0906 526.749L81.9606 527.049L60.2306 527.149L59.4506 527.299L59.2006 527.419L58.8906 526.709L59.3606 526.369L60.4806 526.239L81.7106 526.269L83.9306 525.619Z" fill="#228676"/>
<path d="M14.5303 526.28L14.2203 526.26L13.3903 526.42L12.5703 526.92L12.7103 526.24L13.0203 525.87L13.6503 525.84L14.5303 526.28Z" fill="#228676"/>
<path d="M217.17 526.65L204.87 527.16L192.41 526.95L192.43 526.72L192.98 526.32L194.23 526.18L205.66 526.27L217.17 526.65Z" fill="#228676"/>
<path d="M102.3 526.159L102.22 562.799L101.87 562.899L101.62 562.809L101.54 562.559V526.839L101.66 526.439L101.97 526.219L102.3 526.159Z" fill="#228676"/>
<path d="M117.57 528.059L114.24 526.659L115.11 526.709L116.38 527.159L117.57 528.059Z" fill="#228676"/>
<path d="M192.36 539.54L192.33 527.85L192.84 528.15L193.06 528.51L193.07 528.54L193.29 532.59L192.91 537.08L192.89 537.56L192.99 538.04L193.11 538.63L192.99 539.09L192.36 539.54Z" fill="#228676"/>
<path d="M30.4206 539.229L30.9406 537.519L31.2306 535.849L31.2805 534.229L31.0905 532.659L30.4306 530.519L29.3105 528.479L30.9606 530.459L31.8506 532.599L32.0106 534.139L31.8306 535.759L31.3006 537.459L30.4206 539.229Z" fill="#F46641"/>
<path d="M121.9 539.71L120.95 534.61L120.15 531.89L118.54 528.84L120.01 530.53L121.09 532.4L121.68 534.05L122.01 535.82L122.08 537.71L121.9 539.71Z" fill="#228676"/>
<path d="M41.0598 534.14L41.0898 537.09L40.6198 539.74L39.6698 541.9L38.2798 543.56L38.0098 543.79L39.2998 541.4L40.2398 538.9L40.7898 536.56L41.0598 534.14Z" fill="#228676"/>
<path d="M192.27 570.419L191.99 570.499L189.98 570.939L187.9 571.139L185.75 571.109L183.53 570.829L183.12 570.619L182.92 570.209L182.67 569.059L182.36 567.449L182.32 566.619L182.09 546.039L182.21 541.269L182.73 536.569L182.98 535.109L183.06 568.429V568.469L183.25 569.349L183.77 570.069L184.53 570.549L185.41 570.689L192.27 570.419Z" fill="#F46641"/>
<path d="M284.85 570.09L283.58 570.65L281.97 571L280.02 571.16L277.73 571.11L275.83 570.72L274.54 569.81L274.22 569.36L269.09 560.75L263.77 552.33L262.98 550.74L261.96 548.78L259.38 544.94L257.02 540.99L254.34 535.79L271.74 564.08L273.14 566.48L274.16 568.46L274.95 569.54L275.67 570.06L276.55 570.42L278.75 570.65L284.85 570.09Z" fill="#228676"/>
<path d="M150.5 536.52L151.44 539.47L151.68 539.82L152.07 539.96L158.99 540.12L166.74 540.01L170.38 540.17L170.89 540.29L171.18 540.54L171.2 540.57L171.3 541.04L171.18 541.65L170.12 540.94L169.23 540.72L151.09 541.07L150.57 540.88L150.28 540.4L150.25 540.2L150.17 538.39L150.5 536.52Z" fill="#228676"/>
<path d="M305.25 539.42L305.27 539.44L306.11 540.01L307.48 540.18L325.18 540.13L325.93 540.34L326.34 540.89L326.23 541.17L316.36 540.54L306.29 540.69L305.83 540.61L305.46 540.32L305.21 539.71L305.25 539.42Z" fill="#228676"/>
<path d="M59.3298 540.09L79.2498 540.11L79.8598 540.3L80.2698 540.8L80.1798 541.58L79.6298 541.07L79.1598 540.9L60.1798 541.01L59.6298 540.84L59.2698 540.39L59.2598 540.15L59.3298 540.09Z" fill="#228676"/>
<path d="M192.451 549.189L192.331 548.859L192.591 548.499L192.991 548.359L210.731 548.239L211.661 548.099L212.331 547.689L212.731 547.019L212.861 546.089V543.089L212.731 542.149L212.321 541.479L211.651 541.079L210.711 540.949L193.051 541.019L192.491 540.849L192.311 540.569L192.371 540.189L210.881 540.119L211.891 540.259L212.611 540.689L213.041 541.399L213.181 542.409V546.689L213.031 547.729L212.581 548.479L211.851 548.919L210.821 549.069L192.451 549.189Z" fill="#F46641"/>
<path d="M269.74 545.11L269.71 545.08L268.31 543.12L267.24 540.88L268.57 542.71L269.57 544.67L269.74 545.11Z" fill="#228676"/>
<path d="M27.9099 541.43L26.8899 542.12L25.7999 542.57L24.5299 542.79L23.1699 542.72L27.9099 541.43Z" fill="#228676"/>
<path d="M17.5605 542.7L15.7906 543.06L14.3606 543.13L13.2805 542.9L12.5305 542.38L12.3105 542.06L13.5005 542.02L15.5305 542.2L17.5605 542.7Z" fill="#F46641"/>
<path d="M275.91 553.829L276.2 554.609L276.14 555.119L275.84 555.349L275.57 555.109L269.74 545.109L272.31 548.899L274.68 552.799L274.72 552.859L275.17 553.369L275.91 553.829Z" fill="#228676"/>
<path d="M35.5402 546.09L35.3902 546.33L34.8302 546.8L33.9902 547.06L34.2302 546.68L34.7702 546.29L35.5402 546.09Z" fill="#228676"/>
<path d="M171.2 546.58L171.16 547.18L170.94 547.64L170.72 547.86L169.67 548.09L170.04 547.53L171.2 546.58Z" fill="#228676"/>
<path d="M33.4102 547.34L33.3402 548.35L34.0402 549.81L33.3102 549.45L32.8802 548.95L32.7402 548.11L33.0802 547.37L33.4102 547.34Z" fill="#228676"/>
<path d="M325.91 547.3L325.75 548.02L325.04 548.26L325.91 547.3Z" fill="#228676"/>
<path d="M151.53 548.2L150.77 549.12L150.51 549.3L150.38 548.4L150.74 547.96L151.11 547.85L151.53 548.2Z" fill="#228676"/>
<path d="M60.5099 548.15L59.3299 549.32L59.1299 549.04L59.4199 548.29L59.7099 548.08L60.5099 548.15Z" fill="#228676"/>
<path d="M323.57 548.499L322.16 548.809L320.97 548.769L319.76 548.479L320.83 548.179L322.17 548.159L323.57 548.499Z" fill="#228676"/>
<path d="M102.76 563.05L103.21 562.55L103.69 562.36L104.43 562.65L104.85 562.83L105.25 562.7L106.34 562.34L107 562.46L107.48 562.57H108.01L113.15 561.92L114.76 561.6L116.18 561.1L117.42 560.41L118.47 559.53L119.36 558.44L120.05 557.16L120.94 554.4L122.08 549.63L122.13 551.45L121.99 553.19L121.64 554.84L121.1 556.41L119.81 558.76L118 560.89L116.3 562.13L114.07 562.81L110.63 563.02L109.53 563.05H102.76Z" fill="#228676"/>
<path d="M151.08 563.08L150.9 563.2L150.48 562.7L150.33 562.05L150.2 555.88L150.64 549.43L151.19 553.46L151.39 557.5L151.08 563.08Z" fill="#228676"/>
<path d="M26.0601 553.349L24.8901 552.379L23.7301 551.679L22.6001 551.249L21.4801 551.099L14.0801 551.129L13.4801 551.389L13.2401 551.979L13.2901 557.179L13.2801 566.839L13.0701 569.259L12.7201 570.359L12.0101 570.759L10.7401 570.959L6.83011 570.999L4.12012 570.549L9.47009 570.709L10.8701 570.589L11.8201 570.049L12.2801 569.249L12.4101 568.129L12.3501 551.409L12.6701 550.619L13.4401 550.259L17.2601 550.159L21.0401 550.399L23.1001 550.679L23.2501 550.709L24.0301 550.999L24.7601 551.539L26.0601 553.349Z" fill="#228676"/>
<path d="M192.48 549.939L192.87 550.409L192.95 551.279L192.48 552.409L192.43 552.289L192.25 551.199L192.48 549.939Z" fill="#228676"/>
<path d="M33.2406 570.91L32.4606 570.7L31.6106 569.79L31.1506 568.14L30.6106 565.6L29.5806 562.29L26.0605 553.35L27.6806 556.18L28.9706 558.91L29.9206 561.53L30.5506 564.04L31.6406 568.01L32.3806 569.6L33.2406 570.91Z" fill="#F46641"/>
<path d="M36.3496 554.38L38.4296 558.79L39.9796 563.35L40.7696 566.72L36.3496 554.38Z" fill="#228676"/>
<path d="M305.24 561.38L305.21 561.71L305.45 561.91L305.98 561.98L325.48 562.12L327.14 562.31L329.52 562.92L329.9 563.16L330.08 563.58L330.34 567.11L330.1 569.72L329.75 570.43L328.93 570.92L327.67 571.02L329.01 569.68L329.54 568.59L329.8 567.32V565.87L329.53 564.25L328.95 563.35L327.94 563H305.98L305.4 562.78L305.04 562.16L305.24 561.38Z" fill="#F46641"/>
<path d="M81.5394 562.69L68.8594 562.79L72.2794 562.26L75.6894 562.09L78.6194 562.26L81.5394 562.69Z" fill="#F46641"/>
<path d="M84.1299 569.149L83.8999 569.929L83.4499 570.419L82.7699 570.769L80.7199 571.059L63.8199 571.009L50.9199 570.669L65.9699 570.439L80.9699 570.459L82.3499 570.199L82.6299 570.059L84.1299 569.149Z" fill="#228676"/>
<path d="M175.13 569.01L175.3 569.67L175.27 570.18L175.03 570.63L174.639 570.96L174.15 571.1H174.06L143.82 571.09L142.91 570.99L142.27 570.67L141.27 569.26L142.9 570L143.85 570.25L150.44 570.44L156.65 570.61L161.38 570.54L166.49 570.48L172.06 570.68L172.99 570.64L173.73 570.41L174.4 569.92L175.13 569.01Z" fill="#228676"/>
<path d="M246.949 571.02L245.029 570.99L244.719 570.94H244.699L244.279 570.47L244.029 569.3L245.529 570.41L246.949 571.02Z" fill="#228676"/>
<path d="M253.22 569.939L253.06 570.469L252.6 570.879L251.85 571.109L249.46 571.009L253.22 569.939Z" fill="#228676"/>
<path d="M40.6695 570.399L39.4395 570.839L37.4995 571.139L35.4395 571.009L40.6695 570.399Z" fill="#228676"/>
</svg>
