<svg xmlns="http://www.w3.org/2000/svg" width="300" height="400" viewBox="0 0 300 400">
  <!-- Background Circle -->
  <circle cx="150" cy="200" r="120" fill="#F0F0F0" stroke="#000" stroke-width="2" />

  <!-- Diamond Outline -->
  <polygon points="150,90 190,160 150,230 110,160" fill="#000" opacity="0.7" />
  
  <!-- Inner Shine (Gem Facet Lines) -->
  <line x1="150" y1="90" x2="150" y2="230" stroke="#FFF" stroke-width="2" />
  <line x1="110" y1="160" x2="190" y2="160" stroke="#FFF" stroke-width="2" />

  <!-- Radiating Shine Lines -->
  <line x1="150" y1="70" x2="150" y2="50" stroke="#FFD700" stroke-width="2" />
  <line x1="170" y1="80" x2="190" y2="60" stroke="#FFD700" stroke-width="2" />
  <line x1="130" y1="80" x2="110" y2="60" stroke="#FFD700" stroke-width="2" />
  <line x1="200" y1="140" x2="220" y2="140" stroke="#FFD700" stroke-width="2" />
  <line x1="100" y1="140" x2="80" y2="140" stroke="#FFD700" stroke-width="2" />

  <!-- Glowing Effect -->
  <circle cx="150" cy="160" r="70" fill="none" stroke="#FFD700" stroke-opacity="0.5" stroke-width="4" />

  <!-- Coal Circle -->
  <circle cx="150" cy="270" r="20" fill="#000" />

  <!-- Connecting Lines -->
  <line x1="150" y1="250" x2="150" y2="290" stroke="#000" stroke-width="2" />
  <line x1="150" y1="250" x2="130" y2="280" stroke="#000" stroke-width="2" />
  <line x1="150" y1="250" x2="170" y2="280" stroke="#000" stroke-width="2" />

  <!-- Larger Elegant Text -->
  <text x="150" y="370" font-size="20" text-anchor="middle" fill="#000" font-family="Georgia, serif" font-weight="bold">
    Rare • Strong • Beautiful
  </text>
</svg>
