<svg width="400" height="601" viewBox="0 0 400 601" fill="none" xmlns="http://www.w3.org/2000/svg">
<path d="M274.599 3.66L268.059 1.74001L264.099 0.940002L258.059 0.669998L249.429 0.720001L234.759 0.940002L58.7891 0.970001L60.2891 0.279999L62.5991 0.0500031L252.349 0L258.979 0.209991L265.089 0.830002L269.859 1.88L274.599 3.66Z" fill="#676661"/>
<path d="M56.6495 1.18867L46.7595 3.32867L37.1195 6.21867L27.9495 9.76868L27.5995 9.79868L27.5195 9.68867L30.3695 8.22867L32.8195 7.22867L41.9895 4.16867L52.0695 1.46867L54.1195 1.14867L56.1395 1.13867L56.6495 1.18867Z" fill="#676661"/>
<path d="M58.7898 0.970154L234.76 0.940155L249.43 0.720154L258.06 0.670151L264.1 0.940155L268.06 1.74016L274.6 3.66016L275.3 3.74016L275.68 4.01015L275.69 4.02016L287.75 10.9702L288.37 11.3701L288.58 11.7702L298.08 21.1902L300.42 23.7702L301.92 26.6102L304.71 30.9102L307.16 35.4301L311.23 44.2301L312.84 48.0602L314.15 51.6602L315.13 55.0201L315.81 58.1501L316.6 64.6902L316.7 71.2101L316.26 76.6702V76.7101L316.32 77.3301L316.61 77.8802L317.1 78.2602L317.7 78.4301L325.07 78.8401L332.76 79.0501L349.11 78.8601L350.02 79.0801L351.34 79.5602L356.43 80.7902L361.35 82.4601L365.6 84.3202L369.7 86.5302L373.68 89.1002L377.51 92.0102L383.17 97.5302L388.39 104.64L391.69 111.26L394.03 119.09L395.13 124.02L395.51 128.87L395.52 135.19L395.34 146.37L395.41 175.85L395.28 205.24L393.74 205.94L392.27 206.35L390.89 206.46L389.58 206.27L388.75 205.97L388.42 205.8L387.47 205.05L386.79 204.06L386.33 202.8L386.17 201.47L386.03 175.27L386.17 140.03L386.04 131.07L385.49 125.57L384.18 120.36L382.39 115.51L380.12 111.01L377.38 106.88L373.95 102.88L369.97 99.2802L365.46 96.0901L360.41 93.3102L355.69 91.2802L351.07 89.8301L346.55 88.9402L342.12 88.6201L317.03 88.8301L316.7 88.9502L316.6 89.2602V97.5201L316.72 97.8802L317.08 97.9901L339.67 97.8802H340.05L343.14 98.0501L346.17 98.4802L349.22 99.1801L352.19 100.15L355.09 101.37L357.87 102.84L360.51 104.52L363.01 106.42L365.34 108.52L367.5 110.81L369.46 113.27L371.2 115.89L372.71 118.63L373.98 121.51L374.96 124.39L375.7 127.38L376.03 130.04L376.28 134.25L376.51 147.28L376.49 171.65L376.28 192.12L376.05 193.65L375.43 194.87L374.07 195.98L372.08 196.6L371.63 196.55L369.73 196L368.36 194.97L367.54 193.48L367.26 191.51L367.2 140.61L367.13 136.38L366.88 132.74L366.45 129.68L365.83 127.21L364.84 124.56L363.64 122.09L362.23 119.78L360.62 117.65L358.58 115.48L356.28 113.52L353.73 111.78L350.92 110.25L346.73 108.54L345.03 108.11L343.61 107.97L316.93 107.84L316.78 107.89L316.74 108.02V117.48L316.81 117.7L317.03 117.77L337.4 117.66L339.7 117.87L341.93 118.35L344.03 119.08L346.07 120.07L348.03 121.32L349.92 122.82L351.44 124.29L352.76 125.84L353.89 127.49L354.83 129.23L355.66 131.3L356.24 133.48L356.58 135.77L356.68 138.18L356.57 163.89L356.82 185.58L356.73 187.55L356.39 189.17L355.79 190.5L354.86 191.57L353.51 192.36L351.69 192.74L350.45 192.66L349.39 192.26L348.55 191.61L347.91 190.76L347.47 189.74L347.26 188.59L347 181.03L347.16 140.7L347.07 137.8L346.76 135.51L346.16 133.52L345.31 131.92L343.78 130.2L341.6 128.69L340.05 128.08L338.01 127.66L335.46 127.44L332.41 127.43L317.19 127.59L316.86 127.72L316.73 128.05V198.82L316.42 199.75L315.49 200.06H308.45L307.72 199.91L307.1 199.5L306.68 198.88L306.53 198.15L306.43 186.51L306.84 101.03L306.74 92.3901L306.34 85.4601L306.25 66.4702L305.97 63.5201L305.69 61.0002L305.63 59.0501L305.28 57.1902L304.11 54.3802L303.96 54.2602L303.83 53.5702L302.6 49.6501L301.16 45.8401L299.5 42.1602L297.63 38.6002L293.75 32.5401L289.19 26.8602L285.13 22.8401L281.58 19.5502L278.61 17.3602L275.4 15.4601L275.35 15.4402L275.27 15.4501L275.12 15.5802L275.09 15.6602L275.04 15.6501L274.65 15.3102L274.28 14.8201L273.76 14.5802L273.07 14.5602L272.05 14.1702L271.58 13.8902L268.07 12.4501L264.46 11.6002L261.09 11.3201L257.64 11.5202L252.01 12.4501L248.62 13.4202L245.66 15.0002L244.03 16.3201L242.57 17.8701L241.27 19.6702L240.15 21.7101L239.57 22.3502L239.39 22.9702L239.47 23.3302L238.55 25.4301L238.4 25.8302L237.67 28.4702L237.4 31.2802L237.25 47.1101L237.31 63.4202L237.36 83.4102L237.24 138.6L237.2 215.28L237.33 303.03L237.66 307.18L238.59 311.01L239.51 313.16L240.75 315.07L242.93 317.24L245.68 318.97L248.62 320.87L249.5 321.38L252.26 322.48L255.35 322.98L261.85 323.14L268.4 322.77L270.31 323.69L271.56 325L272.02 326.05L272.22 327.25L272.16 328.61L271.84 330.14L270.86 331.09L269.77 331.79L268.05 332.37L266.1 332.48L257.36 332.21L248.58 332.4L221.35 332.14L102.1 332.07L82.0898 331.94L61.6298 331.93L41.2198 332.27L38.1598 332.5L35.2598 333.21L32.5898 334.37L30.0798 335.99L28.3898 337.03L26.4898 337.92L24.7998 339.08L22.9597 340.94L19.8898 343.97L18.3198 345.58L16.9498 347.33L15.3598 349.93L14.1298 352.78L14.2398 352.73L14.0798 352.99L13.6098 353.55L13.7498 353.83L12.5298 356.25L11.5298 359.21L10.8498 362.22L10.4098 366.39L10.5498 370.65L11.2198 375.91L12.1398 380.26L12.5898 381.8L13.6698 384.6L15.0398 387.31L16.6998 389.92L18.6497 392.44V392.58L18.8298 393.02L19.3098 393.44L20.0998 394.2L20.3798 394.84L23.6698 398.96L27.4098 402.54L31.4198 405.49L35.8398 407.94L46.7298 413.13L52.3598 416.49L54.6198 418.17L56.4998 419.87L61.3398 424.24L65.6497 427.79L70.1398 430.74L74.8098 433.1L79.6598 434.86L82.6698 435.64L85.7498 436.19L88.8898 436.54L92.0998 436.66L176.97 436.78L333.61 436.65L344.18 436.3L348.1 435.87L351.12 435.27L354.38 434.29L357.52 433.1L360.54 431.7L363.43 430.1L367.65 427.22L371.58 423.85L374.44 420.87L377 417.7L379.26 414.35L381.21 410.83L383.35 405.82L384.9 400.57L385.84 395.12L386.15 389.53V314.15L386.29 307.92L386.73 306.71L387.43 305.74L388.36 305.02L389.53 304.53L390.95 304.27L392.61 304.25L393.79 304.54L394.61 305.13L395.27 306.04L395.35 399.87L395.5 400.21L395.51 400.73L395.29 401.3L391.38 413.71L391.14 414.2L386.19 422.3L384.22 425.07L382.59 427L379.37 430.41L377.74 432.38L376.41 433.65L374.75 434.59L370.79 437.15L367.58 439.31L365.21 440.64L359.6 443.01L354.24 444.8L349.69 445.76L344.89 446.11L279.61 446.34L91.6898 446.41L85.1698 446.12L81.7097 445.61L78.7298 444.93L73.3198 443.12L66.8598 440.44L66.6497 440.41L65.8898 439.81L65.5898 439.42L64.8198 439.32L64.4098 439.06L63.8098 438.37L63.1098 437.88L62.0498 437.55L61.5598 437.27L61.3997 437.06L60.9698 436.46L60.5398 436.25L60.3498 436.28L57.8798 434.55L55.9597 432.49L53.5598 430.21L50.9698 428.07L48.2097 426.08L45.2698 424.22L42.1398 422.52L38.8298 420.95L31.6797 418.25L29.9498 416.73L28.0698 415.34L26.0198 414.1L23.8098 413L20.1497 409.98L12.8997 402.34L12.6698 402.16L12.1398 401.3L11.9597 400.74L11.5398 400.53L11.4297 399.89L10.8298 399.57L10.1198 398.89L9.71976 398.14L8.66977 395.76L7.50977 393.8L6.13977 391.95L5.85977 391.53L5.57977 390.18L4.83975 388.82L3.45975 385.23L2.36975 381.85L1.58975 378.7L1.10977 375.76L0.89975 372.34L0.90976 367.78L1.06976 359.81L0.829773 72.0302L0.90976 51.0501L0.759766 49.9301L0.879761 48.6501L1.09976 48.7101L1.31976 48.4601L1.45975 47.8401L1.99976 44.2402L2.78976 40.7502L3.80975 37.3701L5.08975 34.0802L7.48978 29.2901L10.4498 24.7402L13.8098 20.8201L17.2298 16.9102L18.4098 15.7702L19.6797 14.9601L27.2498 9.98015L27.4597 9.86015L27.5198 9.69016L27.5998 9.80016L27.9498 9.77016L37.1198 6.22015L46.7598 3.33015L56.6497 1.19016L57.1898 0.740158L57.9098 0.660156L58.7898 0.970154ZM75.5198 51.0102L75.0998 51.4402L74.0398 52.6602L73.6998 53.6002L73.6098 54.6801L73.8498 56.0702L74.4498 57.1602L75.1398 57.8001L75.9998 58.2502L78.0998 58.6201H128.09L168.83 58.2802L169.74 57.8202L170.28 57.2602L171.42 55.8901L171.8 54.5201L171.4 53.1201L170.21 51.7302L169.69 51.1401L169.05 51.0302L168.63 50.4001L167.62 50.1002L124.63 50.1902L77.1198 50.0801L76.4597 50.1702L75.9398 50.4301L75.5198 51.0102ZM30.2798 56.8202L25.7198 59.8102L24.2298 60.4102L23.0098 61.3001L22.3398 62.0501L14.3298 69.5501L13.3198 70.7101L12.4198 72.2101L11.7598 73.9001L11.3598 75.7802L11.2198 77.8401L11.1698 103.85L11.3798 129.61L11.4597 129.91L11.9998 130.26L12.5898 129.98L13.1298 129.21L15.6898 127L16.4698 126.93L16.8798 126.29L19.7798 124.03L20.5398 123.88L21.3098 123.06L22.8898 122.41L23.7298 121.46L23.8198 121.18L26.1298 120.08L27.9798 118.91L29.3598 117.67L30.2898 116.37L30.9398 96.0702L30.9198 73.7902L30.6797 64.1801L30.2798 56.8202ZM74.8898 106.01L74.3798 106.25L73.9498 106.99L73.5098 108.04L73.4198 109.06L73.6797 110.02L74.2798 110.95L74.8698 111.4L75.3598 112.03L75.9297 112.63L76.5598 112.94L76.9198 112.98L189.05 112.96L190.97 112.83L192.29 112.44L193.05 111.94L193.62 111.3L194.03 110.44L194.21 109.42L194.08 107.99L193.36 106.37L193.12 105.67L192.74 105.32L192.02 105.42L79.5698 105.03L78.2298 104.7L77.1098 104.62L76.1898 104.77L75.4798 105.17L74.8898 106.01ZM24.4198 135.82L12.8298 144.62L12.3098 144.91L11.6898 145.75L11.4198 147.04L11.2398 151.93L11.3698 156.19L11.5298 156.58L11.9398 156.69L12.3997 156.52L12.5398 156.19L13.7898 155.07L15.1698 154.34L15.8698 153.38L15.8997 153.29L23.5998 147.74L25.8698 146.83L27.1898 146.01L28.4098 145.01L28.4297 144.94L28.5398 144.86L29.2598 144.82L29.6497 144.57L29.6598 143.95L30.0998 142.77L30.2298 139.06L30.1298 134.77L30.6198 132.92L30.4798 132.35L29.9297 132.15L29.6898 132.25L24.4198 135.82ZM24.3398 161.76L23.7398 162.27L23.5698 162.29L20.7398 164L18.1497 165.98L14.9498 169.16L12.1797 172.85L11.5898 173.95L11.3798 174.78L11.1298 202.62L11.4597 230.37L11.6198 230.69L11.9597 230.75L12.0498 230.72L12.5698 230.19L12.5898 230.11L13.8198 229.01L15.0898 228.39L15.9398 227.51L16.1598 227.08L17.2398 226.1L18.2798 225.53L27.7298 219.91L29.2298 218.92L30.0298 218.03L30.3798 217.17L30.5298 216.04L30.8698 203.71L31.0198 191.32L30.9597 178.87L30.6998 166.37L31.0098 158.56L30.7698 158.01L30.1898 157.88L29.9998 157.97L24.3398 161.76ZM75.7598 166.24L78.9297 166.86L81.5998 167.06L184.35 167.01L188.25 166.86L191.56 166.42L192.04 166.57L192.51 166.45L192.74 166.25L192.85 165.95L193.87 164.42L194.19 162.9L193.94 161.7L193.24 160.5L192.54 159.82L191 159.18L188.68 159.04H188.35L76.4698 159.08L75.0098 159.5L74.0498 160.29L73.6098 161.32L73.4698 163.63L73.6998 164.53L74.1398 165.26L74.8398 165.85L75.7598 166.24ZM75.1698 214.25L73.9398 215.9L73.5398 217.68L73.8498 219.08L74.7898 220.08L76.3798 220.74L168.89 220.84L169.76 220.8L170.59 220.1L170.97 219.78L171.18 219.21L171.27 219.26L171.36 219.28L171.41 219.23L171.86 218.23L171.97 217.25L171.75 216.33L171.2 215.43L171.08 215.29L170.68 214.52L170.14 213.91L169.03 213.32L167.59 213.12L76.8798 213.1L75.7898 213.4L75.1698 214.25ZM29.5698 233.78L25.6797 235.82L21.4198 238.27L17.5698 241.2L15.2598 243.39L13.1398 245.78L11.9398 247.72L11.3498 249.96L11.2298 253.11V254.04L11.1998 278.84L11.3798 303.71L11.4498 304.34L11.8198 305.03L12.1797 304.59L12.3997 304.85L12.7097 304.98L12.9898 304.79L13.1098 304.63L14.6497 303.01L24.2598 296.47L25.2398 296.21L25.7898 295.72L25.9098 295.16L28.0498 293.6L29.8198 291.76L30.0798 291.44L30.3098 291.05L30.3898 290.62L30.8298 279.07L31.0298 267.54L30.9597 256.03L30.6497 244.54L30.6698 233.97L30.5598 233.53L30.2198 233.25L29.5398 233.16L29.5698 233.78ZM168.87 275.01L170.42 274.08L171.41 272.86L171.82 271.34L171.66 269.52L170.87 268.29L169.86 267.48L169.02 267.17L168.07 267.07L77.9098 267.06L76.0798 267.32L74.7798 268.11L74.0398 269.39L73.8198 271.17V271.4L74.0498 273.18L74.7998 274.45L76.0998 275.24L77.9597 275.5L168.6 275.42L168.93 275.31L168.87 275.01Z" fill="black"/>
<path d="M275.689 4.01953L279.269 5.53952L282.669 7.36952L285.269 9.06952L287.749 10.9695L275.689 4.01953Z" fill="#676661"/>
<path d="M27.2497 9.97852L19.6797 14.9585L21.5397 13.3885L23.4997 11.9985L27.2497 9.97852Z" fill="#676661"/>
<path d="M271.58 13.8884L267.73 12.7384L263.92 12.0284L260.17 11.7584L256.46 11.9284L253.47 12.3984L250.05 13.5284L246.16 15.5784L243.48 17.5784L241.68 19.4984L240.15 21.7084L241.27 19.6684L242.57 17.8684L244.03 16.3184L245.66 14.9984L248.62 13.4184L252.01 12.4484L257.64 11.5184L261.09 11.3184L264.46 11.5984L268.07 12.4484L271.58 13.8884Z" fill="#676661"/>
<path d="M298.08 21.1895L288.58 11.7695L291.36 13.8195L293.9 16.1195L296.1 18.5395L298.08 21.1895Z" fill="#676661"/>
<path d="M274.65 15.3086L274.14 15.1486L273.07 14.5586L273.76 14.5786L274.28 14.8186L274.65 15.3086Z" fill="#676661"/>
<path d="M285.13 22.8394L275.09 15.6595L275.12 15.5795L275.27 15.4494L275.35 15.4395L275.4 15.4594L278.61 17.3595L281.58 19.5495L285.13 22.8394Z" fill="#676661"/>
<path d="M17.2289 16.9102L13.8089 20.8201L10.4489 24.7402L7.48892 29.2901L5.0889 34.0802L3.8089 37.3701L2.78891 40.7502L1.9989 44.2402L1.45889 47.8401L1.31891 48.4601L1.09891 48.7101L0.878906 48.6501L1.66891 43.5802L2.95889 38.6702L4.5589 34.3102L6.5889 30.0901L9.0289 26.0101L11.8789 22.0502L14.5389 19.0901L17.2289 16.9102Z" fill="#676661"/>
<path d="M240.149 21.709L239.469 23.329L239.389 22.969L239.569 22.349L240.149 21.709Z" fill="#2A4563"/>
<path d="M377.51 92.0095L373.68 89.0995L369.7 86.5295L365.6 84.3195L361.35 82.4595L356.43 80.7895L351.34 79.5595L350.02 79.0795L349.11 78.8595L332.76 79.0495L325.07 78.8395L317.7 78.4295L317.1 78.2595L316.61 77.8795L316.32 77.3295L316.26 76.7095V76.6695L316.7 71.2095L316.6 64.6895L315.81 58.1495L315.13 55.0195L314.15 51.6595L312.84 48.0595L311.23 44.2295L307.16 35.4295L304.71 30.9095L301.92 26.6095L300.42 23.7695L305.22 30.8695L309.31 38.3095L311.28 42.5795L313.03 46.9595L314.56 51.4395L315.87 56.0295L316.81 60.5495L317.15 64.5895L317.06 77.4295L317.24 77.8895L317.7 78.0895H317.71L343.08 78.0995L347.09 78.2995L351.01 78.7895L354.83 79.5695L358.55 80.6495L363.58 82.6295L368.41 85.1895L373.06 88.3195L377.51 92.0095Z" fill="#676661"/>
<path d="M238.549 25.4297L238.159 30.7797L238.079 45.5997L238.269 68.5597L238.229 69.2397L238.219 69.4897V70.2397V70.4897L238.229 71.2397L238.219 73.4897V74.2397V74.4897V75.2397L238.209 75.4797L238.129 76.2397L238.159 155.73L238.059 304.78L238.339 307.98L239.179 310.96L240.269 313.17L241.709 315.25L243.509 317.18L245.679 318.97L242.929 317.24L240.749 315.07L239.509 313.16L238.589 311.01L237.659 307.18L237.329 303.03L237.199 215.28L237.239 138.6L237.359 83.4097L237.309 63.4197L237.249 47.1097L237.399 31.2797L237.669 28.4697L238.399 25.8297L238.549 25.4297Z" fill="#676661"/>
<path d="M303.829 53.5694L300.789 46.1594L297.189 39.0594L293.419 32.8294L289.189 26.8594L293.749 32.5394L297.629 38.5994L299.499 42.1594L301.159 45.8394L302.599 49.6494L303.829 53.5694Z" fill="#335C81"/>
<path d="M297.65 87.9899L297.29 88.1499L297 88.8399L297.17 90.0599L297.44 92.0499L297.28 107.56L297.68 123.11L297.14 187.21L296.87 189.02L296.11 190.39L294.88 191.29L293.19 191.78L293.03 191.79L290.89 191.37L290.07 190.94L289.41 190.37L288.74 189.24L288.43 187.79L288.02 178.68L288.1 175.01L288.36 171.92L288.71 131.69L288.34 91.4199L288.46 71.7699L288.74 69.7199L288.79 67.5199L288.63 65.1799L288.24 62.6899L288.02 58.7199L287.15 54.9599L286.21 52.5799L284.98 50.2999L283.46 48.1199L281.65 46.0299L279.83 44.3799L277.04 42.1899L275.9 41.1799L275.23 40.1899L274.91 38.8699L274.94 36.8699L275.23 35.8399L275.75 35.2099L276.53 34.7299L278.13 34.2199L279.64 34.1699L281.7 34.6799L283.73 35.6899L285.72 37.1799L287.67 39.1599L290.02 42.1099L292.05 45.1699L293.77 48.3499L295.18 51.6499L296.34 55.3499L297.13 59.1799L297.56 63.1499L297.62 67.2499L297.42 73.8199L297.65 87.9899Z" fill="#335C81"/>
<path d="M279.729 120.71L279.229 133.3L279.219 145.89L279.649 157.57L278.579 169.88L278.459 170.34L278.169 170.75L276.719 171.7L275.679 172L274.539 172.05L273.299 171.87L271.959 171.45L271.479 169.94L271.129 168.12L270.829 163.53L270.269 94.5599L270.199 75.0299L270.009 70.7499L269.379 66.9399L268.309 63.7299L266.789 61.0099L264.299 58.1199L261.419 55.8499L259.399 54.7299L257.209 53.8599L254.859 53.2399L252.359 52.8599L250.779 52.4899L249.569 51.7299L248.829 50.7699L248.359 49.5299L248.139 47.3099L248.339 46.3599L248.739 45.5899L249.429 44.8899L250.319 44.3999L251.479 44.0599L252.789 43.9199L256.259 44.1699L260.119 45.1099L263.049 46.2299L265.759 47.5799L268.249 49.1799L270.539 51.0099L272.619 53.0999L274.479 55.4399L276.119 58.0199L277.549 60.8399L278.239 62.6899L278.739 64.6799L279.029 66.8099L279.129 69.0799L279.089 81.0499L279.119 99.3599L279.499 110.9L279.729 120.71Z" fill="#335C81"/>
<path d="M169.05 51.0301L75.5195 51.0101L75.9395 50.4301L76.4595 50.1701L77.1195 50.0801L124.63 50.1901L167.62 50.1001L168.63 50.4001L169.05 51.0301Z" fill="#676661"/>
<path d="M4.84 388.819L4.44 389.029L2.64999 384.229L1.73001 380.959L1.02002 377.629L0.51001 374.229L0.220001 370.759L0 362.949L0.0700073 351.919L0.130005 346.059V56.0288L0.320007 53.3088L0.910004 51.0488L0.830017 72.0288L1.07001 359.809L0.910004 367.779L0.899994 372.339L1.11002 375.759L1.59 378.699L2.37 381.849L3.45999 385.229L4.84 388.819Z" fill="#676661"/>
<path d="M75.0994 51.4395L74.0894 54.4195L74.0394 54.8994L74.1994 55.3495L74.9594 56.4294L76.3194 57.7495L76.7694 57.9894L77.2194 58.0594L168.829 58.2794L128.089 58.6194H78.0994L75.9994 58.2495L75.1394 57.7994L74.4494 57.1595L73.8494 56.0695L73.6094 54.6794L73.6994 53.5995L74.0394 52.6595L75.0994 51.4395Z" fill="#676661"/>
<path d="M170.279 57.2585L170.169 56.6385L170.299 56.2385L170.439 56.1285L171.069 55.5585L171.369 54.7685L171.279 53.9185L170.809 53.2085L170.339 52.8885L170.289 52.8585L170.119 52.4685L170.209 51.7285L171.399 53.1185L171.799 54.5185L171.419 55.8885L170.279 57.2585Z" fill="#676661"/>
<path d="M305.689 60.9989L304.109 54.3789L305.279 57.1889L305.629 59.0489L305.689 60.9989Z" fill="#335C81"/>
<path d="M30.2893 116.368L30.2793 56.8184L30.6793 64.1783L30.9193 73.7884L30.9393 96.0684L30.2893 116.368Z" fill="#676661"/>
<path d="M25.7198 59.8086L22.3398 62.0486L23.0099 61.2986L24.2299 60.4086L25.7198 59.8086Z" fill="#676661"/>
<path d="M288.46 71.7694L288.24 62.6895L288.63 65.1794L288.79 67.5194L288.74 69.7195L288.46 71.7694Z" fill="#676661"/>
<path d="M261.819 71.6895L261.439 89.8395L261.259 108.01L261.299 126.22L261.549 144.45L261.709 145.41L261.529 146.55L260.969 147.7L260.189 148.51L259.019 148.97L256.549 149.11L254.679 148.77L253.359 147.92L252.829 147.16L252.499 146.21L252.359 145.07L252.429 143.74L252.569 69.2395L252.659 67.1595L253.399 65.5695L254.089 64.9095L254.979 64.3995L255.999 64.0795L257.009 64.0195L258.239 64.2795L259.439 64.9095L260.299 65.6195L260.979 66.4496L261.529 67.5396L261.859 68.7695L261.949 70.1495L261.819 71.6895Z" fill="#335C81"/>
<path d="M252.43 143.74L252.25 69.6302L252.28 69.5103L252.35 69.4203L252.57 69.2402L252.43 143.74Z" fill="#676661"/>
<path d="M14.3299 69.5488L13.4599 71.1989L12.8099 72.9189L12.2899 75.1689L12.1099 77.5288L12.0699 98.0888L12.1599 127.989L12.3799 128.759L13.1299 129.209L12.5899 129.979L11.9999 130.259L11.4599 129.909L11.3799 129.609L11.1699 103.849L11.2199 77.8388L11.3599 75.7788L11.7599 73.8988L12.4199 72.2088L13.3199 70.7088L14.3299 69.5488Z" fill="#676661"/>
<path d="M261.82 71.6895L262.14 103.129L262.01 138.279L261.88 141.649L261.55 144.449L261.3 126.219L261.26 108.009L261.44 89.8394L261.82 71.6895Z" fill="#676661"/>
<path d="M306.429 186.509L306.139 170.569L306.339 85.459L306.739 92.389L306.839 101.029L306.429 186.509Z" fill="#2A4563"/>
<path d="M297.65 87.9902L298.02 96.2702L298.16 104.54L298.09 112.8L297.79 121.04L297.68 123.11L297.28 107.56L297.44 92.0502L297.17 90.0602L297 88.8402L297.29 88.1502L297.65 87.9902Z" fill="#676661"/>
<path d="M395.28 205.239L395.08 221.569L394.98 221.999L394.64 222.379L394.3 222.609L391.64 219.419L388.86 216.379L385.61 213.559L382.22 211.009L378.69 208.739L375.03 206.739L371.2 205.009L367.24 203.559L363.7 202.589L359.78 201.859L355.48 201.369L350.8 201.119L334.11 200.979L322.31 201.139L313.35 201.069L309.94 200.809L306.73 200.229L306.34 200.009L306.2 199.589L305.99 192.989L306.01 191.569L306.14 170.569L306.43 186.509L306.53 198.149L306.68 198.879L307.1 199.499L307.72 199.909L308.45 200.059H315.49L316.42 199.749L316.73 198.819V128.049L316.77 127.849L317.19 127.589L332.41 127.429L335.46 127.439L338.01 127.659L340.05 128.079L341.6 128.689L343.78 130.199L345.31 131.919L346.16 133.519L346.76 135.509L347.07 137.799L347.16 140.699L347 181.029L347.26 188.589L347.47 189.739L347.91 190.759L348.55 191.609L349.39 192.259L350.45 192.659L351.69 192.739L353.51 192.359L354.86 191.569L355.79 190.499L356.39 189.169L356.73 187.549L356.82 185.579L356.57 163.889L356.68 138.179L356.58 135.769L356.24 133.479L355.66 131.299L354.83 129.229L353.89 127.489L352.76 125.839L351.44 124.289L349.92 122.819L348.03 121.319L346.07 120.069L344.03 119.079L341.93 118.349L339.7 117.869L337.4 117.659L317.03 117.769L316.81 117.699L316.74 117.479V108.019L316.78 107.889L316.93 107.839L343.61 107.969L345.03 108.109L346.73 108.539L350.92 110.249L353.73 111.779L356.28 113.519L358.58 115.479L360.62 117.649L362.23 119.779L363.64 122.089L364.84 124.559L365.83 127.209L366.45 129.679L366.88 132.739L367.13 136.379L367.2 140.609L367.26 191.509L367.54 193.479L368.36 194.969L369.73 195.999L371.63 196.549L372.08 196.599L374.07 195.979L375.43 194.869L376.05 193.649L376.28 192.119L376.49 171.649L376.51 147.279L376.28 134.249L376.03 130.039L375.7 127.379L374.96 124.389L373.98 121.509L372.71 118.629L371.2 115.889L369.46 113.269L367.5 110.809L365.34 108.519L363.01 106.419L360.51 104.519L357.87 102.839L355.09 101.369L352.19 100.149L349.22 99.1791L346.17 98.4792L343.14 98.0491L340.05 97.8792H339.67L317.08 97.9891L316.72 97.8792L316.6 97.5191V89.2592L316.7 88.9492L317.03 88.8291L342.12 88.6191L346.55 88.9391L351.07 89.8291L355.69 91.2791L360.41 93.3091L365.46 96.0891L369.97 99.2791L373.95 102.879L377.38 106.879L380.12 111.009L382.39 115.509L384.18 120.359L385.49 125.569L386.04 131.069L386.17 140.029L386.03 175.269L386.17 201.469L386.33 202.799L386.79 204.059L387.47 205.049L388.42 205.799L388.75 205.969L389.58 206.269L390.89 206.459L392.27 206.349L393.74 205.939L395.28 205.239ZM336.959 142.808L336.601 140.989L335.574 139.446L334.035 138.414L332.217 138.049L332.017 138.049L330.199 138.407L328.656 139.434L327.624 140.974L327.259 142.791L327.181 187.371L327.54 189.189L328.567 190.732L330.106 191.764L331.923 192.129L332.123 192.129L333.941 191.771L335.484 190.744L336.517 189.205L336.881 187.388L336.959 142.808Z" fill="#335C81"/>
<path d="M288.36 171.92L288.34 91.4199L288.71 131.69L288.36 171.92Z" fill="#676661"/>
<path d="M271.959 171.449L271.289 170.989L270.519 169.769L270.249 168.009L270.119 131.289L270.269 94.5586L270.829 163.529L271.129 168.119L271.479 169.939L271.959 171.449Z" fill="#676661"/>
<path d="M79.5687 105.029L77.9187 104.969L76.3887 105.299L74.8887 106.009L75.4787 105.169L76.1887 104.769L77.1087 104.619L78.2287 104.699L79.5687 105.029Z" fill="#2A4563"/>
<path d="M193.36 106.368L192.02 105.418L192.74 105.318L193.12 105.668L193.36 106.368Z" fill="#2A4563"/>
<path d="M73.9499 106.99L74.2799 110.95L73.6799 110.02L73.4199 109.06L73.5099 108.04L73.9499 106.99Z" fill="#676661"/>
<path d="M75.3594 112.03H189.099L190.879 111.82L192.399 111.18L193.379 110.42L194.209 109.42L194.029 110.44L193.619 111.3L193.049 111.94L192.289 112.44L190.969 112.83L189.049 112.96L76.9194 112.98L76.5594 112.94L75.9294 112.63L75.3594 112.03Z" fill="#676661"/>
<path d="M391.689 111.26L393.619 115.84L395.009 120.56L395.879 125.6L396.159 130.78V223.4L395.939 224.17L395.259 223.73L394.299 222.61L394.639 222.38L394.979 222L395.079 221.57L395.279 205.24L395.409 175.85L395.339 146.37L395.519 135.19L395.509 128.87L395.129 124.02L394.029 119.09L391.689 111.26Z" fill="#676661"/>
<path d="M279.729 120.709L280.169 134.559L280.049 148.399L279.649 157.569L279.219 145.889L279.229 133.299L279.729 120.709Z" fill="#676661"/>
<path d="M23.8206 121.18L23.7306 121.46L22.8906 122.41L21.3105 123.06L23.8206 121.18Z" fill="#676661"/>
<path d="M21.3093 123.059L20.5393 123.879L19.7793 124.029L20.4293 123.419L21.1493 123.089L21.3093 123.059Z" fill="#2A4563"/>
<path d="M16.8795 126.289L16.4695 126.929L15.6895 126.999L16.8795 126.289Z" fill="#2A4563"/>
<path d="M30.1299 134.768L30.1599 133.788L29.8599 133.188L29.7899 133.138L29.3799 132.988L28.9499 133.108L24.4199 135.818L29.6899 132.248L29.9299 132.148L30.4799 132.348L30.6199 132.918L30.1299 134.768Z" fill="#676661"/>
<path d="M332.218 138.05L332.018 138.049C329.394 138.045 327.264 140.168 327.259 142.791L327.181 187.371C327.177 189.994 329.3 192.125 331.923 192.129L332.123 192.13C334.747 192.134 336.877 190.011 336.881 187.388L336.959 142.808C336.964 140.185 334.841 138.054 332.218 138.05Z" fill="black"/>
<path d="M29.6591 143.949L29.649 144.569L29.2591 144.819L28.5391 144.859L29.6591 143.949Z" fill="#2A4563"/>
<path d="M12.8302 144.619L12.2502 147.319L12.0002 150.139L12.1002 153.099L12.5402 156.189L12.4002 156.519L11.9402 156.689L11.5302 156.579L11.3702 156.189L11.2402 151.929L11.4202 147.039L11.6902 145.749L12.3102 144.909L12.8302 144.619Z" fill="#676661"/>
<path d="M28.4096 145.01L27.1896 146.01L25.8696 146.83L23.5996 147.74L26.4296 145.87L28.4096 145.01Z" fill="#2A4563"/>
<path d="M15.899 153.289L15.869 153.379L15.1691 154.339L13.7891 155.069L14.869 153.919L15.899 153.289Z" fill="#2A4563"/>
<path d="M18.2793 225.529L28.9893 218.659L29.8093 217.779L30.1093 216.609V159.589L30.0093 159.289L29.6893 159.319L24.3393 161.759L29.9993 157.969L30.1893 157.879L30.7693 158.009L31.0093 158.559L30.6993 166.369L30.9593 178.869L31.0193 191.319L30.8693 203.709L30.5293 216.039L30.3793 217.169L30.0293 218.029L29.2293 218.919L27.7293 219.909L18.2793 225.529Z" fill="#676661"/>
<path d="M76.4688 159.08L75.3888 160.16L74.6388 161.21L74.2087 162.25L74.1088 163.27L74.5587 164.78L75.7588 166.24L74.8387 165.85L74.1388 165.26L73.6988 164.53L73.4688 163.63L73.6088 161.32L74.0488 160.29L75.0088 159.5L76.4688 159.08Z" fill="#676661"/>
<path d="M23.5689 162.289L16.6989 167.889L15.0089 169.519L13.5989 171.339L12.5489 173.159L11.7189 175.129L11.5589 176.239L11.8089 177.019L12.0689 177.809L12.1089 178.249L12.1289 229.009L12.1389 229.189L12.5889 230.109L12.5689 230.189L12.0489 230.719L11.9589 230.749L11.6189 230.689L11.4589 230.369L11.1289 202.619L11.3789 174.779L11.5889 173.949L12.1789 172.849L14.9489 169.159L18.1489 165.979L20.7389 163.999L23.5689 162.289Z" fill="#676661"/>
<path d="M192.851 165.949L192.741 166.249L192.511 166.449L192.041 166.569L191.561 166.419L192.851 165.949Z" fill="#2A4563"/>
<path d="M245.36 300.089L245.61 299.939L245.83 299.279L245.97 245.279L245.56 191.259L245.53 176.079L245.71 174.819L246.25 173.919L247.14 173.389L248.39 173.209H251.28L252.52 173.389L253.41 173.919L253.93 174.809L254.09 176.059L254.16 180.959L254.5 186.389L254.48 189.179L254.35 192.009L253.93 215.409L254.12 234.029L254.63 253.969L254.64 265.359L254.45 275.279L254.6 282.699L255 300.089L254.75 303.369L253.91 306.319L253.13 307.639L251.95 308.549L251.08 308.829L250.17 308.869L249.16 308.679L248.19 308.249L247.31 307.619L246.56 306.799L246.04 305.919L245.7 304.919L245.33 302.469L245.36 300.089Z" fill="#335C81"/>
<path d="M343.57 288.558L331.13 288.308L318.71 288.258L306.29 288.428L293.88 288.808L289.67 289.848L285.79 291.288L282.23 293.138L278.99 295.398L276.81 297.328L274.8 299.478L272.96 301.848L271.31 304.448L269.92 306.588L268.81 307.688L268.24 307.958L267.37 308.178L266.41 308.188L264.26 307.588L263.87 307.328L263.57 306.888L263.04 305.128L262.92 302.998L263.35 300.718L264.3 298.458L265.76 296.178L269.02 292.278L272.53 288.888L276.31 286.028L280.34 283.688L284.79 281.818L289.52 280.498L294.53 279.748L299.82 279.548L346.04 279.448L349.87 279.398L353.61 279.648L357.26 280.218L360.81 281.098L365.69 282.858L370.38 285.248L371.61 285.768L372.81 285.878L373.69 285.678L374.55 285.238L376.88 283.568L379.01 281.748L380.96 279.788L382.72 277.688L384.45 275.158L385.96 272.458L387.22 269.578L388.25 266.508L389.15 262.778L389.67 259.088L389.83 255.438L389.61 251.828L388.63 246.608L386.85 241.478L385.29 238.228L383.51 235.188L381.49 232.378L379.24 229.788L376.35 227.068L373.16 224.638L369.65 222.498L365.84 220.658L364.53 220.128L361.34 219.078L358.04 218.328L354.63 217.868L351.1 217.698L332.38 217.708L323.28 217.408L314.15 217.338L305.01 217.468L295.85 217.828L291.3 217.298L287.02 216.308L283.01 214.868L279.26 212.978L275.29 210.238L271.68 206.908L268.41 202.968L265.5 198.438L264.11 195.528L263.18 192.508L262.75 189.918L262.83 187.878L263.51 186.258L264.39 185.338L265.75 184.568L267.09 184.318L268.08 184.438L269.04 184.798L270.01 185.448L270.9 186.318L271.53 187.378L272.07 188.978L272.99 191.888L274.17 194.598L275.59 197.088L277.27 199.378L279.07 201.328L281.09 203.098L283.33 204.688L285.79 206.088L288 207.088L290.27 207.858L294.25 208.648L302.98 208.938L323.42 209.138L344.35 208.788L349.18 208.828L356.23 209.168L359.54 209.468L362.58 209.948L365.32 210.598L367.79 211.428L373.07 213.818L377.89 216.638L382.26 219.878L386.18 223.558L388.82 226.608L391.21 229.898L393.34 233.428L395.22 237.198L397.1 242.108L398.38 247.128L398.87 250.178L399.14 253.268L399.2 256.398L399.05 259.568L398.38 264.708L397.22 269.568L395.57 274.148L393.43 278.448L390.74 282.538L387.55 286.338L383.84 289.848L379.62 293.058L377.09 294.568L374.75 295.488L372.65 295.778L370.76 295.488L370.12 295.238L362.26 291.588L358.41 290.088L354.72 289.258L349.19 288.718L343.57 288.558Z" fill="#335C81"/>
<path d="M245.359 300.09L245.559 191.26L245.969 245.28L245.829 299.28L245.609 299.94L245.359 300.09Z" fill="#676661"/>
<path d="M262.43 282.829L262.76 246.529L262.58 210.259L262.48 209.919L262.33 209.779L261.98 208.819L262 207.979L262.15 207.689L262.43 207.869L266.11 211.949L270.05 215.499L274.25 218.499L278.7 220.959L283.24 222.819L288.03 224.169L293.05 225.019L298.31 225.369H314.9L333.1 224.799L338.67 224.739L347.62 224.909L352.07 225.129L355.94 225.549L359.23 226.149L361.94 226.949L366 228.819L369.7 231.239L373.09 234.229L376.01 237.669L378.46 241.529L380.35 245.689L381.61 249.969L382.24 254.399L382.26 257.739L381.85 260.989L380.84 264.719L379.24 268.329L377.05 271.829L374.28 275.219L373.26 276.119L372.24 276.569L370.82 276.589L368.95 275.999L365.52 274.659L362.32 273.629L359.37 272.909L356.66 272.489L347.08 271.909L333.5 271.719L311.32 271.799L296.7 272.069L293.41 272.279L290.18 272.709L287.01 273.339L283.91 274.189L280.73 275.299L277.61 276.639L274.57 278.209L271.6 280.019L263.42 285.929L263.05 286.039L262.79 285.759L262.37 284.309L262.4 282.949L262.43 282.829Z" fill="#335C81"/>
<path d="M262.43 282.829L262.33 209.779L262.48 209.919L262.58 210.259L262.76 246.529L262.43 282.829Z" fill="#676661"/>
<path d="M171.08 215.29L169.79 214.25L168.65 214.04L104.86 214L79.3499 214.01L75.1699 214.25L75.7899 213.4L76.8799 213.1L167.59 213.12L169.03 213.32L170.14 213.91L170.68 214.52L171.08 215.29Z" fill="#676661"/>
<path d="M171.18 219.21L171.2 215.43L171.75 216.33L171.97 217.25L171.86 218.23L171.41 219.23L171.36 219.28L171.27 219.26L171.18 219.21Z" fill="#676661"/>
<path d="M73.9391 215.898L74.0691 217.408L74.5491 218.738L75.3091 219.818L76.3791 220.738L74.7891 220.078L73.8491 219.078L73.5391 217.678L73.9391 215.898Z" fill="#676661"/>
<path d="M332.38 217.71L295.85 217.83L305.01 217.47L314.15 217.34L323.28 217.41L332.38 217.71Z" fill="#676661"/>
<path d="M170.589 220.1L169.759 220.8L168.889 220.84L169.729 220.24L170.589 220.1Z" fill="#676661"/>
<path d="M16.1603 227.08L15.9403 227.51L15.0903 228.39L13.8203 229.01L14.5703 228.16L15.4403 227.48L16.1603 227.08Z" fill="#676661"/>
<path d="M29.8191 291.76L29.9991 290.52L30.149 241.8L30.0091 236.99L29.5691 233.78L29.5391 233.16L30.2191 233.25L30.5591 233.53L30.6691 233.97L30.649 244.54L30.959 256.03L31.0291 267.54L30.8291 279.07L30.3891 290.62L30.3091 291.05L30.0791 291.44L29.8191 291.76Z" fill="#676661"/>
<path d="M25.6792 235.818L19.4692 240.288L15.7492 243.438L13.0292 246.878L12.4992 247.968L12.4392 248.298L12.3392 249.908L12.1292 277.238L12.1792 304.588L11.8192 305.028L11.4492 304.338L11.3792 303.708L11.1992 278.838L11.2292 254.038V253.108L11.3492 249.958L11.9392 247.718L13.1392 245.778L15.2592 243.388L17.5692 241.198L21.4192 238.268L25.6792 235.818Z" fill="#676661"/>
<path d="M171.66 269.519L170.41 268.449L169.14 268.079H169.11H77.1303L75.6303 268.299L74.6503 268.959L74.2003 270.019L74.2603 271.489L74.2803 271.629L74.6203 273.019L75.3103 274.049L76.5503 274.779L78.2603 275.019L168.87 275.009L168.93 275.309L168.6 275.419L77.9603 275.499L76.1003 275.239L74.8003 274.449L74.0503 273.179L73.8203 271.399V271.169L74.0403 269.389L74.7803 268.109L76.0803 267.319L77.9103 267.059L168.07 267.069L169.02 267.169L169.86 267.479L170.87 268.289L171.66 269.519Z" fill="#676661"/>
<path d="M346.04 279.449L299.82 279.549L317.65 279.049L335.48 279.129L346.04 279.449Z" fill="#676661"/>
<path d="M343.569 288.56L293.879 288.81L306.289 288.43L318.709 288.26L331.129 288.31L343.569 288.56Z" fill="#676661"/>
<path d="M395.35 399.869L395.27 306.039L395.26 291.019L395.07 290.349L394.52 289.439L395.19 288.819L395.54 288.719L395.83 288.949L395.86 289.079L396.16 296.779L396.14 392.279L395.96 396.549L395.35 399.869Z" fill="#2A4563"/>
<path d="M394.52 289.439L395.07 290.349L395.26 291.019L395.27 306.039L394.61 305.129L393.79 304.539L392.61 304.249L390.95 304.269L389.53 304.529L388.36 305.019L387.43 305.739L386.73 306.709L386.29 307.919L386.15 314.149V389.529L385.84 395.119L384.9 400.569L383.35 405.819L381.21 410.829L379.26 414.349L377 417.699L374.44 420.869L371.58 423.849L367.65 427.219L363.43 430.099L360.54 431.699L357.52 433.099L354.38 434.289L351.12 435.269L348.1 435.869L344.18 436.299L333.61 436.649L176.97 436.779L92.0999 436.659L88.8899 436.539L85.7499 436.189L82.6699 435.639L79.6599 434.859L74.8099 433.099L70.1399 430.739L65.6499 427.789L61.3399 424.239L58.6999 418.059L58.5799 417.629L58.5899 417.099L58.7499 415.409L58.5499 413.809L57.6499 411.719L55.0199 407.779L51.1699 401.949L48.6699 397.509L47.5499 394.949L46.7199 392.329L46.1799 389.669L45.9199 386.989L45.9699 383.989L46.3599 381.009L47.1099 378.079L48.1999 375.199L49.2199 373.249L50.4199 371.539L51.7999 370.059L53.3599 368.839L54.7999 367.999L56.3699 367.349L58.0499 366.879L59.8499 366.589L60.0599 366.609L60.4499 366.969L60.3699 367.499L58.3699 370.589L56.7299 373.829L55.4999 377.099L54.6599 380.439L54.2599 383.689V386.939L54.6799 390.049L55.5299 393.109L57.2599 396.869L59.6399 400.269L61.0299 401.629L62.4899 402.549L63.9699 402.979L65.2199 402.839L66.0799 402.369L66.8599 401.529L67.2899 400.469L67.2699 399.729L66.9999 398.959L64.2199 393.189L63.0299 389.829L62.4199 386.419L62.3499 384.269L62.5099 382.099L62.8899 379.909L63.5099 377.699L65.1499 373.599L66.9999 370.239L68.7599 368.189L69.5999 367.629L70.4599 367.359L76.0199 366.839L76.7599 366.879L77.0899 367.099L77.0399 367.499L76.5799 368.079L74.7399 370.409L73.2799 373.239L72.0999 376.579L71.2999 379.899L70.8799 383.199L70.8299 386.489L71.1799 389.849L71.9199 393.199L73.0699 396.529L74.6099 399.839L75.7699 401.419L77.8999 403.629L78.9099 404.249L79.7099 404.389L80.5299 404.289L81.4199 403.939L82.2399 403.379L82.9599 402.629L83.4999 401.769L83.7699 400.949L83.8099 400.129L83.3199 398.809L82.0899 396.789L80.7899 394.629L79.7799 392.459L79.0399 390.189L78.5899 387.919L78.4299 385.669L78.5299 383.429L78.8999 381.109L79.5299 378.809L80.4399 376.439L81.5899 374.119L83.0299 371.759L84.6899 369.469L85.4299 368.729L86.3599 368.139L87.4499 367.739L88.6399 367.529L93.9499 367.099L94.8499 367.119L95.2599 367.369L95.1799 367.879L94.5599 368.639L93.0399 370.329L91.1299 373.049L89.5799 376.059L88.3999 379.369L87.5699 382.969L87.2999 385.239L87.3799 389.039L88.1299 392.879L89.5299 396.759L91.5999 400.689L92.8099 402.489L93.9899 403.769L95.1999 404.549L96.3399 404.789L97.7299 404.379L99.1599 403.299L99.9799 401.959L100.15 400.779L99.8899 399.349L99.2299 397.809L98.0499 395.779L96.7699 393.479L95.7499 390.219L95.3599 386.939L95.4499 384.779L95.8099 382.619L96.4399 380.449L97.3499 378.269L99.3199 374.639L101.45 371.759L103.77 369.609L106.35 368.099L109.13 367.229L111.47 366.989L115.12 366.939L126.36 367.359L126.74 367.519L126.75 367.919L125.79 371.959L125.21 376.699L125.01 382.139L125.19 388.289L125.82 393.339L127.12 398.199L129.08 402.969L131.64 407.459L134.85 411.729L138.57 415.609L142.75 419.039L147.34 421.969L151.2 423.779L155.37 425.079L159.86 425.869L164.65 426.139L258.26 426.809L259.91 426.639L261.54 426.409L263.66 426.759L299.8 427.089L332.78 427.019L338.55 426.869L343.41 426.529L347.35 426.009L350.39 425.289L353.33 424.239L356.11 422.979L358.73 421.509L361.2 419.829L364.2 417.319L366.93 414.439L369.39 411.199L371.58 407.609L372.94 404.889L374.07 402.079L375.12 398.739L375.87 395.289L376.33 391.729L376.49 388.069L376.45 317.349L376.18 315.489L375.37 314.149L374.07 313.339L372.26 313.039H371.99L370.26 313.229L368.92 313.909L367.9 315.209L367.34 317.089L366.97 320.649L366.9 324.279L367.3 382.549L367.17 389.799L366.67 394.459L365.67 398.129L364.23 401.629L362.36 404.889L360.12 407.889L357.54 410.539L354.64 412.819L351.54 414.629L348.2 416.009L345.63 416.649L342.34 417.099L338.32 417.359L333.59 417.429L266.1 417.299L261.21 417.749L248.16 417.719L235.19 417.459L228.77 416.949L226.13 416.459L223.87 415.819L220.84 414.629L217.92 413.219L215.24 411.639L212.71 409.849L210.38 407.879L208.24 405.699L206.37 403.399L204.7 400.909L203.17 397.829L202.29 394.719L202.05 392.829L202.01 390.919L202.19 388.869L202.59 386.769L207.4 367.189L217.8 367.619L228.85 367.699L273.15 367.829L280.12 367.699L284.61 367.149L287.3 366.379L289.97 365.339L292.62 364.019L295.25 362.429L299.72 359.149L303.68 355.549L307.12 351.649L310.04 347.419L312.41 342.969L314.28 338.219L315.66 333.169L316.54 327.809L316.85 323.209L316.94 316.669L316.46 297.719L316.32 297.279L315.99 296.969L314.48 296.449L312.58 296.239L326.29 296.009L327.33 295.889L339.06 295.879L340.39 295.889L351.82 296.459L355.18 296.999L358.06 297.999L365.46 301.219L368.03 302.129L370.54 302.679L372.99 302.849L375.38 302.659L378.44 301.829L381.4 300.359L386.82 296.789L389.95 294.139L394.52 289.439ZM324.83 377.629H277.3L275.3 377.909L273.84 378.769L272.94 380.189L272.58 382.189L272.56 382.699V382.759L272.91 384.449L273.99 385.889L275.61 386.859L277.54 387.209L321.57 387.279L325.81 387.079L328.51 386.509L330.69 385.419L332.56 383.999L334.45 381.819L335.83 379.269L336.7 376.319L336.99 373.149L336.88 314.199L336.59 312.229L335.74 310.839L335.08 310.339L334.26 309.989L332.18 309.759L331.99 309.769L329.75 310.299L328.89 310.789L328.21 311.419L327.42 312.879L327.17 314.789L327.39 375.059L327.2 376.039L326.65 376.869L325.82 377.429L324.83 377.629ZM237.71 400.079L233.97 399.739L233.68 399.709L231.54 399.309L229.82 398.659L227.63 397.179L226.06 395.319L225.18 393.299L224.8 390.979L224.95 388.779L225.57 386.799L226.84 384.789L228.6 383.179L230.76 382.019L233.21 381.369L239.12 380.829L239.81 380.719L241.46 379.939L242.66 378.599L243.26 376.939L243.15 375.169L242.59 373.999L242.42 373.769L241.11 372.839L239.19 372.429L235.71 372.379L232.47 372.769L229.47 373.589L226.71 374.839L224.87 376.009L222.72 377.779L220.86 379.759L219.3 381.939L218.07 384.289L217.12 386.949L216.56 389.759L216.48 392.889L217.03 395.819L217.62 397.399L218.42 398.909L220.61 401.739L223.21 404.049L226.08 405.829L228.7 406.929L231.51 407.649L234.51 408.009L237.7 407.989L285.9 408.179L334.18 408.049L336.5 408.079L337.4 408.069L340.27 407.729L343 406.949L345.68 405.709L348.15 404.089L350.48 402.019L352.49 399.659L354.15 397.049L355.41 394.259L356.02 392.099L356.45 389.419L356.71 386.229L356.79 382.519L356.52 322.529L356.27 318.609L355.57 317.069L354.94 316.449L354.15 315.959L352.15 315.329L350.35 315.419L349.05 316.029L347.88 317.099L347.5 317.669L347.28 318.429L347.22 319.549V319.779L347.04 383.499L346.74 389.369L346.36 391.479L345.84 393.029L344.87 394.649L343.64 395.979L342.19 396.969L340.5 397.679L338.55 398.109L336.36 398.239L288.2 398.279L239.42 398.759L238.35 399.079L238.29 399.139L237.71 400.079Z" fill="#335C81"/>
<path d="M25.9098 295.16L25.7898 295.72L25.2398 296.21L24.2598 296.47L25.9098 295.16Z" fill="#676661"/>
<path d="M312.58 296.24L314.48 296.45L315.99 296.97L316.32 297.28L316.46 297.72L316.94 316.67L316.85 323.21L316.54 327.81L315.66 333.17L314.28 338.22L312.41 342.97L310.04 347.42L307.12 351.65L303.68 355.55L299.72 359.15L295.25 362.43L292.62 364.02L289.97 365.34L287.3 366.38L284.61 367.15L280.12 367.7L273.15 367.83L228.85 367.7L217.8 367.62L207.4 367.19L207.16 364.78V362.29L207.4 359.71L207.89 357.05L280.79 356.8L283.15 356.68L285.38 356.17L287.45 355.3L289.4 354.04L290.47 353.64L291.4 353.07L292.16 352.36L292.19 352.25L292.49 351.81L293.07 351.47L294.74 350.59L296.12 349.43L297.44 347.52L301.01 342.65L302.92 339.69L304.37 336.56L305.39 333.15L305.92 329.55V327.78L306.27 326.79L306.35 317.06L306.4 306.45L306.28 296.44L312.58 296.24Z" fill="black"/>
<path d="M297.879 303.849L297.309 310.638L297.339 317.409L297.789 322.589L297.369 326.169L296.609 329.568L295.529 332.799L294.119 335.849L292.299 338.828L290.129 341.628L287.609 344.229L284.729 346.648L282.889 347.669L280.879 348.119L278.969 347.919L277.519 347.119L276.629 345.969L276.119 344.328L276.219 343.018L276.879 341.359L277.629 340.318L278.869 339.188L282.489 336.179L284.659 334.059L286.059 332.078L287.129 329.739L287.879 327.039L288.309 323.989L288.659 318.859L288.779 313.659L288.669 308.369L288.329 303.008L288.549 302.398L289.229 301.239L290.219 300.219L291.519 299.319L293.119 298.559L294.359 298.229L295.539 298.249L296.609 298.589L296.989 298.868L297.229 299.279L297.799 301.619L297.879 303.849Z" fill="#335C81"/>
<path d="M288.331 303.01L288.671 308.37L288.781 313.66L288.661 318.86L288.311 323.99L288.331 303.01Z" fill="#676661"/>
<path d="M297.881 303.85L298.271 309.17L298.331 314.49L297.791 322.59L297.341 317.41L297.311 310.64L297.881 303.85Z" fill="#676661"/>
<path d="M324.831 377.63L325.82 377.43L326.651 376.87L327.201 376.04L327.391 375.06L327.171 314.79L327.421 312.88L328.211 311.42L328.891 310.79L329.751 310.3L331.991 309.77L332.181 309.76L334.26 309.99L335.081 310.34L335.741 310.84L336.591 312.23L336.881 314.2L336.991 373.15L336.701 376.32L335.831 379.27L334.451 381.82L332.561 384L330.691 385.42L328.51 386.51L325.811 387.08L321.57 387.28L277.541 387.21L275.611 386.86L273.991 385.89L272.911 384.45L272.561 382.76V382.7L272.581 382.19L272.941 380.19L273.841 378.77L275.301 377.91L277.301 377.63H324.831Z" fill="black"/>
<path d="M261.54 426.409L260.93 425.279L260.44 423.639L260.32 421.839L260.58 419.869L261.21 417.749L266.1 417.299L333.59 417.429L338.32 417.359L342.34 417.099L345.63 416.649L348.2 416.009L351.54 414.629L354.64 412.819L357.54 410.539L360.12 407.889L362.36 404.889L364.23 401.629L365.67 398.129L366.67 394.459L367.17 389.799L367.3 382.549L366.9 324.279L366.97 320.649L367.34 317.089L367.9 315.209L368.92 313.909L370.26 313.229L371.99 313.039H372.26L374.07 313.339L375.37 314.149L376.18 315.489L376.45 317.349L376.49 388.069L376.33 391.729L375.87 395.289L375.12 398.739L374.07 402.079L372.94 404.889L371.58 407.609L369.39 411.199L366.93 414.439L364.2 417.319L361.2 419.829L358.73 421.509L356.11 422.979L353.33 424.239L350.39 425.289L347.35 426.009L343.41 426.529L338.55 426.869L332.78 427.019L299.8 427.089L263.66 426.759L261.54 426.409Z" fill="black"/>
<path d="M237.699 407.99L237.709 400.08L238.289 399.14L238.349 399.08L239.419 398.76L288.199 398.28L336.359 398.24L338.549 398.11L340.499 397.68L342.189 396.97L343.639 395.98L344.869 394.65L345.839 393.03L346.359 391.48L346.739 389.37L347.039 383.5L347.219 319.78V319.55L347.279 318.43L347.499 317.67L347.879 317.1L349.049 316.03L350.349 315.42L352.149 315.33L354.149 315.96L354.939 316.45L355.569 317.07L356.269 318.61L356.519 322.53L356.789 382.52L356.709 386.23L356.449 389.42L356.019 392.1L355.409 394.26L354.149 397.05L352.489 399.66L350.479 402.02L348.149 404.09L345.679 405.71L342.999 406.95L340.269 407.73L337.399 408.07L336.499 408.08L334.179 408.05L285.899 408.18L237.699 407.99Z" fill="black"/>
<path d="M268.399 322.769L261.849 323.139L255.349 322.979L252.259 322.479L249.499 321.379L248.619 320.869L251.399 321.689L253.029 321.939L260.779 321.999L268.399 322.769Z" fill="#676661"/>
<path d="M305.92 329.549L305.39 333.149L304.37 336.559L302.92 339.689L301.01 342.649L303.82 336.289L304.96 332.959L305.92 329.549Z" fill="#2A4563"/>
<path d="M271.84 330.139L271.44 330.909L270.55 331.799L269.28 332.429L267.63 332.799L265.6 332.909L254.94 332.729L248.58 332.399L257.36 332.209L266.1 332.479L268.05 332.369L269.77 331.789L270.86 331.089L271.84 330.139Z" fill="#676661"/>
<path d="M41.2201 332.27L30.0801 335.99L32.5901 334.37L35.2601 333.21L38.1601 332.5L41.2201 332.27Z" fill="#335C81"/>
<path d="M28.389 337.029L22.959 340.939L24.799 339.079L26.489 337.919L28.389 337.029Z" fill="#2A4563"/>
<path d="M198.15 340.119L198.18 340.419L197.91 340.619L197.35 340.679L61.2202 340.569L60.7502 340.409L60.7402 340.169L198.15 340.119Z" fill="#676661"/>
<path d="M227.279 349.89L225.699 349.57L223.349 349.47L58.7392 349.52L56.4291 349.63L54.8991 349.95L51.2491 350.85L47.8492 352.09L44.6992 353.67L41.8091 355.58L39.4892 357.52L37.3592 359.72L35.4192 362.17L33.6791 364.88L32.7592 366.82L31.8192 369.61L31.3691 371.03L30.7791 371.8L29.3792 372.98L28.0891 373.69L26.9091 373.8L25.2592 373.27L24.0692 372.37L23.2091 370.96L22.8691 369.07L23.0692 366.97L23.7992 364.72L26.4892 359.44L29.6392 354.81L33.2392 350.8L37.2892 347.43L39.7292 345.84L42.3091 344.44L45.0392 343.24L47.8991 342.24L50.8991 341.43L54.0392 340.81L57.3192 340.39L60.7392 340.17L60.7491 340.41L61.2191 340.57L197.349 340.68L197.909 340.62L198.179 340.42L198.149 340.12L215.579 340L222.729 340.21L228.819 340.59L230.439 340.95L231.629 341.73L232.189 342.47L232.559 343.39L232.759 345.78L232.539 346.96L232.049 347.94L231.279 348.73L230.219 349.32L228.889 349.7L227.279 349.89Z" fill="#335C81"/>
<path d="M19.8889 343.969L14.1289 352.779L15.3589 349.929L16.9489 347.329L18.3189 345.579L19.8889 343.969Z" fill="#676661"/>
<path d="M297.44 347.52L296.12 349.43L294.74 350.59L293.07 351.47L297.44 347.52Z" fill="#2A4563"/>
<path d="M227.28 349.889L54.9004 349.949L56.4304 349.629L58.7404 349.519L223.35 349.469L225.7 349.569L227.28 349.889Z" fill="#676661"/>
<path d="M292.16 352.359L291.4 353.069L290.47 353.639L289.4 354.039L290.04 353.379L291.01 352.759L292.16 352.359Z" fill="#2A4563"/>
<path d="M14.0794 352.99L13.7494 353.83L13.6094 353.55L14.0794 352.99Z" fill="#2A4563"/>
<path d="M289.399 354.039L287.449 355.299L285.379 356.169L283.149 356.679L280.789 356.799L289.399 354.039Z" fill="#335C81"/>
<path d="M12.5302 356.25L11.4702 361.13L10.9502 365.92V370.61L11.4702 375.22L12.5002 379.65L14.0402 384L16.0901 388.27L18.6501 392.44L16.7002 389.92L15.0402 387.31L13.6702 384.6L12.5901 381.8L12.1402 380.26L11.2202 375.91L10.5502 370.65L10.4102 366.39L10.8502 362.22L11.5302 359.21L12.5302 356.25Z" fill="#676661"/>
<path d="M207.889 357.05L207.399 359.71L207.159 362.29V364.78L207.399 367.19L202.589 386.77L202.189 388.87L202.009 390.92L202.049 392.83L202.289 394.72L203.169 397.83L204.699 400.91L206.369 403.4L208.239 405.7L210.379 407.88L212.709 409.85L215.239 411.64L217.919 413.22L220.839 414.63L223.869 415.82L226.129 416.46L228.769 416.95L235.189 417.46L248.159 417.72L261.209 417.75L260.579 419.87L260.319 421.84L260.439 423.64L260.929 425.28L261.539 426.41L259.909 426.64L258.259 426.81L164.649 426.14L159.859 425.87L155.369 425.08L151.199 423.78L147.339 421.97L142.749 419.04L138.569 415.61L134.849 411.73L131.639 407.46L129.079 402.97L127.119 398.2L125.819 393.34L125.189 388.29L125.009 382.14L125.209 376.7L125.789 371.96L126.749 367.92L126.739 367.52L126.359 367.36L115.119 366.94L111.469 366.99L109.129 367.23L106.349 368.1L103.769 369.61L101.449 371.76L99.3187 374.64L97.3487 378.27L96.4387 380.45L95.8087 382.62L95.4487 384.78L95.3587 386.94L95.7487 390.22L96.7687 393.48L98.0487 395.78L99.2287 397.81L99.8887 399.35L100.149 400.78L99.9787 401.96L99.1587 403.3L97.7287 404.38L96.3387 404.79L95.1987 404.55L93.9887 403.77L92.8087 402.49L91.5987 400.69L89.5287 396.76L88.1287 392.88L87.3787 389.04L87.2987 385.24L87.5687 382.97L88.3987 379.37L89.5787 376.06L91.1287 373.05L93.0387 370.33L94.5587 368.64L95.1786 367.88L95.2587 367.37L94.8487 367.12L93.9487 367.1L88.6387 367.53L87.4487 367.74L86.3587 368.14L85.4286 368.73L84.6887 369.47L83.0287 371.76L81.5887 374.12L80.4387 376.44L79.5287 378.81L78.8987 381.11L78.5287 383.43L78.4286 385.67L78.5887 387.92L79.0387 390.19L79.7787 392.46L80.7887 394.63L82.0887 396.79L83.3187 398.81L83.8087 400.13L83.7687 400.95L83.4987 401.77L82.9586 402.63L82.2387 403.38L81.4187 403.94L80.5287 404.29L79.7086 404.39L78.9087 404.25L77.8987 403.63L75.7687 401.42L74.6087 399.84L73.0687 396.53L71.9187 393.2L71.1786 389.85L70.8287 386.49L70.8787 383.2L71.2987 379.9L72.0987 376.58L73.2787 373.24L74.7387 370.41L76.5787 368.08L77.0387 367.5L77.0887 367.1L76.7587 366.88L76.0187 366.84L70.4586 367.36L69.5987 367.62L68.7587 368.18L67.0087 370.22L65.1487 373.59L63.5087 377.7L62.8887 379.91L62.5087 382.1L62.3487 384.27L62.4187 386.42L63.0287 389.83L64.2187 393.19L66.9987 398.96L67.2687 399.73L67.2887 400.47L66.8587 401.53L66.0787 402.37L65.2187 402.84L63.9687 402.98L62.4887 402.55L61.0287 401.63L59.6387 400.27L57.2587 396.87L55.5287 393.11L54.6786 390.05L54.2587 386.94V383.69L54.6587 380.44L55.4987 377.1L56.7287 373.83L58.3687 370.59L60.3687 367.5L60.4487 366.97L60.0587 366.61L59.8487 366.59L58.0487 366.88L56.3687 367.35L54.7987 368L53.3587 368.84L51.7987 370.06L50.4187 371.54L49.2187 373.25L48.1987 375.2L47.1087 378.08L46.3587 381.01L45.9687 383.99L45.9187 386.99L46.1786 389.67L46.7187 392.33L47.5487 394.95L48.6687 397.51L51.1687 401.95L55.0187 407.78L57.6487 411.72L58.5487 413.81L58.7487 415.41L58.5887 417.1L58.5787 417.63L58.6987 418.06L61.3387 424.24L56.4987 419.87L54.6187 418.17L52.3587 416.49L46.7287 413.13L43.8387 408.9L41.4286 404.55L39.4987 400.08L38.0487 395.48L37.9687 395.16L37.3687 392.33L37.0087 389.52L36.8887 386.73L37.0187 383.97L37.0387 383.76L37.4787 380.58L38.4387 376.5L39.8287 372.5L40.9787 370L42.3287 367.7L43.8687 365.59L45.6087 363.68L48.5887 361.17L48.6786 361.16L49.8987 360.94L51.0887 360.42L52.2687 359.6L53.4286 358.49L55.6187 357.62L58.3487 357.25L68.3487 357.05L138.119 356.99L207.889 357.05ZM177.339 367.42L177.219 366.95L176.759 366.79H160.839L160.009 367.12L159.639 367.94L158.469 382.6L158.139 388.88L158.479 394.19L159.279 397.9L160.139 400.28L161.239 402.58L162.589 404.81L164.199 406.97L166.539 409.55L169.039 411.77L171.699 413.63L174.529 415.14L177.169 416.17L179.939 416.93L182.839 417.4L185.869 417.59L185.999 417.56L186.149 417.32L186.029 417.07L183.419 415.05L180.979 412.78L178.689 410.25L176.739 407.66L175.149 405.05L173.969 402.53L173.149 399.96L172.769 397.57L172.639 393.94L172.929 391.61L174.469 385.72L175.719 379.73L176.679 373.63L177.339 367.42ZM163.569 417.67L164.079 417.69L164.429 417.47L164.439 417.08L164.309 416.95L161.129 414.64L158.369 411.95L156.979 410.25L155.179 407.65L153.629 404.97L152.349 402.21L151.309 399.37L150.429 395.91L149.899 392.33L149.739 388.64L149.929 384.84L151.799 367.76L151.809 367.69L151.599 367.07L150.989 366.8H135.749L134.999 367.09L134.629 367.8L133.489 376.13L133.059 381.53L133.269 387.66L133.969 392.28L135.299 396.67L137.139 400.59L139.539 404.3L141.849 407.1L144.339 409.58L147.009 411.74L149.869 413.57L152.999 415.11L156.329 416.31L159.849 417.16L163.569 417.67ZM210.619 417.68L210.739 417.64L210.809 417.57L210.839 417.36L210.759 417.16L210.619 417.04L208.069 415.53L205.719 413.84L203.589 411.97L201.669 409.92L201.659 409.91L198.099 405.26L196.699 403.02L195.609 400.89L194.779 398.83L194.169 396.71L193.809 394.66L193.699 392.55L193.959 389.66L196.019 379.3L198.819 367.69L198.749 367.27L198.389 367.04H198.319H185.839H185.779L185.059 367.41L184.829 368.19L185.029 371.9L184.709 375.69L184.419 377.57L183.379 383.38L182.129 389.16L181.179 394.31L181.049 396.2L181.149 397.63L181.909 400.46L183.099 403.15L184.759 405.78L186.769 408.2L189.229 410.51L191.959 412.52L194.949 414.23L198.039 415.55L200.929 416.43L203.989 417.08L207.219 417.49L210.619 417.68Z" fill="#2A4563"/>
<path d="M53.4298 358.49L52.2699 359.6L51.0898 360.42L49.8998 360.94L48.6798 361.16L48.5898 361.17L50.5699 359.67L51.9499 358.99L53.4298 358.49Z" fill="#335C81"/>
<path d="M177.339 367.419L176.679 373.629L175.719 379.729L174.469 385.719L172.929 391.609L172.639 393.939L172.769 397.569L173.149 399.959L173.969 402.529L175.149 405.049L176.739 407.659L178.689 410.249L180.979 412.779L183.419 415.049L186.029 417.069L186.149 417.319L185.999 417.559L185.869 417.589L182.839 417.399L179.939 416.929L177.169 416.169L174.529 415.139L171.699 413.629L169.039 411.769L166.539 409.549L164.199 406.969L162.589 404.809L161.239 402.579L160.139 400.279L159.279 397.899L158.479 394.189L158.139 388.879L158.469 382.599L159.639 367.939L160.009 367.119L160.839 366.789H176.759L177.219 366.949L177.339 367.419Z" fill="#335C81"/>
<path d="M163.571 417.669L159.851 417.159L156.331 416.309L153.001 415.109L149.871 413.569L147.011 411.739L144.341 409.579L141.851 407.099L139.541 404.299L137.141 400.589L135.301 396.669L133.971 392.279L133.271 387.659L133.061 381.529L133.491 376.129L134.631 367.799L135.001 367.089L135.751 366.799H150.991L151.601 367.069L151.811 367.689L151.801 367.759L149.931 384.839L149.741 388.639L149.901 392.329L150.431 395.909L151.311 399.369L152.351 402.209L153.631 404.969L155.181 407.649L156.981 410.249L158.371 411.949L161.131 414.639L164.311 416.949L164.441 417.079L164.431 417.469L164.081 417.689L163.571 417.669Z" fill="#335C81"/>
<path d="M210.619 417.679L207.219 417.489L203.989 417.079L200.929 416.429L198.039 415.549L194.949 414.229L191.959 412.519L189.229 410.509L186.769 408.199L184.759 405.779L183.099 403.149L181.909 400.459L181.149 397.629L181.049 396.199L181.179 394.309L182.129 389.159L183.379 383.379L184.419 377.569L184.709 375.689L185.029 371.899L184.829 368.189L185.059 367.409L185.779 367.039H185.839H198.319H198.389L198.749 367.269L198.819 367.689L196.019 379.299L193.959 389.659L193.699 392.549L193.809 394.659L194.169 396.709L194.779 398.829L195.609 400.889L196.699 403.019L198.099 405.259L201.659 409.909L201.669 409.919L203.589 411.969L205.719 413.839L208.069 415.529L210.619 417.039L210.759 417.159L210.839 417.359L210.809 417.569L210.739 417.639L210.709 417.659L210.619 417.679Z" fill="#335C81"/>
<path d="M237.71 400.079L237.7 407.989L234.51 408.009L231.51 407.649L228.7 406.929L226.08 405.829L223.21 404.049L220.61 401.739L218.42 398.909L217.62 397.399L217.03 395.819L216.48 392.889L216.56 389.759L217.12 386.949L218.07 384.289L219.3 381.939L220.86 379.759L222.72 377.779L224.87 376.009L226.71 374.839L229.47 373.589L232.47 372.769L235.71 372.379L239.19 372.429L241.11 372.839L242.42 373.769L242.59 373.999L243.15 375.169L243.26 376.939L242.66 378.599L241.46 379.939L239.81 380.719L239.12 380.829L233.21 381.369L230.76 382.019L228.6 383.179L226.84 384.789L225.57 386.799L224.95 388.779L224.8 390.979L225.18 393.299L226.06 395.319L227.63 397.179L229.82 398.659L231.54 399.309L233.68 399.709L233.97 399.739L237.71 400.079Z" fill="#2A4563"/>
<path d="M5.85947 391.528L4.43945 389.028L4.83945 388.818L5.57947 390.178L5.85947 391.528Z" fill="#2A4563"/>
<path d="M9.71866 398.139L6.13867 391.949L7.50867 393.799L8.66867 395.759L9.71866 398.139Z" fill="#2A4563"/>
<path d="M19.3104 393.439L18.8304 393.019L18.6504 392.579V392.439L19.3104 393.439Z" fill="#2A4563"/>
<path d="M20.3789 394.84L24.2189 398.77L28.3089 402.41L31.9889 405.28L35.8389 407.94L31.4189 405.49L27.4089 402.54L23.6689 398.96L20.3789 394.84Z" fill="#676661"/>
<path d="M11.5401 400.528L11.0401 399.998L10.8301 399.568L11.4301 399.888L11.5401 400.528Z" fill="#2A4563"/>
<path d="M12.1391 401.299L11.8191 401.049L11.5391 400.529L11.959 400.739L12.1391 401.299Z" fill="#2A4563"/>
<path d="M395.289 401.299L394.599 404.909L393.589 408.419L392.579 411.099L391.379 413.709L395.289 401.299Z" fill="#676661"/>
<path d="M20.1504 409.98L18.0104 408.34L16.0804 406.51L14.3904 404.52L12.9004 402.34L20.1504 409.98Z" fill="#676661"/>
<path d="M31.6805 418.25L31.6106 418.37L23.8105 413L26.0206 414.1L28.0706 415.34L29.9506 416.73L31.6805 418.25Z" fill="#2A4563"/>
<path d="M391.14 414.199L388.44 419.519L385.19 424.419L381.7 428.579L377.74 432.379L379.37 430.409L382.59 426.999L384.22 425.069L386.19 422.299L391.14 414.199Z" fill="#676661"/>
<path d="M31.6794 418.25L38.8294 420.95L42.1394 422.52L45.2694 424.22L48.2094 426.08L50.9694 428.07L53.5594 430.21L55.9594 432.49L50.2594 428.47L44.2994 424.77L38.0794 421.41L31.6094 418.37L31.6794 418.25Z" fill="#676661"/>
<path d="M376.409 433.648L372.969 436.358L369.389 438.768L365.689 440.868L361.859 442.658L357.379 444.328L352.729 445.598L349.199 446.208L344.719 446.648L339.259 446.918L332.849 447.008L94.6594 447.028L88.4894 446.838L83.6294 446.248L78.4394 445.108L72.8494 443.508L69.4694 442.148L66.8594 440.438L73.3194 443.118L78.7294 444.928L81.7094 445.608L85.1694 446.118L91.6894 446.408L279.609 446.338L344.889 446.108L349.689 445.758L354.239 444.798L359.599 443.008L365.209 440.638L367.579 439.308L370.789 437.148L374.749 434.588L376.409 433.648Z" fill="#676661"/>
<path d="M61.3996 437.06L60.7896 436.81L60.4196 436.43L60.3496 436.28L60.5396 436.25L60.9696 436.46L61.3996 437.06Z" fill="#2A4563"/>
<path d="M64.4088 439.059L62.6588 438.099L62.0488 437.549L63.1088 437.879L63.8088 438.369L64.4088 439.059Z" fill="#2A4563"/>
<path d="M65.8903 439.808L65.0303 439.498L64.8203 439.318L65.5903 439.418L65.8903 439.808Z" fill="#676661"/>
<path d="M181.35 492.27L170.95 489.59L168.03 489.13L164.67 488.98L158.34 488.75L160.21 488.32L162.09 488.16L163.35 488.21L171.81 489.28L174.12 489.69L178.12 490.79L181.35 492.27Z" fill="#676661"/>
<path d="M158.34 488.748L164.67 488.978L168.03 489.128L170.95 489.588L181.35 492.268L182.06 492.418L182.56 492.768L182.58 492.788L184.27 493.888L185.53 495.198L185.31 495.798L185.09 495.998L185.02 495.988L183 500.228L181.43 504.598L180.67 507.438L180.5 508.338L179.93 509.398L179.57 509.648L179.15 509.568L176.08 507.908L174.26 506.738L172.32 505.888L169.89 505.328L167.31 505.218L159.59 505.288L158.67 505.128L157.86 505.258L157.08 505.768L154.72 506.798L152.58 508.138L151.07 509.388L149.7 510.838L148.46 512.468L147.36 514.288L146.07 517.058L145.42 519.908L145.35 521.638L145.5 523.388L145.88 525.158L146.49 526.958L146.83 527.688V527.848L147.25 529.228L147.92 530.428L148.69 531.298L149.64 532.038L150.61 532.768L151.58 533.798L152.88 534.988L154.33 535.848L156.1 536.438L158.05 536.628L162.21 536.568L164.37 536.808L166.49 536.308L168.57 535.068L168.99 533.908L169.21 532.598L169.06 529.528L169.24 528.938L169.16 528.548L168.81 528.338L168.2 528.328L166.17 528.868L164.57 528.818L162.67 528.428L163.01 522.408L162.6 516.488L162.54 516.048L186.21 515.868L186.8 516.058L186.98 516.658L187.1 528.008L187.22 537.478L186.76 552.188L176.45 553.798L174.73 553.908L172.77 553.688L172.93 550.658L172.68 550.078L172.07 549.928L171.9 549.988L170.53 550.738L167.89 551.998L167.22 552.198L160.52 553.978L155.82 553.858L145.3 551.648L139.96 548.878L139.75 548.268L139.39 547.858L138.89 547.658H138.26L134.58 544.108L133.15 541.368L131.25 539.258L130.86 538.528L130.65 537.478L130.28 537.058L130.15 537.048L127.49 527.088L127.4 515.748L130.09 508.278L132.27 504.058L135 500.318L137.47 497.788L140.26 495.528L143.38 493.558L146.83 491.868L151.91 490.218L157.1 488.928L157.62 488.648L158.34 488.748Z" fill="black"/>
<path d="M157.1 488.93L151.91 490.22L146.83 491.87L143.38 493.56L140.26 495.53L137.47 497.79L135 500.32L132.27 504.06L130.09 508.28L127.4 515.75L128.02 512.37L128.95 509.3L130.17 506.54L131.69 504.09L134.97 499.79L137.41 497.08L139.29 495.61L142.56 493.43L145.31 491.87L148.18 490.64L152.52 489.45L157.1 488.93Z" fill="#676661"/>
<path d="M308.311 489.119L321.181 491.749L322.161 491.869L322.811 492.269L323.07 492.739L323.161 493.359L322.831 495.039L319.831 506.639L319.551 506.909L319.081 506.989L318.021 506.849L313.251 505.529L308.51 504.639L303.791 504.199L299.091 504.189L296.841 504.609L295.951 505.049L295.211 505.649L294.591 506.469L294.161 507.469L294.111 509.469L294.681 511.079L295.811 512.269L297.51 513.109L301.701 514.089L311.07 516.479L314.351 517.449L317.411 518.819L319.331 519.949L321.091 521.379L322.441 523.059L322.82 523.739L324.311 527.249L325.101 530.689L325.251 533.009L325.201 536.349L325.01 537.929L324.491 539.569L322.32 545.249L317.971 549.669L315.731 550.469L314.651 551.159L313.671 552.049L310.301 553.179L308.561 553.129L307.331 553.679L307.111 553.899L305.241 554.309L303.481 554.319L290.171 554.119L289.931 554.109L289.331 553.909L289.001 553.769L288.081 553.449L283.661 552.739L279.501 551.809L275.381 550.629L275.141 550.559L274.561 549.959L275.541 543.369L276.901 536.779L276.961 536.169L276.811 535.829L276.541 535.729L276.941 535.299L277.291 535.079L277.711 535.119L278.021 535.319L283.271 537.259L288.641 538.399L291.341 538.669L295.241 539.119L299.101 539.029L301.861 538.639L302.981 538.649L304.041 538.459L305.281 537.939L306.431 537.089L306.981 536.459L307.341 535.759L307.51 534.899L307.421 533.939L307.01 532.719L306.341 531.729L305.32 530.909L303.981 530.379L298.651 529.169L290.731 527.659L287.661 526.869L284.681 525.609L281.771 523.879L278.951 521.679L278.561 521.339L278.121 520.549L277.671 519.099L277.01 517.759L276.081 516.459L275.771 515.889L275.691 515.069L275.861 513.859L275.801 512.689L275.401 511.279L275.231 509.349L275.421 507.529L278.581 498.159L282.581 493.999L286.051 492.319L289.611 490.919L292.861 489.909L296.181 489.129L299.121 488.819L302.121 488.709L305.191 488.809L308.311 489.119Z" fill="black"/>
<path d="M296.18 489.129L292.86 489.909L289.61 490.919L286.05 492.319L282.58 493.999L285.04 492.219L287.68 490.839L289.67 490.099L291.75 489.569L293.92 489.249L296.18 489.129Z" fill="#676661"/>
<path d="M321.181 491.749L308.311 489.119L311.521 489.309L314.741 489.809L317.961 490.629L321.181 491.749Z" fill="#676661"/>
<path d="M78.13 490.689L84.65 498.759L84.91 499.679L85.47 500.619L86.37 501.809L89.78 506.119L93.35 510.299L100.38 519.879L101.12 520.719L101.64 520.899L101.95 520.439L102.03 519.329L101.51 490.089L119.99 490.209L119.6 495.029L119.34 539.799L119.58 551.979V552.009L119.3 552.719L118.59 553.019H104.44L103.86 552.739L91.06 536.779L90.44 536.259L90.03 535.639L89.89 535.279L89 533.639L87.83 532.299L87.16 531.749L86.09 529.989L84.69 528.259L83.04 526.719L80.48 523.759L80.72 523.869L80.39 523.389L79.88 523.209L79.46 523.539L79.42 523.789L80.07 532.889L80.16 553.359L62.55 553.029L62.17 552.899L62.03 552.489L62 490.089L75.87 489.949L76.78 490.139L78.13 490.689Z" fill="black"/>
<path d="M7.30914 490.059L6.93915 491.129L6.78915 492.319L6.17914 491.649L6.11914 490.789L6.32916 490.369L6.77914 490.149L7.30914 490.059Z" fill="#676661"/>
<path d="M53.8292 505.589L26.0392 505.139L25.4492 505.349L25.1491 505.899L24.9492 508.089L24.9892 510.179L25.2692 512.179L25.7992 514.089L41.5392 513.689L44.6191 514.009L47.6491 513.879L49.2292 513.629L49.4792 523.049L49.1491 524.989L49.2392 527.109V527.159L49.0092 527.799L48.3892 528.069H26.5591L26.0092 528.179L25.5492 528.489L25.2392 528.959L25.1292 529.509V536.409L25.2292 537.089L25.5192 537.579L26.0092 537.879L26.7091 537.979L34.4892 537.839L42.1992 537.859L47.6692 537.759L53.5992 537.199L53.9291 553.569L53.5092 553.549L41.9192 553.109L30.3192 552.959L18.6992 553.109L7.06915 553.549L7.05914 505.279L6.61914 497.019L6.90915 495.839L6.98917 494.659L6.71915 492.839L6.78915 492.319L6.93915 491.129L7.30914 490.059L52.7091 490.079L53.6092 490.379L53.8991 491.279L53.8292 505.589Z" fill="black"/>
<path d="M61.9999 490.09L62.0299 552.49L62.1699 552.9L62.5499 553.03L80.1599 553.36L75.7399 553.89L71.3799 554.15L67.0799 554.13L62.8399 553.85L62.1899 553.66L61.6499 553.25L61.2899 552.67L61.1699 552V490.59L61.2399 490.33L61.4699 490.14L61.9999 490.09Z" fill="#676661"/>
<path d="M101.51 490.09L102.03 519.33L101.95 520.44L101.64 520.9L101.12 520.72L100.38 519.88L93.3496 510.3L99.7796 518.28L100.25 518.75L100.58 518.84L100.79 518.56L100.87 517.91L101.51 490.09Z" fill="#676661"/>
<path d="M197.52 490.059L197.88 498.919L198.01 507.759L197.89 516.589L197.54 525.399L197.22 518.449L197.07 509.779L197.15 499.179L197.52 490.059Z" fill="#2A4563"/>
<path d="M215.68 490.049L215.23 512.859L215.4 535.529L215.5 536.409L215.76 536.769L215.97 536.749L240.38 537.049L240.84 537.239L241.04 537.699L241.55 552.309L240.94 552.929L240.35 553.139L218.71 553.059L196.99 553.469L197.54 525.399L197.89 516.589L198.01 507.759L197.88 498.919L197.52 490.059L215.68 490.049Z" fill="black"/>
<path d="M215.97 536.749L215.76 536.769L215.5 536.409L215.4 535.529L215.23 512.859L215.68 490.049L216.18 513.459L215.97 536.749Z" fill="#2A4563"/>
<path d="M266.65 553.129L248.22 553.149L248.15 490.489L248.26 490.169L248.58 490.059H266.56L266.85 490.149L266.96 490.459L267.05 552.489L266.96 552.859L266.65 553.129Z" fill="black"/>
<path d="M334.659 490.169H345.259L351.609 489.879L351.299 513.479L351.549 514.239L352.299 514.489H370.149L370.779 514.229L371.039 513.599L371.159 490.089L372.589 490.009L373.569 490.159L383.759 490.129L388.969 490.059L389.359 491.529L389.439 551.669L389.339 552.389L389.039 552.889L388.519 553.189L387.789 553.279L371.869 553.109L371.539 553.049L371.129 552.699L370.859 552.049L370.919 551.359L370.849 551.269L371.079 549.049L370.789 545.659L370.979 543.449L370.689 541.479L370.969 530.919L370.719 530.279L370.089 529.999H370.079H352.629L351.749 530.369L351.379 531.249V552.149L351.079 552.889L350.339 553.189H334.479L333.819 553.099L333.349 552.809L333.069 552.339L332.969 551.669L333.219 490.259L333.729 490.089L334.659 490.169Z" fill="black"/>
<path d="M371.159 490.089L371.039 513.599L370.959 513.979L370.629 514.349L370.149 514.489H352.299L351.549 514.239L351.299 513.479L351.609 489.879L352.069 513.589L352.219 513.919L352.559 514.059H369.849L370.119 513.789V490.699L370.259 490.239L370.689 490.009L371.049 490.039L371.159 490.089Z" fill="#676661"/>
<path d="M370.859 552.049L371.129 552.699L371.539 553.049L371.869 553.109L387.789 553.279L388.519 553.189L389.039 552.889L389.339 552.389L389.439 551.669L389.359 491.529L388.969 490.059L389.619 490.089L389.969 490.229L390.089 490.589V551.779L389.919 552.649L389.429 553.379L388.689 553.859L387.829 554.029L372.119 553.989L371.389 553.849L370.759 553.459L370.319 552.859L370.129 552.149V552.129L370.859 552.049Z" fill="#676661"/>
<path d="M333.219 490.258L332.969 551.669L333.069 552.339L333.349 552.809L333.819 553.099L334.479 553.188H350.339L351.079 552.888L351.379 552.148V531.248L351.749 530.369L352.629 529.998H370.079H370.089L370.719 530.279L370.969 530.919L370.689 541.479L369.989 531.469L369.859 531.138L369.509 531.029H352.589L352.229 531.179L352.079 531.539V553.539L351.969 553.888L351.619 553.998H334.089L333.339 553.849L332.709 553.429L332.289 552.799L332.139 552.049L332.169 490.779L332.179 490.679L332.519 490.229L333.219 490.258Z" fill="#676661"/>
<path d="M119.991 490.209V553.449L119.811 553.869L119.391 554.049H105.761L104.291 553.719L103.131 552.739L91.0605 536.779L103.861 552.739L104.441 553.019H118.591L119.301 552.719L119.581 552.009V551.979L119.341 539.799L119.601 495.029L119.991 490.209Z" fill="#676661"/>
<path d="M185.53 495.199L184.27 493.889L182.58 492.789L184.87 493.379L185.49 493.789L185.78 494.279L185.53 495.199Z" fill="#676661"/>
<path d="M6.7196 492.84L6.98962 494.66L6.90961 495.84L6.6196 497.02L6.22961 496L6.09961 494.98L6.25961 493.91L6.7196 492.84Z" fill="#676661"/>
<path d="M322.83 495.039L319.96 507.439L319.66 507.899L319.11 507.889L314.22 506.379L309.26 505.419L303.85 504.999L298.36 505.219L297.8 505.299L295.91 506.039L294.16 507.469L294.59 506.469L295.21 505.649L295.95 505.049L296.84 504.609L299.09 504.189L303.79 504.199L308.51 504.639L313.25 505.529L318.02 506.849L319.08 506.989L319.55 506.909L319.83 506.639L322.83 495.039Z" fill="#676661"/>
<path d="M185.02 495.99L183.82 500.16L182.26 504.17L180.67 507.44L181.43 504.6L183 500.23L185.02 495.99Z" fill="#676661"/>
<path d="M278.579 498.16L275.419 507.53L275.389 504.95L275.889 502.54L276.949 500.26L278.579 498.16Z" fill="#676661"/>
<path d="M93.3504 510.3L89.7804 506.12L86.3704 501.81L85.4704 500.62L84.9104 499.68L84.6504 498.76L93.3504 510.3Z" fill="#676661"/>
<path d="M53.8292 505.589L26.4592 506.009L26.0992 506.359L25.7992 514.089L25.2692 512.179L24.9892 510.179L24.9492 508.089L25.1492 505.899L25.4492 505.349L26.0392 505.139L53.8292 505.589Z" fill="#676661"/>
<path d="M159.59 505.289L158.64 505.609L157.08 505.769L157.86 505.259L158.67 505.129L159.59 505.289Z" fill="#2A4563"/>
<path d="M176.081 507.909L167.311 505.219L169.891 505.329L172.321 505.889L174.261 506.739L176.081 507.909Z" fill="#676661"/>
<path d="M275.689 515.069L275.289 512.839L275.399 511.279L275.799 512.689L275.859 513.859L275.689 515.069Z" fill="#2A4563"/>
<path d="M49.2291 513.63L47.649 513.88L44.619 514.01L41.5391 513.69L43.5691 513.3L45.5191 513.16L47.4091 513.27L49.2291 513.63Z" fill="#676661"/>
<path d="M322.319 545.25L324.489 539.57L325.009 537.93L325.199 536.35L325.249 533.01L325.099 530.69L324.309 527.25L322.819 523.74L322.439 523.06L321.089 521.38L319.329 519.95L317.409 518.82L314.349 517.45L311.069 516.48L301.699 514.09L307.489 514.91L313.039 516.43L316.559 517.8L319.559 519.5L321.949 521.72L323.669 524.31L324.839 527.37L325.479 530.34L325.749 533.21L325.659 536L325.189 538.7L324.059 542.05L322.319 545.25Z" fill="#676661"/>
<path d="M147.36 514.289L146.72 516.499L146.29 518.739L146.05 522.799L146.49 526.959L145.88 525.159L145.5 523.389L145.35 521.639L145.42 519.909L146.07 517.059L147.36 514.289Z" fill="#676661"/>
<path d="M162.54 516.049L162.6 516.489L163.01 522.409L162.67 528.429L162.24 525.859L162.01 523.309L161.99 520.779L162.19 518.279L162.54 516.049Z" fill="#2A4563"/>
<path d="M278.12 520.549L277.22 519.319L276.54 517.959L276.08 516.459L277.01 517.759L277.67 519.099L278.12 520.549Z" fill="#2A4563"/>
<path d="M301.859 538.64L306.159 536.99L306.559 536.74L306.829 536.33L307.129 535.08L307.039 534L306.459 532.87L305.309 531.85L303.719 531.07L301.779 530.53L298.929 529.97L290.919 528.25L285.289 526.39L283.009 525.38L281.159 524.24L279.699 522.8L278.949 521.68L281.769 523.88L284.679 525.61L287.659 526.87L290.729 527.66L298.649 529.17L303.979 530.38L305.319 530.91L306.339 531.73L307.009 532.72L307.419 533.94L307.509 534.9L307.339 535.76L306.979 536.46L306.429 537.09L305.279 537.94L304.039 538.46L302.979 538.65L301.859 538.64Z" fill="#676661"/>
<path d="M49.4789 523.049L49.9189 525.409L49.9489 527.639L49.8089 528.159L49.4789 528.599L49.0189 528.889L48.4789 528.989H26.6089L26.2189 529.119L26.0889 529.509V536.719L26.1689 536.949L26.3789 537.019L53.5989 537.199L47.6689 537.759L42.1989 537.859L34.4889 537.839L26.7089 537.979L26.0089 537.879L25.5189 537.579L25.2289 537.089L25.1289 536.409V529.509L25.2389 528.959L25.5489 528.489L26.0089 528.179L26.5589 528.069H48.3889L49.0089 527.799L49.2389 527.159V527.109L49.1489 524.989L49.4789 523.049Z" fill="#676661"/>
<path d="M80.4799 523.759L80.0699 532.889L79.4199 523.789L79.4599 523.539L79.8799 523.209L80.3899 523.389L80.7199 523.869L80.4799 523.759Z" fill="#2A4563"/>
<path d="M87.1591 531.749L84.929 529.449L83.0391 526.719L84.6891 528.259L86.0891 529.989L87.1591 531.749Z" fill="#676661"/>
<path d="M130.15 537.05L129.05 535.07L128.24 532.99L127.61 530.12L127.49 527.09L130.15 537.05Z" fill="#2A4563"/>
<path d="M149.64 532.04L148.69 531.3L147.92 530.43L147.25 529.23L146.83 527.85L149.64 532.04Z" fill="#676661"/>
<path d="M169.06 529.53L167.79 529.04L166.17 528.87L168.2 528.33L168.81 528.34L169.16 528.55L169.24 528.94L169.06 529.53Z" fill="#2A4563"/>
<path d="M89.8902 535.28L88.5502 534.03L87.5502 532.59L87.1602 531.75L87.8302 532.3L89.0002 533.64L89.8902 535.28Z" fill="#676661"/>
<path d="M158.05 536.629L156.1 536.439L154.33 535.849L152.88 534.989L151.58 533.799L158.05 536.629Z" fill="#676661"/>
<path d="M168.569 535.068L166.489 536.308L164.369 536.808L162.209 536.568L168.569 535.068Z" fill="#676661"/>
<path d="M291.34 538.67L288.64 538.4L283.27 537.26L278.02 535.32L279.13 535.25L279.73 535.4L279.9 535.46L285.55 537.26L291.34 538.67Z" fill="#676661"/>
<path d="M274.56 549.958L274.28 549.008L274.25 548.279L276.54 535.729L276.81 535.828L276.96 536.169L276.9 536.779L275.54 543.369L274.56 549.958Z" fill="#676661"/>
<path d="M130.86 538.529L130.21 537.499L130.15 537.049L130.28 537.059L130.65 537.479L130.86 538.529Z" fill="#2A4563"/>
<path d="M134.58 544.11L132.61 541.84L131.25 539.26L133.15 541.37L134.58 544.11Z" fill="#676661"/>
<path d="M370.849 551.27L370.439 551.03L370.389 550.98L370.159 550.5L370.049 548.08L370.619 545.99L370.789 545.66L371.079 549.05L370.849 551.27Z" fill="#676661"/>
<path d="M139.96 548.88L138.32 547.72L138.26 547.66H138.89L139.39 547.86L139.75 548.27L139.96 548.88Z" fill="#2A4563"/>
<path d="M317.97 549.67L316.66 550.72L315.24 551.51L313.67 552.05L314.65 551.16L315.73 550.47L317.97 549.67Z" fill="#676661"/>
<path d="M172.77 553.69L172.46 553.72L172.14 553.61L172.04 553.29V551.58L171.94 551.28L171.63 551.32L168.56 552.61L165.39 553.48L162.98 553.85L160.52 553.98L167.22 552.2L167.89 552L170.53 550.74L171.9 549.99L172.07 549.93L172.68 550.08L172.93 550.66L172.77 553.69Z" fill="#676661"/>
<path d="M303.479 554.319L299.409 555.009L295.159 554.969L285.529 553.659L280.439 552.679L278.689 552.199L277.029 551.539L275.379 550.629L279.499 551.809L283.659 552.739L288.079 553.449L288.999 553.769L289.329 553.909L289.929 554.109L290.169 554.119L303.479 554.319Z" fill="#676661"/>
<path d="M155.819 553.858L153.179 553.838L150.599 553.488L147.909 552.758L145.299 551.648L155.819 553.858Z" fill="#676661"/>
<path d="M186.759 552.189L185.489 552.719L183.379 553.379L181.159 553.769L178.859 553.909L176.449 553.799L186.759 552.189Z" fill="#676661"/>
<path d="M241.55 552.309L241.69 552.869L241.6 553.309L241.04 553.759L239.97 553.939L230.43 554.169H220.08L208.94 553.939L196.99 553.469L218.71 553.059L240.35 553.139L240.94 552.929L241.55 552.309Z" fill="#676661"/>
<path d="M53.9303 553.569L42.1903 554.009L30.4603 554.159L18.7603 553.999L7.07031 553.549L18.7003 553.109L30.3203 552.959L41.9203 553.109L53.5103 553.549L53.9303 553.569Z" fill="#676661"/>
<path d="M266.649 553.129L266.239 553.799L265.869 553.899L256.729 554.069L249.119 553.969L248.539 553.779L248.219 553.149L266.649 553.129Z" fill="#676661"/>
<path d="M310.299 553.179L307.109 553.899L307.329 553.679L308.559 553.129L310.299 553.179Z" fill="#2A4563"/>
<path d="M314.599 568.39L313.179 567.29L311.649 566.7L310.049 566.62L308.359 567.02L310.349 566.04L311.249 565.91L312.079 566.01L313.449 566.8L314.599 568.39Z" fill="#676661"/>
<path d="M28.9997 567.84L26.0897 567.22L24.6197 566.96L23.1697 566.91L16.3397 567.05L9.7597 566.94L9.02969 567.06L8.4097 567.46L7.98972 568.06L7.83969 568.78V568.82L8.14969 599.75L7.3197 596.96L7.0097 593.53L6.92969 579.23L7.14969 569.34L7.32971 568.36L7.74969 567.56L8.74969 566.77L10.2297 566.35L15.2597 565.93L20.0697 566.04L24.6497 566.68L28.9997 567.84Z" fill="#676661"/>
<path d="M85.8504 567.219L64.7504 566.899L64.0704 567.019L63.4804 567.399L63.0904 567.959L62.9404 568.639L62.4804 598.069L62.1504 569.339L62.3704 568.119L63.0504 567.079L64.0604 566.379L65.2704 566.109L74.4804 566.039L83.6504 566.259L85.1104 566.489L85.8004 567.049L85.8504 567.219Z" fill="#676661"/>
<path d="M136.439 569L132.869 567.64L130.969 567.04L129.209 566.86L115.919 566.91L115.089 567.25L114.739 568.08V597.8L114.889 598.55L115.329 599.19L115.969 599.6L116.729 599.72H116.799L122.149 599.61L126.899 599.54L130.349 599.21L132.669 598.35L134.069 597.84L135.219 597.92L135.179 597.93L130.689 599.24L126.009 600.02L121.139 600.26L116.079 599.97L115.319 599.74L114.699 599.26L114.279 598.59L114.139 597.81V568.47L114.279 567.46L114.709 566.73L115.429 566.27L116.439 566.09L122.129 566L127.809 566.16L131.079 566.62L134.079 567.65L136.439 569Z" fill="#676661"/>
<path d="M193.219 566.63L183.209 567.03L172.389 566.72L179.539 566L186.369 565.99L193.219 566.63Z" fill="#676661"/>
<path d="M246.829 568.24L246.309 567.51L245.669 567.04L244.569 566.84L235.229 567.05L225.519 566.89H225.499L224.919 567L224.429 567.32L224.109 567.81L223.989 568.39L223.909 597.13L224.039 598.08L224.429 598.82L225.169 599.38L226.229 599.67L226.799 599.42L227.619 598.89L228.209 598.2L228.549 597.38L228.669 596.42V586.49L228.759 585.86L229.029 585.43L229.479 585.18L230.119 585.13L237.929 585.64L239.489 585.45L240.889 584.63L241.949 583.3L242.039 584.18L241.829 584.9L241.359 585.47L240.589 585.83L239.459 585.96L229.819 585.99L229.259 586.22L229.019 586.78V597.74L228.879 598.69L228.479 599.38L227.789 599.78L226.839 599.92H225.279L224.309 599.78L223.609 599.36L223.189 598.66L223.049 597.68V569.54L223.309 568.24L224.029 567.13L225.129 566.38L226.419 566.1L244.809 566.08L246.059 566.27L246.769 566.8L246.949 567.43L246.829 568.24Z" fill="#676661"/>
<path d="M335.39 566.689L331.27 567.189L332.36 566.349L333.47 566.029L334.42 566.169L335.39 566.689Z" fill="#676661"/>
<path d="M388.34 566.519L367.35 566.749L368.42 566.299L369.36 566.119L378.91 565.959L388.34 566.519Z" fill="#676661"/>
<path d="M278.92 597.999L276.96 599.769L276.44 599.919H275.33L273.84 598.529L273.68 598.249L273.97 590.759L274.04 583.229L273.89 575.679L273.52 568.089L274.15 567.139L274.94 566.559L275.66 566.369L276.46 566.399L278.37 567.109L278.71 567.419L278.82 567.859L278.92 597.999Z" fill="black"/>
<path d="M193.43 571.399L192.48 571.079L191.54 571.009L190.04 571.419L178.63 571.189H178.62L178.07 571.289L177.62 571.599L177.31 572.059L177.2 572.599L177.21 580.459L189.96 580.849L190.56 582.039L190.8 583.069V583.109L190.7 583.859L190.31 584.509L189.7 584.959L188.96 585.139L177.09 585.599L177.18 594.129L177.31 594.589L177.66 594.899L178.27 595.219L180.64 595.619L182.93 595.309L194.22 595.379L194.66 595.479L195.02 595.809L195.42 596.609L195.54 597.159L194.9 598.589L193.98 599.739L193.84 599.869L174.16 599.919H174.15L173.38 599.759L172.73 599.329L172.3 598.669L172.15 597.899L172.39 566.719L183.21 567.029L193.22 566.629L194.16 566.779L194.76 567.189L195.01 567.779L195.03 569.069L194.68 570.659L194.44 571.079L194.04 571.319L193.91 571.359L193.43 571.399Z" fill="black"/>
<path d="M314.599 568.389L328.909 587.229L329.779 588.329L330.379 588.839L330.809 588.919L331.069 588.569L331.159 587.779L331.269 567.189L335.389 566.689L335.789 567.279L335.979 568.149L336.429 594.809L336.279 595.729L336.429 597.479L335.949 598.519L335.369 599.149L333.849 599.609L332.439 599.569L331.049 598.979L328.609 595.839L328.199 594.789L327.539 594.069L327.059 593.809L314.709 577.789L313.909 576.789L313.529 576.629L313.189 576.869L313.149 577.059L313.479 598.529L312.269 599.349L311.349 599.689L309.939 599.279L308.779 598.579L308.429 598.249L308.359 567.019L310.049 566.619L311.649 566.699L313.179 567.289L314.599 568.389Z" fill="black"/>
<path d="M388.34 571.45L379.1 571.29L373 571.1L372.3 571.22L371.71 571.6L371.31 572.18L371.16 572.87V572.9L371.22 580.41L373.86 580.81L376.59 580.97L379.42 580.9L382.34 580.59L384.37 581.07L384.76 582.71L384.53 584.09L384.42 584.33L383.68 584.93L382.67 585.18L381.11 585.34L372.12 585.27L371.57 585.34L371.26 585.56L371.2 586.01V594.35L371.36 594.75L371.76 594.93L388.15 595.33L389.79 597.26L389.71 598L389.41 598.66L388.89 599.26L388.08 599.54L387.82 599.91L368.11 599.92L367.36 599.77L366.73 599.35L366.31 598.72L366.16 597.97L366.18 567.76L366.4 567.7L367.09 567L367.26 566.92L367.35 566.75L388.34 566.52L389.38 567.47L389.85 568.52V569.29L389.55 570.2L389.06 570.88L388.34 571.45Z" fill="black"/>
<path d="M28.9998 567.84L31.6798 570L33.0199 573.2L33.5699 576.31L33.4899 579.6L32.4998 581.89L31.0598 583.71L30.0199 584.55L28.8299 585.24L25.9799 586.14L25.4298 586.3L25.2098 586.53L25.3199 586.83L25.7699 587.19L26.0199 587.38L26.5199 588.2L28.0499 590.46L30.3199 592.51L31.4598 593.59L32.3199 594.7L32.9199 595.85L33.2399 597.03L33.0598 598.17L32.2098 599.47L30.1898 599.18L28.8499 598.54L27.6299 597.53L23.2299 592.55L22.5499 591.06L21.9199 590.39L21.0999 589.85L19.9298 588.35L18.5399 587.25L18.8098 587.06L18.8199 587.05L18.8599 586.79L18.6599 586.62L17.2798 586.21L16.0099 586.05L14.8499 586.13L13.8098 586.46L12.9398 587L12.9298 597.52L10.8199 599.74L9.91986 599.9L8.14984 599.75L7.83984 568.82V568.78L7.98987 568.06L8.40985 567.46L9.02985 567.06L9.75986 566.94L16.3398 567.05L23.1699 566.91L24.6198 566.96L26.0898 567.22L28.9998 567.84ZM13.0598 572.5L13.2899 580.9L13.4199 581.32L13.8098 581.55L16.9998 582.12L20.1798 582.25L22.4998 582.06L24.8098 581.63L26.7999 580.88L28.1299 579.66L28.5499 578.87L28.7999 577.97L28.7899 575.8L28.4998 574.66L27.9598 573.69L26.8899 572.7L25.3998 572.03L24.8199 571.5L24.1699 571.21L23.0099 571.26L17.6498 571.37L15.4998 570.98L13.5999 571.27L12.9998 571.53L12.7098 571.83L12.8398 572.22L13.0598 572.5Z" fill="black"/>
<path d="M85.8505 567.218L86.0605 569.018L85.8205 569.988L85.2505 570.368L85.0305 570.778L85.0505 570.948L82.3505 571.338L77.7705 570.998L73.5505 570.938L69.3205 571.128L68.4305 571.248L67.9505 571.608L67.8805 572.028L68.0405 572.588L68.0705 579.778L68.4505 580.688L69.3605 581.068H80.1305L80.7104 581.288L80.9905 581.828L81.0305 583.458L80.7505 585.188L68.8105 585.508L68.5705 585.368L68.3105 585.378L68.2205 585.618L67.9705 591.218L67.5905 592.998L67.9005 594.408L68.2505 594.898L68.3605 594.788L68.5205 595.098L69.0805 595.468L70.1005 595.608L76.7905 595.568L82.3505 595.258L83.5205 595.168L84.8505 595.318L85.2705 595.498L85.5605 595.878L85.9905 597.778L85.9705 598.268L85.8005 598.888L85.4205 599.398L84.8805 599.748L84.2505 599.878L74.7905 599.978L65.6105 599.858L64.1705 599.618L63.1005 598.978L62.4805 598.068L62.9405 568.638L63.0905 567.958L63.4805 567.398L64.0705 567.018L64.7505 566.898L85.8505 567.218Z" fill="black"/>
<path d="M136.44 568.999L138.74 570.959L140.61 573.209L141.55 574.759L142.33 576.429L143.37 580.099L143.19 581.619L143.22 583.209L143.48 584.809L142.58 588.629L140.37 593.299L135.22 597.919L134.07 597.839L132.67 598.349L130.35 599.209L126.9 599.539L122.15 599.609L116.8 599.719H116.73L115.97 599.599L115.33 599.189L114.89 598.549L114.74 597.799V568.079L115.09 567.249L115.92 566.909L129.21 566.859L130.97 567.039L132.87 567.639L136.44 568.999ZM123.67 595.209L127.54 595.059L129.33 594.699L131.04 594.149L132.51 593.459L133.85 592.579L134.97 591.579L135.93 590.399L137.02 588.239L137.7 587.359L137.64 586.199L137.95 584.689L138.03 583.039L137.85 581.269L137.44 579.369L136.89 577.729L136.17 576.279L135.29 575.009L134.25 573.929L132.85 572.929L131.23 572.169L128.84 571.449L126.42 571.029L123.42 570.919L120.36 571.269L120.09 571.049L119.53 571.309L119.4 571.629V594.249L119.6 594.909L120.14 595.339L121.04 595.579H122.33L123.67 595.209Z" fill="black"/>
<path d="M246.83 568.24L246.82 569.12L246.56 569.87L245.64 570.81L244.07 571.41L243.3 571.08H242.61L241.87 571.33L230.48 571.01L229.83 571.09L229.36 571.35L229.08 571.81L228.99 572.46V579.69L229.08 580.3L229.34 580.74L229.78 581L230.39 581.08L239.91 581.17L240.87 581.33L241.53 581.76L241.87 582.41L241.95 583.3L240.89 584.63L239.49 585.45L237.93 585.64L230.12 585.13L229.48 585.18L229.03 585.43L228.76 585.86L228.67 586.49V596.42L228.55 597.38L228.21 598.2L227.62 598.89L226.8 599.42L226.23 599.67L225.17 599.38L224.43 598.82L224.04 598.08L223.91 597.13L223.99 568.39L224.11 567.81L224.43 567.32L224.92 567L225.5 566.89H225.52L235.23 567.05L244.57 566.84L245.67 567.04L246.31 567.51L246.83 568.24Z" fill="black"/>
<path d="M367.09 566.998L366.4 567.698L366.18 567.758L366.33 567.248L366.44 567.138L366.79 566.979L367.09 566.998Z" fill="#2A4563"/>
<path d="M273.519 568.09L273.889 575.68L274.039 583.23L273.969 590.76L273.679 598.25L273.339 596.2L273.129 593.28L272.949 580.03L273.139 573.89L273.519 568.09Z" fill="#676661"/>
<path d="M33.4897 579.6L33.5697 576.31L33.0197 573.2L31.6797 570L33.0797 571.87L33.9097 573.9L34.1397 575.23V576.63L33.9297 578.09L33.4897 579.6Z" fill="#676661"/>
<path d="M85.8193 569.99L85.7693 570.57L85.0493 570.95L85.0293 570.78L85.2493 570.37L85.8193 569.99Z" fill="#676661"/>
<path d="M17.649 571.369L13.829 572.029L13.359 572.188L13.059 572.498L12.839 572.219L12.709 571.828L12.999 571.529L13.599 571.268L15.499 570.979L17.649 571.369Z" fill="#676661"/>
<path d="M25.3997 572.029L23.0098 571.259L24.1698 571.209L24.8198 571.499L25.3997 572.029Z" fill="#2A4563"/>
<path d="M69.3189 571.129L68.9789 571.399L68.0389 572.589L67.8789 572.029L67.9489 571.609L68.4289 571.249L69.3189 571.129Z" fill="#2A4563"/>
<path d="M120.36 571.269L120.11 594.079L120.36 594.729L120.99 595.029L123.67 595.209L122.33 595.579H121.04L120.14 595.339L119.6 594.909L119.4 594.249V571.629L119.53 571.309L120.09 571.049L120.36 571.269Z" fill="#676661"/>
<path d="M193.429 571.4L193.029 571.52L191.589 571.67L190.039 571.42L191.539 571.01L192.479 571.08L193.429 571.4Z" fill="#2A4563"/>
<path d="M244.069 571.41L243.089 571.66L241.869 571.33L242.609 571.08H243.299L244.069 571.41Z" fill="#676661"/>
<path d="M388.34 571.449L384.94 571.859L382.03 571.779L379.1 571.289L388.34 571.449Z" fill="#676661"/>
<path d="M24.8105 581.629L26.0706 580.769L27.0406 579.849L27.7306 578.859L28.1306 577.799L28.2406 576.419L27.9305 574.949L27.0206 573.409L25.4005 572.029L26.8906 572.699L27.9605 573.689L28.5005 574.659L28.7906 575.799L28.8006 577.969L28.5506 578.869L28.1306 579.659L26.8006 580.879L24.8105 581.629Z" fill="#676661"/>
<path d="M314.71 577.789L314.3 578.759L314.19 579.649L314.22 589.179L313.48 598.529L313.15 577.059L313.19 576.869L313.53 576.629L313.91 576.789L314.71 577.789Z" fill="#676661"/>
<path d="M143.369 580.1L143.909 582.18L143.839 583.49L143.479 584.81L143.219 583.21L143.189 581.62L143.369 580.1Z" fill="#676661"/>
<path d="M189.959 580.848L177.209 580.458L180.229 580.038L183.259 579.898L186.349 580.048L188.249 580.348L189.959 580.848Z" fill="#676661"/>
<path d="M382.339 580.589L379.419 580.899L376.589 580.969L373.859 580.809L371.219 580.409L376.029 579.969L379.179 580.109L382.339 580.589Z" fill="#676661"/>
<path d="M177.09 585.6L188.96 585.14L189.7 584.96L190.31 584.51L190.7 583.86L190.8 583.11V583.07L190.56 582.04L189.96 580.85L190.55 581.19L190.92 581.64L191.01 581.89L191.1 583.41L190.75 584.8L190.46 585.17L190.03 585.35L186.5 585.87L181.82 586.03L177.09 585.6Z" fill="#676661"/>
<path d="M371.199 586.008L371.259 585.558L371.569 585.338L372.119 585.268L381.109 585.338L382.669 585.178L383.679 584.928L384.419 584.328L384.529 584.088L384.759 582.708L384.369 581.068L384.849 581.718L385.169 583.018L384.929 584.618L384.339 585.468L383.359 585.808L371.199 586.008Z" fill="#676661"/>
<path d="M80.7505 585.189L78.1006 585.749L75.3705 586.069L72.5406 586.139L69.6306 585.969L69.1906 585.819L68.8105 585.509L80.7505 585.189Z" fill="#676661"/>
<path d="M18.5395 587.249L12.9395 586.999L13.8094 586.459L14.8495 586.129L16.0095 586.049L17.2794 586.209L18.6595 586.619L18.8595 586.789L18.8195 587.049L18.8094 587.059L18.5395 587.249Z" fill="#676661"/>
<path d="M137.02 588.239L137.64 586.199L137.7 587.359L137.02 588.239Z" fill="#2A4563"/>
<path d="M30.3195 592.509L28.0495 590.459L26.5195 588.199L27.8795 589.279L29.0395 590.519L30.3195 592.509Z" fill="#676661"/>
<path d="M142.579 588.629L142.179 590.639L141.459 592.039L140.369 593.299L142.579 588.629Z" fill="#676661"/>
<path d="M23.2296 592.55L22.1596 591.53L21.3596 590.37L21.0996 589.85L21.9196 590.39L22.5496 591.06L23.2296 592.55Z" fill="#676661"/>
<path d="M67.9698 591.219L68.2498 594.899L67.8998 594.409L67.5898 592.999L67.9698 591.219Z" fill="#2A4563"/>
<path d="M328.611 595.839L327.701 594.869L327.061 593.809L327.541 594.069L328.201 594.789L328.611 595.839Z" fill="#676661"/>
<path d="M336.429 594.809L336.789 595.809L336.749 596.629L336.429 597.479L336.279 595.729L336.429 594.809Z" fill="#676661"/>
<path d="M82.3495 595.26L76.7895 595.57L70.0995 595.61L69.0795 595.47L68.5195 595.1L82.3495 595.26Z" fill="#2A4563"/>
<path d="M182.93 595.31L180.64 595.62L178.27 595.22L179.91 595L181.52 595.05L182.93 595.31Z" fill="#2A4563"/>
<path d="M389.79 597.26L388.15 595.33L388.95 595.42L389.49 595.75L389.79 596.36V597.26Z" fill="#676661"/>
<path d="M195.54 597.16L195.48 598.67L194.96 599.57L194.47 599.81L193.84 599.87L193.98 599.74L194.9 598.59L195.54 597.16Z" fill="#676661"/>
<path d="M12.9303 597.52L12.8203 598.72L12.2403 599.56L11.6303 599.78L10.8203 599.74L12.9303 597.52Z" fill="#676661"/>
<path d="M32.2089 599.469L30.7089 599.949L29.4589 599.799L28.4089 598.999L27.6289 597.529L28.8489 598.539L30.1889 599.179L32.2089 599.469Z" fill="#676661"/>
<path d="M278.919 598L278.719 598.9L278.279 599.49L277.709 599.75L276.959 599.77L278.919 598Z" fill="#676661"/>
<path d="M311.35 599.69L309.66 599.79L309.09 599.62L308.69 599.31L308.47 598.85L308.43 598.25L308.78 598.58L309.94 599.28L311.35 599.69Z" fill="#676661"/>
<path d="M275.33 599.919L274.51 599.829L274 599.489L273.83 599.079L273.84 598.529L275.33 599.919Z" fill="#676661"/>
<path d="M335.369 599.148L334.049 600.029L332.829 600.208L331.909 599.828L331.049 598.979L332.439 599.568L333.849 599.609L335.369 599.148Z" fill="#676661"/>
<path d="M388.89 599.26L388.88 599.48L388.59 599.78L387.82 599.91L388.08 599.54L388.89 599.26Z" fill="#676661"/>
</svg>
