<svg width="491" height="545" viewBox="0 0 491 545" fill="none" xmlns="http://www.w3.org/2000/svg">
<rect width="490.339" height="544.16" fill="black"/>
<path d="M317.71 0L317.8 0.00999451L318.19 0.460007L320.38 5.13L323.13 9.34L325.21 11.55L327.86 13.45L331.08 15.04L334.86 16.31L335.13 16.39L335.41 16.63L335.46 17.13L335.12 17.49L335.05 17.51L331.12 18.87L327.72 20.66L325.1 22.73L323.21 25.12L320.84 29.65L318.08 35.83L318.07 35.86L317.84 35.94L317.61 35.86L317.6 35.83L314.8 29.67L312.39 25.16L310.49 22.78L307.86 20.72L304.44 18.96L300.5 17.63L300.43 17.61L300.09 17.25L300.13 16.75L300.41 16.51L300.68 16.43L304.45 15.13L307.66 13.52L310.3 11.6L312.36 9.38L315.08 5.14999L317.24 0.470001L317.63 0.00999451L317.71 0Z" fill="url(#paint0_diamond_376_366)"/>
<path d="M179.59 34.7404L178.52 32.1504L177.2 29.8504L175.65 27.8304L173.86 26.1104L171.62 24.5404L169.09 23.3204L168.45 23.0004L168.24 22.7104L168.49 22.4604L169.17 22.2304L171.12 21.6104L172.8 20.7604L174.39 19.5604L175.9 17.9604L177.33 15.9004L178.82 13.2204L179.47 12.2304L180.04 11.9404L180.54 12.3404L180.97 13.4504L181.97 16.0604L183.46 18.2504L184.76 19.5004L186.28 20.5504L188.03 21.4104L190.01 22.0604L191.2 22.4804L191.6 22.9204L191.21 23.3804L190.04 23.8504L187.36 25.0404L184.84 26.8904L182.87 29.1604L181.64 31.5904L180.41 34.7904L180.07 35.0304L179.67 34.8904L179.59 34.7404Z" fill="url(#paint1_diamond_376_366)"/>
<path d="M369.999 12.9697L370.159 13.0097L370.409 13.3197L372.049 17.5597L373.739 20.8497L375.649 23.4597L377.869 25.5397L379.749 26.7697L381.919 27.7697L385.679 29.2697L385.919 29.4497L386.039 30.0597L385.579 30.4797L382.119 31.6397L379.089 33.3797L377.559 34.6097L376.169 36.0297L374.919 37.6397L373.789 39.4297L370.559 47.2997L370.479 47.4097L370.419 47.4397L370.309 47.4597L370.209 47.4397L370.149 47.4097L370.069 47.2997L366.689 39.4897L365.539 37.7197L364.249 36.1397L362.829 34.7497L361.289 33.5397L358.219 31.8497L354.739 30.7597L354.279 30.3497L354.379 29.7297L354.619 29.5497L358.349 27.9797L360.509 26.9397L362.359 25.6797L364.539 23.5597L366.399 20.9197L368.039 17.5997L369.599 13.3297L369.839 13.0097L369.999 12.9697Z" fill="url(#paint2_diamond_376_366)"/>
<path d="M254.799 46.9196L271.679 47.0396L281.019 47.4096L290.349 48.0496L304.439 49.1296L317.799 50.5096L330.459 52.1596L342.389 54.1096L349.289 55.4796L349.369 55.5296L349.399 55.6096L349.369 55.8796L349.219 56.0096L336.249 58.4996L324.839 60.9296L314.969 63.2896L306.659 65.5796L294.149 69.5396L281.999 73.8096L270.219 78.3896L258.799 83.2696L258.309 83.6496L258.889 83.8796L259.579 83.9696L262.969 84.1096L266.409 83.8096L273.819 83.0096L283.719 82.8496L294.879 83.0196L296.719 83.1696L297.369 83.4796L296.829 83.9596L295.099 84.5896L284.869 87.9996L274.969 91.8396L265.389 96.1096L256.139 100.81L244.409 107.55L236.489 112.58L228.739 117.9L221.169 123.51L213.769 129.41L207.669 134.89L202.199 140.74L197.359 146.95L193.149 153.52L190.679 158.13L188.489 162.91L186.999 167.28L185.819 172.55L185.359 175.93L185.289 178.79L185.619 181.37L186.349 183.58L187.959 186.22L190.429 188.7L192.279 189.9L194.519 190.75L197.139 191.26L200.139 191.42L205.219 191.05L210.529 189.96L211.359 189.57L210.479 189.3L205.189 188.33L202.929 187.65L200.939 186.84L199.139 185.9L197.469 184.76L196.059 183.51L194.799 182.05L194.329 181.39L193.819 180.38L193.499 179.23L193.349 176.34L193.879 172.62L195.019 168.64L197.549 162.49L200.729 156.36L201.439 155.45L202.269 154.98L203.199 154.95L204.249 155.34L216.319 161.55L239.379 173.04L241.689 174.35L242.949 175.45L243.479 176.48L243.639 177.41L243.549 178.36L242.699 180.48L240.849 182.93L238.229 185.39L235.009 187.91L230.799 190.9L226.439 193.7L221.929 196.29L217.269 198.69L212.449 200.88L207.489 202.87L202.379 204.65L197.109 206.24L190.749 207.9L184.629 209.28L178.769 210.36L173.149 211.16L169.089 211.51L165.369 211.53L161.989 211.24L158.959 210.62L155.579 209.53L152.279 208.12L149.039 206.38L145.869 204.3L141.099 200.75L136.929 197.35L133.329 194.08L130.329 190.95L127.869 188.38L125.459 186.23L118.939 180.8L114.129 176.34L110.209 172.09L107.029 167.87L103.959 162.69L101.489 157.28L99.8792 152.53L98.6992 147.62L97.9391 142.53L97.6191 137.28L97.7992 132.17L98.5591 126.96L99.8892 121.63L101.789 116.19L104.219 110.64L107.029 105.28L110.799 99.7096L115.069 94.3196L119.749 89.2096L124.909 84.2896L130.549 79.5696L136.639 75.0696L143.289 70.7096L150.419 66.5496L159.959 61.5696L169.549 57.1496L179.179 53.2796L188.859 49.9696L202.089 46.1196L214.909 42.9596L227.329 40.4896L239.349 38.7096L255.459 37.1096L271.769 36.1696L288.289 35.8896L305.019 36.2696L305.359 36.5096L305.459 36.7696L305.469 37.1496L305.129 37.3196L290.769 39.1796L277.609 41.2896L265.629 43.6696L254.849 46.3096L254.539 46.4896L254.459 46.7096L254.519 46.8196L254.799 46.9196ZM233.369 83.5096L233.629 84.0596L233.919 83.5296L234.719 81.2496L235.709 79.1396L236.899 77.1996L238.289 75.4396L240.279 73.5096L242.569 71.8396L245.169 70.5796L249.139 69.2296L249.829 69.0196L250.279 68.7496L249.809 68.5096L246.659 67.4996L243.809 66.1896L241.259 64.5796L239.009 62.6596L237.469 60.9496L236.109 59.0596L234.929 56.9896L233.929 54.7296L233.659 54.1896L233.399 54.0196L233.159 54.2196L232.939 54.7796L232.179 56.9796L231.219 59.0096L230.069 60.8596L228.729 62.5296L226.769 64.3796L224.509 65.9496L221.939 67.2396L219.059 68.2496L218.499 68.5896L219.029 68.9896L221.709 70.1496L224.549 71.6096L227.679 73.7596L230.169 76.3896L231.239 77.9696L232.119 79.6796L232.839 81.5296L233.369 83.5096ZM146.729 84.3696L146.419 84.5596L146.689 84.7896L148.849 85.7396L152.899 87.7296L154.279 88.7496L155.329 89.8596L155.599 90.2196L157.549 93.4396L158.889 96.6696L159.119 96.9996L159.399 96.6996L160.849 93.9696L162.349 91.6996L164.009 89.7296L165.779 88.1396L167.529 86.9196L169.529 85.8796L170.289 85.4296L170.529 84.9996L170.259 84.5996L169.459 84.2096L166.639 82.9196L164.179 81.2096L163.289 80.2996L162.369 79.0096L160.419 75.2796L159.389 73.2096L159.309 73.1196L159.029 73.0696L158.829 73.2796L157.809 76.0296L156.329 78.4296L154.529 80.3696L152.329 82.0096L149.729 83.3396L146.729 84.3696ZM207.609 99.8696L203.969 102.38L203.719 102.72L204.049 102.96L205.999 103.79L207.719 104.91L209.459 106.63L210.859 108.77L211.419 109.32L211.919 108.7L212.669 107.15L213.639 105.8L214.679 104.79L215.879 103.93L217.269 103.22L218.819 102.66L219.159 102.45L218.829 102.23L216.529 101.17L214.559 99.7396L212.879 97.8396L211.559 95.5396L211.179 95.2396L210.709 95.3696L210.599 95.5096L209.969 96.7896L209.219 98.2696L208.429 99.2496L207.609 99.8696ZM169.849 116.04L167.939 117.26L165.869 118.21L165.689 118.4L165.749 118.66L165.819 118.72L170.189 121.56L170.879 122.27L171.509 123.38L172.629 125.56L172.869 125.74L172.959 125.45L173.329 123.91L174.389 122.39L176.139 120.87L178.579 119.36L179.119 118.78L178.609 118.16L177.069 117.08L175.589 115.76L174.189 114.19L172.849 112.38L172.799 112.32L172.499 112.23L172.249 112.41L171.929 113.01L170.829 114.95L169.849 116.04ZM128.909 128.41L128.669 128.42L112.589 122.45L112.569 122.44L112.219 122.54L112.159 122.9L118.679 138.76L118.689 139L112.719 155.08L112.699 155.24L112.869 155.49L113.169 155.51L129.029 148.99L129.269 148.98L145.349 154.95L145.699 154.87L145.789 154.52L145.779 154.5L139.259 138.64L139.249 138.4L145.219 122.32L145.059 121.9L144.769 121.89L128.909 128.41ZM164.719 155.2L162.669 156.78L161.949 157.18L161.729 157.47L161.839 157.82L161.949 157.89L163.229 158.61L164.379 159.48L165.649 160.8L166.699 162.36L167.059 162.6L167.469 162.46L167.549 162.35L168.459 160.78L169.209 159.82L170.189 159.09L171.789 158.23L171.899 158.15L172.059 157.75L171.819 157.38L170.289 156.29L169.009 154.98L168.169 153.81L167.489 152.5L167.419 152.4L167.079 152.27L166.779 152.48L166.369 153.19L164.719 155.2Z" fill="url(#paint3_diamond_376_366)"/>
<path d="M384.08 82.7304L381.4 85.7604L380.06 87.9804L379.03 90.4704L377.62 93.2604L377.35 93.4404L377.05 93.3204L376.99 93.2004L375.3 89.0304L374.22 87.1404L372.97 85.3704L371.26 83.4204L369.33 81.6504L368.96 81.3704L367.44 80.5204L365.24 79.7504L364.43 79.4904L363.56 79.0904L363.25 78.6504L363.49 78.1604L364.29 77.6304L365.4 77.0604L369.61 74.7604L372.16 72.7404L373.28 71.4904L374.33 69.9904L375.51 67.0704L376.6 64.3404L376.89 64.1104L377.19 64.3204L378.07 66.6004L378.88 68.8104L381.1 71.9204L383.77 74.4104L386.69 76.1904L390.02 77.4304L390.93 77.7704L391.23 78.1104L390.93 78.4604L390.04 78.8204L388.53 79.4104L387.04 80.2604L385.55 81.3604L384.08 82.7304Z" fill="url(#paint4_diamond_376_366)"/>
<path d="M323.53 92.4904L326.29 89.4005L327.69 87.3604L328.9 85.1805L329.92 82.8604L330.75 80.4005L331.16 79.3405L331.57 78.9805L331.98 79.3405L332.38 80.4105L333.3 83.0105L334.66 85.7305L336.46 88.5804L338.69 91.5405L340.91 93.5905L344.01 95.4705L347.98 97.1405L352.02 98.2605L352.11 98.2805L352.4 98.4604L352.62 98.8805L352.51 99.1905L352.32 99.3405L344.48 102.84L341.33 104.75L340.06 105.87L338.99 107.09L336.55 110.59L335.25 113.15L333.76 117.02L332.01 120.75L331.73 120.95L331.41 120.82L331.34 120.68L330.33 117.29L329 114.15L327.38 111.28L325.44 108.66L322.93 106.04L320.03 103.75L317.6 102.34L314.14 100.79L311.86 99.8004L311.38 99.5105L311.23 99.2404L311.41 98.9904L311.91 98.7505L315.73 97.3105L318.83 95.8405L321.39 94.2605L323.53 92.4904Z" fill="url(#paint5_diamond_376_366)"/>
<path d="M228.831 131.05L252.381 119.04L255.461 117.85L258.311 117.42L261.301 117.56L262.911 117.9L264.791 118.53L269.351 120.66L299.651 136.69L301.011 137.52L302.151 138.46L303.071 139.5L303.781 140.66L304.371 142.29L304.411 142.8L304.291 143.26L303.401 145.03L302.271 146.6L300.601 148.21L298.591 149.52L266.031 167.16L262.611 168.77L259.341 169.8L256.131 170.24L253.091 170.07L250.671 169.5L248.231 168.5L234.801 161.5L215.721 151.19L213.401 149.52L212.511 148.53L211.811 147.45L211.291 146.28L211.221 146.07L211.061 144.98L211.181 143.8L211.581 142.54L212.271 141.2L213.721 139.43L215.981 137.59L219.081 135.66L222.831 133.77L228.831 131.05Z" fill="url(#paint6_radial_376_366)"/>
<path d="M364.98 176.89L363.53 178.4L362.22 179.36L317.38 203.53L314.6 204.8L311.89 205.61L309.24 205.95L306.65 205.83L305.85 205.7L302.16 204.37L295.57 201.24L284.29 195.39L272.39 188.83L271.48 188.32L268.33 186.37L267.44 185.54L266.77 184.58L266.25 182.88L266.26 180.63L266.62 178.99L267.31 177.57L268.37 176.35L269.78 175.35L288.76 165.02L306.35 155.95L311.07 153.17L313.74 151.87L316.51 151.05L319.5 150.72L322.59 150.92L325.42 151.6L327.9 152.77L335.63 157.14L348.72 163.73L361.64 170.17L362.79 171L363.77 172.24L364.58 173.89L365.21 175.96L365.22 176.44L364.98 176.89Z" fill="url(#paint7_radial_376_366)"/>
<path d="M262.95 245.28L311.06 219.29L353.32 196.2L364.15 190.56L365.52 189.88L369.11 188.3L370.53 187.99L371.75 187.98L372.81 188.19L373.91 188.62L375.61 189.7L376.82 190.97L377.58 192.36L378.08 194.13L378.32 196.32L378.36 199.55V201.12L378.44 236.5L378.33 238.1L377.99 239.63L377.01 241.89L376.2 242.92L374.91 244.04L370.92 246.54L304.17 282.98L286.58 292.51L262.68 305.86L260.56 306.73L258.16 307.15L255.73 307.1L253.53 306.56L251.29 305.38L249.55 303.8L248.54 302.29L247.82 300.53L247.4 298.53L247.27 296.29L247.37 275.02L247.25 261.99L247.31 260.13L247.57 258.38L248.04 256.74L248.72 255.21L249.41 254.07L250.36 252.93L251.7 251.76L255.53 249.31L262.95 245.28Z" fill="url(#paint8_radial_376_366)"/>
<path d="M256.699 235.61L249.569 239.63L247.24 240.68L244.9 241.42L242.58 241.86L240.26 241.98L237.16 241.67L234.08 240.8L230.79 239.3L225.36 236.43L215.49 231.16L205.7 226.17L201.15 223.64L197.08 221.34L194.97 219.83L194.25 218.98L193.71 218.02L193.27 216.49L193.3 215.83L193.58 215.23L194.06 214.78L194.68 214.55L199.77 213.56L204.76 212.32L209.65 210.82L214.43 209.07L219.52 206.87L224.5 204.37L229.35 201.57L234.08 198.46L241.14 192.98L244.38 190.75L245.76 190.12L246.97 189.81L248.65 189.74L250.37 189.95L252.139 190.44L253.949 191.21L260.43 194.73L265.22 197.39L268.67 199.09L286.23 207.38L287.75 208.24L288.94 209.21L289.819 210.28L290.37 211.45L290.6 212.74L290.5 214.12L290.079 215.61L289.34 217.21L288.31 218.33L286.22 219.83L282.68 221.84L269.62 228.43L256.699 235.61Z" fill="url(#paint9_radial_376_366)"/>
<path d="M159.74 219.6L162.99 219.97L169.26 220.24L171.66 220.65L173.23 221.34L183.47 226.81L206.87 239.24L229.73 250.63L230.94 251.32L232.47 252.57L233.79 254.14L234.89 256.02L235.79 258.22L236.24 261.38L236.43 267.38L236.49 285.24L236.34 298.26L236.15 300.1L235.69 301.84L234.93 303.5L233.9 305.06L232.25 306.73L230.32 307.78L228.03 308.14L225.45 307.76L222.42 306.62L218.38 304.5L217.04 303.76L195.63 292.32L178.07 282.79L119.26 250.87L116.67 249.12L114.67 246.94L113.27 244.35L112.61 241.18L112.36 236.05L112.25 212.49L112.45 201.08L112.89 198.67L113.87 196.61L114.79 195.47L115.95 194.47L117.32 193.62L118.93 192.93L119.39 192.85L119.87 192.94L123.72 194.84L125.15 195.85L126.24 196.91L131.88 202.94L137.76 208.19L143.89 212.66L150.27 216.35L154.54 218.13L159.74 219.6Z" fill="url(#paint10_radial_376_366)"/>
<path d="M367.009 318.43L330.829 338.73L329.109 339.48L327.369 339.8L325.239 339.62L323.079 338.81L321.399 337.7L320.099 336.31L319.459 335.23L318.989 334.01L318.589 331.21L318.189 293.2L318.309 291.05L318.679 289.07L319.299 287.25L320.189 285.6L321.519 283.9L324.129 281.98L329.359 278.96L366.229 259.13L369.449 257.78L371.119 257.52L372.929 257.64L374.429 257.99L375.759 258.51L376.929 259.2L377.929 260.04L379.069 261.53L379.879 263.36L380.339 265.52L380.469 268.01L380.379 301.25L380.329 303.58L379.969 307.59L379.909 307.98L379.339 309.63L378.309 311.18L376.819 312.64L374.859 314.01L367.009 318.43Z" fill="url(#paint11_radial_376_366)"/>
<path d="M112.209 276.64L112.479 270.84L112.959 268.69L113.929 266.92L115.359 265.5L117.129 264.51L119.259 263.94L121.579 263.87L123.749 264.44L126.759 265.9L169.999 289.59L208.589 310.41L219.289 315.96L230.639 322.22L233.059 324.04L234.839 326.25L235.569 327.68L236.079 329.24L236.389 330.92L236.489 332.73L236.349 364.93L236.169 370.27L235.809 373.02L235.219 374.5L234.419 375.82L233.489 376.87L232.379 377.79L231.079 378.57L229.599 379.21L228.169 379.6L226.809 379.69L225.129 379.37L223.399 378.58L204.029 367.59L131.869 328L118.819 321.2L116.399 319.67L114.529 317.84L113.619 316.56L112.889 315.18L111.839 311.97L111.359 308.06L111.419 303.31L111.869 293.32L112.109 281.81L111.919 279.72L112.059 278L112.209 276.64Z" fill="url(#paint12_radial_376_366)"/>
<path d="M283.81 365.33L259.21 379.04L256.58 379.98L255.3 380.13L254.05 380.07L252.04 379.5L250.11 378.35L248.68 377.04L247.58 375.54L246.98 374.31L246.55 372.98L246.23 370.01L246.37 348.36L246.28 335.25L246.38 332.67L246.81 330.33L247.57 328.22L248.66 326.35L249.84 324.93L251.26 323.69L252.92 322.62L254.82 321.71L260.83 318.71L271.36 312.79L294.87 300.01L296.94 299.05L299.15 298.27L301.81 297.86L303.08 297.98L304.23 298.32L306.01 299.41L307.54 301.18L308.67 303.44L309.42 306.23L309.72 308.13L310.12 312.93L310.04 317.8L309.51 329.06L309.54 332.9L309.76 335.55L310.06 338.09L310.15 340.59L310.03 343.06L309.71 345.5L308.97 348.66L308.91 348.85L308.22 350.36L307.18 351.76L305.78 353.04L304.03 354.2L302.08 355.31L293.03 360.28L284.19 365.12L283.81 365.33Z" fill="url(#paint13_radial_376_366)"/>
<path d="M60.48 465.02L59.63 468.9L58.36 472.42L56.69 475.59L54.6 478.39L52.25 480.69L49.54 482.68L46.47 484.34L43.03 485.69L40.27 486.43L37.23 486.91L33.93 487.15L30.35 487.14L24.42 486.54L21.69 485.96L19.12 485.2L16.7 484.26L14.44 483.13L12.33 481.82L10.38 480.33L8.66 478.73L7.08002 476.96L5.64999 475.02L4.35001 472.91L2.19 468.19L0.600006 462.8L0.220001 460.43L0 457.49L0.0899963 449.85L0.410004 446.39L1 443.15L1.86002 440.13L3 437.32L4.74002 434.09L6.75 431.2L9.01001 428.65L11.54 426.44L14.88 424.26L18.6 422.56L22.38 421.35L26.13 420.56L29.86 420.19L33.55 420.24L37.39 420.73L41.19 421.69L44.97 423.1L48.71 424.97L51.16 426.55L53.4 428.42L55.39 430.54L57.11 432.89L58.48 435.37L59.52 438.01L60.17 440.68L60.46 443.44L60.38 444.16L60.09 444.67L59.58 444.98L58.87 445.08H50.76L49.5 444.7L48.65 443.69L48.25 442.75L45.94 437.91L44.83 436.31L43.63 435.02L42.06 433.81L40.12 432.77L37.36 431.76L34.47 431.13L31.53 430.9L28.59 431.07L25.85 431.62L23.23 432.56L20.87 433.83L18.71 435.49L17.02 437.33L15.51 439.67L14.3 442.3L13.33 445.33L12.68 448.61L12.34 452.11L12.37 455.53L12.74 458.67L13.76 463.06L15.13 466.72L16.87 469.73L19.04 472.19L21.07 473.78L23.49 475.11L26.49 476.16L29.73 476.75L33.08 476.83L36.42 476.4L39.45 475.49L42.05 474.17L44.34 472.39L46.1 470.3L46.97 468.81L48.5 465.7L48.85 465.07L50.01 464.23L51.75 463.88L55.93 463.83L59.88 464.2L60.39 464.45L60.48 465.02Z" fill="#E0E0E0"/>
<path d="M269.67 471.52L270.3 469.52L270.46 467.5L270.15 465.66L269.36 463.98L268.4 462.83L267.12 461.87L264.38 460.46L261 459.13L256.97 457.87L252.31 456.69L248.11 455.52L244.31 454.04L240.91 452.25L237.91 450.14L235.84 448L234.72 446.2L233.91 444.17L233.4 441.91L233.19 439.42L233.29 436.88L233.69 434.53L234.4 432.27L235.4 430.21L236.44 428.65L237.66 427.22L239.05 425.94L240.59 424.78L244.23 422.83L248.41 421.46L252.27 420.71L256.07 420.35L259.79 420.39L263.45 420.82L264 420.92L267.59 421.84L270.77 423.14L273.56 424.82L275.95 426.9L277.88 429.28L279.44 432.03L280.63 435.14L281.43 438.62V438.64L281.24 439.35L280.6 439.72L271.55 440.77L270.69 440.55L270.19 439.81L269.86 438.66L268.56 436.01L266.57 433.6L264.55 432.1L262.6 431.32L260.41 430.98L260.3 430.97L256.42 430.84L253.69 431.03L251.42 431.57L249.52 432.49L248.14 433.6L247.31 434.6L246.69 435.74L246.3 436.97L246.14 438.26L246.22 439.6L246.55 440.9L247.09 442.03L247.85 443.05L248.12 443.32L248.55 443.71L250.61 445.11L253.03 446.08L267.6 449.89L270.27 450.76L272.77 451.92L275.06 453.36L277.1 455.06L278.86 456.99L280.32 459.12L281.4 461.36L282.13 463.75L282.44 465.64L282.53 467.6L282.39 469.53L282.03 471.5L281.38 473.7L280.54 475.71L279.47 477.62L278.22 479.33L276.75 480.9L275.1 482.27L273.21 483.5L271.15 484.54L268.84 485.43L266.38 486.13L263.69 486.65L260.88 486.98L256.94 487.15L253.18 486.99L249.6 486.49L246.21 485.66L244.18 484.94L242.26 484.03L240.09 482.71L238.06 481.13L236.17 479.28L234.42 477.17L233.09 475.12L232.17 473.13L231.5 470.48L231.23 467.27L231.29 466.72L231.52 466.32L231.9 466.09L232.45 466.01H242.5L242.94 466.18L243.14 466.61L243.58 469.1L244.53 471.3L245.96 473.19L247 474.09L248.25 474.9L251.48 476.22L255.19 476.99L259.08 477.13L262.56 476.65L265.51 475.62L266.77 474.9L267.87 474.04L268.73 473.09L269.43 472.02L269.67 471.52Z" fill="#E0E0E0"/>
<path d="M83.3391 432.63V446.979L83.6392 447.71L84.3592 448.01H109.559L110.239 448.14L110.819 448.53L111.199 449.099L111.339 449.78V455.549L111.249 456.18L110.979 456.63L110.519 456.909L109.879 457H85.3592L84.5891 457.15L83.9391 457.59L83.4991 458.24L83.3492 459.01V475.25L83.5692 475.78L84.0992 476H113.289L114.169 476.13L114.789 476.5L115.169 477.13L115.299 478.02V484.109L115.179 484.95L114.819 485.539L114.229 485.89L113.409 486.01H72.3991L71.6692 485.71L71.3691 484.969V422.62L71.5092 422.25L71.8691 422.07L76.3991 421.65L83.1692 421.12L99.2392 421.02L114.239 421.469L114.989 421.76L115.239 422.52V430.28L115.109 430.93L114.739 431.479L114.189 431.849L113.539 431.979H83.9892L83.4991 432.14L83.3391 432.63Z" fill="#E0E0E0"/>
<path d="M170.38 476.95V485.06L170.1 485.73L169.43 486.01H128.3L127.63 485.73L127.35 485.06V422.25L127.51 421.71L127.84 421.41L128.26 421.3L138.35 420.92L139.05 421.18L139.34 421.87V475.05L139.62 475.72L140.29 476H169.43L170.1 476.28L170.38 476.95Z" fill="#E0E0E0"/>
<path d="M192.349 457.59V474.98L192.599 475.73L193.339 475.98H221.419L222.289 476.1L222.949 476.47L223.389 477.08L223.609 477.93L224.299 483.88L224.279 484.8L223.959 485.45L223.339 485.85L222.429 485.98H180.649L180.439 485.9L180.359 485.69V423.04L180.509 422.29L180.929 421.65L181.559 421.22L182.299 421.06L194.349 421.09L206.339 421.69L215.109 421.91L222.749 421.62L223.379 421.66L223.829 421.89L224.119 422.32L224.229 422.93L224.469 429.48L224.399 430.16L224.129 430.66L223.659 430.96L222.999 431.08L192.829 432.22L192.489 432.37L192.349 432.72V446.97L192.649 447.7L193.359 448H218.379L219.189 448.27L219.459 449.08V455.88L219.179 456.71L218.349 456.99H192.949L192.499 457.14L192.349 457.59Z" fill="#E0E0E0"/>
<path d="M306.64 431.06H288.28L288.07 430.99L288.01 430.77L288.55 421.28L288.63 421.08L288.84 421.01H340.38L341.15 421.27L341.4 422.03V429.74L341.32 430.3L341.08 430.7L340.68 430.94L340.12 431.02H322.68L321.71 431.16L321.02 431.57L320.6 432.26L320.45 433.21L320.32 455.5L320.62 475.19L320.87 478.43L321.16 481.93L321.14 484.59L321 485.12L320.67 485.56L320.2 485.86L319.66 485.96H310.33L309.57 485.81L308.93 485.38L308.5 484.74L308.35 483.98V432.77L308.22 432.12L307.85 431.56L307.29 431.19L306.64 431.06Z" fill="#E0E0E0"/>
<path d="M362.26 486.05H352.39L351.64 485.74L351.33 484.99V422.28L351.64 421.53L352.39 421.22H362.26L363.01 421.53L363.32 422.28V484.99L363.01 485.74L362.26 486.05Z" fill="#E0E0E0"/>
<path d="M406.09 420.88L411.65 421.12L412.92 421.62L413.74 422.7L438.34 485.06L438.31 485.58L437.88 485.89L437.77 485.9H426.54L426.18 485.79L425.95 485.5L420.68 472.11L420.05 471.31L419.09 471L406.35 470.92L393.61 471.13L392.65 471.45L392.02 472.26L386.89 485.7L386.66 485.99L386.3 486.1L375.07 486.22L374.96 486.21L374.53 485.91L374.5 485.38L398.46 422.78L399.27 421.68L400.54 421.18L406.09 420.88ZM396.44 460.33L396.38 460.55L396.4 461.11L396.66 461.61L397.1 461.95L397.65 462.07H416.71L416.8 462.06L417.15 461.81L417.18 461.38L406.68 434.78L406.36 434.37L406.05 434.78L396.44 460.33Z" fill="#E0E0E0"/>
<path d="M490.339 477.42V484.58L490.129 485.32L489.619 485.82L488.919 486H448.779L448.239 485.89L447.779 485.58L447.469 485.12L447.359 484.58V422.53L447.469 421.99L447.779 421.53L448.239 421.22L448.779 421.11H458.919L459.459 421.22L459.919 421.53L460.229 421.99L460.339 422.53V474.58L460.449 475.12L460.759 475.59L461.219 475.89L461.759 476H488.919L489.459 476.11L489.919 476.42L490.229 476.88L490.339 477.42Z" fill="#E0E0E0"/>
<path d="M146.48 538.22L148.21 538.6L149.85 538.7L151.39 538.53L152.82 538.11L154.54 537.17L156.03 535.83L157.29 534.12L158.28 532.07L158.93 531.25L159.93 530.94H163.04H163.15L163.69 531.11L164.11 531.47L164.35 531.97L164.37 532.53L163.81 534.91L162.99 537.01L161.91 538.84L160.56 540.4L159.19 541.52L157.62 542.43L155.68 543.22L153.56 543.77L151.34 544.09L149.06 544.16L146.78 543.98L144.56 543.55L142.52 542.9L140.62 542.01L139.05 540.99L136.78 538.75L135 535.89L133.93 533.38L133.19 530.87L132.77 528.37L132.67 525.88L133.13 522.17L134.31 518.47L135.08 517L136.2 515.49L137.65 513.94L139.44 512.36L140.92 511.33L142.6 510.48L144.47 509.82L146.55 509.34L148.74 509.13L151.12 509.23L153.48 509.61L155.82 510.28L157.85 511.13L159.69 512.22L161.18 513.45L162.39 514.89L164.01 517.77L165.05 520.78L165.17 521.3L165.18 521.36L165.03 521.82L164.59 522.02H159.34L158.83 521.86L158.5 521.44L157.65 519.55L156.64 517.98L155.45 516.73L154.1 515.81L152.49 515.18L150.7 514.91L148.72 514.99L146.56 515.42L144.34 516.3L142.53 517.61L141.13 519.36L140.15 521.55L139.44 524.76L139.4 527.91L139.93 530.68L141 533.4L142.35 535.5L144.07 537.08L145.22 537.73L146.48 538.22Z" fill="#E0E0E0"/>
<path d="M75.8492 525.94L75.8091 525.99L75.7392 526.49L76.0591 526.88L78.4892 528.53L79.4192 529.51L80.1591 530.6L80.7392 531.87L81.1092 533.26L81.2392 534.79L81.0792 536.23L80.2191 538.45L78.5792 540.46L76.3492 542.04L73.7392 543.05L70.3492 543.68L66.6292 543.86L55.8292 543.64L55.2692 543.52L54.7992 543.19L54.4792 542.71L54.3691 542.15V510.91L54.6092 510.32L55.1891 510.06L67.6491 509.89L71.5692 510.09L73.0792 510.43L74.3292 510.94L75.8691 511.95L76.8991 512.94L77.7992 514.12L78.5492 515.43L79.0891 516.84L79.3892 518.19L79.4492 519.55L79.2592 520.79L78.8292 521.97L78.1692 523.01L75.8492 525.94ZM60.3192 516.63L60.3592 522.51L60.3691 522.65L60.5291 523.22L60.8892 523.69L61.3991 524L61.9792 524.11L68.1292 524.07L69.7892 523.74L71.1891 522.82L72.1191 521.45L72.4391 519.85V519.13L72.0992 517.53L71.1491 516.17L69.7292 515.28L68.0692 514.97L61.9192 515.01L61.2992 515.14L60.7791 515.49L60.4391 516.02L60.3192 516.63ZM61.2491 530.42L61.2692 536.72L61.3691 537.26L61.6791 537.72L62.1392 538.03L62.6891 538.14L69.3892 538.13L71.2992 537.79L72.9192 536.83L73.9991 535.39L74.3792 533.7V533.4L73.9991 531.71L72.9091 530.28L71.2892 529.32L69.3691 528.99L62.6692 529L62.1292 529.11L61.6692 529.42L61.3592 529.88L61.2491 530.42Z" fill="#E0E0E0"/>
<path d="M178.429 524.99L179.099 523.89L179.899 522.86L185.539 517.21L190.069 511.79L190.829 510.98L191.699 510.4L192.679 510.05L193.769 509.94H197.719L198.699 510.05L199.159 510.4L199.099 510.97L198.519 511.77L186.599 524.59L186.209 525.48L186.499 526.35L193.339 534.12L199.999 541.38L200.359 542.11L200.439 543.22L200.289 543.59H199.889L198.549 543.28H197.259L195.789 543.69L195.079 543.87L194.359 543.82L193.679 543.55L193.129 543.08L182.439 530.6L181.579 530.14L180.629 530.39L178.779 531.93L177.729 533.27L177.399 534.31L177.219 535.91L177.339 540.7L177.399 541.83L177.149 542.7L176.289 542.99H172.599L171.689 542.69L171.389 541.78V511.18L171.689 510.3L172.569 510H175.929L176.529 510.09L176.959 510.34L176.969 510.35L177.219 510.78L177.309 511.38V524.65L177.379 525.42L177.589 525.74L177.939 525.6L178.429 524.99Z" fill="#E0E0E0"/>
<path d="M239.04 525.76L238.69 526.35L239.15 526.85L241.26 528.29L242.58 529.93L243.13 531.31L243.37 532.85L243.36 534.71L243.09 537.05L242.81 538.21L242.37 539.23L240.99 540.93L238.95 542.25L236.2 543.19L232.91 543.69L226.22 543.99L218.21 543.93L217.6 543.67L217.35 543.05V510.84L217.5 510.35L217.82 510.06L218.24 509.95L230.98 509.9L233.93 510.13L236.43 510.72L238.44 511.68L239.99 512.98L241.19 514.75L241.88 516.41L242.28 518L242.39 519.52L242.21 520.98L241.78 522.26L241.12 523.48L240.2 524.65L239.04 525.76ZM223.24 516.57L223.26 522.49L223.36 523.07L223.67 523.57L224.14 523.92L224.7 524.09L224.87 524.1L230.99 524.09L232.69 523.76L234.13 522.83L235.09 521.45L235.43 519.82V519.2L235.09 517.57L234.12 516.19L232.68 515.27L230.97 514.95L224.85 514.96L224.62 514.97L224.08 515.16L223.64 515.52L223.35 516.01L223.24 516.57ZM223.27 531.15L223.25 535.99L223.41 536.8L223.87 537.49L224.56 537.96L225.37 538.12L232.57 538.15L234.41 537.81L235.97 536.85L237.01 535.4L237.38 533.68V533.54L237.02 531.83L235.99 530.37L234.44 529.4L232.61 529.05L225.41 529.02L224.56 529.19L223.62 529.98L223.27 531.15Z" fill="#E0E0E0"/>
<path d="M255.369 543.53L252.359 543.64L251.479 543.55L250.849 543.2L250.479 542.59L250.359 541.73V510.81L250.579 510.27L251.119 510.04L264.379 509.84L267.839 510.16L270.969 511.18L272.589 512.08L274.109 513.21L274.839 514L275.429 515.03L276.169 517.77L276.299 521.14L275.699 524.29L275.049 525.94L274.159 527.53L274.139 527.56L273.419 528.32L272.279 529.05L270.969 529.91L270.489 530.53L270.259 531.28L270.289 532.07L270.599 532.79L276.629 542.07L276.939 542.73L276.909 543.2L276.539 543.48L275.819 543.57H272.599L271.269 543.31L270.419 542.76L269.689 541.92L262.699 531.47L262.369 531.24L260.259 530.92L258.309 530.94L257.619 531.29L257.339 532.02V541.49L257.219 542.36L256.849 542.98L256.229 543.38L255.369 543.53ZM257.319 516.7L257.239 524.32L257.369 524.99L257.749 525.56L258.299 525.93L258.949 526.06L264.609 526.12L266.449 525.8L268.009 524.84L269.069 523.39L269.449 521.67L269.469 519.59L269.119 517.87L268.099 516.4L266.559 515.41L264.729 515.04L259.069 514.98L258.399 515.11L257.839 515.48L257.459 516.04L257.319 516.7Z" fill="#E0E0E0"/>
<path d="M334.659 537.04L334.059 536.29L333.149 536.01H320.969L319.869 536.35L319.159 537.26L317.049 542.87L316.469 543.56L315.589 543.72L311.099 542.97L310.539 542.67L310.579 542.02L315.819 529.31L322.439 512.62L323.129 511.19L323.919 510.37L324.589 510.06L325.459 509.92L327.949 509.88L329.989 510.06L330.829 510.43L331.379 511.17L343.959 543.07L343.819 543.35H343.779L337.369 543.59L337.199 543.48L334.659 537.04ZM332.209 530.4L327.809 518.22L327.509 517.91L327.119 517.96L327.029 518.04L326.979 518.11L325.959 519.76L325.239 521.64L323.989 525.44L322.339 529.32L322.119 530.04L322.219 530.56L322.639 530.87L323.389 530.97H331.809L332.219 530.83L332.209 530.4Z" fill="#E0E0E0"/>
<path d="M356.299 525.66L357.329 524.08L358.529 522.29L369.429 511.36L371.079 510.26L373.039 509.87H376.879L377.729 509.97L378.119 510.25L378.049 510.74L377.509 511.41L364.239 524.69L363.929 525.39L364.179 526.12L378.509 542.86L378.939 543.44L378.989 543.76L378.479 543.78L377.299 543.34L375.639 543.52L374.679 543.61H372.259L371.419 543.43L370.729 542.91L360.159 530.57L359.689 530.33L359.189 530.49L356.549 532.75L356.259 533.39V542.44L356.149 542.95L355.839 543.36L355.389 543.61L354.869 543.65L354.709 543.62L353.869 543.38L352.809 543.36L351.649 543.7L350.779 543.75L349.819 543.24L349.439 542.23L349.389 511.2L349.479 510.56L349.759 510.13L350.219 509.89L350.869 509.86L354.699 510.23L355.319 510.38L355.719 510.69L355.889 511.13L355.859 511.71L355.499 514.29L355.389 517.05L355.539 520L355.949 523.13L355.959 523.6L355.809 524.09L355.579 524.88L355.619 525.47L355.859 525.89L356.299 525.66Z" fill="#E0E0E0"/>
<path d="M432.79 530.7L433.56 532.67L434.38 534.07L437.81 538.74L440.09 542.29L440.39 543.05L440.33 543.6L439.89 543.92L439.08 544.03H435.01L433.58 543.67L432.57 542.62L426.18 531.56L425.78 531.16L425.23 531.01H421.2L420.56 531.23L420.34 531.87V541.66L420.25 542.28L419.99 542.72L419.55 542.98L418.93 543.07H414.55L413.7 542.79L413.41 541.92V510.76L413.52 510.36L413.81 510.07L414.21 509.96L424.47 509.85L429.57 509.99L431.41 510.27L432.78 510.69L434.49 511.63L435.98 512.89L437.3 514.47L438.32 516.27L438.99 518.18L439.32 520.17L439.27 522.1L438.86 524L438.28 525.47L437.56 526.75L436.7 527.84L435.69 528.74L434.5 529.47L433.16 530L432.79 530.26V530.7ZM420.4 516.4L420.32 524.76L420.33 524.92L420.75 525.71L421.58 526.04L427.63 526.09L429.46 525.79L431.02 524.9L432.07 523.55L432.45 521.95L432.47 519.41L432.12 517.81L431.1 516.45L429.55 515.53L427.73 515.19L421.68 515.14L420.78 515.5L420.4 516.4Z" fill="#E0E0E0"/>
<path d="M106.56 530.42L106.54 530.43L106.29 530.77L106.37 531.19L114.31 543.06L114.32 543.08L114.24 543.17L107.11 542.91L106.72 542.64L104.13 538.25L100.81 533.13L99.6296 531.81L98.2796 531.09L97.0996 530.96L95.8096 531.2L95.2196 531.49L94.7496 531.96L94.4496 532.55L94.3496 533.2V541.91L94.0196 542.69L93.2396 543.02H88.2296L88.0696 543L87.4996 542.58L87.4696 541.87L87.8696 540.5L87.8796 539.21L87.5296 536.71L87.3496 525.91L87.4096 510.72L87.6396 510.16L88.1996 509.93L100.6 509.89L104.27 510.25L106.33 510.81L108.34 511.62L109.5 512.28L110.5 513.09L111.54 514.31L112.35 515.77L112.93 517.47L113.28 519.4L113.35 521.26L113.12 523.05L112.62 524.7L111.85 526.3L110.81 527.84L109.5 529.32L109.12 529.61L108.68 529.75L106.56 530.42ZM94.3096 516.63L94.3896 524.65L94.5196 525.25L94.8596 525.74L95.3596 526.08L95.9596 526.19L101.54 526.13L103.44 525.74L105.04 524.68L106.1 523.11L106.46 521.27L106.44 519.77L106.04 517.93L104.95 516.38L103.33 515.36L101.42 515.01L95.8396 515.07L94.9396 515.37L94.4696 515.92L94.3096 516.63Z" fill="#E0E0E0"/>
<path d="M125.308 509.983L121.428 509.976C120.87 509.975 120.417 510.427 120.416 510.985L120.362 542.045C120.361 542.602 120.812 543.055 121.37 543.056L125.25 543.063C125.808 543.064 126.261 542.613 126.262 542.055L126.316 510.995C126.317 510.437 125.866 509.984 125.308 509.983Z" fill="#E0E0E0"/>
<path d="M290.389 516.28V522.77L290.469 523.33L290.709 523.73L291.649 524.04H303.339L304.109 524.15L304.619 524.49L304.869 525.04L304.849 525.82L304.569 527.51L304.369 528.16L304.019 528.62L303.499 528.9L302.829 528.99H291.349L290.619 529.24L290.369 529.97V536.8L290.449 537.37L290.699 537.78L291.099 538.02L291.669 538.1H304.839L305.539 538.2L306.029 538.5L306.329 538.99L306.429 539.69V541.84L306.299 542.48L305.939 543.01L305.399 543.37L304.759 543.5H284.739L283.909 543.18L283.509 542.38L283.109 536.5L283.419 523.47L283.369 510.6L283.529 510.21L283.919 510.04H305.269L306.099 510.32L306.379 511.15V513.75L306.069 514.68L305.159 514.98H291.689L291.119 515.06L290.719 515.31L290.469 515.71L290.389 516.28Z" fill="#E0E0E0"/>
<path d="M391.41 514.95L390.63 515.21L390.37 515.99V522.76L390.74 523.65L391.63 524.02H404.51L405.22 524.26L405.46 524.97V527.98L405.19 528.75L404.61 528.94H391.36L390.62 529.19L390.37 529.93V536.85L390.72 537.71L391.57 538.06H405.12L405.96 538.34L406.24 539.18V542.01L405.92 543.02L404.95 543.46L399.22 543.96L393.85 544.08L388.85 543.82L384.2 543.18L383.58 542.79L383.4 542.09L384.08 534.94L384.34 528.23L384.22 524.45L383.8 519.58L383.47 515.15L383.42 510.91L383.68 510.29L384.3 510.04H405.42L406.16 510.28L406.45 511.14V513.92L406.15 514.65L405.42 514.95H391.41Z" fill="#E0E0E0"/>
<defs>
<radialGradient id="paint0_diamond_376_366" cx="0" cy="0" r="1" gradientUnits="userSpaceOnUse" gradientTransform="translate(317.775 17.97) rotate(90) scale(17.97 17.685)">
<stop stop-color="#E0E0E0"/>
<stop offset="1" stop-color="#FFD700"/>
</radialGradient>
<radialGradient id="paint1_diamond_376_366" cx="0" cy="0" r="1" gradientUnits="userSpaceOnUse" gradientTransform="translate(179.92 23.4854) rotate(90) scale(11.545 11.68)">
<stop stop-color="#E0E0E0"/>
<stop offset="1" stop-color="#FFD700"/>
</radialGradient>
<radialGradient id="paint2_diamond_376_366" cx="0" cy="0" r="1" gradientUnits="userSpaceOnUse" gradientTransform="translate(370.159 30.2147) rotate(90) scale(17.245 15.88)">
<stop stop-color="#E0E0E0"/>
<stop offset="1" stop-color="#FFD700"/>
</radialGradient>
<radialGradient id="paint3_diamond_376_366" cx="0" cy="0" r="1" gradientUnits="userSpaceOnUse" gradientTransform="translate(223.509 123.71) rotate(90) scale(87.82 125.89)">
<stop stop-color="#E0E0E0"/>
<stop offset="1" stop-color="#FFD700"/>
</radialGradient>
<radialGradient id="paint4_diamond_376_366" cx="0" cy="0" r="1" gradientUnits="userSpaceOnUse" gradientTransform="translate(377.24 78.7754) rotate(90) scale(14.665 13.99)">
<stop stop-color="#E0E0E0"/>
<stop offset="1" stop-color="#FFD700"/>
</radialGradient>
<radialGradient id="paint5_diamond_376_366" cx="0" cy="0" r="1" gradientUnits="userSpaceOnUse" gradientTransform="translate(331.925 99.9655) rotate(90) scale(20.985 20.695)">
<stop stop-color="#E0E0E0"/>
<stop offset="1" stop-color="#FFD700"/>
</radialGradient>
<radialGradient id="paint6_radial_376_366" cx="0" cy="0" r="1" gradientUnits="userSpaceOnUse" gradientTransform="translate(257.736 143.83) rotate(90) scale(26.41 46.675)">
<stop stop-color="#1A237E"/>
<stop offset="1" stop-color="#4A148C"/>
</radialGradient>
<radialGradient id="paint7_radial_376_366" cx="0" cy="0" r="1" gradientUnits="userSpaceOnUse" gradientTransform="translate(315.735 178.335) rotate(90) scale(27.615 49.485)">
<stop stop-color="#1A237E"/>
<stop offset="1" stop-color="#4A148C"/>
</radialGradient>
<radialGradient id="paint8_radial_376_366" cx="0" cy="0" r="1" gradientUnits="userSpaceOnUse" gradientTransform="translate(312.845 247.565) rotate(90) scale(59.585 65.595)">
<stop stop-color="#1A237E"/>
<stop offset="1" stop-color="#4A148C"/>
</radialGradient>
<radialGradient id="paint9_radial_376_366" cx="0" cy="0" r="1" gradientUnits="userSpaceOnUse" gradientTransform="translate(241.935 215.86) rotate(90) scale(26.12 48.665)">
<stop stop-color="#1A237E"/>
<stop offset="1" stop-color="#4A148C"/>
</radialGradient>
<radialGradient id="paint10_radial_376_366" cx="0" cy="0" r="1" gradientUnits="userSpaceOnUse" gradientTransform="translate(174.37 250.495) rotate(90) scale(57.645 62.12)">
<stop stop-color="#1A237E"/>
<stop offset="1" stop-color="#4A148C"/>
</radialGradient>
<radialGradient id="paint11_radial_376_366" cx="0" cy="0" r="1" gradientUnits="userSpaceOnUse" gradientTransform="translate(349.329 298.66) rotate(90) scale(41.14 31.14)">
<stop stop-color="#1A237E"/>
<stop offset="1" stop-color="#4A148C"/>
</radialGradient>
<radialGradient id="paint12_radial_376_366" cx="0" cy="0" r="1" gradientUnits="userSpaceOnUse" gradientTransform="translate(173.924 321.78) rotate(90) scale(57.91 62.565)">
<stop stop-color="#1A237E"/>
<stop offset="1" stop-color="#4A148C"/>
</radialGradient>
<radialGradient id="paint13_radial_376_366" cx="0" cy="0" r="1" gradientUnits="userSpaceOnUse" gradientTransform="translate(278.19 338.995) rotate(90) scale(41.135 31.96)">
<stop stop-color="#1A237E"/>
<stop offset="1" stop-color="#4A148C"/>
</radialGradient>
</defs>
</svg>
