<svg width="497" height="361" viewBox="0 0 497 361" fill="none" xmlns="http://www.w3.org/2000/svg">
<path d="M343.13 179.46H350.8L351.77 179.15L352.21 178.21L360.83 108.17L361.34 105.8L362.25 104.13L363.01 103.37L363.93 102.74L366.78 101.51L421.39 82.35L421.43 82.34L424.96 81.41L426.28 81.37L427.23 81.61L429.04 82.72L430.15 84.03L430.64 85.18L430.86 86.66L430.51 90.81L430.38 91.76L420.28 169.93L408.69 264.19L408.15 266.32L407.1 268L405.6 269.19L404.63 269.59L403.49 269.79L400.69 269.6L376.35 264.87L346.98 258.74L344.62 257.88L343.7 257.25L342.96 256.48L342.32 255.39L341.93 254.11L341.79 252.64L341.89 250.98L345.32 222.73L345.69 221.3L346.43 220.29L347.52 219.68L348.96 219.48H351.08L352.51 219.69L353.48 220.31L353.98 221.35L354.01 222.8L350.74 249.13L350.85 249.76L351.37 250.11L353.09 250.66L356.09 251.54L394.66 259.29L396.55 259.51L398.38 259.4L399.48 259.16L399.87 258.92L400.04 258.52L421.07 92.9L421.06 92.34L420.88 92.01L420.51 91.9L419.96 92.01L370.97 109.3L370.14 109.9L369.74 110.84L361.29 178.75L361.36 179.1L361.69 179.26L371.37 180.14L381.17 180.48L383.36 180.74L385.28 181.49L386.36 182.22L387.32 183.14L387.67 183.71L387.8 184.36L387.69 185.02L387.36 185.6L386.04 187.04L384.84 187.88L383.54 188.33L380.06 188.95L377.19 189.21L374.39 189.17L371.15 188.83L368.55 188.59L366 188.58L363.51 188.79L361.07 189.24L360.27 189.44L359.26 189.86L358.77 190.46L358.81 191.23L359.36 192.17L360.95 193.84L362.98 196.07L363.6 197.12L363.95 198.12L364.03 198.47L364.14 200.15L363.78 201.63L363.1 202.77L362.07 203.76L360.7 204.6L358.97 205.3L358.48 205.54L358.22 205.88L358.24 206.49L358.85 206.96L359.23 207.25L359.49 207.66L360.05 209.7V210.68L359.84 211.58L359.44 212.42L358.86 213.16L357.1 214.43L354.8 215.23L352.14 215.51L335.21 215.44L333.24 215.64L331.85 216.19L330.66 217.3L329.28 219.43L328.62 220.54L323.8 228.19L316.92 238.41L315.86 239.51L313.87 241.06L310.42 243.24L305.22 245.92L301.71 247.69L300.71 248.39L299.45 249.58L296.81 252.77L284.03 271.17L267.15 295.37L260.26 304.61L253.29 313.32L246.24 321.47L239.11 329.09L234.39 333.74L230.08 337.59L225.96 340.83L222 343.47L218.27 345.45L214.73 346.77L211.46 347.43L208.48 347.42L207.13 347.09L205.48 346.39L201.29 343.85L198.49 341.77L195.44 339.23L188.63 332.79L166.56 310.53L163.11 306.37L162.18 305.15L162.05 305.01L161.63 304.77L161.14 304.73L160.68 304.89L160.34 305.24L155.56 312.38L150.5 319.27L145.15 325.9L139.53 332.27L134.78 337.24L129.85 342.03L126.41 344.97L123.35 347.57L121.26 349.67L121.14 350.15L121.47 350.52L121.66 350.55L143.95 350.3L145.03 350.29L147.74 350.32L149.7 350.6L151.25 351.22L152.32 352.14L152.61 352.58L153.14 353.82L153.37 355.08L153.19 356.76L152.46 358.48L152.15 358.85L151.73 359.09L147.98 360.12L143.97 360.46L7.46994 360.48L4.87994 360.17L3.85995 359.79L3.02994 359.24L1.52994 357.56L1.11993 356.69L0.939941 355.81L1.15994 354.24L2.06995 352.63L3.47995 351.31L4.46994 350.82L5.72995 350.49L9.09995 350.38L11.0399 350.39L11.9399 350.07L12.4699 349.27L15.1599 340.1L18.3499 330.57L27.9399 303.92L35.3499 284.79L43.5199 265.86L52.45 247.14L62.14 228.63L66.7899 220.43L71.4099 212.84L76.2499 205.38L81.3199 198.06L86.61 190.87L91.6799 184.55L97.0099 178.67L102.59 173.2L108.43 168.17L110.9 166.36L113.78 164.59L117.05 162.86L120.72 161.17L123.87 160.02L127.19 159.2L130.68 158.72L134.35 158.58H136.94L144.64 158.81L147.45 159.21L150.07 159.85L152.97 160.94L157.7 163.35L162.09 166.21L165.62 169.06L168.9 172.25L171.92 175.79L174.69 179.67L175.34 180.09L176.07 179.88L176.15 179.81L181.4 174.46L190.32 166.12L202.82 155.33L204.19 153.75L205.43 151.45L205.53 150.97L205.42 150.52L204.1 148.05L203.04 146.07L202.19 144.07L201.56 142.03L201.14 139.95L200.91 136.48L201.26 132.92L201.73 132.01L202.64 131.53L203.96 131.4L205.17 131.49L207.07 132.1L209.19 133.39L213.27 136.15L217.37 138.64L221.5 140.86L225.66 142.81L229.48 144.31L233.05 145.4L236.39 146.07L239.49 146.33L241.03 146.22L242.64 145.86L244.32 145.25L246.07 144.38L247.1 143.64L248.06 142.63L249.95 139.71L251.78 135.55L253.4 130.43L257.48 116.25L258.2 115.09L259.59 114.08L261.59 113.26L264.49 112.47L265.48 112.22L266.14 111.89L266.62 111.31L266.81 110.6L266.69 109.87L266.61 109.68L258.85 94.28L258.09 92.28L257.8 90.4L257.86 89.06L258.13 87.69L259.38 84.55L260.04 83.23L262.08 78.92L263.15 75.69L263.58 73.49L263.8 71.22L264.01 64.36L263.88 57.33L263.49 56.63L262.7 56.54L262.46 56.67L262.31 56.79L255.91 61.69L251.09 64.88L249.83 65.62L242.96 69.38L235.85 72.97L228.5 76.37L220.91 79.6L216.5 81.24L211.59 82.78L206.19 84.2L200.29 85.52L199.46 85.56L198.66 85.34L197.96 84.89L197.43 84.25L195.14 81.05L192.55 78.62L191.22 77.76L189.83 77.11L188.47 76.7L187.05 76.52L185.5 76.59L183.9 76.94L182.34 77.57L180.75 78.49L178.83 80.04L177.5 81.7L176.79 83.16L176.31 84.77L175.81 89.32L175.86 92.66L176.35 95.6L177.3 98.28L178.66 100.57L180.14 102.27L181.89 103.71L183.97 104.95L186.27 105.94L188.96 106.74L191.85 107.28L194.99 107.6L198.47 107.7L199.02 107.81L199.49 108.12L199.81 108.58L199.92 109.14V134.6L199.81 135.38L199.49 136.09L195.1 142.59L193.96 143.94L192.5 145.34L188.97 147.94L185.57 149.62L184.04 150.08L182.61 150.26L169.34 150.53H160.24L157.77 150.48L138.48 150.2L125.01 150.41L122.16 150.53L116.43 150.69L112.56 150.43L112.4 150.4L111.2 149.91L110.1 148.9L108.2 146.36L106.61 143.78L105.35 141.14L104.4 138.46L103.25 133.83L102.52 129.38L102.19 124.93L102.28 120.72L102.78 116.72L103.71 112.82L105.02 109.2L106.78 105.71L108.15 103.58L109.71 101.52L113.29 97.79L121.62 90.42L126.23 86.18L127.92 84.24L129.2 82.42L130.71 79.74L131.97 77.1L133.32 73.54L134.41 69.74L135.31 65.42L136.11 60.16L137.01 55.25L138.43 49.79L140.11 44.73L141.92 40.46L145.46 33.94L149.48 27.96L153.97 22.51L158.94 17.59L163.12 14.14L167.58 11.01L172.33 8.19998L177.37 5.70999L182.18 3.75998L187 2.23L191.82 1.12999L196.65 0.439987L203.43 0L209.86 0.0699921L215.92 0.619995L221.62 1.67999L228.68 3.75998L235.46 6.57001L241.9 10.08L247.92 14.24L253.41 18.99L255.96 21.58L258.37 24.3L260.61 27.15L262.69 30.12L264.55 33.14L266.25 36.26L269 42.44L270.99 48.56L272.14 53.84L272.84 59.43L273.09 65.41L272.9 71.91L272.44 75.7L271.76 78.57L270.76 81.49L269.38 84.62L267.51 88.27L267.1 89.5L267.19 90.98L267.89 92.55L270.31 96.68L272.53 100.97L274.55 105.42L276.36 110.03L276.78 111.46L276.95 112.76L276.89 114.02L276.59 115.14L276.1 116.09L275.45 116.94L273.54 118.45L270.76 119.73L267.01 120.84L266.6 121.04L266.32 121.43L265.26 124.46L264.91 126.93L264.89 164.4L264.4 166.6L263.3 168.62L261.95 169.95L260.33 171L258.47 171.76L256.38 172.22L254.04 172.38H200.94L198.29 172.67L195.98 173.57L194.31 174.8L184.04 184.72L181.58 186.62L180.52 187.37L180.09 187.83L179.83 188.41L179.8 189.04L179.98 189.64L187.56 204.24L197.46 223.49L203.73 236.92L204.04 237.98L204.07 239.27L203.7 240.72L202.98 242.22L201.75 244.15L200.23 246.76L199.99 247.66L200.05 248.51L200.22 248.89L212.8 271.91L213.04 272.11L213.35 272.06L213.37 272.05L226.31 262.7L238.89 253.03L251.12 243.05L263 232.75L267.77 228.32L271.79 224.19L272.94 222.89L276.11 218.75L278.84 214.25L281.14 209.76L283.58 204.49L285.78 199.11L287.76 193.62L289.5 188.02L289.48 187.62L289.15 187.39L285.65 186.63L282.21 186.4L262.69 186.46L248.37 186.27L246.39 185.93L244.99 185.05L244.25 183.83L243.94 182.21L243.93 182.04L244.02 180.28L244.66 179L245.85 178.19L247.59 177.87L263.18 177.5L279.77 177.62L284.4 178.08L287.71 178.47L290.16 178.51L292.27 178.22L294.14 177.59L296.12 176.38L307.25 168.01L316.04 162.03L317.39 161.53L318.48 161.59L319.62 162.04L334.7 170.36L335.36 170.42L335.81 169.95L335.85 169.8L346.18 83.43L346.57 81.77L347.24 80.54L348.75 79.26L351.34 78.12L352.37 77.73L390.62 62.97L424.83 49.83L449.23 40.44L450.09 40.15L451.9 39.72L453.79 39.53L455.75 39.56L457.78 39.83L480.16 43.75L481.71 44.19L483.24 45L483.56 45.31L483.74 45.77L483.99 48.45L483.82 51.19L473.89 126.18L471.81 140.43L471.79 141.4L472.03 142.33L472.5 143.17L473.18 143.86L494.89 160.62L495.29 160.99L495.79 161.75L496.08 162.69L496.18 163.81L496.07 165.12L483.18 252.44L482.08 257.86L481.27 259.53L480.57 260.23L479.69 260.78L455.49 272.59L455.15 272.92L455.06 273.38L455.32 274.22L455.62 275.11L455.66 275.33L459.58 306.97L462.98 337.21L463.39 338.15L464.37 338.46H485.46L485.82 338.58L485.94 338.94V357.92L485.79 358.27L485.44 358.42L462.53 358.39L433.85 358.43L414.44 358.88L409.94 359.07L400.38 359.37L389.95 359.47L269.96 359.42L268.36 359.19L267.2 358.52L266.49 357.48L266.16 356.06L265.88 349.63L265.99 340.68L266 340.49L266.1 338.76L266.37 337.69L266.83 336.9L267.61 336.04L272.2 332.05L275.89 328.9L278.35 326.43L279.86 325.17L280.92 324.69L282.25 324.38L285.87 324.26H285.95L321.38 324.47L350.66 324.05L353.78 324.21L356.07 324.88L357.74 325.72L364.96 329.65L374.93 335.54L376.02 336.01L377.07 336.1L378.39 335.62L381.13 333.49L384.77 329.98L385.82 329.17L387.13 328.61L388.71 328.31L390.55 328.26L399.19 328.47L408.37 328.45L409.22 328.31L409.78 327.94L410.06 327.32L410.05 326.46L406.67 304.15L406.23 303.19L405.34 302.61L393.05 299.11L324.73 281.14L323.21 280.53L322.09 279.59L321.57 278.77L321.22 277.81L321.1 276.09L321.37 273.41L325.04 248.92L328.98 224.02L329.55 222.16L330.57 220.86L331.98 220.12L333.81 219.89H334.07L335.82 220.16L336.99 220.93L337.57 222.2V223.96L330.88 270.47V271.8L331.28 272.86L332.1 273.65L333.33 274.16L416.24 295.87L416.79 295.83L417.03 295.34L447.97 51.68V51.16L447.79 50.85L447.45 50.75L446.94 50.87L355.75 85.67L355.41 85.9L355.2 86.31L354.1 92.4L344.69 171.43L343.94 175.55L343.36 177.21L342.65 178.6L342.51 179.25L343.13 179.46ZM427.66 297.53H433.79L434.72 297.18L435.19 296.3L465.63 51.72L465.61 50.95L465.36 50.37L464.85 49.97L464.11 49.77L458.56 49.06L457.64 49.24L457.22 50.1L425.88 296.94L426.05 297.57L426.65 298L427.18 297.7L427.66 297.53ZM146.22 281.73L146.99 282.34L148.1 282.36L149.47 281.69L157.29 276.13L164.77 270.24L171.91 264.01L178.7 257.44L185.79 249.82L192.46 241.79L193.55 240.08L193.94 238.63L193.83 237.45L193.33 236.14L174.12 198.12L170.33 191.06L167.16 185.83L164.01 181.39L160.7 177.51L156.96 174.09L152.77 171.28L148.35 169.22L143.59 167.86L139.44 167.3H135.3L131.13 167.86L127.09 168.97L123.29 170.59L119.75 172.71L116.59 175.26L113.78 178.25L111.19 181.99L109.23 186.03L107.84 190.5L107.1 195.18L106.76 202.43L107.08 209.36L108.03 215.97L109.64 222.26L111.13 226.66L112.81 230.95L114.68 235.13L116.73 239.21L122.1 248.71L127.97 258.01L134.36 267.09L141.25 275.96L143.22 278.21L146.22 281.73ZM316.03 177.9L316.6 177.68L318.68 177.46L321.49 177.96L323.72 178.42L325.47 178.54L328.04 178.49L328.91 178.28L328.41 177.8L318.87 172.37L318.03 172.03H317.26L316.6 172.34L300.13 184.83L299.6 185.41L299.21 186.18L298.53 188.66L298.23 189.91L293.87 203.08L292.31 207.05L290.44 211.25L285.77 220.28L282.63 225.21L278.75 230.08L274.06 235.02L268.18 240.42L254.95 251.68L241.39 262.66L227.5 273.36L213.27 283.77L211.79 284.54L210.48 284.64L209.18 284.02L208.02 282.68L205.41 278.29L202.1 271.9L199.3 266.41L197.11 262.54L195.48 259.58L193.89 256.22L193.42 255.81L192.8 255.91L192.69 256.01L185.16 263.89L178.23 270.63L171.39 276.74L164.41 282.41L158.53 286.76L158.11 287.16L157.95 287.58L158.05 288.02L158.4 288.48L160.3 290.32L166.65 296.59L170.01 300.2L181.89 312.85L197.77 328.9L202.05 332.74L207 336.42L207.76 336.86L209.24 337.35L210.81 337.47L212.52 337.25L214.45 336.69L216.54 335.77L218.75 334.52L223.69 330.93L228.65 326.66L232.69 322.69L239.96 314.95L243.64 310.86L246.9 306.92L259.13 291L269.37 276.62L284.96 253.7L288.67 248.65L291.86 245.03L294.86 242.36L298.24 239.87L302.1 237.48L306.96 234.87L309.63 233.04L311.77 230.75L315.62 224.67L318.86 219.47L321.36 215.79L323.75 212.68L326.11 210.11L327.67 208.84L329.86 207.51L331.8 206.89L334.19 206.92L340.56 207.36L348.49 207.18L348.94 207.03L348.61 206.7L346.92 206L344.94 205.71L337.99 205.32L333.26 204.76L329.75 204.43L327.7 204.58L324.99 205.05L324.24 205.09L323.68 204.87L323.19 204.14L323.07 202.9L323.35 201.91L323.82 200.91L324.49 200.19L325.41 199.72L326.56 199.56L348.4 199.34L349 199.19L348.56 198.76L345.36 197.25L341.51 196.17L336.98 195.5L331.38 195.19L327.04 194.76L324.14 194.75L321 195.29L319.94 195.41L318.87 195.24L317.88 194.8L317.04 194.12L316.92 193.99L316.34 193.09L316.27 192.34L316.68 191.76L317.54 191.3L320.1 190.48L322.36 189.95L324.33 189.71L325.99 189.77L333.68 190.48L341.63 190.58H341.82L343.09 190.88L343.82 191.1L344.49 191.18L344.79 191.06L344.72 190.75L344.29 190.25L343.94 189.9L342.21 188.41L340.61 187.71L334.83 186.65L331.19 186.33L330.81 186.34L323.98 186.35L318.85 185.94L315.12 185.57L310.72 185.39L309.58 185.22L308.66 184.76L307.91 183.9L307.75 183.44L307.8 182.96L308.6 181.25L309.75 180.22L310.22 180.03L316.03 177.9ZM359.3 336.91L357.57 335.7L355.81 334.77L354.02 334.14L352.19 333.79L351.19 333.72L325.35 333.45L286.45 333.71L284.73 333.89L283.14 334.37L281.51 335.31L280.04 336.64L279.99 336.72L280 337L280.24 337.16L285.85 337.5L293.81 337.42L298.26 337.35L319.09 337.37L351.15 337.49L359.15 337.37L359.53 337.24L359.3 336.91Z" fill="black"/>
<path d="M240.89 88.5186L240.78 87.9386L240.52 87.5986L240.11 87.4986L239.54 87.6386L233.04 90.1886L231.74 90.5486L230.44 90.6086L229.31 90.3586L228.31 89.7986L227.54 88.9086L227.01 87.6686L226.99 87.1886L227.19 86.7586L229.27 84.3886L231.06 83.0286L236.56 80.3886L242.04 78.2186L247.51 76.5286L252.96 75.3186L254.33 75.3086L256 75.7186L256.39 75.9586L256.6 76.3886L256.86 78.0886L256.87 79.5586L256.63 80.8886L256.13 82.0086L255.19 83.1286L253.92 84.0186L252.23 84.7686L249.99 85.4286L249.3 85.7086L248.87 86.1386L248.68 86.7286L248.75 87.4786L249.01 88.4386L249.57 90.6786L249.76 92.4686L249.58 94.0686L249.04 95.3886L248.63 95.9586L248.22 96.2986L247.81 96.4486L246.07 96.5686L244.63 96.1986L243.19 95.1786L242.04 93.5086L241.24 91.1986L240.89 88.5186Z" fill="black"/>
<path d="M188.61 89.8601L187.33 89.5801L185.92 89.5602L184.39 89.7701L182.74 90.2401L181.79 90.4301L181.16 90.2301L180.83 89.6501L180.82 88.6801L180.91 87.9601L181.11 87.1101L181.5 86.4001L182.05 85.8301L182.78 85.4001L184.87 84.6701L186.84 84.4102L188.76 84.5901L190.48 85.1902L191.7 85.9402L192.75 86.9102L193.63 88.0801L194.3 89.4102L194.76 90.8802L195 92.4702L194.99 94.0401L194.76 95.6701L194.48 96.3802L193.97 96.9501L193.3 97.3202L192.55 97.4501H191.48L190.72 97.3401L190.21 97.0101L189.95 96.4601L189.94 95.6902V93.1602L189.26 90.4901L189.02 90.1101L188.61 89.8601Z" fill="black"/>
<path d="M403.71 186.98L403.58 187.58L403.23 188.08L402.72 188.41L402.11 188.52L396.88 188.42L395.46 188.13L394.26 187.36L393.47 186.22L393.21 184.89L393.52 183.57L394.35 182.46L395.58 181.74L397.02 181.5L402.25 181.6L402.84 181.73L403.35 182.08L403.68 182.6L403.79 183.2L403.71 186.98Z" fill="black"/>
</svg>
