<svg width="618" height="616" viewBox="0 0 618 616" fill="none" xmlns="http://www.w3.org/2000/svg">
<path d="M190.79 23.53L199.93 19.8L208.73 16.5L217.17 13.65L225.27 11.24L240.58 7.39999L255.91 4.33L271.24 2.03999L286.58 0.509995L295.51 0.0800018L306.1 0L325.61 0.110001L331.38 0.319992L338.16 0.899994L345.96 1.84L354.77 3.14999L367.8 5.50999L380.65 8.39999L393.32 11.8L405.82 15.73L414.17 18.69L422.44 21.88L429.34 24.78L435.13 27.48L443.61 31.46L451.94 35.71L464.29 42.68L475.89 49.82L486.74 57.14L496.84 64.62L506.22 72.21L515.25 80.11L523.96 88.33L532.33 96.87L539.68 104.94L546.75 113.29L553.55 121.89L560.06 130.76L566.29 139.9L572.25 149.3L577.92 158.96L583.31 168.89L590.93 184.92L594.54 193.17L597.62 201.23L603.97 219.87L606.2 227.06L607.79 232.82L611.12 247.39L613.75 261.95L615.67 276.5L616.9 291.03L617.23 301.77L617.12 316.03L616.75 327.15L616.14 336.01L614.97 346.61L613.45 357.07L611.61 367.41L609.42 377.62L606.9 387.7L604.05 397.65L600.85 407.47L597.32 417.16L591.96 430.18L585.97 442.97L579.4 455.35L571.37 469.05L565.83 477.76L560.31 485.71L554.68 493.23L548.87 500.54L542.89 507.65L536.73 514.55L530.4 521.25L523.89 527.75L517.2 534.04L510.34 540.13L502.49 546.67L494.42 552.96L486.14 558.99L477.64 564.77L468.92 570.3L459.98 575.58L450.82 580.6L441.45 585.37L436.23 587.83L431.85 589.68L422.12 593.73L413.73 597.08L405.19 600.16L396.5 602.95L387.66 605.48L378.66 607.72L369.5 609.69L360.2 611.38L350.74 612.79L339.06 614.17L327.64 615.15L316.49 615.72L305.61 615.89L294.42 615.47L278.1 614.23L268.67 613.21L258.88 611.77L248.75 609.89L238.26 607.59L226.46 604.32L220.44 602.6L210.76 599.75L203.66 597.31L196.41 594.57L189.01 591.54L181.46 588.22L172.53 583.86L158.56 576.63L150.89 572.35L142.69 567.29L133.97 561.47L124.72 554.88L115.11 547.42L105.1 538.85L94.69 529.18L83.87 518.4L74.07 507.77L64.71 496.47L55.79 484.52L47.3 471.9L40.21 460.26L33.67 448.4L27.67 436.31L22.22 423.99L18.55 414.77L15.18 405.42L12 395.52L9.18001 385.47L6.74001 375.27L4.67 364.93L2.96001 354.43L1.63 343.8L0.660004 333.01L0.0700073 322.08L0 310.64L0.360001 291.59L1.08 280.74L2.78 266.26L4.38 255.51L6.05 246.55L8.75 234.83L11.89 223.28L15.45 211.9L19.45 200.67L22.58 192.75L25.92 184.91L29.49 177.15L33.28 169.48L37.29 161.89L41.52 154.38L45.97 146.96L50.64 139.62L55.7 132.15L61 124.82L66.52 117.65L72.27 110.63L78.25 103.75L84.47 97.03L90.91 90.45L97.58 84.03L105.16 77.09L111.3 71.76L119.56 65.12L128.28 58.57L137.44 52.13L147.06 45.79L152.85 42.22L159.03 38.68L172.51 31.68L180.21 28.12L190.79 23.53ZM36.04 173.74L31.94 182.26L28.11 190.82L24.57 199.42L21.3 208.06L18.19 217.36L15.36 227.17L11.13 243.99L8.57001 256.5L7.00999 267.08L5.74001 278.4L4.75 290.47L4.06 303.28L4.08 313.51L4.74001 326.02L5.25999 334.1L6.17 344.42L7.63 355.41L9.5 366.29L11.77 377.06L14.43 387.73L16.59 395.32L18.96 402.85L21.54 410.32L24.32 417.74L27.8 425.96L32.55 436.07L38.15 447.33L42.39 455.32L45.95 461.46L49.98 467.94L59.4 481.9L68.6 494.23L78.39 506.03L84.58 512.9L90.99 519.57L97.61 526.06L104.45 532.36L113.42 540.13L122.39 547.41L131.35 554.19L140.32 560.49L147.09 564.9L154.03 569.08L161.14 573.05L168.41 576.79L181.96 583.45L189.06 586.77L195.69 589.52L205.64 593.18L215.57 596.51L225.5 599.5L235.42 602.16L245.32 604.47L255.22 606.45L265.1 608.09L274.98 609.4L282.64 610.17L290.45 610.72L298.4 611.06L306.51 611.19L314.77 611.11L323.18 610.81L331.73 610.3L340.44 609.58L348.15 608.65L357.68 607.14L374.83 604.02L381.27 602.56L388.11 600.77L403.01 596.21L424.12 588.08L433.9 584.01L442.35 579.94L461.64 569.48L468.73 565.29L474.13 561.8L490.33 550.4L500.49 542.69L513.42 531.7L518.86 526.72L523.63 522.08L532.47 512.79L541.08 502.97L549.47 492.62L557.64 481.74L562.74 474.27L568.57 465.01L575.53 453.4L579.26 446.72L586.18 432.16L592.29 417.66L597.59 403.2L602.07 388.79L604.16 380.85L606.14 372.23L607.99 362.94L609.73 352.97L610.77 345.47L611.6 337.06L611.66 336.31L612.56 324.46L613.01 315.94L613.14 308.25L612.95 300.91L612.05 286.07L610.92 274.1L608.83 259.4L606.03 244.85L602.48 230.31L598.22 215.92L593.23 201.7L587.52 187.63L583.37 178.57L578.84 169.65L574.22 161.21L569.64 153.29L565.09 145.9L560.59 139.04L554.09 129.85L547.07 120.66L539.53 111.48L531.48 102.29L524.51 94.89L517.47 88.04L506.36 78.16L494.9 68.84L483.07 60.09L470.89 51.9L458.46 44.35L445.68 37.35L437.61 33.54L431.1 30.52L426.27 28.33L419.97 25.82L402.86 19.72L385.99 14.4L377.94 12.41L372.47 11.14L362.28 8.94L352.72 7.36L342.72 6.06999L332.25 5.06999L321.34 4.36L310.51 4.03L301.34 4.2L282.49 5.47L274.24 6.27L266.76 7.2L255.93 8.89L245.43 10.9L235.25 13.22L225.4 15.87L217.83 18.18L210.31 20.69L202.83 23.4L195.4 26.33L188 29.45L180.66 32.78L173.36 36.31L166.1 40.05L154.96 46.27L144.15 52.92L133.68 60.01L123.55 67.53L116.77 72.95L110.15 78.58L103.4 84.64L96.96 90.69L90.83 96.73L85.02 102.77L79.53 108.79L74.35 114.82L69.48 120.83L64.93 126.84L58.52 135.91L52.35 145.15L47.49 152.73L43.71 159.17L36.04 173.74Z" fill="black"/>
<path d="M313.06 61.8704L313.14 58.2004L312.9 54.5704L312.8 53.7804L312.07 45.7704L310.84 28.5804L310.65 28.1304L310.19 27.9804H308.13L307.46 27.8904L306.95 27.6104L306.6 27.1504L306.42 26.5004L305.91 22.9204V22.1404L306.16 21.5704L306.67 21.2204L307.44 21.0704L323.59 20.4004L323.9 20.5204L324.04 20.8204V20.8304V26.2404L323.83 26.8804L323.19 27.0904H321.29L320.56 27.4004L320.28 28.1304V28.1704L323.62 79.4704L323.48 79.8704L323.1 80.0504H323.08H314.2L313.28 79.7904L312.62 79.0804L310.42 74.9004L300.09 57.0804L290.51 40.1304L289.63 39.1404L289.26 39.1204L289.03 39.4004L289.02 39.5104L290.4 72.4404L290.53 72.8004L290.85 73.0004L291.07 73.0504L292.4 73.1604L293.8 72.9204L294.48 73.0204L294.86 73.6004L294.87 73.6804L295.22 79.0504L295.02 79.6104L294.49 79.8604H294.47L286.93 80.2904L278.52 81.3404L275.79 82.0104L273.26 82.7104L271.06 83.0004L269.08 82.8604L267.39 82.2904L265.78 81.1704L264.43 79.5504L263.21 77.3504L262.08 74.4404L260.1 67.1304L259.28 64.5304L258.28 62.8904L257.47 62.1704L256.6 61.6704L255.62 61.3404L254.56 61.2204L251.95 61.5104L242.16 63.4204L241.63 63.7004L241.53 64.2904L242.89 71.9604L244.47 78.5804L245.21 80.2404L245.71 80.7904L246.3 81.1204L247.49 81.1804L248.94 80.5504L249.72 80.2004L250.35 80.2304L250.82 80.6404L251.14 81.4304L252.05 85.0404L252.15 86.0004L251.92 86.7604L251.35 87.3304L250.46 87.6904L234.52 91.6904L233.93 91.7504L233.46 91.6104L232.83 90.7704L231.36 86.4604L231.25 85.8704L231.37 85.4404L231.72 85.1804L232.3 85.0804L233.72 84.8204L235.2 84.1504L235.55 83.7904L235.59 83.2904L231.08 61.9104L226.26 41.7004L225.78 40.4804L225.13 39.9604H224.76L222.07 40.8304H222.06L221.67 40.6104L220.22 34.8204L220.24 34.6204L220.39 34.5204L233.51 31.1304L245.87 28.6104L250.92 28.0604L252.98 28.1104L254.75 28.3704L257.29 29.1804L259.53 30.3604L261.95 32.3404L264.02 34.9404L265.59 37.9604L266.71 41.5004L267.04 43.4504L267.1 45.2804L266.88 47.0104L266.38 48.6304L266.01 49.4404L264.94 51.2504L263.73 52.8204L262.37 54.1504L260.87 55.2504L260.63 55.3904L260.34 55.7204L260.69 55.9804L263.31 57.1804L265.52 58.8104L266.74 60.1004L267.79 61.5704L268.54 62.9904L269.19 64.6904L270.28 69.2504L271.27 73.4504L271.67 74.1904L272.33 74.7204L273.15 74.9604L273.98 74.8504L274.04 74.8304L276.56 74.2304L279.64 74.0804L280.57 73.7404L281.04 72.8704L281.21 70.4104L281.14 67.5604L280.37 51.7804L280.06 37.5304L280.05 37.0204L279.78 34.1804L279.05 30.4604L278.9 29.7704L278.7 29.3604L278.28 29.1004H276.64H276.62L275.69 28.8904L275.19 28.0704L274.56 23.6404V22.9304L274.79 22.4204L275.27 22.1004L275.99 22.0004H288.9L289.57 22.1804L290.05 22.6604L312.74 61.9504L312.96 62.1804L313.06 61.8704ZM235.59 40.1504L239.03 55.0204L239.27 55.5704L239.71 55.9904L240.28 56.2004L240.88 56.1804L250.38 53.9904L252.04 53.4404L253.58 52.6004L254.91 51.5004L256 50.1804L256.81 48.6904L257.29 47.1004L257.43 45.4504L257.23 43.8204L256.87 42.2404L256.33 40.6904L255.48 39.2704L254.35 38.0504L252.98 37.0704L251.42 36.3604L249.73 35.9504L247.99 35.8704L246.25 36.1004L236.75 38.3004L235.9 38.8304L235.55 39.7804L235.59 40.1504Z" fill="black"/>
<path d="M366.57 34.7703V34.0403L365.93 33.7003L349.33 31.0503L348.56 31.2303L348.15 31.9003L345.45 48.7703V48.7903L345.71 49.0703L347.05 49.0303L350.27 49.0603L352.45 49.6303L353.01 49.9203L353.19 49.9903L353.78 49.8603L354.03 49.3103L354.04 47.8403L354.24 46.7403L354.49 46.3403L354.93 46.1603L355.25 46.1203L357.03 46.0403L358.84 46.2003L360.67 46.6103L362.53 47.2603L362.98 47.6803L363.04 48.2903L361.56 55.2503L361.16 58.6003L360.97 61.8703L360.85 62.5703L360.54 63.0303L360.03 63.2503L359.33 63.2403L354.93 62.5403L354.18 62.3203L353.64 61.9103L353.28 61.3303L353.13 60.5603L352.96 58.0403L352.82 57.6003L352.42 57.2803L350.57 56.6103L348.74 56.1703L346.94 55.9503H345.17L344.22 56.3503L343.73 57.2603L341.21 73.0403L341.29 73.4603L341.62 73.7403L344.85 74.7303L359.93 77.1903L360.41 77.0903L360.7 76.6803L361.71 72.7703L362.1 71.8303L362.69 71.2103L363.5 70.9103L364.51 70.9303L368.32 71.5403L369.11 71.7803L369.62 72.2203L369.87 72.8503L369.83 73.6903L367.8 84.5003L367.55 85.1203L367.09 85.6003L366.48 85.8803L365.81 85.9003L327.14 79.7303L327.01 79.6703L326.97 79.5103L327.31 73.6603L327.51 73.1503L328.05 73.0103L330.57 73.1503L331.38 72.8903L331.81 72.1503L338.76 28.6703L338.72 28.3503L338.45 28.1203L337.57 27.9403L336.3 27.9503L335.7 27.9103L335.28 27.6803L335.04 27.2603L334.99 26.6603L335.27 21.8903L335.28 21.8203L335.76 20.9903L336.7 20.7803L375.62 28.1003L376.01 28.3503L376.1 28.8003V28.8103L373.13 42.8503L372.9 43.4803L372.53 43.8903L371.99 44.0803L371.31 44.0303L366.08 42.9303L365.51 42.7203L365.21 42.3903L365.16 41.9503L365.37 41.3803L366.06 39.2303L366.15 36.3803L366.29 35.5703L366.57 34.7703Z" fill="black"/>
<path d="M397.99 61.4605L413.71 47.0605L413.85 46.8806L413.84 46.2605L413.34 45.9205L412.19 45.6105L411.47 45.0005L411.27 44.5905L411.21 44.0905L411.38 43.6006L413.28 40.5806L413.95 40.0605L414.8 40.1105L429.7 46.5705L429.89 46.7505L429.88 46.9805L427.7 52.7906L427.42 53.0805L427.02 53.0706L426.98 53.0505L425.02 52.1105L422.8 51.4906L422.31 51.5105L421.91 51.7605L419.74 53.5505L417.79 55.1105L400.39 70.7805L398.71 72.5706L397.66 74.4905L395.3 81.3605L393.31 88.1505L393.33 88.6105L393.7 88.9106L395.25 89.2206L395.42 89.2306L396.09 89.4506L396.61 89.9206L396.89 90.5706V91.2705L396.01 95.4305L395.99 95.4905L395.54 96.0305L394.84 96.0706L379.57 90.3605L378.87 89.9806L378.47 89.4706L378.35 88.8206L378.52 88.0505L379.58 85.2006L380 84.4506L380.55 84.0106L381.25 83.9005L382.08 84.1105L383.41 84.5605L383.96 84.5305L383.97 84.5106L387.78 74.4806L388.48 72.3206L388.88 70.0305L388.98 67.6006L388.78 65.0406L385.53 40.6205L385.27 39.3205L384.86 38.2406L384.3 37.3705L383.59 36.7206L382.29 36.1705L381.66 35.9305L381.26 35.5405L381.11 35.0105L381.2 34.3405L382.36 30.2805L382.61 29.7305L382.97 29.4106L383.44 29.3105L384.03 29.4406L398.2 34.7406L399.02 35.4205L399.24 36.4505L398.71 41.0605L398.55 41.4706L398.23 41.7706L397.8 41.8806L397.37 41.7805L397.11 41.5806L395.92 40.2805L395.8 40.1906H395.39L395.16 40.5305L394.98 43.1906L395.03 45.8006L396.38 58.0605L396.77 59.8405L397.45 61.3806L397.69 61.5805L397.99 61.4605Z" fill="black"/>
<path d="M174.08 61.5099L171.88 62.5999L171.32 62.6799L170.89 62.3399L168.18 58.3499L168.02 57.7599L168.45 57.3199L183.11 50.0499L183.77 49.8299L184.3 49.8999L184.7 50.2499L184.97 50.8899L186 54.7699L186.06 55.4299L185.88 56.0799L185.49 56.6399L184.94 57.0399L184.47 57.4199L184.25 57.8999L184.22 58.5199L184.7 60.1699L198.16 91.2399L199.27 93.3099L200.85 94.8699L201.98 95.4999L203.21 95.8999L204.61 96.1099H206.07L209.47 95.4599L213.1 94.0299L214.93 92.8399L216.24 91.3299L216.76 90.3099L217.11 89.1899L217.28 86.6099L216.62 82.3499L215.37 78.6999L207.46 61.0299L204.56 54.6299L202.86 50.4399L202.46 49.7899L201.83 49.3499L201.07 49.2099L200.33 49.3899L200.16 49.4799L199.23 49.8599L198.09 49.9899L197.58 49.8599L197.25 49.4799L195.11 45.1499L195.04 44.6399L195.42 44.2899L210.51 37.7299L211.19 37.6699L211.65 38.1399L213.94 42.7599L213.97 43.3599L213.56 43.7999L213.53 43.8099L211.84 44.7099L211.39 45.1999L211.21 45.7099L211.23 46.0299L211.8 47.9199L212.88 50.4699L223.64 73.6599L225.79 78.5399L227.16 82.2199L227.79 84.8399L227.7 87.0199L227.51 87.6699L226.52 90.1499L225.33 92.4599L223.94 94.5899L222.36 96.5399L219.25 99.4099L215.59 101.78L213.56 102.73L211.31 103.55L206.09 104.75L203.95 104.97L201.91 104.93L199.97 104.64L198.13 104.08L195.42 102.67L192.96 100.61L191.98 99.3699L190.88 97.4999L188.26 91.8799L180.48 73.6699L175.09 61.8499L174.68 61.4299L174.08 61.5099Z" fill="black"/>
<path d="M482.07 83.4805L483.1 86.8604L483.7 90.2404L483.88 93.9405L483.59 97.5905L482.83 101.3L481.63 104.92L479.95 108.58L477.86 112.09L475.34 115.5L472.48 118.69L470.01 120.93L466.71 123.2L463.05 125.02L460.42 125.76L455.59 126.71L453.6 126.96L451.7 127L449.88 126.81L448.15 126.41L444.08 125.01L440.66 123.47L437.75 121.71L435.28 119.72L432.8 117.03L430.6 113.76L429.53 111.58L428.71 109.24L428.15 106.74L427.86 104.07L427.82 99.7805L428.23 95.7704L429.08 92.0504L430.39 88.6104L432.53 84.6305L435.15 80.8304L438.26 77.2205L441.85 73.8004L445.09 71.3105L448.4 69.4105L451.78 68.1005L455.23 67.3805L457.3 67.2305L459.4 67.2805L463.66 68.0105L468.03 69.5405L472.49 71.9005L475.89 74.4005L478.69 77.3705L480.6 80.2605L482.07 83.4805ZM441.41 88.4805L439.27 92.6905L437.76 97.1205L437.02 101.34L437.06 105.26L437.45 107.04L438.15 108.79L439.19 110.58L440.49 112.26L442.12 113.92L443.9 115.34L445.75 116.49L447.59 117.3L449.49 117.83L451.4 118.08L454.67 117.88L457.99 116.9L460.24 115.84L462.29 114.6L464.53 112.86L466.53 110.87L468.4 108.57L470.21 105.84L471.78 102.96L472.94 100.24L473.77 97.5305L474.26 94.7404L474.4 92.3505L474.29 89.8604L473.6 86.4705L472.25 83.4904L471.13 81.9205L469.78 80.4805L468.21 79.2404L466.33 78.1404L464.24 77.2305L462.01 76.5605L459.92 76.2005L457.85 76.1104L455.97 76.3004L454.21 76.8004L450.73 78.5905L447.35 81.2104L444.13 84.6205L441.41 88.4805Z" fill="black"/>
<path d="M178.27 86.7498L180.07 89.6699L181.54 92.5999L182.7 95.5498L183.54 98.5198L184.35 103.69L184.46 106.19L184.35 108.62L184.05 110.89L183.54 113.09L182.82 115.22L181.88 117.25L180.35 119.74L178.43 122.06L176.2 124.15L173.59 126.06L169.71 128.26L165.85 129.79L162.02 130.65L158.21 130.84L156.11 130.66L154.01 130.28L149.84 128.89L145.7 126.68L141.6 123.65L138.39 120.4L135.01 115.89L132.1 111.07L130.29 106.87L129.03 101.92L128.54 97.2599L128.82 92.8698L129.25 90.7899L129.87 88.7698L131.48 85.3098L133.72 82.0898L136.59 79.0898L140.08 76.3199L142.84 74.6198L145.61 73.3298L148.48 72.4298L151.36 71.9398L153.6 71.8398L155.84 71.9698L158.07 72.3199L160.3 72.8998L162.59 73.7198L164.86 74.7498L169.35 77.4499L171.78 79.3398L174.08 81.5198L176.24 83.9898L178.27 86.7498ZM143.84 112.17L146.03 114.67L148.2 116.82L150.34 118.61L152.46 120.04L155.18 121.32L157.98 122L159.99 122.11L162.04 121.93L164.13 121.45L166.26 120.67L168.77 119.39L170.85 117.89L172.51 116.18L173.75 114.25L174.44 112.54L174.83 111.09L175.27 108.11L175.28 105.03L174.86 101.85L173.99 98.5699L173.28 96.7899L172.26 94.8998L169.32 90.7998L167.13 88.2899L164.96 86.1398L162.81 84.3499L160.69 82.9199L157.97 81.6398L155.17 80.9598L153.16 80.8499L151.11 81.0298L149.03 81.5099L146.9 82.2899L144.39 83.5699L142.3 85.0699L140.64 86.7798L139.41 88.7098L138.72 90.4199L138.33 91.8698L137.88 94.8499L137.87 97.9298L138.3 101.11L139.17 104.39L139.88 106.17L140.9 108.06L143.84 112.17Z" fill="black"/>
<path d="M495.78 99.4306L494.31 98.6406L493.96 98.2506L494.15 97.7607L498.08 93.3206L498.84 92.8906L499.64 93.2506L507.31 100.541L514.55 107.821L521.38 115.101L527.79 122.381L528.08 123.101L527.68 123.771L518.99 131.271L518.21 131.771L517.44 131.941L516.66 131.771L515.88 131.251L513.92 129.511L513.29 128.771L513.09 128.031L513.31 127.301L513.96 126.581L516.45 124.141L516.95 123.261L516.96 122.621L516.82 122.431L509.84 115.111L504.49 108.761L504.41 108.671L504 108.381L503.51 108.291L503.02 108.401L502.61 108.701L492.21 120.461L491.9 120.991L491.8 121.591L491.93 122.191L492.28 122.701L496.23 126.661L497 126.991L497.79 126.711L499.42 125.311L500.19 125.041L500.93 125.391L505.22 129.951L505.67 130.391L505.6 130.911L505.1 131.561L496.45 140.171L495.68 140.751L494.89 140.961L494.1 140.821L493.28 140.321L490.96 138.411L490.38 137.761L490.18 137.111L490.38 136.461L490.96 135.811L491.68 134.851L491.81 134.121L491.72 133.351L490.87 131.541L489.14 129.461L486.73 127.301L486.26 127.051L485.73 127.001L485.21 127.151L484.79 127.471L473.23 140.551L473.04 140.951L473.09 141.391L473.44 141.991L474.29 142.711L475.49 143.141L475.61 143.181L475.85 143.521L475.72 143.921L470.9 148.731L470.58 148.871L470.26 148.731L458.57 137.041L458.25 136.391L458.61 135.781L462.2 132.681L462.95 132.381L463.58 132.891L464.16 133.581L464.8 133.871L465.44 133.771L466.12 133.311L474.3 125.511L481.48 117.671L487.98 110.691L494.61 103.831L495.61 102.191L496.14 100.141L496.09 99.7307L495.78 99.4306Z" fill="black"/>
<path d="M379.25 509.16L378.89 509.29L371.25 511.92L363.48 514.22L355.6 516.2L347.59 517.86L339.47 519.18L331.23 520.19L322.86 520.87L314.38 521.22L302.25 521.18L290.4 520.53L278.82 519.26L267.52 517.37L258.16 515.22L248.16 512.33L239.88 509.61L232.22 506.87L225.19 504.12L218.77 501.36L211.66 497.92L204.3 493.95L196.68 489.46L188.81 484.43L181.88 479.56L175.03 474.19L168.26 468.29L161.57 461.89L152.1 451.87L143.27 441.44L135.11 430.59L127.6 419.34L126.96 418.32L122.06 409.83L117.53 400.76L114.08 392.99L110.95 385.23L108.14 377.49L105.66 369.76L103.51 362.03L101.68 354.32L100.18 346.63L99 338.94L98.03 330.37L97.37 321.86L97.03 313.41L97 305.01L97.3 296.66L97.91 288.37L98.84 280.13L100.08 271.94L101.53 264.35L103.25 256.81L105.25 249.32L107.53 241.87L110.08 234.47L112.91 227.12L116.01 219.82L119.39 212.56L123.64 204.27L128.23 196.23L133.15 188.43L138.4 180.87L144.57 172.82L151.14 165.07L158.11 157.61L165.49 150.45L170.96 145.55L176.53 140.87L182.23 136.41L188.03 132.16L193.95 128.14L199.98 124.33L206.12 120.74L212.38 117.36L218.42 114.36L224.57 111.56L230.82 108.95L237.17 106.54L243.62 104.33L250.18 102.31L256.83 100.49L263.59 98.8704L274.78 96.6804L285.97 95.1104L297.16 94.1704L308.35 93.8604L317.54 94.0704L326.73 94.7004L335.92 95.7604L345.11 97.2404L354.36 99.1304L363.42 101.37L372.28 103.95L380.93 106.88L389.39 110.15L397.66 113.76L405.72 117.72L413.58 122.02L420.96 126.49L428.15 131.27L435.16 136.36L441.98 141.78L448.62 147.52L455.08 153.57L461.35 159.94L467.44 166.63L473.44 173.75L478.92 180.84L483.91 187.96L488.5 195.21L491.99 201.29L497.1 210.96L501.6 220.24L505.5 229.12L508.78 237.61L511.75 247.36L515.23 261.54L517.29 271.71L518.67 281.25L519.66 292.14L520.14 303.16L520.12 314.3L519.6 325.57L519 332.55L518.15 339.47L517.04 346.33L515.69 353.15L513.31 362.8L509.66 375.02L505.27 387.71L502.05 395.04L495.64 408.13L490.59 417.67L485.83 425.52L481.5 431.86L477.01 437.98L472.37 443.88L467.56 449.58L462.59 455.05L457.46 460.31L452.17 465.35L446.72 470.18L435.25 479.23L428.59 484.22L423.42 487.75L417.1 491.62L410.73 495.23L404.29 498.57L397.79 501.66L389.31 505.28L379.25 509.16ZM472.88 429.82L478.15 422.06L483.04 414.2L487.54 406.22L491.67 398.14L495.42 389.96L498.79 381.66L501.77 373.26L504.38 364.75L507.29 353.14L509.51 341.33L510.82 331.03L511.63 319.82L511.95 307.72L511.77 294.72L511.18 286.68L509.88 277.49L508.03 267.02L506.69 260.47L503.68 249.1L500.04 238.04L495.79 227.3L490.91 216.88L489.67 214.47L482 200.67L478.59 195.06L474.97 189.59L471.36 184.52L467.56 179.58L463.58 174.76L459.42 170.06L452.28 162.54L445.49 155.93L435.63 147.27L430.63 143.28L425.59 139.51L420.5 135.96L415.37 132.64L410.19 129.54L404.97 126.66L398.1 123.2L391.08 120L383.9 117.04L376.56 114.33L369.06 111.86L361.4 109.65L353.58 107.68L345.61 105.96L336.93 104.5L327.61 103.42L317.45 102.71L309.33 102.61L297.82 103.01L286.35 103.71L283.85 103.99L273.69 105.49L263.6 107.54L253.58 110.15L243.63 113.32L236.27 116.02L229.07 118.95L222.05 122.12L215.19 125.51L208.51 129.14L201.99 133L195.65 137.1L189.47 141.42L180.87 148.06L172.62 155.19L164.72 162.79L157.17 170.88L150.16 179.2L143.82 187.54L138.15 195.92L133.16 204.33L128.62 212.79L124.73 220.57L121.48 227.66L118.88 234.08L116.27 241.42L113.94 248.77L111.88 256.15L110.09 263.55L108.58 270.96L107.34 278.4L106.38 285.86L105.69 293.34L105.27 301.11L105.14 308.9L105.3 316.71L105.76 324.55L106.51 332.4L107.56 340.28L108.9 348.18L110.54 356.1L112.5 363.99L114.82 371.81L117.5 379.57L120.55 387.25L123.94 394.87L127.7 402.43L131.82 409.91L136.3 417.33L141.11 424.64L146.14 431.66L151.4 438.41L156.89 444.87L162.59 451.05L168.53 456.95L174.69 462.57L181.07 467.91L190.79 475.2L200.98 481.89L213.6 489.23L219.11 492.11L224.09 494.48L234.44 498.78L245.1 502.56L256.07 505.83L267.34 508.59L276.41 510.35L285.48 511.67L294.57 512.54L303.67 512.97L311.18 512.98L318.7 512.7L329.76 511.77L340.73 510.28L348.15 508.95L355.52 507.35L362.85 505.49L370.14 503.37L381.32 499.57L391.91 495.28L401.9 490.51L411.29 485.24L419.54 480.09L426.91 475.16L433.4 470.44L439.01 465.94L446.62 459.05L456.06 449.77L460.66 444.93L465 440L469.07 434.96L472.88 429.82Z" fill="black"/>
<path d="M116.23 104.68L116.16 105.25L116.43 105.75L136.23 125.92L140.19 130.31L143.29 133.81L145 135.98L146.23 138.24L146.99 140.56L147.26 142.91L147.04 145.32L146.32 147.7L145.09 150.05L143.36 152.32L140.4 155.07L138.8 156.17L137.1 157.09L135.1 157.89L132.99 158.46L130.77 158.79L128.44 158.9L126.87 158.6L124.64 157.72L123.65 157.08L122.3 155.89L118.47 151.87L118.2 151.41L118.14 150.89L118.28 150.38L118.6 149.97L118.63 149.95L123.9 145.73L124.35 145.46L124.72 145.45L125.01 145.67L125.22 146.15L125.57 146.89L126.19 147.64L128.24 149.13L130.31 149.99L132.26 150.06L134.03 149.39L136.17 147.71L137.57 145.7L138.03 144.35L138.08 143.05L137.58 141.45L136.42 139.92L124.79 127.75L116.88 119.41L110.65 113.17L109.45 112.3L108.3 112.07L107.19 112.48L106.13 113.54L106.12 113.56L105.79 113.73L105.45 113.61L101.21 109.86L100.97 109.35L101.17 108.82L101.2 108.79L113.72 97.3298L114.35 97.0898L114.97 97.3598L118.51 101.02L118.83 101.72L118.39 102.31L117.06 103.45L116.23 104.68Z" fill="black"/>
<path d="M237.63 492.5L230.58 489.61L223.71 486.5L217.03 483.18L210.53 479.65L204.21 475.9L198.08 471.93L192.13 467.75L186.36 463.36L179.02 457.16L171.43 450.02L166.09 444.57L161.05 439.08L156.3 433.52L151.84 427.92L144.03 416.55L139.63 409.74L136.61 404.65L131.1 394.01L126.33 383.34L122.32 372.63L119.05 361.9L117.15 354.31L115.54 346.74L114.21 339.17L113.18 331.61L112.42 324.06L111.96 316.53L111.78 309L111.89 301.48L112.3 293.75L113.02 286.02L114.04 278.31L115.36 270.61L116.99 262.92L118.92 255.24L121.16 247.57L123.7 239.91L125.83 234.44L129.37 226.15L132.76 218.74L135.84 212.74L141.09 203.7L146.58 195.23L152.31 187.32L158.29 179.98L165.62 171.47L169.48 167.18L173.37 163.37L180.96 156.73L188.61 150.55L196.32 144.82L204.1 139.54L211.69 134.93L219.78 130.57L228.38 126.48L237.49 122.64L243.46 120.38L249.44 118.33L255.44 116.49L261.44 114.86L267.45 113.44L273.47 112.22L279.5 111.22L285.54 110.43L299.76 109.37L307.16 109.13L313.97 109.23L321.1 109.64L328.1 110.24L334.96 111.04L341.69 112.04L348.29 113.23L354.75 114.62L361.07 116.21L367.26 117.99L375.89 120.95L384.94 124.64L394.41 129.07L404.3 134.23L410.6 137.84L416.76 141.73L422.8 145.88L428.71 150.3L434.49 154.99L440.14 159.94L445.67 165.17L451.06 170.66L455.8 175.87L460.41 181.35L464.87 187.09L469.19 193.09L473.37 199.35L477.42 205.88L481.32 212.67L485.08 219.72L489.22 228.53L492.93 238.02L495.23 244.8L497.3 251.55L499.13 258.26L500.74 264.94L502.1 271.58L503.24 278.18L504.14 284.75L504.81 291.29L505.21 298.01L505.35 305.56L505.22 313.94L504.84 323.15L504.25 330.49L503.24 338.37L501.8 346.79L499.94 355.76L498.78 360.41L497.65 363.99L496.07 369.03L494.25 374.83L490.03 385.57L485.33 395.85L480.16 405.66L474.52 415L470.22 421.38L465.67 427.61L460.84 433.69L455.76 439.61L450.41 445.37L444.81 450.98L438.93 456.44L432.8 461.74L424.08 468.6L415.07 474.88L405.78 480.58L396.19 485.69L385.99 490.36L375.48 494.4L364.85 497.78L353.61 500.68L341.76 503.1L329.31 505.04L323.86 505.57L317.21 505.85L305.08 506.22L297.92 505.95L286.33 504.83L277.48 503.41L262.85 500.5L257.5 499.21L251.52 497.45L244.89 495.21L237.63 492.5ZM239.34 188.67L237.73 187.03L235.81 184.46L208.5 144.16L208 143.65L207.34 143.37L206.62 143.35L205.95 143.6L197.05 149.04L196.49 149.51L196.22 150.04L196.24 150.63L196.55 151.28L204.44 162.88L213.71 175.98L216.14 179.89L218.25 183.37L218.14 183.8L218.11 183.81L217.72 183.95L217.29 183.97L216.94 183.73L192.43 153.11L192.1 152.93L191.75 153.04H191.74L180.7 162.57L180.32 163.37L180.64 164.2L180.69 164.25L184.65 167.94L188.41 171.87L191.96 176.04L195.31 180.45L195.97 181.62L196.18 182.65L196.06 182.99L195.7 182.94L193.48 181.79L178.65 167.09L178.06 166.69L177.35 166.53L176.64 166.65L176.03 167.03L166.48 175.78L166.12 176.29L165.99 176.89L166.11 177.5L166.47 178.01L166.57 178.09L167.95 179.16L172.32 182.8L176.16 186.39L180.16 189.69L181.93 191.35L183.94 193.72L184.11 194.56L183.56 195.2L183.31 195.27L182.59 195.26L181.39 194.66L172.5 187.24L164.35 180.85L163.46 180.55L162.68 181.04L153.59 192.05L153.58 192.07L153.45 192.57L153.72 193.02L178.92 211.1L179.19 211.62V212.33L179.16 212.54L178.69 213.06L178 212.99L151.25 196.24L150.87 196.18L150.55 196.4L144.41 206.2L144.14 206.9V207.65L144.41 208.35L144.91 208.91L148.14 210.99L169.96 223.63L191.44 236.92L195.26 239.72L195.97 240.41L196.11 240.87L195.7 241.12L194.74 241.16L193.63 240.73L185.73 237.32L177.7 233.59L156.42 223.26L140.7 215.39L140.02 215.2L139.32 215.29L138.71 215.64L138.29 216.21L138.27 216.26L134.15 225.77L134.14 225.79L134 226.49L134.14 227.2L134.54 227.79L135.14 228.19L164.45 240.44L171.19 243.52L177.86 246.95L179.26 247.93L177.58 247.66L169.35 245.07L152.46 239.06L134.77 232.34L133.31 231.95L132.16 232.09L131.29 232.74L130.55 233.93L128.49 239.06L126.6 245.28L126.64 245.93L127.19 246.31L140.02 250.17L152.09 254.27L153.67 254.96L154.15 255.46L153.53 255.8L151.81 255.95L149.79 255.77L146.76 255.16L125.89 249.94H125.88L125.35 249.91L124.84 250.09L124.44 250.45L124.21 250.94L121.09 263.1V263.12L121.05 263.85L121.3 264.53L121.8 265.06L122.46 265.36L145.93 270.78L147.17 271.18L148.03 271.77L148.16 271.96L148.14 272.6L147.61 272.95L145.43 273.08L143.72 272.94L131.26 270.77L121.06 269.18L120.49 269.21L119.97 269.45L119.58 269.88L119.38 270.42L117.26 283.68V283.7L117.44 284.37L118.05 284.71L135.09 286.86L150.66 289.37L151.62 289.84L151.93 290.28L151.97 290.66L151.63 290.83L148.57 291.07L145.58 291.03L120.58 289.13L118.07 289.28L117.2 289.54L116.58 290.02L116.21 290.7L116.09 291.59V301.94L116.31 302.51L116.84 302.78L124.34 303.55L130.39 303.92L131.89 303.97L152.07 304.81L171.08 306.28L173.61 306.63L176.02 307.18L176.91 307.49L177.2 307.75L176.88 307.97L175.95 308.15L174.63 308.37L172.03 308.72L171.81 308.73L125.44 311.15H116.82H116.81L116.32 311.35L116.12 311.84V323.24L116.26 324.19L116.67 324.84L117.35 325.19L118.31 325.24L146.08 323.03L156.83 322.09L160.2 321.97L165.62 322.3L165.99 322.47L166 322.88L165.9 323.09L165.08 323.51L142.63 326.52L119.4 329.31L118.4 329.57L117.73 330.1L117.41 330.87V331.89L119.12 343.79L119.13 343.85L119.36 344.41L119.79 344.84L120.35 345.07L120.96 345.05L131.16 342.95L142.07 341.21L145.01 341.01L148.31 341.17L149.02 341.43L148.46 341.94L145.95 342.86L120.63 349.14L120.27 349.37L120.24 349.8L123.32 362.12L123.71 363.07L124.3 363.66L125.11 363.91L126.12 363.8L146.55 358.49L148.78 358.08L151.46 358L151.93 358.26L151.98 358.78L151.87 358.96L151.31 359.45L150.08 360.04L138.64 363.73L125.82 368.36L125.49 368.63L125.5 369.06L130.4 382.38L130.69 382.79L131.15 383.01L131.66 382.96L162.4 371.66L163.29 371.53L164.39 371.73L164.76 372.08L164.84 372.53L164.67 373.06L164.23 373.4L134.09 386.5L133.63 386.81L133.31 387.27L133.17 387.81L133.24 388.36L134.68 392.17L136.6 395.86L138.98 399.35L139.71 399.83L140.57 399.75L144.06 397.78L146.89 396.12L152.26 393.45L176.74 382L189.53 375.83L194.83 373.55L199.67 371.11L199.94 371.06L200.72 371.23L200.85 371.28L201.04 371.6L200.89 371.94L197.36 374.47L191.33 378.24L169.52 391.24L147.59 404.05L145.43 405.46L143.54 407.04L143.2 407.73L143.38 408.48L149.55 417.86L149.99 418.35L150.48 418.59L151.02 418.56L151.61 418.28L182.75 397.79L182.98 397.71L183.27 397.79L183.85 398.15L183.91 398.2L184.07 398.57L183.89 398.93L154.28 421.75L153.74 422.3L153.51 422.89L153.59 423.51L153.98 424.17L161.69 433.79L162.31 434.38L162.96 434.61L163.64 434.48L164.34 433.99L168.51 430.29L172.69 426.9L176.86 423.8L181.04 421.01L181.45 420.92L181.83 421.12L182.12 421.75L181.97 422.33L181.45 422.93L179.97 424.1L177.24 426.38L166.76 436.86L166.41 437.37L166.28 437.98L166.39 438.58L166.72 439.1L176.22 449.03L176.26 449.07L176.82 449.43L177.48 449.53L178.13 449.37L178.67 448.97L180.69 446.15L180.84 445.92L182.7 443.95L185.17 442.41L185.49 442.31L186.01 442.35L186.46 442.63L186.73 443.07L186.78 443.59L186.6 444.25L186.2 444.91L180.62 452.07L180.42 452.74L180.79 453.33L191.88 462.48L192.13 462.58L192.37 462.45L201.46 453.09L201.88 452.9L202.47 452.95L203 453.18L203.27 453.5L203.24 454.04L202.8 454.73L200.54 457.84L196.46 463.94L196.28 464.8L196.75 465.53L208.49 473.95L209.07 474.21L209.71 474.23L210.31 473.99L210.76 473.54L210.79 473.5L214.89 466.95L215.42 466.37L216.16 466.06L216.84 465.92L217.14 465.91L217.55 466.06L217.84 466.38L217.96 466.8L217.87 467.23L213.55 476.31L213.49 476.76L213.81 477.06L227.37 483.52L227.94 483.55L228.38 483.19L235.3 470.29L235.64 469.82L235.99 469.66L236.34 469.8L236.71 470.25L237.04 470.78L237.3 471.59L237.15 472.43L232.18 483.89L232.16 483.94L232.01 484.73L232.18 485.53L232.65 486.19L233.34 486.62L246.7 491.62L247.09 491.64L247.37 491.32L251.23 481.47L251.83 480.36L252.93 478.95L253.3 478.74L253.66 478.98L253.93 479.55L254.06 480.34L253.85 482.56L253.08 486.03L251.44 491.4L251.27 492.2L251.41 492.84L251.86 493.32L252.62 493.64L265.84 497.03L266.57 496.92L267 496.34L270.89 481.31L271.28 480.42L271.64 480.07L272.13 479.95L272.61 480.08L272.96 480.44L273.09 480.91V481.31L272.97 484.62L272.62 487.92L272.02 491.23L271.19 494.53L270.97 496.13L271.34 497.37L272.29 498.24L273.82 498.74L280.68 499.78L285.89 500.19L286.62 499.92L286.98 499.22L287.94 491.68L289.42 483.6L289.69 482.84L290.13 482.28L290.98 481.87L291.75 482.02L292.14 482.7V482.84L291.11 500.2L291.2 500.51L291.47 500.68L291.53 500.69L294.78 501.37L298.08 501.82L301.44 502.05L304.85 502.06L305.61 501.75L305.99 501.02L306.9 491.8L307.25 483.62L307.36 482.53L307.67 482L309.37 481.31L309.81 481.34L310.01 481.72L311.04 489.03L311.28 500.32L311.62 501.18L312.41 501.66L314.29 501.97H315.68L321.29 501.33L327.15 500.91L327.5 500.77L327.57 500.45L326.05 487.12L326.12 486.61L326.41 486.19L326.86 485.96L327.36 485.97L327.72 486.14L328.38 486.79L328.91 487.62L329.55 489.85L331.13 498.95L331.35 499.51L331.76 499.95L332.31 500.2L332.91 500.23L346.17 498.33L346.82 497.94L346.99 497.2V497.19L344.23 482.21L344.32 481.52L344.88 481.11L345.58 480.87L345.61 480.86L346.4 480.94L346.89 481.57L349.61 492.23L351.21 496.36L351.58 496.74L352.12 496.79L364.65 493.65L365.32 493.33L365.81 492.78L366.05 492.07L366 491.33L365.99 491.29L363.97 483.61L362.86 476.75L362.88 476.52L363.27 476.13L363.82 476.23L365.05 477.44L365.84 478.75L366.06 479.34L369.87 490.85L370.36 491.46H371.14L385.24 486.65H385.25L385.79 486.16L385.82 485.43L382.2 475.65L382.09 474.8L382.28 473.69L382.49 473.31L383.01 473.09L383.8 473.15L384.36 473.59L389.16 483.26L389.75 483.85L390.59 483.74L402.8 477.68L403.52 477.12L403.97 476.34L404.09 475.44L403.85 474.56L400.43 467.67L400.44 467.09L400.92 466.77L401.13 466.78L402.83 467.49L404.42 468.82L405.96 470.84L407.58 473.73L407.6 473.77L408.18 474.19L408.88 474.07L420.99 466.1L421.53 465.62L421.77 465.09L421.72 464.51L421.37 463.87L418.89 460.23L417.06 456.69L416.96 455.71L417.49 455.05L418.25 454.81L418.93 455.23L424.48 461.65L424.96 462.02L425.54 462.18L426.14 462.11L426.66 461.81L436.32 453.47L436.69 453L436.87 452.42L436.81 451.82L436.54 451.28L431.28 444.59L430.88 443.93L430.87 443.45L431.23 443.16L431.94 443.04L432.26 443.03L433.59 443.27L434.67 444.09L438.9 448.99L439.39 449.41L439.89 449.59L440.43 449.51L440.99 449.18L445.26 445.36L449 441.21L450.09 439.72L450.79 438.43L450.99 437.07L450.81 436.45L450.46 435.95L441.42 426.87L441.01 426.32L440.92 425.83L441.11 425.45L441.55 425.1L442.34 425.01L443.23 425.16L444.02 425.64L454.22 434.66L454.38 434.72L454.52 434.64L463.21 424.11L463.51 423.61L463.59 423.13L463.42 422.68L463.03 422.25L443.39 406.03L442.98 405.43L443.07 404.71L443.22 404.36L443.26 404.28L443.82 403.86L444.51 404L465.35 418.95L466.31 419.17L467.13 418.63L467.15 418.6L473.88 407.84L474.03 406.96L473.5 406.24L473.47 406.22L460.11 398.51L446.89 390.61L433.81 382.52L420.88 374.24L419.83 373.48L419.49 372.66L419.54 372.21L419.99 372.12L420.84 372.4L432.47 377.51L443.94 382.94L473.21 397.65L476.49 399.74L477.3 399.96L478.04 399.54L479.97 396.84L481.58 394.07L482.87 391.22L483.84 388.3L483.79 387.57L483.29 387.04L476.98 384.02L470.62 381.29L464.5 378.65L457.86 375.47L440.16 366.55L440.01 366.42L439.96 366.32L439.81 365.91L439.92 365.41L440.42 365.3L459.86 372.73L478.5 380.37L486.1 382.85L486.5 382.84L486.75 382.53L491.13 370.84L491.25 370.11L491.08 369.39L490.65 368.79L490.02 368.4L466.25 359.5L465.9 359.13L466.01 358.63L466.14 358.51L466.58 358.28L467.87 357.97L469.38 358.13L481.92 361.63L492.44 364.63L493.39 364.56L493.87 363.74L496.82 349.76L496.79 349.46L496.53 349.3L468.46 342.11L467.89 341.6L467.96 340.85L468.14 340.65L468.34 340.48L469.29 339.95L470.17 339.88L497.44 345.64L497.67 345.61L497.77 345.42L500 331.46L499.98 330.89L499.74 330.38L499.33 329.99L498.8 329.79L482.38 327.28L473.92 325.77L464.12 323.61L463.95 323.54L463.7 323.1L463.91 322.64L464.12 322.48L465.06 322L466.13 321.92L499.44 325.79L500.01 325.74L500.51 325.47L500.86 325.03L501.01 324.48V324.4V312.34L500.64 311.44L499.75 311.05L492.98 310.67L489.55 310.3L486.2 310.19L473.76 309.86L457.83 308.7L439.41 306.97L438.97 306.81L439.28 306.45L440.78 305.64L442.1 305.32L471 303.8L499.91 302.95L500.62 302.7L500.91 302L501.07 295.55L500.87 292.74L500.48 290.22L500.29 289.79L499.92 289.5L498.25 289.01L496.08 288.99L472.93 290.83L448.87 292.3L448.8 292.28L448.76 292.23L448.69 291.99L448.75 291.78L448.92 291.64L451.82 290.59L455.16 289.9L476.17 287.18L498.66 284.85L498.72 284.84L499.23 284.66L499.64 284.29L499.86 283.79L499.87 283.24L497.57 270.73L497.31 270.08L496.82 269.57L496.18 269.29L495.47 269.28L470.03 273.96L469.23 273.83L469.05 273.04L469.11 272.57L469.54 271.61L470.45 271.08L494.32 265.63L495.39 265.22L496.02 264.57L496.22 263.84L496.1 262.93L493.28 252.84L493.04 251.91L492.7 250.41L492.37 250.09L491.9 250.05L467.46 256.17L466.59 256.2L465.79 255.86L465.36 255.54L464.88 254.96L464.8 254.5L465.45 254.02L489.33 246.71L490.2 246.3L490.71 245.72L490.87 244.95L490.67 244.01L486.72 233.26L486.32 232.6L485.71 232.15L484.96 231.96L484.2 232.06L455.01 242.01L454.45 242.09L452.77 241.99L452.21 241.62L452.26 240.95L452.53 240.72L467.64 234.18L482.82 228.42L482.91 228.39L483.44 228.02L483.77 227.48L483.87 226.85L483.71 226.23L478.22 215.17L477.57 214.52L476.67 214.67L464.95 220.53L453.08 226.03L440.01 232.01L427.38 237.29L425.06 238.11L424.19 238.19L424.75 237.51L426.75 236.08L437.35 229.23L448.65 222.32L460.65 215.34L473.34 208.3L473.37 208.28L473.77 207.74L473.65 207.08L466.64 196.43L466.33 196.18L465.95 196.27L432.59 216.69L432.18 216.78L432.04 216.38L432.21 215.56L432.72 214.89L438.75 210.22L446.4 204.62L456.34 197.67L457.79 196.74L461.46 194.21L462.37 193.22L462.77 192.22L462.62 190.95L461.73 189.39L458.12 184.77L454.48 180.46L453.83 180.09L453.14 180.38L444.91 187.35L436.36 193.8L434.81 194.78L433.61 195.11L433 194.96V194.33L433.6 193.23L434.93 191.58L436.73 189.93L443.56 183.98L450.35 177.22L450.71 176.45L450.3 175.71L445.32 170.69L441.51 165.85L440.76 165.38L439.91 165.63L439.82 165.72L436.14 169.54L432.17 173.33L427.93 177.1L423.41 180.84L422.36 181.5L421.31 181.79L421.16 181.78L420.88 181.51L420.94 181.12L427.16 173.58L433.18 167.31L435.25 164.71L436.55 162.95L436.77 162.3L436.46 161.69L436.45 161.68L426.89 153.78L426.35 153.49L425.73 153.42L425.14 153.58L424.65 153.96L402.41 179.1L402.38 179.13L402.3 179.15L402.11 179.12L401.97 178.47L402.06 178.22L404.18 174.74L407.9 168.91L408.45 168.16L418.4 154.61L421.76 150.68L421.73 150.26L421.72 150.25L411.17 142.68L410.49 142.38L409.76 142.37L409.07 142.66L408.56 143.19L408.51 143.28L404.47 150.19L400 157.19L389 173.35L378.81 187.51L376.17 191.49L375.88 191.75L375.49 191.77L375.47 191.76L375.13 191.6L374.99 191.09L376.87 186.49L379 182.28L383.44 174.2L388.58 164.26L393.22 156.05L397.84 147.51L400.17 143.14L402.6 139.07L402.73 138.31L402.26 137.69L402.23 137.67L391 131.64L390.13 131.5L389.52 132.13L374.5 163.67L374.16 163.98L373.7 163.97L373.05 163.69L372.85 163.5L372.86 163.24L385.46 129.56L385.47 129.25L385.23 129.04L375.05 124.77L373.16 124.12L372.34 124.1L371.6 124.28L370.43 125.18L369.56 126.8L364.01 141.94L362.92 144.43L361.35 147.43L361.04 147.75L360.58 147.83L360.17 147.73L359.69 147.38L359.45 146.94L359.48 146.42L366.79 122.96L366.8 122.94L366.71 122.21L366.12 121.76L352.14 118.18H352.12L351.55 118.28L351.23 118.76L348.51 130.44L346.91 136L345.15 141.37L344.71 141.93L344.03 142.11L343.61 142.09L343.16 141.87L343.01 141.39L343.02 141.35L347.02 120.81L347.13 119.62L347.02 118.24L346.57 117.28L345.63 116.84L333.3 114.87L332.47 115.07L332.02 115.79L326.03 150.6L325.83 151.15L325.45 151.59L324.86 152.06L324.68 152.15L324.2 152.06L324 151.6L327.11 115.46L326.84 114.62L326.05 114.22H326.04L313.23 113.46L312.83 113.58L312.6 113.92L312.58 114.03L309 174.56L309.07 175.08L309.34 175.52L309.76 175.83L310.27 175.95H310.3L316.39 176.14L322.41 176.63L328.37 177.42L334.27 178.5L339.66 179.76L344.99 181.27L350.28 183.04L355.51 185.05L363.45 188.65L370.97 192.76L378.08 197.37L384.77 202.48L387.02 204.4L393.79 210.77L399.95 217.48L405.5 224.55L410.44 231.96L413.18 236.7L415.66 241.54L417.87 246.47L419.82 251.5L422.13 258.75L423.91 266.19L425.17 273.81L425.9 281.63L426.12 289.18L425.86 296.64L425.14 304.01L423.95 311.28L422.39 318.07L420.41 324.77L418.02 331.39L415.2 337.92L415.07 338.93L415.53 339.83L418.24 342.87L419.15 344.25L419.79 345.59L420.61 347.97L421.21 350.36L421.58 352.75L421.73 355.15L421.64 357.78L421.28 360.42L420.04 364.58L417.66 369.92L413.05 379.04L411.98 380.5L410.69 381.67L409.33 382.48L407.8 383.05L407.76 383.06L407.46 383.35L407.47 383.76L411.52 391.89L414.16 396L418.78 401.92L422.58 406.78L424.78 410.03L426.98 413.72L428.22 416.38L428.86 418.49L429.25 420.62L429.4 422.88L429.3 425.15L428.94 427.54L428.35 429.91L427.5 432.34L426.44 434.7L425.35 436.55L423.95 438.3L422.26 439.97L420.26 441.55L415.99 444.47L411.76 447.08L407.57 449.38L403.43 451.36L392.79 455.82L384.18 458.87L373.83 461.82L363.16 464.38L352.16 466.56L340.84 468.36L329.7 469.51L317.59 469.99H317.24L303.71 470.08L294.28 469.9L285.91 469.42L277.99 468.57L263.32 466.25L249.09 463.26L238.71 460.44L228.32 456.91L217.89 452.66L207.45 447.7L203.28 445.4L199.38 442.89L195.76 440.18L192.41 437.25L190.82 435.58L189.51 433.83L188.45 431.99L187.67 430.06L187.16 428.11L186.91 426.08L186.98 423.55L187.52 420.85L188.51 417.97L189.96 414.91L193.18 409.64L196.9 404.85L205.08 395.27L206.83 392.89L208.5 390.18L210.11 387.15L211.64 383.8L211.69 383.42L211.52 383.11L207.58 378.59L204.32 374.02L201.74 369.4L199.84 364.73L198.96 361.48L198.5 358.31L198.45 355.22L198.81 352.21L199.55 349.38L200.68 346.62L202.2 343.94L204.1 341.33L204.71 340.48L204.96 339.85L204.91 339.05L204.57 338.07L202 332.02L199.82 325.9L198.03 319.7L196.63 313.43L195.36 304.81L194.81 296.05L194.8 290.07L195.05 284.22L195.56 278.5L196.32 272.92L197.33 267.47L198.59 262.15L200.11 256.97L201.89 251.92L205.35 243.72L209.3 235.9L213.77 228.47L218.74 221.42L222.8 216.37L225.99 212.82L229.46 209.33L233.2 205.9L237.22 202.53L241.26 199.42L245.4 196.5L249.65 193.77L254 191.22L262.55 186.91L271.47 183.28L280.77 180.33L290.45 178.05L294.47 177.39L298.77 176.92L307.12 175.93L307.66 175.65L307.65 175.03L307.09 172.59L306.64 161.71L306.25 155.81L305.99 147.84L305.61 137.53L305.17 126.01L305.1 114.45L304.74 113.64L303.92 113.33H303.89L291.07 114.17L290.45 114.45L290.18 115.08L290.26 117.4L290.66 120.61L291.19 126L292.16 145.84L292.13 145.5L292.12 145.48L292.06 145.5L291.64 146.81L291.26 147.33H290.53L290.3 146.88L285.82 115.68L285.47 114.96L284.66 114.81L271.45 116.71L270.68 116.94L270.18 117.35L269.95 117.96L269.98 118.75L273.96 140.38L273.93 141.47L273.46 142.45L273.17 142.82L272.72 143.28L272.34 143.38L272.04 143.14L271.81 142.54L265.85 118.74L265.59 118.35L265.13 118.31L252.08 121.58L251.58 121.84L251.28 122.33L251.04 123.34L250.98 124.77L251.22 126.24L256.4 145.03L256.84 147.26L256.68 149.18L256.39 149.5L255.96 149.44L255.84 149.32L254.34 146.65L253.15 143.71L247.73 127.56L246.7 125.2L246.17 124.57L245.46 124.18L244.65 124.06L243.85 124.25L233.17 128.89L232.52 129.34L232.09 130L231.94 130.77L232.09 131.54L236.95 143.94L242.41 158.49L243.52 161.9L244.07 164.55L244.14 165.73L243.99 166.18L243.62 165.89L243.02 164.87L238.66 155.96L234.53 146.93L230.55 138.02L227.85 132.53L227.23 131.97L226.4 131.98L220.89 134.59L215.79 137.84L215.27 138.6L215.36 139.52L218.28 145.52L220.87 150.32L226.26 159.97L231.25 169.5L235.84 178.88L240.03 188.14L240.22 189.11L239.34 188.67ZM393.17 238.17L396.52 244.89L399.35 251.86L407.69 273.96L409.92 280.44L411.59 286.95L412.71 293.48L413.26 300.03L413.18 307.85L412.32 315.69L410.91 322.33L409.22 327.75L407.07 333.04L404.98 337.35L402.75 341.42L400.38 345.24L397.87 348.83L394.69 352.68L390.3 357.29L382.3 365.24L382.18 365.45L382.25 365.72L382.43 366.01L382.45 366.02L387.5 362.1L393.7 356.87L395.05 355.53L396.22 353.98L398.69 351L402.03 346.78L402.27 346.43L405.14 342.04L407.75 337.62L410.09 333.19L412.16 328.74L413.96 324.28L415.49 319.79L416.76 315.29L417.76 310.77L418.9 304.23L419.69 298.31L420.14 292.99L420.25 288.28L420.02 282.28L419.5 276.42L418.71 270.68L417.62 265.08L416.26 259.62L414.62 254.28L412.69 249.08L410.48 244.01L408.25 239.58L405.8 235.26L403.12 231.04L400.22 226.93L397.08 222.92L393.72 219.02L390.14 215.23L386.32 211.55L379.89 206.02L373.2 201.06L366.23 196.67L358.99 192.84L351.76 189.69L344.27 187.07L336.54 184.97L328.55 183.4L323.27 182.66L318.2 182.19L313.32 181.97L308.65 182.02L301.5 182.48L294.69 183.28L288.24 184.43L282.13 185.93L277.07 187.5L272.05 189.33L267.07 191.44L262.13 193.81L257.24 196.45L252.39 199.36L247.58 202.54L242.82 205.99L239.22 208.84L235.77 211.83L232.48 214.95L229.33 218.22L226.02 222.01L222.89 225.97L219.95 230.1L217.19 234.41L213.86 240.18L210.93 245.86L208.4 251.45L206.26 256.94L204.62 262.09L203.27 267.52L202.21 273.21L201.44 279.18L200.86 286.12L200.56 292.46L200.71 298.62L201.43 305.77L202.15 310.49L203.07 315.12L204.17 319.63L205.47 324.05L206.95 328.36L208.63 332.56L210.49 336.67L212.55 340.67L215.97 346.45L218.27 349.79L220.76 352.92L223.43 355.83L226.29 358.54L229.66 361.28L233.26 363.76L237.08 365.99L241.13 367.96L250.28 371.63L259.52 374.59L268.85 376.84L278.27 378.38L278.8 378.44L286.63 379.07L293.42 378.94L300.61 378.19L307.98 377.09L309.52 376.76L310.03 376.45L309.5 376.18L307.95 375.94L300.74 374.91L293.43 373.41L290.38 372.53L286.22 371.05L279.03 368.6L278.88 368.52L278.71 368.14L278.93 367.77L279.46 367.44L280.48 367.26L283.53 367.78L286.55 368.05L289.55 368.08L292.52 367.87L296.63 367.17L300.69 365.99L303.24 364.86L305.8 363.24L308.51 361.08L311.38 358.33L325.92 343.77L340.62 330.2L348.96 322.46L357.04 314.65L364.85 306.78L372.4 298.86L377.34 293.16L381.75 287.24L385.63 281.1L388.99 274.73L390.87 270.13L392.31 265.18L393.28 259.89L393.81 254.24L393.75 250.83L393.3 246.35L392.18 238.49L392.06 237.25L392.18 236.79L392.55 237.1L393.17 238.17ZM403.285 287.109L403.152 285.39L402.37 283.852L401.06 282.731L399.42 282.197L398.109 282.041L396.39 282.174L394.852 282.956L393.731 284.266L393.197 285.906L392.934 288.111L393.068 289.83L393.849 291.367L395.16 292.488L396.8 293.023L398.11 293.179L399.83 293.045L401.367 292.264L402.488 290.953L403.023 289.314L403.285 287.109ZM380.96 338.43L382.4 338.49L383.71 338.19L385.34 337.17L388.06 334.14L390.44 330.35L392.61 325.82L394.09 321.61L395.1 316.96L395.96 312.33L395.97 310.02L395.83 309.4L395.61 309.15L395.3 309.28L394.91 309.79L391.24 316.43L390.18 318.1L388.74 319.83L386.93 321.61L384.76 323.45L378.74 328.19L377.15 329.84L376.21 331.7L375.95 333.71L376.11 334.68L376.47 335.59L377.18 336.6L378.21 337.45L379.44 338.05L380.96 338.43ZM349.48 362.64L351.67 363.57L353.6 363.86L356.05 363.7L358.58 363.27L360.98 362.61L363.32 361.7L365.3 360.64L367.11 359.37L368.6 357.98L369.83 356.39L371.28 353.94L372.26 351.79L372.84 349.72L373 347.82L372.88 346.43L372.54 344.99L371.27 342.14L370.99 341.79L370.58 341.53L369.34 341.15L367.92 340.96L364.44 341.07L360.07 341.89L356.05 343.2L353.6 344.43L351.53 345.88L349.85 347.54L348.55 349.41L347.69 351.39L347.17 353.56L346.99 355.92L347.17 358.48L347.43 359.78L347.84 360.87L348.4 361.75L349.11 362.41L349.48 362.64ZM216.42 358.04L214.17 355.58L211.95 352.78L207.24 345.71L206.69 345.32L206.03 345.48L205.97 345.53L205.11 346.61L204.6 347.94L204.69 349.7L205.55 351.94L207.27 354.75L209.39 357.37L209.89 357.89L213.12 361.03L216.53 363.99L220.13 366.76L223.92 369.35L229.23 372.35L236.78 376L245.16 379.73L250.2 381.68L261.81 385.25L268.76 387.09L281.38 389.38L294.06 390.91L301.35 391.45L308.66 391.73H314.27L321 391.5L333.32 390.69L340.07 389.88L346.94 388.75L353.94 387.29L361.06 385.51L367.85 383.48L374.46 381.1L380.88 378.38L387.13 375.31L392.74 372.17L398.39 368.41L403.55 364.13L406.78 360.92L409.79 357.48L412.58 353.8L415.15 349.87L415.91 348.08L415.99 347.28L415.87 346.54L415.12 345.33L413.67 344.34L413.23 344.31L412.88 344.59L411.7 346.88L410.35 349.45L409.18 351.29L405 356.56L400.59 361.2L395.96 365.19L391.1 368.54L382.76 373.29L379.18 375.05L375.99 376.4L365.31 380.09L354.46 383.01L346.69 384.61L338.85 385.83L330.91 386.66L322.88 387.11L311.1 387.28L298.89 387.04L289.75 386.47L280.53 385.39L271.22 383.82L261.83 381.74L255.37 379.94L248.7 377.67L241.99 375.01L236.03 372.29L234.7 371.62L229.82 368.82L225.14 365.63L220.68 362.03L216.42 358.04ZM322.5 365.33L321.75 366.3L319.54 369.3L318.23 371.7L318.19 372.31L318.54 372.8L319.95 373.57L321.42 373.98L322.3 374.04L324.53 373.9L326.55 373.49L328.38 372.8L330 371.83L331.75 370.24L333.19 368.22L333.6 367.28L333.78 366.32V365.9L333.29 364.1L332.18 362.52L330.65 361.37L328.92 360.87L327.43 361.08L325.84 361.91L324.21 363.32L322.5 365.33ZM388.78 395.75L377.1 399L365.35 402L351.59 404.55L337.59 406.36L323.33 407.45L308.83 407.8L295.91 407.48L283.12 406.52L270.47 404.92L257.94 402.69L245.84 399.9L233.87 396.51L224.68 393H224.61L224.56 393.03L224.29 393.27L224.16 393.51L224.35 393.72L234.43 398.79L238.81 400.68L242.75 402.13L253.39 405.36L264.09 408.02L274.85 410.12L285.68 411.66L295.14 412.54L304.66 413L314.22 413.03L323.83 412.64L334.26 411.74L344.35 410.35L354.09 408.48L363.49 406.13L370.09 404.1L376.86 401.65L383.79 398.8L390.89 395.54L391.64 394.95L391.71 394.52L391.2 394.65L388.78 395.75ZM196.08 433.48L196.69 434.7L197.26 435.8L197.59 435.97L197.74 435.67L197.82 431.31L197.92 429.52L198.26 427.34L199.69 421.8L200.66 419.23L202.03 416.59L205.02 411.67L212.86 400.32L213.93 398.58L214.15 397.83L214.05 397.41L213.63 397.33L212.89 397.57L212.12 397.97L210.9 398.84L207.17 402.28L203.73 405.98L200.1 410.6L196.86 415.56L195.76 417.75L194.85 420.27L194.24 422.92L193.97 425.45L194.02 427.83L194.39 429.92L195.06 431.8L196.08 433.48ZM395.31 406.47L397.6 413.28L399.36 420.32L400 424.05L400.34 427.54L400.39 430.8L400.13 433.83L398.48 443.75V443.9L398.72 444.18L399.08 444.14L399.42 443.92L402.85 441.56L405.11 439.61L406.71 437.65L407.71 435.56L408.15 433.41L408.1 431.16L407.13 426.59L405.2 421.34L404.09 418.89L402.37 415.6L400.46 412.41L398.34 409.31L396.02 406.31L395.67 406.08L395.62 406.07L395.3 406.14L395.31 406.47Z" fill="black"/>
<path d="M540.62 194.42L540.8 194.79L544.55 202.71L548.05 210.75L552.32 221.64L556.15 232.72L556.06 233.02L555.79 233.24L555.49 233.32L555.23 233.15L555.21 233.1L547.8 215.69L539.83 198.57L538.33 195.58L536.81 192.62L527.64 176.1L517.93 159.87L517.9 159.82L517.91 159.51L518.15 159.32L518.49 159.23L518.79 159.33L525.49 168.94L531.79 178.81L536.23 186.36L540.43 194.06L540.62 194.42Z" fill="black"/>
<path d="M79.1299 196.77L77.6799 199.72L69.9899 216.65L62.8399 233.86L62.8099 233.91L62.5599 234.08L62.2699 234L61.9999 233.79L61.9099 233.49L65.5799 222.55L69.6999 211.79L73.0699 203.85L76.6899 196.01L76.8699 195.64L77.0499 195.29L81.1299 187.67L85.4299 180.2L91.5399 170.43L98.0699 160.9L98.3599 160.8L98.6899 160.88L98.9299 161.07L98.9399 161.38L98.9199 161.42L89.4899 177.5L80.6099 193.84L79.1299 196.77Z" fill="black"/>
<path d="M279.07 228.77L262.6 244.36L248.01 257.7L244.81 260.76L241.3 264.51L233.31 274.02L230.68 277.55L228.32 281.2L226.22 284.96L224.38 288.83L222.98 292.34L221.78 295.93L218.88 306.69L216.67 317.4L216.48 318.02L216.21 318.27L216.15 318.28L215.45 317.99L215.16 317.28L215.09 309.93L214.76 303.34L214.18 298.82L213.11 294.05L211.55 289.01L209.49 283.72L208.72 281.08L208.06 276.97L207.81 273.62L207.87 270.13L208.6 263.68L210 257.26L212.04 250.86L214.75 244.49L217.13 239.8L219.72 235.27L222.51 230.89L225.52 226.66L229.37 221.83L233.52 217.21L237.96 212.81L242.7 208.64L244.99 206.81L248.25 204.42L251.65 202.2L255.16 200.14L258.81 198.25L271.04 193.3L277.37 191.19L283.71 189.72L292.33 188.25L298.32 187.5L303.99 187.14L309.14 187.07L313.78 187.27L317.9 187.75L322.62 188.72L327.2 190.08L332.59 192.28L333.88 193L334.24 193.5L333.69 193.79L332.22 193.87L326.6 193.98L321.53 194.45L318.98 194.92L316.56 195.61L314.26 196.51L312.09 197.63L309.82 199.13L307.71 200.9L289.03 219.73L283.45 224.84L279.07 228.77ZM303.83 190.62L298.53 191.56L294.4 192.88L292.71 193.68L291.16 194.63L289.89 195.66L288.81 196.86L288.79 196.88L288.24 197.91L287.96 199.16L287.97 200.62L288.27 202.3L288.57 202.81L289.11 203.07L291.4 203.14L293.48 202.67L294.88 201.98L296.47 200.56L298.62 197.94L301.84 193.89L304.6 190.92L304.81 190.58L304.41 190.54L303.83 190.62ZM268.21 211.43L268.13 210.82L267.88 210.38L267.45 210.12L266.84 210.03L264.96 210.13L263.14 210.46L261.16 211.1L256.77 213.34L253.33 215.85L252.15 217.08L251.39 218.2L250.98 219.29L250.94 220.39L251.24 221.3L251.88 222.19L252.17 222.48L253.77 223.52L255.81 224.09L256.5 224.06L257.32 223.79L259.31 222.51L260 221.97L263.83 218.84L266.26 216.28L267.7 213.85L268.07 212.66L268.21 211.43ZM227.77 250.66L230.73 246.2L234.25 241.56L236.53 239.15L239.77 236.4L242.7 233.92L245.51 231.15L245.88 230.29L245.66 228.83L245.2 227.98L244.5 227.21L243.63 226.92L241.24 227.36L239.55 228.26L239.1 228.65L236.38 231.41L234.01 234.54L231.96 238.06L230.26 241.95L227.03 250.26L227.02 250.37L227.05 250.47L227.2 250.67L227.49 250.89L227.77 250.66ZM217.319 276.721L218.17 277.02L219.086 277.111L220.03 276.992L220.967 276.665L222.677 275.451L223.955 273.654L224.606 271.547L224.532 269.451L224.222 268.509L223.744 267.686L223.115 267.014L222.361 266.519L221.51 266.221L220.595 266.129L219.65 266.249L218.713 266.575L217.003 267.789L215.725 269.587L215.074 271.694L215.148 273.789L215.458 274.732L215.936 275.555L216.565 276.227L217.319 276.721Z" fill="black"/>
<path d="M381.59 215.251L383.74 217.311L385.52 219.961L386.02 221.231L386.14 222.481L385.64 224.251L384.83 225.511L383.83 226.531L381.95 227.601L379.5 228.141L378.28 228.101L377.14 227.841L375.17 226.791L373.63 225.111L372.53 222.871L372.02 220.281L372.06 218.471L372.43 216.451L373.12 214.221L374.15 211.771L374.84 211.011L375.84 210.771L377.38 211.331L379.18 212.821L379.61 213.271L380.34 214.171L381.59 215.251Z" fill="black"/>
<path d="M246.94 266.001L247.33 265.531L253.48 259.001L261.38 251.591L267.11 246.321L274.1 239.971L288.03 228.211L288.3 228.051L288.56 227.991L288.9 227.971L289.01 227.991L289.18 228.191L289.11 228.441L271.22 246.561L260.93 256.631L250.78 265.611L240.25 274.001L239.6 274.301L239.76 273.601L240.12 272.921L241.55 270.991L243.46 269.351L245.05 267.991L246.57 266.491L246.62 266.451L246.94 266.001Z" fill="black"/>
<path d="M347.85 244.14L348.45 243.83L348.99 243.23L349.93 241.13L351.33 236.13L352.56 230.23L353.1 228.58L353.65 227.91L353.94 228.73L354.85 234.19L356.52 240.73L357.32 242.29L358.01 242.92L358.94 243.44L362.8 244.97L365.49 245.64L369 246.23L370.62 246.84L371.13 247.34L370.55 247.74L368.91 248.04L363.73 248.88L361.41 249.45L359.37 250.23L357.91 251.13L357.04 252.12L356.2 253.92L353.82 265.66L353.36 266.22L352.68 266.26L352.4 265.93L352.28 265.31L351.84 261.36L350.98 257.4L350.94 257.26L350.17 254.54L349.47 252.75L348.66 251.38L347.73 250.41L346.15 249.48L344.01 248.94L338.64 248.22L336.66 247.86L335.98 247.44L336.61 246.95L338.56 246.41L347.85 244.14Z" fill="black"/>
<path d="M306.53 274.18L306.58 273.63L306.42 273.24L306.07 273.01L305.52 272.95L299.57 273.05L293.64 272.94L287.73 272.61L281.85 272.07L274.61 271.1L267.4 269.8L267.11 269.66L267.37 269.48L270.85 268.57L277.83 267.53L284.53 266.76L290.94 266.25L297.08 266L301.58 266.14L305.3 266.72L305.72 266.65L305.97 266.3V266.28L310.44 238.32L310.6 237.88L310.83 238.29L311.78 241.83L314.34 265.37L314.5 265.98L314.81 266.43L315.26 266.72L315.87 266.86L341.71 269.08L342.06 269.27L342.16 269.65V269.67L341.96 270.13L341.11 270.58L334.33 271.61L327.66 272.39L321.08 272.93L314.61 273.21L314.24 273.47L314.22 273.6L313.83 280.77L313.21 287.94L312.36 295.09L311.29 302.24L311.02 304.21L310.42 308.05L309.6 310.79L309.4 311.06L309.28 310.75L307.38 294.39L306.2 280.57L306.16 277.05L306.53 274.18Z" fill="black"/>
<path d="M553.43 314.42L529.04 305.91L528.16 305.49L527.86 305.06L528.13 304.61L528.97 304.14L541.14 299.33L553.19 295.38L553.52 295.04L562.73 263.91L562.96 263.29L563.66 262.98L564.01 263.23L564.28 263.82L573.78 294.13L573.95 294.4L574.14 294.49L580.83 296.49L587.78 298.81L595.02 301.47L602.52 304.45L603.12 304.92L602.47 305.33L577.16 313.1L575.47 313.81L574.13 314.68L573.81 315.01L573.58 315.48L564.41 344.88L563.99 345.9L563.57 346.24L563.16 345.9L562.76 344.87L554.04 315.06L553.81 314.65L553.43 314.42ZM561.45 299.88L546.54 304.56L546.31 304.7L546.55 304.84L560.68 308.7L561.32 308.99L561.84 309.46L562.21 310.07L562.38 310.77L564.03 327.6L564.14 327.85L564.41 327.92L564.69 327.9L564.84 327.84L564.89 327.69L565.01 325.22L565.32 323.55L567.22 316.53L568.33 309.8L568.69 309.13L569.48 308.72L586.31 304.8L586.79 304.56L586.32 304.31L569.39 299.48L568.65 299.03L568.24 298.27L564.6 282.57L564.44 282.27L564.21 282.55L563.34 284.78L563.06 286.03L562.8 292.66L561.96 299.3L561.79 299.66L561.45 299.88Z" fill="black"/>
<path d="M63.6599 296.7L63.9 296.95L90.5699 306.93L90.81 307.3L90.7299 307.55L90.2599 307.82L89.56 307.99L78.43 312.19L66 316.19L64.42 316.84L63.89 317.15L63.55 317.47L63.37 317.85L54.42 349.25L54.1899 349.46H54.02L53.75 349.14L49.44 336.51L45.35 322.26L43.82 317.78L43.6 317.37L43.03 316.87L42.18 316.56L40.83 316.26L29.72 312.78L15.4799 307.92L15.22 307.69L15.21 307.34L15.59 306.87L16.31 306.48L28.9799 302.06L42.7 298.05L43.63 297.52L44.16 296.59L48.08 282.94L52.58 269.04L53.8 266.83L54.22 266.62L54.6299 266.83L54.7 266.97L63.6599 296.7ZM56.0399 311.35L71.11 307.57L71.6299 307.3L71.1299 307.01L57.27 302.69L56.56 302.35L55.9799 301.83L55.56 301.17L55.3499 300.42L53.8499 287.02L53.67 286.3L53.5399 286.14L53.0699 286.05L52.75 286.4L48.86 301.57L48.66 302.04L48.2 302.55L47.58 302.85L30.57 307.11L30.25 307.27L30.57 307.43L48.18 311.94L48.7 312.23L48.96 312.74L52.53 328.22L52.97 329.77L53.3499 330.27L53.6599 329.71L53.9 328.08L55.4 312.09L55.5999 311.62L56.0399 311.35Z" fill="black"/>
<path d="M321.59 338.291L322.4 337.061L324.33 334.361L334.8 322.821L345.45 311.921L356.3 301.671L367.34 292.051L370.58 289.601L374.39 287.191L374.68 287.141L374.88 287.331L374.91 287.431L374.75 287.721L372.12 290.371L368.45 294.581L364.63 298.911L346.95 316.641L342.72 320.601L336.82 325.741L329.75 331.941L321.99 338.661L321.14 339.181L321.59 338.291Z" fill="black"/>
<path d="M263.02 291.541L264.08 297.641L264.48 298.891L265.16 299.861L266.08 300.541L267.26 300.961L273.67 302.251L274.03 302.471L273.96 302.891L273.8 303.121L273.36 303.471L272.75 303.681L269.13 304.471L266.38 305.311L265.94 305.561L265.61 305.931L264.75 307.511L264.02 309.411L263.42 311.621L263.01 313.941L262.81 314.851L262.52 315.181L262.14 314.951L261.67 314.151L261.06 312.451L260.72 310.411L259.27 307.321L258.7 306.441L257.98 305.731L256.83 305.051L254.5 304.341L251.36 303.821L250.98 303.641L251.08 303.221L251.1 303.191L251.59 302.751L252.31 302.471L255.99 301.481L258.67 300.441L259.69 299.621L260.25 298.451L261.2 294.601L262.18 291.461L262.69 290.641L263.02 291.541Z" fill="black"/>
<path d="M223.55 334.49L220.72 338.04L220.31 338.28L219.84 338.22L219.06 337.46L217.93 335.71L216.2 332.24L215.25 329.07L215.11 327.77L215.18 326.53L215.45 325.46L215.94 324.48L216.9 323.45L218.33 322.53L219.84 322.02L221.85 321.95L223.98 322.52L224.87 323.33L225.64 324.97L226.13 327.48L226.02 329.21L225.56 330.96L224.73 332.72L223.55 334.49Z" fill="black"/>
<path d="M250.66 350.15L249.85 350.57L249.37 351.35L244.8 367.4L244.46 368.06L244.23 367.36L243.31 361.57L242.07 355.54L241.38 353.52L240.29 351.82L239.18 350.75L237.85 349.87L235.79 348.98L233.48 348.38L230.89 348.06L228.05 348.03L227.31 347.77L226.37 346.96L226.28 346.76L226.46 346.63L240.14 342.33L240.47 342.06L241.19 340.36L241.81 338.04L244.49 325.44L244.83 324.77L245.05 324.67L245.65 324.95L245.83 325.31L247.43 334.46L249.26 341.38L249.43 341.77L250.44 342.81L252.16 343.48L263.71 346.11L264.82 346.45L265.19 346.78L264.82 347.1L263.7 347.42L250.66 350.15Z" fill="black"/>
<path d="M62.2901 439.44L63.3201 441.48L64.8301 443.47L65.1501 444.05L65.2101 444.71L64.9901 445.34L64.5301 445.82L64.3501 445.92L58.7001 448.73L58.5401 448.75L58.4201 448.64L50.2201 433.46L50.1201 432.91L50.4801 432.49L55.9801 429.12L56.4501 429.02L56.7201 429.43L57.5401 430.75L57.9201 431L58.3701 431.01L60.0501 430.53L61.4401 429.91L79.8001 419.89L96.2001 411.4L96.8101 410.74L96.8501 409.84L96.2301 407.85L96.2401 407.4L96.5201 407.05L100.84 404.2L101.64 404.07L102.27 404.58L102.32 404.69L102.43 404.99L104.51 409.89L107.01 414.63L111.31 422.42L114.65 429.46L115.76 432.73L115.97 434.16V435.61L115.75 437.02L115.29 438.47L114.47 440.18L113.36 441.93L111.95 443.69L110.25 445.49L107.7 447.56L104.9 449.02L102.75 449.7L100.47 450.05L98.0701 450.09L95.5401 449.82L93.4901 449.24L91.0101 448.1L90.6401 448.04L90.5201 448.41L90.2901 451.01L89.5001 453.34L88.1401 455.39L86.2101 457.16L80.8301 461.22L77.3601 464.06L77.2101 464.22L77.0301 464.64L77.0401 465.1L77.2501 465.51L77.6201 465.79L79.1501 466.71L80.6001 467.99L80.9001 468.48L80.9801 469.05L80.8101 469.61L80.4301 470.04L80.2901 470.13L73.3001 474.17L72.8201 474.27L72.4301 473.98L69.8601 469.78L67.9601 465.35L67.4801 463.86L67.4401 463.36L67.6001 462.94L70.3801 458.76L72.6201 456.33L76.8601 452.71L81.4801 448.18L82.8901 446.41L83.7401 444.62L83.7801 444.2L83.6401 443.83L76.7201 432.52L76.2601 432.17L75.6801 432.22L62.5601 438.74L62.2901 439.04V439.44ZM84.5801 428.06L84.1201 428.7L84.0901 429.28L86.8501 433.81L90.0401 438.36L91.4401 439.96L92.6801 440.76L95.5301 441.39L98.2501 441.28L101.03 440.5L103.49 439.15L104.47 438.3L105.28 437.33L105.96 436.17L106.34 435.06L106.46 433.82L106.34 432.47L105.97 431L104.81 427.68L103.98 425.91L102.31 422.96L101.18 420.01L100.67 419.32L99.9701 419.44L85.1001 427.59L84.8101 427.8L84.5801 428.06Z" fill="black"/>
<path d="M547.76 436.99L548.71 437.04L549.07 436.91L548.85 436.6L548.04 436.1L518.65 420.34L517.77 420.26L517.1 420.83L517.09 420.85L516.58 421.92L516.14 422.51L515.5 422.89L514.77 422.99L514.05 422.79L514.01 422.77L510.17 420.71L509.62 420.3L509.35 419.82V419.28L509.62 418.66L517.35 406.32L518.03 405.83L518.86 405.97L523.39 408.8L523.78 409.27L523.7 409.87L522.57 412.24L522.52 412.61L522.78 412.87L532.21 417.63L553.92 429.56L556.53 431.01L558.28 432.08L559.72 432.58L561.11 432.68L562.78 432.45L563.35 432.43L563.92 432.66L566.39 434.2L567.03 435.05L566.95 436.11L562.95 444.51L562.09 445.45L560.85 445.75L514.45 443.01L513.82 443.1L514.31 443.52L524.19 449.49L535.17 456.42L542.36 460.7L543.13 460.91L543.93 460.65L544.72 459.9L545.23 459.44L545.87 459.17L546.56 459.13L547.23 459.32L551.23 461.22L551.75 461.57L552.01 461.99V462.48L551.74 463.05L542.51 476.92L542.19 477.18L541.78 477.11L539.79 475.9L538.02 474.45L536.43 472.74L536.2 472.26L536.28 471.73L536.44 471.39L537.51 470.12L537.81 469.52L537.55 468.91L537.45 468.83L509.88 450.85L506.76 448.6L503.01 445.6L502.97 445.57L502.46 445.32L501.9 445.28L501.36 445.48L500.95 445.86L498.48 449.32L498.06 449.61L497.59 449.43L493.7 446.22L493.35 445.8L493.17 445.27L493.21 444.72L493.44 444.22L500.85 433.89L501.17 433.61L501.59 433.54L522.62 435.17L543.13 436.27L545.77 436.65L547.76 436.99Z" fill="black"/>
<path d="M84.97 477.49L84.99 477.52L85.45 477.74L85.93 477.56L89.55 474.5L92.22 472.27L99.86 465.3L111.28 455.21L113.87 452.79L116.51 449.99L116.99 449.27L117.07 448.62L116.83 448.13L116.31 447.7L115.67 447.17L115.42 446.6L115.59 446.02L116.15 445.4L119.55 442.6L120.22 442.19L120.87 442.08L121.5 442.28L122.1 442.77L146.8 469.73L147.11 470.45L146.71 471.12L136.65 479.81L136.04 480L135.5 479.67L135.46 479.61L133.71 477.2L131.42 475.05L131.25 474.69L131.43 474.35L131.53 474.29L133.05 473.46L134.22 472.41L134.98 471.17L135.19 469.97L135.08 469.25L134.38 467.98L132.93 466.38L128.53 461.91L125.24 458.02L124.51 457.31L123.75 457.03L122.94 457.17L122.1 457.75L111.59 467.37L111.2 467.9L111.04 468.54L111.14 469.19L111.48 469.75L115.85 474.52L116.27 474.79L116.78 474.73L118.65 473.75L120.42 472.36L121.1 472.06L121.69 472.54L124.84 477.67L125 478.52L124.56 479.28L114.4 487.66L114.19 487.81L113.43 488.02L112.66 487.84L111.24 486.77L109.61 484.96L109.23 484.24L109.12 483.43L109.31 482.63L109.76 481.95L110.27 481.26L110.5 480.53L110.31 479.28L109.41 477.94L105.21 473.53L104.82 473.36L104.43 473.5L92.71 483.61L92.6599 483.66L92.3 484.45L92.59 485.27L103.96 498.44L104.39 498.77L104.92 498.92L105.45 498.85L105.92 498.57L105.94 498.56L109.17 495.6L109.76 495.19L110.35 495.08V495.07L110.91 495.24L111.47 495.7L115.75 500.37L115.78 500.41L115.93 500.97L115.62 501.47L103.26 509.88L103.05 509.94L102.84 509.82L78.1299 481.19L77.96 480.7L78.18 480.24L82.5099 476.27L82.95 476.05L83.4399 476.14L84.22 476.67L84.97 477.49Z" fill="black"/>
<path d="M528.82 483.03L529.05 485L529.04 487.09L528.81 489.35L528.36 491.61L527.7 493.87L526.85 496.02L525.88 497.9L524.78 499.56L524.33 500.14L521.45 503.36L518.16 506.26L516.35 507.56L514.47 508.65L512.54 509.54L510.55 510.24L507.28 510.92L503.87 511.1L501.31 510.95L498.82 510.59L496.41 510.03L494.07 509.27L491.79 508.29L489.59 507.11L486.96 505.38L484.42 503.39L481.96 501.13L479.59 498.6L477.35 495.81L475.48 492.97L473.98 490.1L472.85 487.18L472.32 484.98L471.98 482.33L471.85 479.23L471.92 475.69L472.14 473.35L472.58 471.12L473.24 469L474.12 466.99L475.31 464.94L476.69 463.05L478.2 461.33L479.83 459.79L481.59 458.43L483.97 456.97L486.56 455.78L489.33 454.88L492.31 454.26L495.9 453.99L499.32 454.33L503.15 455.26L506.77 456.51L510.19 458.07L513.39 459.95L516.8 462.5L519.93 465.45L522.79 468.83L525.38 472.62L526.46 474.65L527.36 476.96L528.12 479.65L528.82 483.03ZM484.62 467.27L482.87 469.5L481.89 471.37L481.2 473.42L480.79 475.65L480.67 478.06L480.75 479.6L481.11 481.83L481.77 484.02L482.71 486.19L483.95 488.33L486.58 491.93L489.44 495.02L492.55 497.6L495.9 499.68L499.1 501.09L502.25 501.92L505.25 502.14L508.16 501.75L510.13 501.1L512.05 500.12L513.82 498.88L515.53 497.31L517.05 495.56L518.25 493.75L519.17 491.8L519.76 489.82L520.07 486.89L519.76 483.91L518.84 480.77L517.34 477.62L515.16 474.33L512.49 471.3L509.32 468.52L505.65 466L503.48 464.82L501.29 463.94L499.07 463.35L496.84 463.05L495.29 463.01L492.89 463.2L490.67 463.67L488.64 464.42L486.8 465.45L484.62 467.27Z" fill="black"/>
<path d="M163.57 504.541L145.38 535.26L145.21 535.741L145.25 536.25L145.48 536.701L145.88 537.021L145.93 537.051L147.41 537.76L147.43 537.771L147.69 538.101L147.62 538.531L145.35 542.481L145.01 542.861L144.55 543.07L144.05 543.091L143.57 542.911L143.52 542.871L130.1 533.25L129.96 533.061L130.03 532.841L133.36 528.211L133.52 528.101L133.67 528.19L135.18 529.591L135.8 529.871L136.34 529.861L136.91 529.421L142.92 520.701L148.58 511.781L154.52 502.121L160.68 492.651L160.76 492.201L160.49 491.851L160.46 491.831L158.82 490.891L157.35 489.771L156.09 488.5L155.68 488.19L155.18 488.061L154.67 488.141L154.24 488.411L154.21 488.44L134.9 507.741L131.95 510.811L129.78 513.331L127.03 516.57L124.54 518.981L124.5 519.021L124.27 519.591L124.53 520.161L126.71 522.081L127.06 522.811L126.8 523.581L123.17 527.69L123 527.781L122.75 527.711L110.56 516.19L110.08 515.591L109.93 514.991L110.11 514.411L110.61 513.831L113.18 511.621L113.72 511.32L114.34 511.25L114.93 511.421L115.41 511.82L115.44 511.861L116.16 512.591L116.94 512.931L117.01 512.94L117.67 512.811L118.44 512.241L120.13 510.461L122.31 507.801L124.04 505.701L134.76 493.991L145.76 482.861L146.18 482.221L146.29 481.471L146.07 480.741L145.56 480.181L145.29 480.021L144.14 479.471L143.67 478.911L143.79 478.201L143.86 478.101L147.4 474.101L148.12 473.491L148.85 473.271L149.59 473.44L150.35 473.991L155.84 479.13L161.47 483.891L167.24 488.291L173.15 492.311L173.47 492.601L173.68 492.991L174.06 495.031L173.96 496.461L173.56 498.831L171.89 517.061L169.2 540.19L169.26 541.021L169.79 540.421L187.89 509.961L187.97 509.781L187.94 509.38L187.69 508.921L187.58 508.781L186.92 508.291L185.99 508.021L185.35 507.611L185.24 506.871L185.29 506.75L187.37 502.38L187.38 502.361L187.73 502.081L188.17 502.13L202.1 510.171L202.61 510.57L202.87 511.041L202.88 511.591L202.64 512.201L200.17 516.481L200.06 516.641L199.67 516.94L199.19 517.051L198.71 516.951L198.32 516.651L197.64 515.871L197.16 515.51L196.57 515.38L195.98 515.51L195.5 515.88L195.37 516.061L182.82 536.791L176.15 547.421L168.44 559.01L168.21 559.171L167.92 559.13L159.87 554.481L159.62 554.221L159.55 553.871L163.39 515.241L163.91 511.341L164.13 508.021L163.9 504.621L163.78 504.341L163.57 504.541Z" fill="black"/>
<path d="M436.72 508.161L438.07 509.661L439.74 512.181L440.6 513.541L450.44 528L460.04 542.57L460.41 542.931L460.89 543.111L461.41 543.081L461.86 542.831L461.98 542.711L463.36 541.161L464 540.801L464.58 541.271L467.44 545.94L467.61 546.661L467.13 547.231L453.46 555.601L452.59 555.811L451.88 555.26L449.41 551.611L449.39 551.581L449.21 551.111L449.22 550.601L449.43 550.141L449.8 549.791L451.35 548.841L451.76 548.461L451.99 547.951L452 547.401L451.8 546.88L451.78 546.851L428.63 512.801L428.16 512.341L427.55 512.091H426.9L426.29 512.351L420.29 516.431L419.88 517.031L420 517.75L422.57 521.94L422.85 522.581L422.86 523.161L422.59 523.671L422.05 524.121L417.63 526.831L416.89 527.151H416.23L415.65 526.851L415.15 526.241L408.36 515.141L408.26 514.721L408.55 514.391L424.84 504.801L432.69 499.76L439.79 495.44L444.98 492.19L449.42 488.971L458.5 481.681L460.92 480.13L461.36 480.021L461.75 480.19L463.56 481.981L464.86 483.94L465.07 485.13L464.9 485.651L464.55 486.021L463.81 486.26L463.55 486.351L463.22 486.711L463.11 487.281L463.25 487.931L463.6 488.531L489.19 519.57L489.58 519.88L490.07 520.01L490.57 519.94L490.99 519.671L491.06 519.601L492.06 518.481L492.63 518.13L493.29 518.171L493.64 518.38L497.79 522.051L498.21 522.801L497.78 523.541L485.19 534.401L484.47 534.701L483.79 534.341L480.78 531.231L480.32 530.581L480.18 529.951L480.37 529.331L480.9 528.731L482.12 527.681L482.56 527.121L482.75 526.431L482.66 525.721L482.3 525.111V525.101L460.42 499.741L455 494.521L454.53 494.25L454.05 494.221L453.19 494.44L452.45 494.841L451.81 495.44L451.31 496.231L451.19 496.781L451.39 497.331L455.25 503L455.5 503.521L455.53 504L455.33 504.44L454.9 504.831L449.63 508.411L449.13 508.661L448.67 508.681L448.26 508.471L447.9 508.031L444.85 503.061L444.31 502.411L443.69 502.101L443 502.13L442.24 502.5L436.83 506.171L436.31 506.651L436.12 507.141L436.26 507.641L436.72 508.161Z" fill="black"/>
<path d="M232.98 527.56L233.19 526.62L233.63 525.9L234.48 525.34L234.9 525.26L235.39 525.34L240.46 527.23L240.68 527.44L240.69 527.75L235.05 542.83L234.68 543.51L234.18 543.94L233.55 544.11L232.78 544.02L227.4 542.64L226.74 542.37L226.35 541.95L226.22 541.4L226.35 540.7L226.88 538.73L227.1 536.87L227.01 535.12L226.61 533.48L225.88 531.92L224.83 530.48L223.46 529.15L221.76 527.93L220.04 527.03L218.24 526.43L216.21 526.11L214.1 526.15L211.9 526.55L209.62 527.29L206.43 528.85L203.66 530.88L202.21 532.29L200.91 533.86L199.74 535.58L198.72 537.47L196.97 541.66L195.75 545.97L195.22 549.01L194.94 552.11L194.95 554.22L195.19 556.22L195.68 558.1L196.4 559.87L197.46 561.68L198.7 563.29L200.05 564.7L201.51 565.91L203.08 566.92L204.68 567.7L207.94 568.67L209.55 568.86L211.14 568.84L213.6 568.42L216.02 567.5L218.41 566.08L220.76 564.18L221.61 563.8L222.4 564.27L227.59 570.29L227.75 570.82L227.46 571.29L227.39 571.33L224.59 572.98L221.7 574.67L219.21 575.76L219.06 575.81L215.64 576.72L212.27 577.14L208.39 577.03L204.57 576.33L200.76 575.05L196.85 573.14L194.65 571.75L192.7 570.19L191 568.46L189.54 566.57L188.17 564.18L187.13 561.58L186.42 558.76L186.03 555.72L185.93 549.92L186.5 544.43L187.72 539.25L189.6 534.38L192.28 529.61L195.68 525.19L197.67 523.2L199.81 521.54L202.16 520.13L204.73 518.97L207.52 518.05L209.9 517.54L212.29 517.28L216.42 517.45L220.6 518.38L223.05 519.31L225.33 520.51L227.37 521.92L229.25 523.58L230.98 525.5L232.56 527.67L232.84 527.92L232.98 527.56Z" fill="black"/>
<path d="M389.42 576.07L389.07 575.53L389 570.03L388.01 549.47L386.94 531.75L386.92 531.62L386.46 531L385.68 530.94L383.88 531.6L383.05 531.56L382.52 530.93L382.5 530.87L381.47 526.79L381.53 525.96L382.18 525.45L403.77 517.51L404.12 517.48L404.45 517.68L405.85 519.7L406.85 522.15L406.87 522.62L406.59 523.03L406.34 523.19L405.59 523.37L405.44 523.4L405.15 523.7L405.23 524.12L433.51 559.44L433.73 559.59L434.01 559.51L435.31 559.04L437.2 559.12L437.73 559.53L438.41 560.62L439.79 563.37L439.82 563.93L439.45 564.33L439.43 564.34L437.95 564.89L435.3 566.02L430.9 568.59L426.58 570.8L425.89 570.93L425.22 570.68L423.69 569.11L422.4 566.71L422.33 565.72L422.87 564.88L423.47 564.25L423.95 563.35L424 562.85L423.79 562.4L418.88 556.26L418.15 555.56L417.33 555.19L416.45 555.15L415.49 555.42L399.33 562.44L398.76 562.8L398.33 563.31L398.07 563.93L398.01 564.6L398.54 567.06L398.82 568.15L399.04 569.9L399.07 572.19L399.06 573.24L399.07 573.39L399.46 573.91L400.1 573.93L401.8 573.19L402.3 573.08L402.81 573.18L403.23 573.46L403.52 573.89L403.53 573.93L404.91 577.69L405.04 578.3L404.95 578.81L404.62 579.21L404.07 579.51L389.21 584.98L388.73 585L388.38 584.65L387.74 583.07L387.44 581.63L387.46 580.3L387.84 579.03L388.39 578.14L389.43 576.79L389.55 576.43L389.42 576.07ZM397.52 553.94L397.81 554.2H398.18L411.14 549.2L412.07 548.56L412.28 548.18L412.26 547.85L412.21 547.77L397.66 528.7L396.85 528.14L396.43 528.11L396.14 528.28L396.05 528.53L395.97 533.27L396.3 537.93L397 545.2L397.13 552.53L397.52 553.94Z" fill="black"/>
<path d="M369.59 571.71L369.84 571.96L369.82 571.59L362.76 539.53L362.26 538.63L361.33 538.17L358.36 537.7L357.86 537.49L357.53 537.03L357 534.83L357.19 532.82L357.45 532.1L357.75 531.71L358.19 531.5L372.55 528.5L372.97 528.54L373.24 528.87L373.44 529.41L373.85 531.22L374.02 533.61L374.05 534.4L373.96 535.28L373.61 535.87L373.28 536.08L372.68 536.47L372.25 537.05L372.04 537.76L372.08 538.51L381.89 585.43L381.94 586.27L381.72 586.93L381.2 587.4L380.41 587.69L373.96 589.04L373 588.97L372.24 588.41L343.58 551.22L342.84 550.36L342.45 550.16L342.4 550.6L342.69 551.69L343.38 554.26L344 557.57L348.62 584.31L349.2 585.39L350.3 585.94L352.79 586.34L353.27 586.54L353.56 586.97L354.13 589.07L354.16 591.05L353.98 591.48L353.6 591.76L350.7 592.66L337.87 594.51L337.19 594.38L336.87 593.75L336.12 588.51L336.28 587.57L337.11 587.1L338.51 586.81L338.88 586.6L339.01 586.21L338.99 584.02L338.75 582.06L336.49 569.62L334.14 555.21L331.98 542.63L331.78 542.23L331.33 542.12L330.41 542.29L329.73 542.67L329.22 542.94L328.64 542.97L328.12 542.73L327.75 542.29L327.64 541.98L326.66 537.32L326.77 536.74L327.25 536.4L333.32 535.31L339.08 534.89L341.14 535.16L341.92 535.59L342.71 536.42L359.45 557.98L364.59 564.73L369.59 571.71Z" fill="black"/>
<path d="M270.07 540.76L269.96 541.92L270.11 544.54L272.38 570.16L273.75 582.77L274.26 586.26L274.46 586.68L274.86 586.93L274.96 586.95L275.84 586.98H275.87L276.54 587.18L276.86 587.81L277.2 593L276.9 593.79L276.11 594.09L275.99 594.07L259.77 591.02L259.02 590.59L259 589.74L260.6 584.44L260.91 583.97L261.12 583.89H261.18L261.51 583.99L261.68 584.29L262.05 584.88L262.43 584.95L262.61 584.61L263.13 578.94L262.92 573.86L262.56 573.07L261.8 572.64L244.6 569L243.91 569.08L243.4 569.54L238.47 578.08L238.37 578.59L238.74 578.94L240.98 580.01L241.44 580.44V581.06L239.94 585.86L239.44 586.56L238.59 586.58L223.72 581.94L223.08 581.47L223.16 580.67L225.48 575.8L226.03 575.24L226.82 575.42L226.99 575.52L227.72 575.74L228.58 575.72L229.02 575.55L229.35 575.21L230.34 573.68L232.71 569.77L241 553.58L249.87 537.42L250.01 536.97L249.94 536.5L249.69 536.11L249.29 535.86L249.12 535.81L248.67 535.72L248.24 535.49L248.14 535L248.31 534.01L248.75 532.57L249.42 531.18L249.99 530.51L251.22 530L252.82 530.08L272.57 534.27L273.05 534.53L273.18 535.06L272.86 540.5L272.57 541.02L271.99 541.11L271.84 541.05L270.92 540.53L270.44 540.43L270.07 540.76ZM258.77 539.72L248.04 559.72L247.96 559.89L247.85 560.55L248.03 561.2L248.45 561.72L249.05 562.02L261.08 565.1L261.49 565.04L261.74 564.72L262.2 562.24L262.16 559.52L261.38 550.6L260.9 542.04L260.76 541.15L260.43 540.39L259.61 539.53L259.12 539.38L258.77 539.72Z" fill="black"/>
<path d="M286.7 587.89L286.75 587.91L287.04 587.67V544.17L286.87 543.6L286.43 543.2L283.69 541.9L283.3 541.56L283.16 541.06V536.58L283.53 535.76L284.39 535.49L284.52 535.51L286.33 535.72L305.94 536.17L309.7 536.41L313.43 536.92L316.16 537.66L318.57 538.69L320.64 540.02L322.39 541.64L323.68 543.36L324.71 545.31L325.46 547.51L325.95 549.95L326.01 551.41L325.83 553.13L324.75 557.36L323.81 559.36L322.33 561.35L320.24 563.4L317.7 565.35L317.61 565.42L317.45 565.9L317.71 566.34L320.54 568.52L321.5 569.58L322.27 570.76L322.8 571.97L323.16 573.34L323.98 579.48L324.15 585.88L324.19 586.35L324.58 587.23L325.31 587.85L326.24 588.1L327.19 587.92L329.29 587L329.74 587.01L330.02 587.36L330.03 587.45L330.44 593.8L330.27 594.46L329.65 594.75L323.77 595.44L321.29 595.51L320.33 595.3L319.56 594.93L317.94 593.59L316.92 592.37L316.09 591.03L315.4 589.46L314.9 587.79L314.27 583.84L314.06 578.08L314.03 575.81L313.9 574.5L313.59 573.33L313.08 572.33L312.39 571.49L310.96 570.56L309.08 570.11L300.11 569.93L298.75 569.85L297.63 569.56L297.14 569.49L296.66 569.63L296.29 569.96L296.1 570.41L296.08 570.62V587.11L296.31 587.68L296.87 587.94L300.88 588.18L301.8 588.55L302.11 589.49V593.61L302.03 594.2L301.78 594.62L301.36 594.89L300.79 594.99L296.07 595.11L293.33 595.01L283.83 593.98L283.19 593.64L282.97 592.96L283.28 587.6L283.63 586.94L284.35 586.79L284.5 586.84L286.7 587.89ZM296.82 559.13L296.32 561.25L296.39 561.66L296.74 561.89H296.78L302.79 562.14L308.34 561.69L310.22 561.28L311.83 560.66L313.18 559.82L314.27 558.76L315.15 557.37L315.72 555.73L315.98 553.82L315.93 551.67L315.65 549.91L315.17 548.38L314.46 547.08L313.55 546.01L312.37 545.13L310.96 544.49L309.31 544.1L307.44 543.96L298.16 544.09L297.37 544.44L297.04 545.24L296.82 559.13Z" fill="black"/>
</svg>
