<svg width="1630" height="632" viewBox="0 0 1630 632" fill="none" xmlns="http://www.w3.org/2000/svg">
<g clip-path="url(#clip0_301_732)">
<path d="M269.2 470C268.7 471.8 266.8 472.7 263.6 472.7H201.9C199.975 472.731 198.069 472.314 196.333 471.481C194.598 470.647 193.08 469.422 191.9 467.9L90 337.8L61.7001 364.9V465.5C61.8337 466.437 61.7473 467.393 61.4478 468.291C61.1483 469.189 60.6439 470.005 59.9745 470.674C59.305 471.344 58.489 471.848 57.5909 472.148C56.6928 472.447 55.7373 472.534 54.8 472.4H6.90005C5.9628 472.534 5.00732 472.447 4.10922 472.148C3.21111 471.848 2.39505 471.344 1.72561 470.674C1.05618 470.005 0.55175 469.189 0.252251 468.291C-0.0472472 467.393 -0.133593 466.437 4.69573e-05 465.5V6.9C-0.133593 5.96276 -0.0472472 5.00727 0.252251 4.10917C0.55175 3.21107 1.05618 2.39501 1.72561 1.72557C2.39505 1.05614 3.21111 0.551708 4.10922 0.252209C5.00732 -0.0472892 5.9628 -0.133635 6.90005 4.97699e-06H54.8C55.7373 -0.133635 56.6928 -0.0472892 57.5909 0.252209C58.489 0.551708 59.305 1.05614 59.9745 1.72557C60.6439 2.39501 61.1483 3.21107 61.4478 4.10917C61.7473 5.00727 61.8337 5.96276 61.7001 6.9V289.3L183.8 165.8C185.058 164.36 186.59 163.186 188.307 162.344C190.024 161.503 191.891 161.012 193.8 160.9H257.7C258.873 160.804 260.045 161.095 261.038 161.726C262.031 162.358 262.79 163.297 263.2 164.4C263.695 165.408 263.892 166.536 263.768 167.652C263.644 168.768 263.204 169.825 262.5 170.7L133.2 295.5L267.8 462.7C268.752 463.628 269.396 464.825 269.646 466.13C269.897 467.435 269.741 468.786 269.2 470ZM519.3 472.4H471.4C466.3 472.4 463.8 470.1 463.8 465.5V455.5C440.878 471.51 413.336 479.555 385.4 478.4C357.836 478.981 331.014 469.448 310 451.6C299.876 442.872 291.822 431.998 286.426 419.769C281.029 407.54 278.424 394.262 278.8 380.9C278.8 335.5 307 304.733 363.4 288.6C396.414 280.26 430.062 274.674 464 271.9C465.118 263.742 464.381 255.438 461.842 247.605C459.303 239.772 455.029 232.614 449.338 226.663C443.647 220.713 436.686 216.124 428.975 213.239C421.263 210.353 412.999 209.246 404.8 210C376.223 210.939 348.62 220.606 325.7 237.7C321.6 240.1 318.6 239.6 316.7 236.4L291.7 201C289.4 198.2 290.1 195 293.8 191C326.11 167.561 364.887 154.705 404.8 154.2C431.435 153.602 457.635 161.023 480 175.5C510.6 195.9 525.867 228.5 525.8 273.3V465.5C525.922 466.4 525.841 467.316 525.563 468.181C525.285 469.046 524.818 469.838 524.195 470.5C523.572 471.161 522.809 471.675 521.963 472.004C521.116 472.332 520.206 472.468 519.3 472.4ZM463.8 327.4C418.467 332.067 387.467 338.1 370.8 345.5C348.2 355.167 337.933 369.033 340 387.1C340.64 392.057 342.337 396.818 344.977 401.063C347.617 405.307 351.137 408.934 355.3 411.7C364.112 417.999 374.495 421.737 385.3 422.5C399.348 424.285 413.618 422.903 427.063 418.456C440.508 414.009 452.787 406.61 463 396.8L463.8 327.4ZM810 592.8C784.6 618.933 748.8 632 702.6 632C675.862 632.066 649.568 625.173 626.3 612C621.2 608.7 615.2 604.4 608.2 599.1C601.2 593.8 593.2 587.2 583.9 579.1C582.507 577.851 581.655 576.108 581.524 574.242C581.393 572.375 581.994 570.531 583.2 569.1L615.8 536.5C616.543 535.789 617.422 535.237 618.385 534.876C619.347 534.515 620.373 534.353 621.4 534.4C622.316 534.402 623.222 534.589 624.064 534.95C624.906 535.311 625.667 535.838 626.3 536.5C652.1 562.3 677.4 575.3 701.9 575.3C757.833 575.3 785.8 546.167 785.8 487.9V451.6C761.057 470.685 730.307 480.296 699.1 478.7C678.71 479.519 658.43 475.325 640.038 466.486C621.645 457.647 605.7 444.432 593.6 428C570.422 395.475 558.612 356.215 560 316.3C558.795 277.736 570.013 239.805 592 208.1C603.664 190.89 619.535 176.949 638.106 167.603C656.677 158.256 677.329 153.815 698.1 154.7C729.454 153.634 760.25 163.183 785.5 181.8V167.9C785.37 166.959 785.459 166.001 785.758 165.1C786.057 164.198 786.56 163.378 787.227 162.701C787.893 162.025 788.707 161.51 789.604 161.198C790.501 160.886 791.457 160.784 792.4 160.9H840.3C841.25 160.767 842.219 160.856 843.129 161.161C844.039 161.466 844.865 161.977 845.544 162.656C846.223 163.335 846.734 164.161 847.039 165.071C847.344 165.981 847.433 166.95 847.3 167.9V477.9C847.5 528.367 835.067 566.667 810 592.8ZM785.8 260C774.2 230.4 747.533 215.6 705.8 215.6C651.733 215.6 624.7 249.333 624.7 316.8C624.7 354.333 633.7 381.633 651.7 398.7C658.566 405.404 666.728 410.636 675.687 414.075C684.646 417.514 694.212 419.088 703.8 418.7C747.2 418.7 774.7 403.9 786.3 374.3L785.8 260ZM1135.9 592.8C1110.7 618.867 1074.97 631.933 1028.7 632C1001.96 632.052 975.673 625.16 952.4 612C947.333 608.733 941.333 604.433 934.4 599.1C927.4 593.8 919.3 587.2 910.1 579.1C909.387 578.496 908.802 577.756 908.38 576.922C907.958 576.089 907.707 575.18 907.642 574.248C907.576 573.316 907.698 572.38 908 571.496C908.302 570.612 908.778 569.797 909.4 569.1L942 536.5C942.724 535.792 943.586 535.241 944.532 534.88C945.478 534.518 946.488 534.355 947.5 534.4C948.417 534.396 949.325 534.581 950.168 534.942C951.011 535.303 951.771 535.833 952.4 536.5C978.3 562.3 1003.5 575.3 1028 575.3C1084 575.3 1112 546.167 1112 487.9V451.6C1087.21 470.676 1056.44 480.285 1025.2 478.7C1004.86 479.486 984.632 475.276 966.293 466.438C947.953 457.599 932.059 444.402 920 428C896.88 395.46 885.172 356.188 886.7 316.3C885.465 277.747 896.648 239.817 918.6 208.1C930.278 190.904 946.152 176.974 964.719 167.629C983.286 158.284 1003.93 153.834 1024.7 154.7C1056.08 153.666 1086.9 163.211 1112.2 181.8V167.9C1112.07 166.959 1112.16 166.001 1112.46 165.1C1112.76 164.198 1113.26 163.378 1113.93 162.701C1114.59 162.025 1115.41 161.51 1116.3 161.198C1117.2 160.886 1118.16 160.784 1119.1 160.9H1167C1167.94 160.784 1168.9 160.886 1169.8 161.198C1170.69 161.51 1171.51 162.025 1172.17 162.701C1172.84 163.378 1173.34 164.198 1173.64 165.1C1173.94 166.001 1174.03 166.959 1173.9 167.9V477.9C1173.77 528.367 1161.1 566.667 1135.9 592.8ZM1112 260C1100.4 230.4 1073.73 215.6 1032 215.6C977.333 215.267 950 248.833 950 316.3C950 353.833 959.033 381.133 977.1 398.2C983.937 404.916 992.08 410.156 1001.02 413.596C1009.97 417.037 1019.53 418.603 1029.1 418.2C1072.63 418.2 1100.17 403.4 1111.7 373.8L1112 260ZM1280 472.4H1232.2C1231.26 472.53 1230.3 472.441 1229.4 472.142C1228.5 471.843 1227.68 471.34 1227 470.674C1226.32 470.007 1225.81 469.194 1225.5 468.297C1225.19 467.399 1225.08 466.443 1225.2 465.5V6.9C1225.08 5.95731 1225.19 5.00054 1225.5 4.10352C1225.81 3.20651 1226.32 2.39323 1227 1.72646C1227.68 1.05968 1228.5 0.557236 1229.4 0.257895C1230.3 -0.0414457 1231.26 -0.129679 1232.2 4.97699e-06H1280C1280.94 -0.151088 1281.91 -0.0778251 1282.82 0.213875C1283.73 0.505576 1284.56 1.00753 1285.25 1.67919C1285.93 2.35085 1286.44 3.17338 1286.75 4.08031C1287.05 4.98725 1287.14 5.95316 1287 6.9V465.5C1287.14 466.447 1287.05 467.413 1286.75 468.32C1286.44 469.227 1285.93 470.049 1285.25 470.721C1284.56 471.393 1283.73 471.894 1282.82 472.186C1281.91 472.478 1280.94 472.551 1280 472.4ZM1629.1 331.6C1629.22 332.543 1629.11 333.499 1628.8 334.396C1628.49 335.294 1627.98 336.107 1627.3 336.774C1626.62 337.44 1625.8 337.943 1624.9 338.242C1624 338.541 1623.04 338.63 1622.1 338.5H1396.7C1398.99 360.424 1409.37 380.708 1425.8 395.4C1445.81 412.086 1471.26 420.84 1497.3 420C1521.86 420.251 1545.87 412.725 1565.9 398.5C1570.1 395.7 1573.6 395.7 1575.9 398.5L1608.5 431.8C1612.2 435.5 1612.2 438.7 1608.5 441.8C1575.14 466.823 1534.4 480.018 1492.7 479.3C1470.85 479.91 1449.11 476.037 1428.81 467.919C1408.52 459.801 1390.1 447.61 1374.7 432.1C1359.48 416.433 1347.59 397.85 1339.73 377.469C1331.88 357.088 1328.23 335.329 1329 313.5C1328.49 292.266 1332.22 271.143 1339.97 251.365C1347.71 231.586 1359.31 213.547 1374.1 198.3C1388.13 183.975 1405.01 172.748 1423.65 165.342C1442.28 157.936 1462.26 154.515 1482.3 155.3C1502.2 154.791 1521.99 158.513 1540.35 166.218C1558.71 173.924 1575.22 185.438 1588.8 200C1603.52 215.356 1614.81 233.667 1621.91 253.718C1629.01 273.769 1631.77 295.102 1630 316.3L1629.1 331.6ZM1538.2 230C1522.7 215.786 1502.33 208.086 1481.3 208.5C1461.07 208.31 1441.51 215.735 1426.5 229.3C1410.58 243.351 1399.99 262.455 1396.5 283.4H1563.6C1563.52 273.185 1561.2 263.111 1556.82 253.886C1552.43 244.661 1546.07 236.508 1538.2 230Z" fill="#20BEFF"/>
</g>
<defs>
<clipPath id="clip0_301_732">
<rect width="1630" height="632" fill="white"/>
</clipPath>
</defs>
</svg>
