<svg width="1024" height="1024" viewBox="0 0 1024 1024" fill="none" xmlns="http://www.w3.org/2000/svg">
<rect width="1024" height="1024" fill="black"/>
<path d="M558.22 343.779L558 348.309L557.33 352.789L556.23 357.179L554.71 361.449L552.77 365.539L550.44 369.429L547.74 373.069L544.7 376.429L541.34 379.469L537.7 382.169L533.81 384.499L529.72 386.439L525.45 387.959L521.06 389.059L516.58 389.729L512.05 389.949L507.52 389.729L503.04 389.059L498.65 387.959L494.38 386.439L490.29 384.499L486.4 382.169L482.76 379.469L479.4 376.429L476.36 373.069L473.66 369.429L471.33 365.539L469.39 361.449L467.87 357.179L466.77 352.789L466.1 348.309L465.88 343.779L466.1 339.249L466.77 334.769L467.87 330.379L469.39 326.109L471.33 322.019L473.66 318.129L476.36 314.489L479.4 311.129L482.76 308.089L486.4 305.389L490.29 303.059L494.38 301.119L498.65 299.599L503.04 298.499L507.52 297.829L512.05 297.609L516.58 297.829L521.06 298.499L525.45 299.599L529.72 301.119L533.81 303.059L537.7 305.389L541.34 308.089L544.7 311.129L547.74 314.489L550.44 318.129L552.77 322.019L554.71 326.109L556.23 330.379L557.33 334.769L558 339.249L558.22 343.779ZM542.709 343.609L542.546 340.654L542.09 337.728L541.343 334.861L540.315 332.079L539.015 329.411L537.455 326.88L535.65 324.512L533.618 322.33L531.378 320.354L528.952 318.603L526.363 317.095L523.637 315.844L520.799 314.862L517.876 314.158L514.898 313.739L511.892 313.61L508.888 313.771L505.914 314.221L502.999 314.955L500.171 315.967L497.458 317.247L494.885 318.782L492.478 320.558L490.259 322.557L488.249 324.76L486.47 327.147L484.936 329.694L483.664 332.376L482.665 335.168L481.949 338.043L481.522 340.973L481.39 343.93L481.553 346.885L482.01 349.811L482.756 352.678L483.785 355.459L485.085 358.128L486.645 360.659L488.45 363.026L490.482 365.209L492.722 367.185L495.148 368.935L497.736 370.443L500.463 371.695L503.301 372.677L506.223 373.381L509.202 373.799L512.208 373.929L515.212 373.768L518.186 373.318L521.101 372.584L523.929 371.572L526.642 370.292L529.215 368.757L531.622 366.981L533.841 364.982L535.85 362.778L537.63 360.392L539.164 357.845L540.436 355.163L541.435 352.371L542.151 349.496L542.577 346.566L542.709 343.609Z" fill="white"/>
<path d="M438.66 397.27L438.25 397.26L437.97 397.56L437.96 397.59L434.43 409.86L432.39 417.96L430.82 426.36L429.77 434.86L429.21 443.63L429.15 452.54L429.59 461.68L430.53 470.85L431.97 480.18L431.98 480.37L431.65 480.86L431.06 480.9L424.7 478.47L417.88 476.48L416.91 476.13L416.15 475.62L415.43 474.76L414.95 473.7L414.29 470.32L414.2 469.6L413.53 463.74L413.08 457.89L412.85 452.04L412.84 446.19L413.23 437.52L414.11 428.85L415.48 420.2L417.34 411.55L419.95 402.01L423.08 392.73L426.73 383.72L430.9 374.97L433.96 369.31L434.07 369.15L434.83 368.82L435.57 369.2L440.81 375.67L446.26 381.55L446.27 381.56L449.36 384.49L452.57 387.21L456 389.82L459.56 392.25L463.34 394.56L467.43 396.81L476.27 400.96L484.02 403.84L491.94 405.99L499.33 407.3L506.86 407.99L514.53 408.07L522.34 407.52L527.13 406.85L531.96 405.88L536.84 404.61L541.77 403.04L547.29 400.94L552.64 398.56L557.8 395.88L562.77 392.92L569.88 387.95L576.58 382.34L582.87 376.08L588.75 369.17L588.81 369.11L589.32 368.93L589.79 369.19L592.01 372.45L593.76 375.57L596.49 381.37L598.98 387.2L601.23 393.07L603.25 398.98L605.03 404.92L606.58 410.91L607.9 416.93L608.97 422.98L609.84 429.24L610.45 435.54L610.81 441.87L610.93 448.25L610.8 454.66L610.42 461.12L609.8 467.61L608.92 474.14L608.46 475.12L607.56 475.7L593.35 479.93L593.11 479.97L592.64 479.89L592.26 479.62L592.04 479.2L592.02 478.73L593.53 469.16L594.49 459.55L594.8 453.62L594.9 447.68L594.78 441.73L594.46 435.76L593.37 425.91L592.11 418.75L590.44 411.65L588.38 404.61L585.92 397.63L585.85 397.49L585.19 397.03L584.41 397.24L579.71 400.95L574.88 404.4L569.91 407.6L564.8 410.54L556.16 414.8L547.15 418.39L541.5 420.22L535.89 421.71L530.31 422.85L524.77 423.63L515.9 424.17L504.77 424.08L498.34 423.65L492.12 422.78L486.11 421.5L480.31 419.78L470.47 416.16L461.73 412.36L456.82 409.77L451.6 406.54L446.05 402.66L440.18 398.14L438.66 397.27Z" fill="white"/>
<path d="M499.07 542.781L495.9 539.311L492.7 535.871L485.71 527.081L479.22 517.971L473.28 508.621L467.83 498.941L463.67 490.461L460.09 481.851L457.1 473.101L454.69 464.211L452.67 453.911L451.4 443.451L450.88 432.801L451.13 421.971L451.47 421.721L451.52 421.741L466.22 429.081L466.86 429.681L467.08 430.521L467.02 435.981L467.22 441.401L467.69 446.781L468.42 452.121L469.55 458.031L471 463.891L472.79 469.701L474.9 475.451L478.83 484.651L483.03 493.161L487.48 500.991L492.2 508.121L499.72 518.221L507.57 527.931L511.03 531.561L511.59 531.761L512.13 531.511L519.47 523.321L525.42 516.211L529.03 511.521L532.46 506.691L535.7 501.721L538.74 496.641L541.54 491.491L544.13 486.241L546.51 480.891L548.67 475.451L550.57 470.011L552.24 464.501L553.65 459.031L554.82 453.501L555.75 447.951L556.44 442.361L556.87 436.841L557.05 431.291L557.3 430.221L557.98 429.351L560.05 427.941L562.62 426.631L566.17 424.991L569.6 423.461L571.85 422.931L572.71 423.151L573.02 424.001L572.93 433.851L572.3 443.491L571.1 452.941L569.36 462.191L566.83 471.941L563.6 481.341L559.64 490.801L555.18 499.931L550.24 508.731L544.82 517.201L541.77 521.511L536.98 527.801L531.96 533.841L526.71 539.651L521.22 545.221L515.26 550.771L509.05 556.051L502.58 561.081L495.86 565.841L489.77 569.721L483.54 573.231L477.15 576.361L470.62 579.111L463.22 581.731L455.64 583.881L450.06 585.061L444.44 585.821L439.02 586.161L431.29 586.261L425.22 586.081L419.97 585.591L415.49 584.771L411.43 583.681L407.51 582.411L403.74 580.961L400.11 579.331L396.63 577.531L393.3 575.541L390.11 573.381L387.08 571.031L386.95 570.931L382.32 566.781L378.19 562.351L374.55 557.641L371.4 552.651L368.67 547.221L366.47 541.491L364.79 535.471L363.63 529.151L363.27 525.261L363.28 521.371L363.66 517.621L364.41 513.941L365.49 510.541L366.95 507.271L368.71 504.271L370.83 501.471L371.01 501.261L373.06 499.091L375.22 497.121L377.51 495.361L379.92 493.811L384.42 491.601L389.28 490.021L392.86 489.281L396.61 488.801L400.59 488.571L404.63 488.601L408.72 488.891L412.79 489.441L416.77 490.231L420.63 491.261L421.75 491.611L429.23 494.391L436.47 497.881L443.49 502.071L450.29 506.961L454.14 510.201L457.96 513.871L461.62 517.851L465.22 522.231L468.68 526.921L472.02 531.931L475.22 537.271L478.23 542.841L478.12 543.281L471.97 547.081L468.83 548.671L465.64 550.061L464.67 550.081L463.93 549.451L460.96 544.211L458.05 539.501L455.22 535.321L452.45 531.661L449.37 528.051L446.11 524.671L442.68 521.511L439.08 518.581L435.24 515.831L431.22 513.321L427.02 511.041L422.64 508.991L421.15 508.371L415.57 506.551L409.73 505.381L403.64 504.851L397.29 504.971L393.31 505.501L389.81 506.531L386.81 508.051L384.3 510.061L382.2 512.701L380.63 515.881L379.75 519.031L379.35 522.481L379.44 526.231L380.02 530.281L380.81 533.851L381.74 537.041L382.83 539.991L384.16 542.851L385.7 545.571L387.54 548.271L391.04 552.571L394.82 556.411L398.88 559.771L403.21 562.651L406.3 564.341L409.52 565.801L412.87 567.051L416.34 568.091L419.95 568.911L423.68 569.511L427.53 569.901L431.52 570.071L437.18 569.981L442.74 569.521L448.21 568.711L453.59 567.531L458.79 566.011L463.89 564.151L470.66 561.201L477.23 557.891L482.91 554.651L488.43 551.121L493.8 547.311L499.02 543.221L499.07 542.781Z" fill="white"/>
<path d="M535.84 551.32L542.6 555.64L548.64 559.22L554.82 562.29L561.14 564.86L567.6 566.92L573.2 568.26L578.9 569.24L584.7 569.85L590.6 570.1L596.08 569.98L601.19 569.49L605.93 568.64L610.3 567.43L614.45 565.87L618.37 564.01L622.08 561.86L625.56 559.43L628.37 557.1L631.02 554.56L633.51 551.81L635.83 548.84L637.59 546.24L639.15 543.56L640.5 540.8L641.64 537.97L643.04 533.23L643.89 528.29L644.2 523.15L643.96 517.81L643.64 516.34L642.97 514.83L641.95 513.27L640.57 511.67L638.78 509.99L636.85 508.54L633.7 506.8L630.23 505.55L624.43 504.67L621.24 504.43L618.55 504.52L614.2 505.1L609.95 505.96L605.81 507.1L601.77 508.51L597.11 510.55L592.59 512.98L588.23 515.8L584.02 519.01L580.05 522.48L576.35 526.13L572.9 529.98L569.71 534.02L567.15 537.67L563.35 543.72L560.03 549.59L559.67 550.03L559.17 550.3L558.6 550.35L558.05 550.18L558.03 550.17L546.65 543.6L546.18 543.07L546.26 542.37L549.79 535.41L553.91 528.69L558.63 522.2L563.94 515.96L568.63 511.19L573.56 506.85L578.75 502.93L584.19 499.43L589.66 496.46L595.37 493.88L601.3 491.7L607.47 489.91L611.17 489.31L618.41 488.49L621.44 488.34L624.62 488.51L630.79 489.23L634.95 490.15L638.74 491.35L642.16 492.81L645.2 494.54L648.64 497.06L651.64 499.83L654.2 502.84L656.31 506.11L658.14 510.01L659.43 514.22L660.17 518.73L660.37 523.55L660.15 528.01L659.62 532.37L658.77 536.63L657.62 540.79L656.48 544.02L655.15 547.18L652.79 551.89L650.12 556.32L647.15 560.48L643.88 564.37L638.84 569.31L633.2 573.72L626.99 577.6L620.19 580.94L615.82 582.65L611.54 583.98L606.5 585.09L601.17 585.82L595.26 586.19L588.41 586.23L580.72 585.79L572.98 584.72L565.31 582.99L557.7 580.63L550.15 577.62L543.19 574.31L536.48 570.66L530.04 566.67L523.86 562.34L523.61 561.96L523.83 561.57L535.32 551.36L535.84 551.32Z" fill="white"/>
<path d="M676.35 640.31L676.25 640.85L676.51 642.45L677.56 644.04L679.28 645.39L681.13 646.13L690.58 647.62L692.95 648.32L696.66 649.96L699.03 651.42L700.91 653.26L702 654.89L702.82 656.74L703.5 659.18L703.85 661.67L703.88 664.16L703.57 666.59L702.94 668.85L701.99 670.96L700.76 672.8L699.23 674.42L696.88 676.07L694.25 677.17L691.57 677.85L688.72 678.31L685.71 678.52L682.55 678.51L676.37 678.01L674.13 677.54L672.18 676.88L670.12 675.87L668.02 674.48L666.84 673.45L665.9 672.32L664.92 670.56L664.27 668.42L663.96 665.9L663.99 662.89L664.3 662.24L664.97 661.97H674.71L675.34 662.15L675.78 662.64L676.08 663.26L677.28 665.24L678.78 666.36L680.33 667.08L681.86 667.55L683.37 667.78L684.85 667.76L687.17 667.22L689.44 666.06L689.67 665.89L690.58 664.77L691.09 663.15L691.14 661.95L690.84 660.93L689.87 659.81L688.26 659.01L683.3 657.74L677.01 656.72L675.22 656.33L673.21 655.57L671.16 654.53L669.25 653.3L667.8 652.07L666.72 650.72L665.88 649.14L665.29 647.21L664.94 644.88L664.75 641.69L664.74 638.96L664.99 636.75L665.52 634.86L666.32 633.25L667.53 631.73L669 630.37L670.6 629.2L672.55 628.09L674.65 627.21L676.91 626.57L679.32 626.16L683.56 625.9L687.58 626.15L691.38 626.9L694.96 628.16L696.16 628.72L698.02 629.87L699.53 631.32L700.52 632.73L701.28 634.33L701.8 636.14L702.09 638.14V640.72L701.86 641.56L701.42 642.23L700.4 642.85L698.77 643.08L694.32 642.82L692.46 642.45L690.84 641.93L690.42 641.64L690.21 641.23L689.63 639.3L689.39 638.84L688.97 638.49L686.05 637.31L683.13 636.93L680.32 637.32L677.51 638.46L676.83 639.13L676.35 640.31Z" fill="white"/>
<path d="M302.03 655.26L302.57 654.99L303.11 654.17L309.68 641.57L316.84 628.57L317.57 627.62L318.42 627.15L318.68 627.1L324.34 626.85L329.82 627.26L330.26 627.45L330.49 627.85L330.98 630.66L331.14 634.26L330.96 674L330.67 675.76L330.09 676.95L329.32 677.51L327.57 677.89L325.48 678.11L323.35 678.1L321.18 677.84L318.97 677.34L318.53 677.1L318.28 676.71L317.91 675.2L317.82 673.51L318.04 661.6L317.91 651.82L317.69 650.93L317.15 651.67L313.29 659.68L309.46 666.69L308.21 668.46L306.94 669.48L305.12 670.03L302.04 670.13H302H301.95L298.88 670.01L297.06 669.46L295.79 668.43L294.55 666.66L290.75 659.62L286.93 651.6L286.39 650.86L286.17 651.75L285.99 661.53L286.16 673.44L286.06 675.13L285.68 676.63L285.43 677.03L284.99 677.26L282.78 677.75L280.6 678H278.47L276.38 677.77L274.64 677.38L273.87 676.82L273.3 675.63L273.01 673.87L273.02 634.13L273.2 630.52L273.7 627.72L273.93 627.32L274.37 627.13L279.85 626.74L285.51 627.02L285.78 627.07L286.62 627.55L287.34 628.5L294.44 641.53L300.95 654.17L301.49 654.98L302.03 655.26Z" fill="white"/>
<path d="M407.4 655.659L407.8 655.969L407.93 655.479V628.069L408.26 627.279L409.06 626.949H418.94L419.7 627.259L420.01 628.019V675.959L419.88 676.669L419.5 677.289L418.93 677.739L418.24 677.949L413.77 678.139L411.79 677.999L410.47 677.639L409.45 677.029L408.36 676.059L405.76 673.289L396.4 661.219L386.83 648.349L386.18 647.829L385.97 648.629V675.989L385.82 676.759L385.38 677.409L384.72 677.849L383.95 677.999H376.01L375.24 677.849L374.58 677.409L374.14 676.749L373.99 675.979V627.559L374.2 627.069L374.69 626.869H384.76L385.36 627.009L385.8 627.379L407.4 655.659Z" fill="white"/>
<path d="M507.74 652.301L507.55 651.871L507.25 652.241L504.04 658.971L500.61 665.331L499.1 667.391L497.25 668.871L496.01 669.481L494.66 669.891L493.19 670.111L491.61 670.141L488.81 669.801L486.78 668.951L485.86 668.191L485.04 667.191L483.33 664.051L480.16 657.391L477.16 651.521L476.66 650.741L476.3 650.521L476.08 650.881L476.01 651.811V676.111L475.89 676.761L475.53 677.331L475 677.721L474.36 677.891L473.36 677.971L468.38 678.171L466.5 678.021L464.94 677.701L464.54 677.461L464.33 677.041L463.9 675.001V628.131L464.21 627.191L465.15 626.881H476.17L476.72 627.031L477.12 627.451L491.91 654.601L492.02 654.761L492.64 654.981L493.19 654.631L495.98 649.811L506.58 628.861L507.18 628.051L508.39 627.281L510.03 626.951L514.59 626.801L519.07 626.941L519.73 627.251L520.02 627.921L520.11 633.221L520.3 640.361L520.93 656.071L520.96 671.151L521.07 673.321L520.92 675.101L520.25 676.461L518.97 677.451L517.1 677.961L513.27 678.241L510.08 677.991L509.12 677.681L508.44 677.141L508.03 676.371L507.9 675.371L508.01 655.321L507.74 652.301Z" fill="white"/>
<path d="M547.31 669.65L546.13 672.78L544.49 675.969L543.83 676.89L543.12 677.479L541.92 677.93L539.99 678.12L539.34 678.159L536.22 678.169L533.26 677.76L532.72 677.53L532.3 677.109L532.07 676.56L532.06 675.969L532.61 673.34L533.18 671.469L549.4 629.94L550.22 628.359L551.24 627.39L552.16 626.99L553.31 626.84L558.47 626.77L562.58 626.909L563.87 627.46L564.79 628.39L565.43 629.729L565.86 631L582.1 672.349L582.77 674.43L583.05 676.33L582.96 676.95L582.63 677.479L582.13 677.84L581.52 677.979H581.48H571.95L570.89 677.65L570.21 676.77L567.95 670.63L567.59 669.919L567.14 669.469L566.36 669.169L565.16 669.12L564.41 669.109L554.78 668.909L548.01 669.09L547.57 669.25L547.31 669.65ZM552.23 657.84L562.46 658.65L563.03 658.43L563.22 657.849L563.18 657.7L557.94 643.45L557.45 643.109L556.96 643.45L551.92 657.38L551.91 657.43L551.97 657.7L552.23 657.84Z" fill="white"/>
<path d="M356.37 626.82H347.61C346.716 626.82 345.99 627.546 345.99 628.44V676.24C345.99 677.135 346.716 677.86 347.61 677.86H356.37C357.265 677.86 357.99 677.135 357.99 676.24V628.44C357.99 627.546 357.265 626.82 356.37 626.82Z" fill="white"/>
<path d="M446.25 626.869H437.75C436.773 626.869 435.98 627.662 435.98 628.639V676.139C435.98 677.117 436.773 677.909 437.75 677.909H446.25C447.228 677.909 448.02 677.117 448.02 676.139V628.639C448.02 627.662 447.228 626.869 446.25 626.869Z" fill="white"/>
<path d="M605.99 666.519L606.13 666.869L606.48 667.009H627.22L628.18 667.299L628.7 668.149L629.12 671.339L628.85 675.149L628.46 676.299L627.91 677.019L627.19 677.559L626.37 677.889L625.49 678.009L598.81 677.959L596.85 677.749L595.15 677.379L594.31 676.809L593.99 675.849V628.069L594.32 627.279L595.11 626.949H604.81L605.64 627.299L605.99 628.129V666.519Z" fill="white"/>
<path d="M640.97 626.9H649.99L650.76 627.05L651.42 627.49L651.86 628.15L652.01 628.92V675.93L651.86 676.7L651.42 677.36L650.76 677.8L649.99 677.95H640.97L640.2 677.8L639.54 677.36L639.1 676.7L638.95 675.93V628.92L639.1 628.15L639.54 627.49L640.2 627.05L640.97 626.9Z" fill="white"/>
<path d="M739.11 638.59L738.97 671.26L738.98 671.98L738.82 675.12L738.52 676.09L737.99 676.89L736.91 677.59L735.27 677.93L728.98 678.12L727.45 677.88L726.48 677.21L726.13 676.46L726.05 673.55L726.02 639.01L725.73 638.3L725.02 638H713.77L713.11 637.87L712.55 637.5L712.18 636.94L712.05 636.28V628.43L712.17 627.93L712.54 627.57L713.74 627.16L715.5 627.01L752.22 627.03L752.76 627.26L752.99 627.81V635.99L752.84 636.76L752.4 637.41L751.75 637.85L750.98 638H739.72L739.26 638.15L739.11 638.59Z" fill="white"/>
<path d="M451.813 698.95L448.293 698.932C447.062 698.925 446.058 699.918 446.052 701.15L445.928 724.83C445.921 726.061 446.915 727.065 448.146 727.071L451.666 727.09C452.898 727.096 453.901 726.103 453.908 724.871L454.032 701.192C454.038 699.96 453.045 698.956 451.813 698.95Z" fill="white"/>
<path d="M486.53 717.881L486.61 717.861L486.82 717.581L491.56 701.941L492.23 700.491L493.2 699.491L494.43 698.951L495.94 698.811L499.18 699.091L499.98 699.591L500.21 700.521L499.59 703.621L495.35 715.801L491.55 726.011L491.16 726.551L490.55 726.821L486.53 727.111L482.51 726.821L481.9 726.551L481.51 726.011L477.71 715.811L473.46 703.631L472.84 700.531L473.06 699.601L473.87 699.101L477.11 698.811L478.62 698.951L479.85 699.491L480.82 700.501L481.49 701.941L486.24 717.581L486.44 717.861L486.53 717.881Z" fill="white"/>
<path d="M524.123 699L519.983 698.979C518.923 698.973 518.059 699.828 518.053 700.889L517.926 725.188C517.921 726.249 518.776 727.113 519.836 727.118L523.976 727.14C525.036 727.146 525.901 726.291 525.906 725.23L526.033 700.931C526.039 699.87 525.184 699.006 524.123 699Z" fill="white"/>
<path d="M563.42 713.69L563.83 714.01L563.97 713.5V701.85L564.15 700.57L564.7 699.65L565.62 699.1L566.9 698.92H569.02L570.32 699.1L571.25 699.66L571.83 700.58L572.04 701.88L572.12 710.27L571.88 724.76L571.71 725.75L571.26 726.46L570.21 726.99L567.59 727.15L565 726.82L564.46 726.62L554.13 713.45L553.5 713.09L552.95 713.3L552.88 713.54L553.09 726.1L552.88 726.79L552.18 727.02H546.98L546.22 726.77L545.97 726.02V701.03L546.36 699.88L547.36 699.2L549.52 698.91L551.58 699.27L553.06 700.01L554.39 701.18L556.37 703.64L563.42 713.69Z" fill="white"/>
<path d="M607.04 720.59L608.12 719.93L608.8 719.19L608.98 718.44L608.24 718.21L606.05 717.96L605.23 717.59L604.59 717.06L604.15 716.39L603.88 715.57L603.85 713.48L604.15 712.39L604.72 711.62L605.88 711.09L608.66 711L611.49 711.08L614.46 711.5L617.39 712.29L617.77 712.53L617.95 712.95L618.17 715.34L618.04 717.55L617.59 719.57L616.8 721.41L615.86 722.82L614.69 724.1L614.55 724.23L613 725.41L611.3 726.31L609.36 726.99L607.32 727.39L605.09 727.54L602.65 727.43L600.18 727.04L597.81 726.43L596.51 725.82L595.2 724.81L593.9 723.4L592.59 721.59L591.45 719.52L590.65 717.35L590.21 715.17L590.08 712.89L590.28 710.53L590.79 708.07L591.35 706.38L592.07 704.87L592.96 703.53L594.02 702.37L596.07 700.86L598.54 699.81L601.73 699.05L604.74 698.76L607.59 698.96L610.26 699.64L612.89 700.87L615.33 702.63L616.18 703.57L616.69 704.48L617.02 705.51L617.16 707.95L617.03 708.37L616.71 708.69L614.71 709.61L612.72 709.9L611.56 709.77L610.4 709.43L610.01 709.21L609.64 708.83L608.5 707.53L607.17 706.59L605.72 706.04L604.09 705.82L602.98 705.89L601.98 706.16L600.99 706.66L600.13 707.34L599.35 708.25L598.74 709.3L598.01 711.73L598.05 714.23L598.42 715.71L598.96 717.02L599.66 718.14L600.52 719.1L602.17 720.22L604.21 720.92L605.64 721L607.04 720.59Z" fill="white"/>
<path d="M427.33 721.45V725.62L427.22 726.16L426.92 726.62L426.46 726.92L425.92 727.03H409.41L408.87 726.92L408.41 726.62L408.11 726.16L408 725.62V700.41L408.24 699.63L408.75 699.17L409.41 699H413.58L414.12 699.11L414.58 699.41L414.88 699.87L414.99 700.41V718.63L415.1 719.17L415.4 719.63L415.86 719.93L416.4 720.04H425.92L426.46 720.15L426.92 720.45L427.22 720.91L427.33 721.45Z" fill="white"/>
</svg>
