<svg width="276" height="356" viewBox="0 0 276 356" fill="none" xmlns="http://www.w3.org/2000/svg">
<rect width="275.94" height="355.249" fill="white"/>
<path d="M58.98 196.28H58.87H58.83L58.72 196.18L57.24 193.46L55.77 191.17L54.32 189.33L52.89 187.92L51.72 187.29L50.12 187.03L48.19 187.15L45.56 187.63L44.49 187.85L42.62 187.93L39.86 187.63L34.69 186.83L29.25 185.6L24.13 183.67L19.56 181.19L15.27 178.09L11.49 174.62L8.23999 170.92L5.54001 166.98L3.37 162.8L1.88 158.87L0.830017 154.75L0.200012 150.44L0 145.94L0.309998 141.14L1.23001 136.51L2.67999 132.23L4.69 128.1L7.25 124.12L10.36 120.29L12.71 117.87L15.2 115.67L17.81 113.69L20.56 111.94L24.16 110.07L27.96 108.55L31.96 107.37L36.16 106.54L39.07 106.21L42.32 106.07L49.85 106.34L50.86 106.6L51.27 106.63L51.55 106.35L54.08 101.83L56.77 97.52L59.63 93.41L62.64 89.5L65.82 85.8L69.16 82.3L72.67 79L76.33 75.91L80.42 72.83L84.7 69.98L89.17 67.36L93.82 64.98L98.65 62.83L103.67 60.91L108.87 59.22L114.26 57.76L115.21 57.15L115.57 56.07L115.64 51.02L116 46.04L116.63 41.13L117.55 36.29L119.29 29.95L121.59 24.09L124.45 18.72L127.88 13.83L131.37 10L135.28 6.75L138.23 4.83002L141.38 3.19L144.73 1.83002L148.28 0.740021L151.61 0.0900269L154.58 0L157.14 0.470001L159.3 1.46002L160.55 2.42001L161.68 3.65002L163.04 5.96002L163.41 7.13L163.58 8.31003L163.49 9.87003L162.76 13.35L161.87 15.85L161.81 15.96L160.83 17.46L159.42 18.84L157.52 20.13L154.74 21.62L151.84 23.17L149.9 24.54L147.56 26.71L145.48 29.02L143.65 31.47L142.09 34.06L140.15 38.41L138.85 43.11L138.84 44.05L139.5 43.38L141.44 40.75L143.62 38.21L146.02 35.75L148.65 33.37L151.8 30.95L155.06 28.96L158.43 27.4L161.92 26.26L164.21 25.75L166.5 25.43L168.67 25.33L170.72 25.44L172.64 25.76L174.9 26.39L176.95 27.21L178.8 28.21L180.43 29.39L181.7 30.69L182.6 32.16L183.22 34.25L183.25 36.6L182.6 39.42L182.03 40.62L181.29 41.68L180.41 42.59L179.37 43.37L176.81 44.53L172.82 45.87L169.72 47.19L167.15 48.66L164.98 50.35L159.08 56.3L159.02 56.39L159.01 56.78L159.31 57.03L168.16 59.39L176.57 62.44L180.6 64.22L184.53 66.17L188.34 68.29L192.04 70.59L195.83 73.2L199.5 76L203.04 78.99L206.45 82.18L209.75 85.56L212.91 89.13L215.95 92.89L218.87 96.84L221.66 101.19L223.71 105.3L223.97 105.66L224.4 105.84L227.18 106.22L233.79 106L240.05 106.55L243.05 107.11L245.96 107.86L248.78 108.81L251.51 109.94L256.44 112.62L261.05 115.98L265.35 120.02L269.33 124.75L271.2 127.71L273.11 131.69L274.53 135.55L275.37 139.19L275.94 144.77L275.87 150.12L275.15 155.24L273.79 160.14L272.2 163.97L270.18 167.65L267.72 171.17L264.84 174.55L262.08 177.17L258.88 179.62L255.25 181.89L251.17 183.99L248.42 185.12L245.58 186L242.57 186.65L239.29 187.1L235.89 187.33L232.26 187.34L224.28 186.72L223.65 186.8L223.13 187.18L218.07 193.96L217.24 195.51L216.85 197.11L216.82 197.99L216.78 201.61L216.43 207.4L216.03 210.57L215.29 213.85L214.22 217.26L212.8 220.78L211.56 223.25L209.89 226.02L205.27 232.48L200.89 237.52L198.32 240L195.58 242.34L191.59 245.4L187.53 248.2L183.4 250.76L179.21 253.07L174.96 255.12L170.63 256.93L166.25 258.49L161.79 259.79L154.85 261.31L149.51 262.11L144.24 262.62L139.05 262.86L133.93 262.82L128.89 262.5L123.92 261.9L119.03 261.03L114.22 259.87L110.09 258.64L106.01 257.2L101.99 255.54L98.03 253.67L94.12 251.59L90.27 249.3L86.48 246.79L82.75 244.08L78.14 240.25L74.42 236.63L70.95 232.73L67.74 228.54L64.78 224.07L63.25 221.36L61.95 218.55L60.23 213.59L59.14 208.37L58.68 202.89L58.84 197.14L58.95 196.86L59.11 196.63L59.17 196.41L58.98 196.28ZM137.43 139.13L135.19 135.86L131.73 131.57L127.98 128L123.95 125.15L119.63 123.02L116.07 121.85L112.33 121.12L108.42 120.83L104.34 120.97L101.12 121.37L98.11 121.99L95.32 122.84L92.73 123.9L90.2 125.25L87.72 126.91L85.28 128.86L82.89 131.11L80.53 133.75L78.51 136.52L76.84 139.41L75.52 142.44L74.21 147.07L73.8 149.88L73.68 152.69L74.01 156.67L74.91 160.64L76.13 164.06L77.68 167.32L79.44 170.25L81.5 173.02L83.41 175.05L85.83 177.13L88.88 179.36L92.98 182.07L93.43 182.36L93.51 182.41L93.84 183.06L93.59 183.74L91.24 185.99L87.57 189.63L85.64 192.22L84.3 194.97L83.36 197.7L82.81 200.43L82.66 203.16L82.7 204.01L83.04 206.84L83.67 209.57L84.89 212.89L86.59 216.07L88.76 219.11L91.41 222.01L96.29 226.3L101.57 229.94L107.35 232.98L113.53 235.35L118.11 236.67L122.72 237.71L127.34 238.48L131.99 238.96L138.41 239.19L144.87 238.88L151.37 238.06L157.91 236.71L162.45 235.43L166.7 233.88L170.64 232.08L174.29 230.01L178.15 227.38L181.71 224.54L184.96 221.47L187.91 218.18L190.18 214.94L191.71 211.61L192.35 209.38L192.72 207.06L192.86 204.54L192.75 201.89L192.42 199.4L191.85 197.05L191.04 194.84L190 192.77L189.61 192.14L187.61 189.57L184.31 186.21L181.78 183.68L181.73 183.62L181.61 183.09L181.93 182.65L186.22 179.93L189.88 177.14L192.83 174.39L195.37 171.45L197.49 168.33L199.2 165.03L200.74 160.71L201.65 156.11L201.88 152.81L201.75 149.55L201.25 146.35L200.4 143.19L199.18 140.06L197.6 136.97L195.6 133.89L193.29 131.11L190.82 128.75L188.07 126.66L185.04 124.82L181.73 123.25L178.28 122.06L174.6 121.25L170.76 120.85L166.85 120.84L163.02 121.25L159.29 122.06L155.85 123.24L152.64 124.81L148.37 127.65L144.57 130.98L141.25 134.79L138.41 139.09L138 139.37L137.51 139.23L137.43 139.13ZM237.55 128.7L234.78 128.28L232.66 128.21L232.56 128.22L231.88 128.66L231.74 129.46L232.56 133.19L233.16 137L233.51 140.91L233.64 144.91L233.53 149.91L233.17 154.68L232.54 159.21L231.66 163.51L231.81 164.44L232.57 164.97L232.62 164.98L234.82 165.24L236.95 165.26L239.02 165.05L241.01 164.6L243.47 163.67L245.82 162.34L247.65 160.91L249.44 159.07L251.05 157L252.45 154.72L253.51 152.42L254.2 150.26L254.55 148.15L254.54 146.08L254.12 143.48L253.42 141.06L252.4 138.75L251.09 136.65L249.9 135.17L248.55 133.82L245.4 131.55L241.72 129.83L237.55 128.7ZM43.17 130.93L43.41 129.94L43.05 129.1L42.22 128.71L39.55 128.66L37.02 128.9L34.62 129.45L32.35 130.29L29.79 131.7L27.67 133.29L25.85 135.02L24.35 136.91L23.15 138.95L22.34 140.93L21.62 143.76L21.39 146.59L21.5 148.52L21.84 150.45L22.4 152.37L23.19 154.3L24.65 156.9L26.45 159.19L27.92 160.61L29.57 161.87L31.39 162.97L33.38 163.92L37.98 165.47L42.34 166.19H42.46L42.98 166.07L43.41 165.76L43.67 165.29L43.72 164.76L42.8 159.37L42.01 153.97L41.72 148.6L41.78 143.16L42.18 137.64L42.93 132.06L43.17 130.93Z" fill="black"/>
<path d="M104.6 169.14C113.74 169.14 121.15 161.73 121.15 152.59C121.15 143.45 113.74 136.04 104.6 136.04C95.4595 136.04 88.0498 143.45 88.0498 152.59C88.0498 161.73 95.4595 169.14 104.6 169.14Z" fill="black"/>
<path d="M170.76 169.12C179.906 169.12 187.32 161.706 187.32 152.56C187.32 143.414 179.906 136 170.76 136C161.614 136 154.2 143.414 154.2 152.56C154.2 161.706 161.614 169.12 170.76 169.12Z" fill="black"/>
<path d="M124.532 190.205C129.616 190.027 133.61 186.259 133.454 181.788C133.298 177.317 129.051 173.837 123.967 174.015C118.884 174.192 114.889 177.96 115.045 182.431C115.202 186.902 119.449 190.382 124.532 190.205Z" fill="black"/>
<path d="M151.944 190.082C156.843 189.28 160.223 185.011 159.492 180.547C158.761 176.083 154.196 173.115 149.297 173.917C144.397 174.72 141.017 178.989 141.748 183.452C142.479 187.916 147.044 190.884 151.944 190.082Z" fill="black"/>
<path d="M106.75 207.689L107.4 205.729L107.89 205.059L108.49 204.599L109.16 204.369L109.94 204.319L111.79 204.779L116.58 206.609L121.08 208.019L125.31 209.029L129.26 209.629L136.74 210.049L144.15 209.739L148.7 209.179L153.21 208.349L157.7 207.229L162.17 205.839L164.07 205.309L165.69 205.119L167.01 205.309L167.9 205.859L168.38 206.559L168.74 207.809L168.64 209.639L167.83 211.579L166.26 213.569L164.13 215.389L159.85 218.119L155.47 220.279L151.01 221.859L146.46 222.869L141.45 223.309L135.26 223.229L129.69 222.679L124.61 221.639L119.85 220.089L116.61 218.659L113.38 216.899L110.58 214.749L108.21 212.109L106.96 209.769L106.72 208.709L106.75 207.689Z" fill="black"/>
<path d="M57.0002 332.259L57.2302 332.329L58.1702 333.009L58.9001 334.319L59.3802 336.139L59.6602 338.579L59.6702 338.709L59.8401 342.579L59.6702 345.589L59.1302 348.019L58.2002 349.989L57.9502 350.319L57.5102 350.669L54.3701 352.359L51.6602 353.369L47.9802 354.209L44.1302 354.809L40.1201 355.149L35.9402 355.249L32.7902 355.099L29.6102 354.669L26.3802 353.959L23.1102 352.979L19.2202 351.339L16.1602 349.539L13.3502 347.409L10.7602 344.909L8.47015 342.129L6.48016 339.079L4.83017 335.799L3.53015 332.339L2.60016 328.719L1.97015 324.239L1.91016 319.799L2.52014 314.779L3.85016 309.789L5.02014 306.849L6.46014 304.059L8.30017 301.259L10.4601 298.629L12.9202 296.179L15.6902 293.919L18.5502 292.039L21.4402 290.569L25.2202 289.239L29.3502 288.389L34.0302 287.989L39.5302 288.009L42.6002 288.219L45.5402 288.629L48.3602 289.229L51.0602 290.029L53.3502 290.939L55.1201 291.979L56.4202 293.179L57.2502 294.499L57.7002 296.189L57.9301 299.949L57.7802 303.949L57.4001 306.219L56.6902 308.149L55.6501 309.609L54.3902 310.459L53.5502 310.699L52.6002 310.739L50.5901 310.269L47.9202 309.419L44.7902 308.769L41.2101 308.339L37.1801 308.119L34.8102 308.169L32.5402 308.459L30.3701 308.979L28.3002 309.739L26.2602 310.769L24.3302 312.059L23.3602 313.029L22.4301 314.459L21.6602 316.179L21.1002 318.049L20.6702 320.649L20.6102 323.079L20.9402 325.339L21.6402 327.429L23.0402 329.799L25.0302 331.909L25.9102 332.619L28.4301 334.179L31.3502 335.339L34.4502 336.009L37.8701 336.229L41.5002 335.989L45.3302 335.279L49.1201 334.139L52.8802 332.589L53.8002 332.239L55.3401 332.039L57.0002 332.259Z" fill="black"/>
<path d="M90.4496 331.129L89.8796 331.359L89.6496 331.929L89.6796 348.629L89.4296 350.529L88.6696 352.019L87.8696 352.809L86.8596 353.409L85.6096 353.839L84.1396 354.089L79.8496 354.299L75.1596 354.069L73.1896 353.599L71.8096 352.619L71.0596 351.289L70.7996 349.529L70.5596 318.329L70.7096 294.099L71.0096 292.179L71.8396 290.729L72.8396 289.929L74.1596 289.419L77.0796 289.039L81.3596 289.009L86.5096 289.189L87.8396 289.789L88.5496 290.529L89.0796 291.519L89.4096 292.769L89.5496 294.279L89.6496 309.859L90.0096 310.749L90.8896 311.129H90.8996H109.83L110.42 310.889L110.67 310.299L110.74 292.999L110.99 291.419L111.68 290.279L112.61 289.639L113.86 289.319L117.62 289.079L123.71 288.989L125.98 289.309L126.87 289.709L127.59 290.279L128.16 291.009L128.56 291.899L128.87 294.169L128.66 349.589L128.43 351.509L127.64 352.919L126.33 353.789L124.5 354.159L119.33 354.269L113.91 353.969L112.65 353.679L111.71 353.069L111.01 351.929L110.75 350.349L110.67 332.139L110.37 331.429L109.66 331.129H90.4496Z" fill="black"/>
<path d="M182.4 345.609L182.12 345.009L181.67 344.519L181.08 344.209L180.42 344.099H160.73L160.01 344.359L159.63 345.019L158.76 348.459L157.89 350.649L156.79 352.759L156.73 352.859L155.74 353.659L154.13 354.039L148.1 354.299L142.81 354.099L140.81 353.689L140.09 353.309L139.56 352.819L138.75 351.589L138.36 350.469L138.3 349.319L138.56 347.999L142.24 337.939L144.22 332.749L152.52 310.349L159.82 291.839L160.33 290.969L160.96 290.349L161.77 289.879L163.91 289.339L168.87 288.999L174.16 288.979L175.13 288.999L178.63 289.269L179.88 289.689L180.82 290.279L181.44 290.899L182.71 292.629L183.48 294.099L199.2 334.889L201.95 342.509L203.38 347.409L203.62 349.379L203.48 351.209L202.97 352.629L202.13 353.489L201.15 353.829L194.55 354.289L187.59 353.969L186.49 353.609L185.65 352.819L183.76 349.459L182.4 345.609ZM170.73 314.379L166.73 326.479L166.65 327.029L166.76 327.499L166.81 327.599L167.24 327.949L167.99 328.099L174.97 328.089L175.45 327.849L175.57 327.329L175.55 327.239L171.18 314.379L171.01 314.219L170.79 314.289L170.73 314.379Z" fill="black"/>
<path d="M233.99 323.56L233.44 323.34L233.02 323.38L232.68 323.87L232.59 324.84L232.77 338.43L232.49 350.74L232.23 352.06L231.62 352.93L230.94 353.28L228.2 353.91L225.31 354.27L222.26 354.34L219.06 354.14L216.64 353.53L215.7 353L214.94 352.299L214.81 352.14L214.3 351.27L213.94 350.15L213.64 347.14V296.64L213.87 293.4L214.15 292.26L214.53 291.46L215.07 290.81L215.99 290.06L217.11 289.52L218.44 289.17L219.97 289.02L228.15 289.03L230 289.43L231.16 290.12L232.18 291.14L242.31 304.04L253.79 319.08L253.86 319.15L254.13 319.18L254.31 318.98L254.62 316.65L254.64 297.39L254.7 294.95L254.92 293.08L255.34 291.56L255.95 290.46L256.77 289.85L258.05 289.51L263.89 289.03L269.37 289.26L270.43 289.51L271.27 289.98L272.09 290.91L272.62 292.18L273.37 295.67L273.75 300.64V341.64L273.7 346.14L273.17 349.92L272.5 351.74L271.42 353.08L269.79 353.97L267.67 354.29H262.84L259.81 354.12L258.19 353.72L256.87 352.96L256.71 352.82L254.15 350.17L244.85 337.96L234.99 325.59L234.49 324.609L233.99 323.56Z" fill="black"/>
</svg>
