<svg xmlns="http://www.w3.org/2000/svg" xmlns:xlink="http://www.w3.org/1999/xlink" width="500" zoomAndPan="magnify" viewBox="0 0 375 374.999991" height="500" preserveAspectRatio="xMidYMid meet" version="1.0"><defs><clipPath id="5dd4b72275"><path d="M 112.5 116.34375 L 262.5 116.34375 L 262.5 258.84375 L 112.5 258.84375 Z M 112.5 116.34375 " clip-rule="nonzero"/></clipPath><clipPath id="3455b3feb9"><path d="M 124.5 128.34375 L 274.5 128.34375 L 274.5 270.09375 L 124.5 270.09375 Z M 124.5 128.34375 " clip-rule="nonzero"/></clipPath></defs><g clip-path="url(#5dd4b72275)"><path fill="#000000" d="M 261.214844 218.71875 C 259.007812 214.273438 253.664062 212.433594 248.785156 214.441406 L 243.097656 216.78125 L 243.097656 181.578125 L 244.359375 182.691406 C 245.515625 183.703125 246.949219 184.203125 248.378906 184.203125 C 250.074219 184.203125 251.765625 183.5 252.96875 182.125 L 253.367188 181.671875 C 254.4375 180.449219 254.972656 178.878906 254.863281 177.246094 C 254.757812 175.617188 254.023438 174.125 252.800781 173.050781 L 237.167969 159.320312 L 237.167969 134.335938 C 237.167969 133.308594 236.332031 132.472656 235.304688 132.472656 L 220.703125 132.472656 C 219.675781 132.472656 218.839844 133.308594 218.839844 134.335938 L 218.839844 143.226562 L 202.289062 128.691406 C 201.585938 128.074219 200.535156 128.074219 199.832031 128.691406 L 197.117188 131.074219 C 196.945312 130.570312 196.664062 130.09375 196.261719 129.6875 L 189.917969 123.339844 C 188.734375 122.152344 186.917969 121.957031 185.507812 122.867188 L 180.539062 126.085938 C 179.6875 125.675781 178.808594 125.3125 177.921875 124.996094 L 176.679688 119.207031 C 176.324219 117.5625 174.910156 116.414062 173.230469 116.414062 L 164.261719 116.414062 C 162.582031 116.414062 161.164062 117.5625 160.808594 119.207031 L 159.566406 124.996094 C 158.683594 125.308594 157.804688 125.675781 156.949219 126.085938 L 151.980469 122.867188 C 150.570312 121.957031 148.757812 122.152344 147.570312 123.339844 L 141.230469 129.6875 C 140.042969 130.875 139.851562 132.691406 140.761719 134.105469 L 143.972656 139.078125 C 143.566406 139.933594 143.199219 140.816406 142.886719 141.699219 L 137.101562 142.945312 C 135.460938 143.296875 134.3125 144.71875 134.3125 146.398438 L 134.3125 155.378906 C 134.3125 157.0625 135.460938 158.480469 137.101562 158.835938 L 142.886719 160.078125 C 143.203125 160.96875 143.566406 161.847656 143.972656 162.699219 L 140.761719 167.675781 C 139.851562 169.089844 140.042969 170.902344 141.230469 172.09375 L 147.269531 178.140625 C 147.371094 179.402344 147.855469 180.648438 148.753906 181.667969 L 149.152344 182.125 C 150.222656 183.347656 151.710938 184.082031 153.339844 184.1875 C 154.972656 184.296875 156.539062 183.761719 157.765625 182.691406 L 159.027344 181.578125 L 159.027344 199.832031 C 153.484375 200.929688 148.445312 202.792969 143.660156 205.503906 L 143.660156 195.132812 C 143.660156 194.101562 142.824219 193.265625 141.796875 193.265625 L 133.203125 193.265625 L 133.203125 187.730469 C 133.203125 186.703125 132.371094 185.863281 131.339844 185.863281 L 114.363281 185.863281 C 113.335938 185.863281 112.5 186.703125 112.5 187.730469 L 112.5 256.878906 C 112.5 257.90625 113.335938 258.742188 114.363281 258.742188 L 131.339844 258.742188 C 132.371094 258.742188 133.203125 257.90625 133.203125 256.878906 L 133.203125 251.34375 L 141.800781 251.34375 C 142.828125 251.34375 143.664062 250.503906 143.664062 249.476562 L 143.664062 240.03125 L 188.871094 253.019531 C 189.878906 253.308594 190.851562 253.449219 191.835938 253.449219 C 192.554688 253.449219 193.28125 253.371094 194.035156 253.21875 L 223.738281 247.164062 C 223.878906 247.136719 224.011719 247.09375 224.144531 247.035156 L 239.0625 240.214844 C 239.082031 240.207031 239.097656 240.195312 239.117188 240.191406 L 257 231.289062 C 259.234375 230.179688 260.902344 228.257812 261.699219 225.878906 C 262.496094 223.496094 262.324219 220.953125 261.214844 218.71875 Z M 129.476562 255.003906 L 116.226562 255.003906 L 116.226562 189.59375 L 129.476562 189.59375 Z M 222.570312 136.203125 L 233.445312 136.203125 L 233.445312 156.046875 L 222.570312 146.5 Z M 147.382812 161.175781 C 147 160.386719 146.660156 159.566406 146.371094 158.738281 C 145.960938 157.566406 144.992188 156.714844 143.78125 156.453125 L 138.046875 155.21875 L 138.046875 146.5625 L 143.78125 145.328125 C 144.992188 145.066406 145.960938 144.214844 146.371094 143.042969 C 146.660156 142.214844 147 141.394531 147.382812 140.601562 C 147.917969 139.480469 147.839844 138.191406 147.167969 137.148438 L 143.984375 132.214844 L 150.097656 126.089844 L 155.023438 129.277344 C 156.066406 129.953125 157.355469 130.035156 158.472656 129.492188 C 159.265625 129.109375 160.082031 128.769531 160.910156 128.480469 C 162.078125 128.066406 162.933594 127.097656 163.191406 125.886719 L 164.425781 120.144531 L 173.074219 120.144531 L 174.308594 125.886719 C 174.566406 127.097656 175.417969 128.066406 176.589844 128.480469 C 177.417969 128.769531 178.234375 129.109375 179.023438 129.492188 C 180.144531 130.035156 181.433594 129.953125 182.472656 129.277344 L 187.402344 126.089844 L 193.515625 132.214844 L 190.496094 136.890625 L 183.265625 143.242188 C 180.46875 137.902344 174.929688 134.46875 168.75 134.46875 C 159.703125 134.46875 152.347656 141.835938 152.347656 150.890625 C 152.347656 156.238281 155.003906 161.25 159.285156 164.300781 L 149.324219 173.046875 C 148.984375 173.34375 148.6875 173.671875 148.433594 174.023438 L 143.984375 169.566406 L 147.171875 164.632812 C 147.839844 163.585938 147.917969 162.296875 147.382812 161.175781 Z M 162.191406 161.746094 C 158.445312 159.464844 156.074219 155.332031 156.074219 150.890625 C 156.074219 143.894531 161.761719 138.199219 168.75 138.199219 C 173.832031 138.199219 178.355469 141.207031 180.355469 145.792969 Z M 155.3125 179.882812 C 154.835938 180.296875 154.222656 180.503906 153.589844 180.464844 C 152.957031 180.421875 152.375 180.136719 151.960938 179.660156 L 151.5625 179.207031 C 150.699219 178.222656 150.796875 176.714844 151.78125 175.851562 L 201.0625 132.574219 L 250.34375 175.851562 C 250.820312 176.269531 251.101562 176.847656 251.144531 177.484375 C 251.1875 178.117188 250.980469 178.730469 250.566406 179.207031 L 250.167969 179.660156 C 249.304688 180.648438 247.800781 180.746094 246.816406 179.882812 L 202.292969 140.78125 C 201.941406 140.472656 201.503906 140.316406 201.0625 140.316406 C 200.621094 140.316406 200.1875 140.472656 199.832031 140.78125 Z M 162.757812 178.304688 L 201.066406 144.664062 L 239.371094 178.304688 L 239.371094 218.3125 L 237.855469 218.9375 L 222.089844 224.644531 L 216.296875 224.777344 L 216.296875 186.496094 C 216.296875 178.878906 209.464844 172.675781 201.066406 172.675781 C 192.671875 172.675781 185.839844 178.878906 185.839844 186.496094 L 185.839844 207.394531 L 179.882812 202.804688 C 175.992188 199.8125 172.246094 198.519531 168.097656 198.734375 C 166.265625 198.832031 164.492188 198.996094 162.765625 199.222656 L 162.765625 178.304688 Z M 212.5625 220.121094 C 211.539062 217.871094 209.554688 216.042969 206.949219 215.246094 L 189.5625 209.925781 L 189.5625 186.492188 C 189.5625 180.929688 194.71875 176.40625 201.0625 176.40625 C 207.402344 176.40625 212.5625 180.929688 212.5625 186.492188 Z M 139.9375 247.605469 L 133.203125 247.605469 L 133.203125 196.996094 L 139.9375 196.996094 Z M 258.164062 224.6875 C 257.683594 226.121094 256.679688 227.277344 255.339844 227.945312 L 237.480469 236.832031 L 222.789062 243.550781 L 193.292969 249.5625 C 192.105469 249.804688 191.058594 249.761719 189.898438 249.429688 L 143.664062 236.148438 L 143.664062 209.835938 C 150.933594 205.308594 158.769531 202.960938 168.289062 202.460938 C 171.5 202.292969 174.460938 203.339844 177.605469 205.761719 L 186.847656 212.878906 C 187.023438 213.015625 187.226562 213.117188 187.4375 213.183594 L 205.859375 218.816406 C 208.523438 219.628906 210.097656 222.25 209.449219 224.785156 C 208.78125 227.394531 206.113281 228.972656 203.511719 228.300781 L 176.597656 221.375 C 175.601562 221.121094 174.585938 221.71875 174.332031 222.71875 C 174.078125 223.714844 174.675781 224.734375 175.675781 224.988281 L 202.585938 231.914062 C 203.296875 232.097656 204.015625 232.1875 204.730469 232.1875 C 206.25 232.1875 207.753906 231.777344 209.101562 230.980469 C 210.140625 230.363281 211.019531 229.558594 211.703125 228.609375 L 222.476562 228.367188 C 222.675781 228.363281 222.875 228.328125 223.066406 228.257812 L 239.160156 222.433594 C 239.183594 222.425781 239.207031 222.414062 239.234375 222.40625 L 250.203125 217.894531 C 253.25 216.640625 256.554688 217.707031 257.878906 220.378906 C 258.542969 221.722656 258.644531 223.253906 258.164062 224.6875 Z M 258.164062 224.6875 " fill-opacity="1" fill-rule="nonzero"/></g><g clip-path="url(#3455b3feb9)"><path fill="#000000" d="M 162.5625 160.667969 C 162.5625 151.152344 170.308594 143.40625 179.824219 143.40625 C 186.328125 143.40625 192.160156 147.015625 195.101562 152.628906 L 202.710938 145.953125 L 205.886719 141.039062 L 199.449219 134.601562 L 194.265625 137.953125 C 193.167969 138.660156 191.8125 138.746094 190.636719 138.179688 C 189.800781 137.777344 188.941406 137.421875 188.074219 137.117188 C 186.839844 136.683594 185.941406 135.664062 185.671875 134.390625 L 184.378906 128.355469 L 175.273438 128.355469 L 173.980469 134.390625 C 173.707031 135.664062 172.808594 136.679688 171.578125 137.113281 C 170.710938 137.417969 169.847656 137.777344 169.011719 138.179688 C 167.835938 138.742188 166.480469 138.660156 165.382812 137.953125 L 160.199219 134.601562 L 153.761719 141.039062 L 157.113281 146.226562 C 157.820312 147.324219 157.90625 148.675781 157.335938 149.851562 C 156.9375 150.6875 156.578125 151.550781 156.273438 152.417969 C 155.839844 153.648438 154.820312 154.546875 153.546875 154.820312 L 147.511719 156.117188 L 147.511719 165.21875 L 153.546875 166.515625 C 154.820312 166.789062 155.839844 167.683594 156.273438 168.917969 C 156.578125 169.785156 156.9375 170.648438 157.335938 171.480469 C 157.902344 172.65625 157.816406 174.011719 157.109375 175.109375 L 153.757812 180.292969 L 158.441406 184.980469 C 158.710938 184.613281 159.019531 184.269531 159.378906 183.957031 L 169.867188 174.761719 C 165.359375 171.558594 162.5625 166.289062 162.5625 160.667969 Z M 138.496094 270.101562 L 138.496094 201.347656 L 124.550781 201.347656 L 124.550781 270.101562 Z M 149.503906 262.320312 L 149.503906 209.125 L 142.417969 209.125 L 142.417969 262.320312 Z M 198.871094 225.816406 L 189.140625 218.34375 C 185.832031 215.796875 182.714844 214.695312 179.335938 214.871094 C 169.320312 215.394531 161.070312 217.863281 153.421875 222.625 L 153.421875 250.277344 L 202.078125 264.238281 C 203.300781 264.589844 204.402344 264.632812 205.652344 264.378906 L 236.695312 258.058594 L 252.160156 250.996094 L 270.953125 241.65625 C 272.363281 240.953125 273.417969 239.738281 273.925781 238.230469 C 274.429688 236.722656 274.324219 235.117188 273.625 233.703125 C 272.226562 230.894531 268.753906 229.773438 265.542969 231.09375 L 254 235.835938 C 253.972656 235.84375 253.949219 235.855469 253.921875 235.863281 L 236.988281 241.984375 C 236.789062 242.058594 236.578125 242.097656 236.367188 242.101562 L 225.035156 242.355469 C 224.3125 243.351562 223.390625 244.199219 222.296875 244.84375 C 220.878906 245.683594 219.296875 246.109375 217.695312 246.109375 C 216.945312 246.109375 216.183594 246.015625 215.441406 245.824219 L 187.121094 238.542969 C 186.070312 238.277344 185.4375 237.203125 185.707031 236.15625 C 185.976562 235.109375 187.046875 234.476562 188.09375 234.746094 L 216.417969 242.023438 C 219.160156 242.726562 221.964844 241.070312 222.667969 238.332031 C 223.347656 235.667969 221.691406 232.914062 218.886719 232.058594 L 199.5 226.136719 C 199.269531 226.070312 199.058594 225.960938 198.871094 225.816406 Z M 225.933594 198.085938 L 225.933594 233.433594 C 224.859375 231.066406 222.769531 229.144531 220.027344 228.308594 L 201.730469 222.71875 L 201.730469 198.085938 C 201.730469 192.242188 207.15625 187.484375 213.832031 187.484375 C 220.507812 187.484375 225.933594 192.242188 225.933594 198.085938 Z M 254.148438 189.484375 L 254.148438 231.535156 L 252.550781 232.191406 L 235.957031 238.1875 L 229.859375 238.324219 L 229.859375 198.089844 C 229.859375 190.082031 222.667969 183.566406 213.835938 183.566406 C 205 183.566406 197.808594 190.082031 197.808594 198.089844 L 197.808594 220.054688 L 191.539062 215.234375 C 187.441406 212.085938 183.5 210.726562 179.136719 210.957031 C 177.207031 211.058594 175.339844 211.230469 173.523438 211.46875 L 173.523438 189.484375 L 213.839844 154.128906 Z M 236.46875 156.054688 L 247.910156 166.089844 L 247.910156 145.230469 L 236.46875 145.230469 Z M 215.125 150.046875 C 214.757812 149.722656 214.296875 149.558594 213.832031 149.558594 C 213.371094 149.558594 212.90625 149.722656 212.539062 150.046875 L 165.679688 191.140625 C 165.179688 191.578125 164.535156 191.792969 163.867188 191.75 C 163.199219 191.707031 162.589844 191.40625 162.152344 190.90625 L 161.734375 190.429688 C 160.824219 189.394531 160.929688 187.8125 161.964844 186.902344 L 213.832031 141.421875 L 265.703125 186.90625 C 266.199219 187.34375 266.5 187.957031 266.542969 188.621094 C 266.585938 189.292969 266.367188 189.933594 265.929688 190.433594 L 265.511719 190.910156 C 264.601562 191.945312 263.019531 192.050781 261.984375 191.140625 Z M 215.125 150.046875 " fill-opacity="1" fill-rule="evenodd"/></g></svg>