<?xml version="1.0" standalone="no"?><!DOCTYPE svg PUBLIC "-//W3C//DTD SVG 1.1//EN" "http://www.w3.org/Graphics/SVG/1.1/DTD/svg11.dtd"><svg t="1732532432696" class="icon" viewBox="0 0 1024 1024" version="1.1" xmlns="http://www.w3.org/2000/svg" p-id="1801" xmlns:xlink="http://www.w3.org/1999/xlink" width="200" height="200"><path d="M751.529375 441.897386c0 41.944298-40.315194 75.937506-90.044806 75.937506-49.724495 0-90.039689-33.993209-90.039689-75.937506 0-41.939181 40.315194-75.936483 90.039689-75.936483C711.215204 365.960903 751.529375 399.959228 751.529375 441.897386z" fill="#333333" p-id="1802"></path><path d="M144.174634 795.268552c13.709233 0.053212 22.607904 2.825348 30.535457 6.949272 5.928013 3.131317 11.340279 7.260357 17.093307 12.177344 8.631588 7.299243 17.886369 16.559141 30.827099 24.353664 6.458085 3.860934 13.845333 7.265474 22.248723 9.619078 8.403391 2.367931 17.774829 3.666506 28.201296 3.666506 18.522865 0.058328 33.788547-4.26514 46.004777-10.790764 9.181103-4.848425 16.603143-10.698666 23.12365-16.262382 9.779737-8.41874 17.663288-15.990183 26.319435-21.110807 4.337795-2.586918 8.865925-4.65809 14.20963-6.166443 5.344728-1.493004 11.550057-2.436492 19.252483-2.436492 13.704117 0.053212 22.603811 2.825348 30.53034 6.949272 5.928013 3.131317 11.340279 7.260357 17.098423 12.177344 8.627495 7.299243 17.881253 16.559141 30.821983 24.353664 6.463202 3.860934 13.850449 7.265474 22.248723 9.619078 8.403391 2.367931 17.778922 3.666506 28.206412 3.666506 18.513656 0.058328 33.784454-4.26514 46.004777-10.790764 9.175987-4.848425 16.60212-10.698666 23.12365-16.262382 9.779737-8.41874 17.663288-15.990183 26.319435-21.110807 4.337795-2.586918 8.864902-4.65809 14.20963-6.166443 5.344728-1.493004 11.555174-2.436492 19.252483-2.436492 13.709233 0.053212 22.61302 2.825348 30.544667 6.949272 5.922896 3.131317 11.340279 7.260357 17.093307 12.177344 8.636704 7.299243 17.891486 16.559141 30.837332 24.353664 6.458085 3.860934 13.845333 7.265474 22.248723 9.619078 8.403391 2.367931 17.774829 3.666506 28.200272 3.666506 18.523889 0.058328 33.79878-4.26514 46.01501-10.790764 9.175987-4.848425 16.607236-10.698666 23.12365-16.262382 9.779737-8.41874 17.667382-15.990183 26.324552-21.110807 4.337795-2.586918 8.864902-4.65809 14.20963-6.166443 5.348821-1.493004 11.555174-2.436492 19.257599-2.436492 9.147334 0 16.559141-7.411807 16.559141-16.559141 0-9.147334-7.411807-16.559141-16.559141-16.559141-18.518772-0.054235-33.788547 4.269233-46.009893 10.790764-9.181103 4.853541-16.607236 10.703783-23.128767 16.262382-9.779737 8.422833-17.667382 15.999392-26.324552 21.1149-4.337795 2.587941-8.864902 4.659113-14.20963 6.161327-5.344728 1.49812-11.550057 2.441609-19.257599 2.441609-13.704117-0.054235-22.61302-2.825348-30.535457-6.949272-5.933129-3.131317-11.345396-7.260357-17.10354-12.177344-8.636704-7.29515-17.886369-16.559141-30.827099-24.354688-6.463202-3.866051-13.854543-7.265474-22.257933-9.613962-8.403391-2.367931-17.774829-3.676739-28.201296-3.676739-18.522865-0.054235-33.793664 4.269233-46.004777 10.790764-9.181103 4.853541-16.612353 10.703783-23.128767 16.262382-9.779737 8.422833-17.663288 15.999392-26.319435 21.1149-4.337795 2.587941-8.865925 4.659113-14.204513 6.161327-5.348821 1.49812-11.55415 2.441609-19.252483 2.441609-13.709233-0.054235-22.608927-2.825348-30.535457-6.949272-5.922896-3.131317-11.340279-7.260357-17.098423-12.177344-8.627495-7.29515-17.881253-16.559141-30.821983-24.354688-6.458085-3.866051-13.845333-7.265474-22.248723-9.613962-8.403391-2.367931-17.774829-3.676739-28.201296-3.676739-18.518772-0.054235-33.788547 4.269233-46.00887 10.790764-9.17701 4.853541-16.60212 10.703783-23.124673 16.262382-9.779737 8.422833-17.663288 15.999392-26.318412 21.1149-4.337795 2.587941-8.865925 4.659113-14.205537 6.161327-5.344728 1.49812-11.550057 2.441609-19.252483 2.441609-13.704117-0.054235-22.603811-2.825348-30.53034-6.949272-5.928013-3.131317-11.341303-7.260357-17.09433-12.177344-8.636704-7.29515-17.890462-16.559141-30.832216-24.354688-6.458085-3.866051-13.84431-7.265474-22.248723-9.613962-8.399297-2.367931-17.774829-3.676739-28.201296-3.676739-9.147334 0-16.559141 7.411807-16.559141 16.559141C127.616516 787.857768 135.027299 795.268552 144.174634 795.268552z" fill="#333333" p-id="1803"></path><path d="M144.174634 902.183584c13.709233 0.053212 22.607904 2.815115 30.535457 6.949272 5.928013 3.131317 11.340279 7.251148 17.093307 12.168134 8.631588 7.308453 17.886369 16.568351 30.827099 24.358781 6.458085 3.871167 13.845333 7.269567 22.248723 9.613962 8.403391 2.367931 17.774829 3.681856 28.201296 3.681856 18.522865 0.053212 33.788547-4.279467 46.004777-10.79588 9.181103-4.848425 16.603143-10.708899 23.12365-16.271592 9.779737-8.407484 17.663288-15.989159 26.319435-21.110807 4.337795-2.586918 8.865925-4.659113 14.20963-6.161327 5.344728-1.49812 11.550057-2.431376 19.252483-2.431376 13.704117 0.053212 22.603811 2.815115 30.53034 6.949272 5.928013 3.131317 11.340279 7.251148 17.098423 12.168134 8.627495 7.308453 17.881253 16.568351 30.821983 24.358781 6.463202 3.871167 13.850449 7.269567 22.248723 9.613962 8.403391 2.367931 17.778922 3.681856 28.206412 3.681856 18.513656 0.053212 33.784454-4.279467 46.004777-10.79588 9.175987-4.848425 16.60212-10.708899 23.12365-16.271592 9.779737-8.407484 17.663288-15.989159 26.319435-21.110807 4.337795-2.586918 8.864902-4.659113 14.20963-6.161327 5.344728-1.49812 11.555174-2.431376 19.252483-2.440585 13.709233 0.062422 22.61302 2.825348 30.544667 6.958482 5.922896 3.131317 11.340279 7.251148 17.093307 12.177344 8.636704 7.299243 17.891486 16.559141 30.837332 24.349571 6.458085 3.871167 13.845333 7.269567 22.248723 9.613962 8.403391 2.367931 17.774829 3.681856 28.200272 3.681856 18.523889 0.053212 33.79878-4.279467 46.01501-10.79588 9.175987-4.848425 16.607236-10.708899 23.12365-16.262382 9.779737-8.417717 17.667382-15.999392 26.324552-21.120017 4.337795-2.586918 8.864902-4.659113 14.20963-6.161327 5.348821-1.49812 11.555174-2.431376 19.257599-2.431376 9.147334 0 16.559141-7.421017 16.559141-16.559141 0-9.147334-7.411807-16.559141-16.559141-16.559141-18.518772-0.063445-33.788547 4.269233-46.009893 10.786671-9.181103 4.848425-16.607236 10.708899-23.128767 16.262382-9.779737 8.4126-17.667382 15.999392-26.324552 21.120017-4.337795 2.586918-8.864902 4.653997-14.20963 6.161327-5.344728 1.502213-11.550057 2.431376-19.257599 2.431376-13.704117-0.058328-22.61302-2.821255-30.535457-6.950296-5.933129-3.131317-11.345396-7.250124-17.10354-12.177344-8.636704-7.299243-17.886369-16.559141-30.827099-24.349571-6.463202-3.871167-13.854543-7.265474-22.257933-9.619078-8.403391-2.363837-17.774829-3.675716-28.201296-3.675716-18.522865-0.054235-33.793664 4.279467-46.004777 10.79588-9.181103 4.848425-16.612353 10.708899-23.128767 16.271592-9.779737 8.403391-17.663288 15.989159-26.319435 21.110807-4.337795 2.586918-8.865925 4.653997-14.204513 6.161327-5.348821 1.502213-11.55415 2.431376-19.252483 2.431376-13.709233-0.058328-22.608927-2.821255-30.535457-6.950296-5.922896-3.131317-11.340279-7.250124-17.098423-12.167111-8.627495-7.309476-17.881253-16.568351-30.821983-24.358781-6.458085-3.871167-13.845333-7.265474-22.248723-9.619078-8.403391-2.363837-17.774829-3.675716-28.201296-3.675716-18.518772-0.054235-33.788547 4.279467-46.00887 10.79588-9.17701 4.848425-16.60212 10.708899-23.124673 16.271592-9.779737 8.403391-17.663288 15.989159-26.318412 21.110807-4.337795 2.586918-8.865925 4.653997-14.205537 6.161327-5.344728 1.502213-11.550057 2.431376-19.252483 2.431376-13.704117-0.058328-22.603811-2.821255-30.53034-6.950296-5.928013-3.131317-11.341303-7.250124-17.09433-12.167111-8.636704-7.309476-17.890462-16.568351-30.832216-24.358781-6.458085-3.871167-13.84431-7.265474-22.248723-9.619078-8.399297-2.363837-17.774829-3.675716-28.201296-3.675716-9.147334 0-16.559141 7.421017-16.559141 16.568351C127.616516 894.762567 135.027299 902.183584 144.174634 902.183584z" fill="#333333" p-id="1804"></path><path d="M899.397121 188.210569c-2.275833-2.217505-5.315052-4.92108-9.862625-7.065929-4.435009-2.182712-11.156084-3.228531-17.658172-0.753153-13.091156 4.834098-22.394033 18.013259-35.45142 27.918863-6.502088 4.92108-14.117532 8.394181-22.268166 7.051603-8.16496-1.191128-16.748453-6.701632-24.607444-13.81054-8.218172-7.585769-16.96744-16.038278-26.498514-24.582885-9.599635-8.510838-20.031219-17.492396-33.005718-24.943089-6.477528-3.686972-13.665231-6.901177-21.465894-8.986675-7.795547-2.115174-16.125259-3.035126-24.450878-2.733251-16.72901 0.61296-32.943296 5.680373-48.416709 12.30321-15.513322 6.701632-30.5549 15.09479-45.547359 24.349571-7.489578 4.634554-14.9679 9.502421-22.457478 14.559601-7.708566 5.266957-14.31196 9.940396-21.864984 13.679557-7.410783 3.75451-15.182794 6.511297-22.977317 7.546883-7.795547 1.050935-15.566534 0.301875-23.181979-2.348488-15.338337-5.256724-29.66974-17.774829-43.416835-31.819706-13.82589-14.146185-27.427676-30.122041-42.698474-45.76123-15.236006-15.629979-32.256658-31.157627-52.549843-43.728944-20.167319-12.610202-43.840484-21.732977-68.769246-24.937972-12.444427-1.667989-25.118074-1.959631-37.6986-1.074472-12.599969 0.899486-25.059745 2.805906-37.601386 5.90857-24.962531 6.205329-49.808406 17.755386-70.564126 35.602869-20.823258 17.697057-36.930097 41.428551-46.573735 67.533093-9.721409 26.143427-13.31526 54.437843-11.875468 82.458013 1.429559 28.069289 7.863085 55.974849 18.324344 82.512249 20.979824 53.15871 58.21589 100.641141 106.593713 135.645376 24.349571 17.07898 49.525973 31.05632 75.222215 44.939515 12.857842 6.881734 25.846668 13.58746 38.986943 20.167319l9.896394 4.906753 5.009084 2.445702c0.651846 0.286526-0.554632-0.218988 1.648546 0.743944l0.632403 0.257873 1.274016 0.505513 2.542916 1.02126 20.391423 8.18952 16.315594 6.540973c1.415232 13.748119 6.097882 45.36828 21.271466 85.429695 29.975708 79.166037 81.003895 89.801259 81.003895 89.801259s17.545608 4.571109 39.61423-24.632004c22.063505-29.197996 22.063505-29.197996 22.063505-29.197996s-5.4225 44.847417-9.526981 101.127212c0.666172-0.130983 1.39579-0.213871 2.01796-0.388856 2.139733-0.602727 4.002151-1.419326 6.17156-2.713808 4.293793-2.542916 9.502421-7.115048 15.537881-12.415774 1.984191-1.735527 4.021593-3.530406 6.147-5.359055 7.192819-6.137791 16.914228-13.919011 29.256324-20.439518 18.134009-9.68764 38.744419-14.628162 61.124126-14.628162 13.441127 0 25.954115 1.653663 37.527708 4.91187 10.475586 2.932796 20.677948 7.328919 30.272467 13.06148 12.619412 7.611352 22.049179 15.931854 29.626761 22.618137 1.915629 1.692548 3.76372 3.326768 5.587252 4.867868 4.940522 4.221138 8.247848 6.638187 11.189853 8.18952 2.567475 1.337461 5.786797 2.713808 12.391215 3.039219l-1.892093-38.95829 0.559748 0.355087c19.160385 9.707083 47.015803 10.825556 63.871703 0.890276 24.796756-16.451694 26.211988-38.491663 23.192212-53.824883-2.105964-10.679223-10.378371-23.11444-16.363689-31.05018-13.407358-17.759479-36.721343-50.172703-47.181579-73.904197-15.133675-34.339086-53.591569-49.234331-101.103676-48.475038-21.295002-0.734734-69.775156-1.016143-87.705528-0.345877-28.750811-0.821715-53.489238 4.012384-72.28021 14.647605l151.027715 59.689451c4.581342-0.909719 9.541307-1.425466 14.992459-1.25969 34.790364 1.056052 45.859467 17.395182 61.668525 27.41335-36.896328-15.815197-67.280336-21.782096-80.620156 9.17701-15.649422-6.229888-237.591233-94.635357-237.591233-94.635357-1.614777-11.637038-8.208962-37.129642-35.17922-37.610596-13.757329-0.23843-22.404266 5.479805-27.904537 12.483312l-12.824073-5.106298-20.425192-8.106632-4.041036-1.609661-4.844332-2.339278-9.69685-4.751211c-12.906961-6.390547-25.687032-12.921287-38.272675-19.584034-25.068955-13.359262-49.953715-27.116591-71.953775-42.382273-43.340087-30.958082-77.381391-73.729212-96.342232-120.881115-9.507538-23.556509-15.366989-48.217165-16.83134-72.66395-1.487887-24.417109 1.464351-48.650023 9.366322-70.552869 7.853875-21.893636 20.775162-41.278125 37.601386-55.92573 16.757662-14.755052 37.182854-24.690332 58.620096-30.321586 21.557992-5.528923 43.99091-7.640004 64.951291-5.115508 21.076014 2.440585 40.873919 9.67229 58.624189 20.351514 17.803481 10.640338 33.589003 24.422226 48.353264 39.069831 14.817474 14.657838 28.585035 30.267351 43.544749 45.041846 7.493671 7.358595 15.313777 14.530948 24.00881 20.955264 8.665357 6.39464 18.34788 12.07092 29.178553 15.547091 10.771321 3.540639 22.607904 4.425799 33.491789 2.660596 10.933003-1.716084 20.84884-5.636371 29.694299-10.348696 8.846482-4.620227 16.933671-10.655687 23.833825-15.601326 7.173376-5.101181 14.31196-10.002818 21.427008-14.651698 14.20963-9.274224 28.322046-17.619286 42.391483-24.150026 14.044878-6.507204 28.137851-11.180644 41.584094-12.07092 13.45136-0.977257 26.007327 2.324952 37.343513 8.359388 11.355629 5.981225 21.568225 14.005992 31.17707 21.913079 9.634428 7.980765 18.543332 15.907295 27.418466 23.411199 4.726651 3.885494 9.565866 7.30436 14.870686 10.07138 5.276167 2.742461 11.034311 4.774747 17.020652 5.353938 5.977132 0.61296 12.002358-0.466628 17.034978-2.602268 5.072529-2.139733 9.244548-5.101181 12.8384-8.126075 7.148817-6.113231 12.361539-12.449543 17.370623-17.697057 4.945639-5.256724 9.633405-9.580193 14.366196-11.769045 4.682649-2.24718 9.302877-2.061962 13.222139-0.773619 3.924379 1.279133 7.076162 3.282766 9.546424 4.940522 4.901637 3.443425 7.343245 5.558599 7.80578 5.115508C905.373229 195.626469 903.851573 192.767352 899.397121 188.210569zM504.47563 610.393961c-6.599302 11.145851-14.31196 22.676465-21.547759 32.917714-5.505387-13.650905-11.385305-32.067346-16.131399-48.013527L504.47563 610.393961z" fill="#333333" p-id="1805"></path></svg>