<svg width="460" height="440" viewBox="0 0 460 440" fill="none" xmlns="http://www.w3.org/2000/svg">
<path d="M456.15 381.02L457.85 371.73L458.27 367.78L458.41 364.28L458.42 170.66L458.51 166.14L458.63 157.54L458.35 151.63L458.11 150.09L457.79 149.56L457.4 150.03L456.93 151.52L455.88 153.67L443.09 177.54L438.59 185.75L437.58 187.83L436.28 189.78L436.75 188.44L436.89 187.11L436.72 185.93L436.29 184.76L424.21 158.89L421.83 154.39L419 150.27L415.47 146.23L411.52 142.68L407.12 139.59L402.39 137.05L397.39 135.1L392.19 133.77L386.92 133.09L381.56 133.05L375.88 133.73L370.4 135.13L364.61 137.36L359.39 140.12L354.72 143.41L350.62 147.22L348.72 149.4L346.97 151.72L345.37 154.17L343.92 156.77L341.47 162.39L339.62 168.57L339.11 171.53L338.75 175.45L307.4 231.72L307.13 232.96L307.61 234.15L308.34 235.24L308.84 236.4L309.12 237.86L306.15 232.49L274.12 174.59L269.6 165.83L266.39 159.5L264.01 155.33L260.41 150.19L256.42 145.71L252.06 141.9L247.32 138.77L242.75 136.53L237.88 134.82L234.49 133.97L231.11 133.38L227.73 133.03L224.38 132.93L221.06 133.07L217.77 133.46L214.54 134.09L211.37 134.96L205.96 137.08L200.82 139.93L196.07 143.45L191.67 147.66L188.19 151.91L185.31 156.48L183.7 159.74L182.36 163.15L181.62 165.82L180.96 169.3L179.83 175.52L147.55 232.66L141.35 222.23L110.61 165.48L104.57 154.92L102.13 151.21L100.08 148.55L96.06 144.48L91.59 140.98L86.67 138.02L81.42 135.71L75.97 134.08L70.35 133.15L64.73 132.94L59.07 133.46L55.58 134.15L52.22 135.08L48.99 136.26L45.88 137.7L43.65 138.93L38.73 142.2L34.41 145.84L30.7 149.86L27.59 154.24L26.1 156.87L24.81 159.61L23.7 162.47L22.79 165.45L22.07 168.54L21.53 171.75L21.04 178.53L21.13 180.96L21.49 183.68L23 189.94L0.0400085 148.34L0 84.52L0.240021 72.62L0.580017 68.12L1.05002 64.59L2.37 58.59L4.17001 52.77L6.19 47.69L8.60001 42.75L11.39 37.95L14.57 33.29L19.26 27.44L24.35 22.16L29.88 17.37L35.76 13.15L40.87 10.11L46.2 7.47L51.72 5.22L57.43 3.38L63.36 1.92999L69.45 0.899994L75.69 0.270004L82.06 0.0599976L378.81 0L380.53 0.0200043L387.05 0.440002L393.56 1.39999L400.06 2.92L406.54 4.98L413.11 7.64999L419.3 10.79L425.11 14.4L430.53 18.47L435.48 22.92L440.06 27.83L444.27 33.18L448.11 38.98L451.44 45.09L454.17 51.43L455.49 55.22L456.59 59.1L457.49 63.04L458.19 67.07L458.82 74.96L459.03 87.03L458.96 365.35L458.78 368.63L458.26 372.33L457.38 376.46L456.15 381.02Z" fill="#3597F6"/>
<path d="M22.9991 189.94L27.5191 198.6L97.2691 326.24L103.839 338L110.259 348.99L111.969 351.63L113.849 354.1L115.879 356.39L118.069 358.5L121.599 361.3L125.819 363.98L130.149 366.15L134.569 367.82L139.099 368.97L144.079 369.65L149.189 369.75L154.399 369.25L159.739 368.17L163.489 367L167.109 365.47L170.679 363.52L174.049 361.26L177.319 358.61L180.329 355.7L183.119 352.48L185.579 349.07L187.639 345.52L189.319 341.73L190.649 337.66L191.579 333.47L192.099 329.19L192.209 324.91L191.899 320.7L191.169 316.62L190.039 312.53L188.599 308.45L186.839 304.37L184.769 300.31L147.549 232.66L179.829 175.52L180.259 180.15L180.929 184.36L181.849 188.16L183.019 191.54L186.709 199.57L192.129 209.72L213.029 247.58L250.059 314.57L264.839 341.72L268.749 348.24L273.339 354.43L275.839 357.16L278.799 359.79L282.099 362.19L285.629 364.29L289.479 366.16L293.419 367.68L297.479 368.85L301.469 369.61L305.459 369.95L308.499 369.9L311.659 369.58L315.109 368.98L319.129 368.04L322.979 366.82L326.669 365.2L330.309 363.12L333.729 360.7L337.049 357.82L340.089 354.66L342.869 351.18L345.289 347.51L346.809 344.62L348.129 341.39L349.239 337.81L350.139 333.89L350.699 330.21L350.929 326.6L350.829 323.08L350.399 319.64L349.569 315.65L348.499 311.86L347.209 308.26L345.679 304.86L340.369 294.61L332.679 280.57L326.209 268.82L309.119 237.86L308.839 236.4L308.339 235.24L307.609 234.15L307.129 232.96L307.399 231.72L338.749 175.45L338.959 179.37L339.339 182.88L339.909 185.97L340.659 188.65L342.119 192.49L343.959 196.57L349.499 207.11L351.319 210.43L371.869 247.98L374.379 252.52L382.049 266.49L387.949 277.71L388.469 278.73L388.699 278.9L388.959 278.81L389.019 278.74L436.279 189.78L437.579 187.83L438.589 185.75L443.089 177.54L455.879 153.67L456.929 151.52L457.399 150.03L457.789 149.56L458.109 150.09L458.349 151.63L458.629 157.54L458.509 166.14L458.419 170.66L458.409 364.28L458.269 367.78L457.849 371.73L456.149 381.02L454.579 386.19L452.699 391.17L450.509 395.96L447.999 400.58L444.969 405.31L441.579 409.83L437.839 414.13L433.729 418.23L429.349 422.02L424.769 425.41L419.999 428.39L415.049 430.97L413.479 431.68L405.449 434.85L397.719 437.17L393.659 438.02L389.349 438.6L384.579 438.93L379.109 439.03L74.7891 439.02L71.619 438.88L68.0991 438.48L59.9491 436.85L52.7491 434.69L49.3391 433.36L46.0591 431.85L39.0591 428.02L32.5791 423.7L26.6391 418.89L21.2291 413.59L16.119 407.5L11.5891 400.86L7.63907 393.69L4.27905 385.97L2.45908 380.44L1.15906 374.65L0.379059 368.6L0.119049 362.3L0.0390625 148.34L22.9991 189.94Z" fill="#234062"/>
</svg>
